<?xml version="1.0" standalone="no"?>
<!DOCTYPE svg PUBLIC "-//W3C//DTD SVG 1.1//EN" "http://www.w3.org/Graphics/SVG/1.1/DTD/svg11.dtd" >
<svg xmlns="http://www.w3.org/2000/svg" xmlns:xlink="http://www.w3.org/1999/xlink" version="1.1">
<metadata>
Created by FontForge 20170731 at Sun Feb 27 00:38:48 2011
 By Aleksey,,,
Copyright (c) 2010 Linotype GmbH, www.linotype.com. All rights reserved. This font software may not be reproduced, modified, disclosed or transferred without the express written approval of Linotype GmbH. Univers is a trademark of Linotype Corp. and may be registered in certain jurisdictions in the name of Linotype Corp. or its licensee Linotype GmbH. This typeface is original artwork of Nadine Chahine and Adrian Frutiger. The design may be protected in certain jurisdictions.
</metadata>
<defs>
<font id="UniversNextArabic-Regular" horiz-adv-x="490" >
  <font-face 
    font-family="Univers Next Arabic"
    font-weight="400"
    font-stretch="normal"
    units-per-em="1000"
    panose-1="2 11 5 3 3 2 2 2 2 3"
    ascent="800"
    descent="-200"
    x-height="505"
    cap-height="723"
    bbox="-173 -497 1288 1389"
    underline-thickness="50"
    underline-position="-150"
    unicode-range="U+000D-FEFC"
  />
<missing-glyph horiz-adv-x="379" 
d="M379 533v-533h-379v533h379zM343 37v459h-306v-459h306zM167 173l-1 13q0 50 15 71q8 10 15 18t13 14q24 24 30.5 36t6.5 29q0 27 -17 44.5t-39 17.5q-23 0 -40 -17t-22 -54l-36 6q6 51 33.5 76.5t65.5 25.5q40 0 66.5 -25.5t26.5 -71.5q0 -25 -9.5 -43.5t-36.5 -45.5
q-27 -24 -32 -40q-5 -18 -5 -51zM159 111q0 11 7.5 19t18.5 8q10 0 18 -8.5t8 -18.5q0 -11 -8 -19t-18 -8q-11 0 -18.5 7.5t-7.5 19.5z" />
    <glyph glyph-name="aLam.init_aAlifMadda.fina" unicode="&#xfedf;&#xfe82;" horiz-adv-x="686" arabic-form="isolated" 
d="M50 0v70h205v479h84v-479h183v653h84v-723h-556zM122 678q26 22 47 28.5t38 6.5q22 0 43 -6t42.5 -13.5t44 -13.5t46.5 -6q23 0 35 9.5t22 25.5l36 -22q-18 -33 -37 -48t-56 -15q-25 0 -48.5 6t-45.5 13.5t-43 13.5t-42 6q-13 0 -27 -4t-33 -15z" />
    <glyph glyph-name="aLam.medi_aAlifMadda.fina" unicode="&#xfee0;&#xfe82;" horiz-adv-x="701" arabic-form="final" 
d="M50 0v70h205v479h84v-479h118q41 0 53 18.5t12 60.5v574h84v-619q0 -9 7 -15.5t17.5 -10.5t22.5 -6t21 -2h27q20 0 30 -5.5t10 -26.5q0 -25 -9.5 -31.5t-30.5 -6.5h-19q-29 0 -51.5 9.5t-38.5 33.5q-12 -16 -38 -29.5t-78 -13.5h-426zM122 678q26 22 47 28.5t38 6.5
q22 0 43 -6t42.5 -13.5t44 -13.5t46.5 -6q23 0 35 9.5t22 25.5l36 -22q-18 -33 -37 -48t-56 -15q-25 0 -48.5 6t-45.5 13.5t-43 13.5t-42 6q-13 0 -27 -4t-33 -15z" />
    <glyph glyph-name="aLam.init_aAlifHamza.fina" unicode="&#xfedf;&#xfe84;" horiz-adv-x="686" arabic-form="isolated" 
d="M50 0v70h205v479h84v-479h183v653h84v-723h-556zM400 631h-204v45h46q-8 25 -10.5 38.5t-2.5 25.5q0 39 28.5 65t82.5 26q8 0 22 -0.5t22 -1.5v-44q-5 1 -15 1.5t-14 0.5q-37 0 -56 -12t-19 -44q0 -8 2.5 -21.5t10.5 -33.5h107v-45z" />
    <glyph glyph-name="aLam.medi_aAlifHamza.fina" unicode="&#xfee0;&#xfe84;" horiz-adv-x="701" arabic-form="final" 
d="M50 0v70h205v479h84v-479h118q41 0 53 18.5t12 60.5v574h84v-619q0 -9 7 -15.5t17.5 -10.5t22.5 -6t21 -2h27q20 0 30 -5.5t10 -26.5q0 -25 -9.5 -31.5t-30.5 -6.5h-19q-29 0 -51.5 9.5t-38.5 33.5q-12 -16 -38 -29.5t-78 -13.5h-426zM400 631h-204v45h46
q-8 25 -10.5 38.5t-2.5 25.5q0 39 28.5 65t82.5 26q8 0 22 -0.5t22 -1.5v-44q-5 1 -15 1.5t-14 0.5q-37 0 -56 -12t-19 -44q0 -8 2.5 -21.5t10.5 -33.5h107v-45z" />
    <glyph glyph-name="aLam.init_aAlifHamzabelow.fina" unicode="&#xfedf;&#xfe88;" horiz-adv-x="686" arabic-form="isolated" 
d="M50 0v70h205v479h84v-479h183v653h84v-723h-556zM399 -271h-204v45h46q-8 25 -10.5 38.5t-2.5 25.5q0 39 28.5 65t82.5 26q8 0 22 -0.5t22 -1.5v-44q-5 1 -15 1.5t-14 0.5q-37 0 -56 -12t-19 -44q0 -8 2.5 -21t10.5 -34h107v-45z" />
    <glyph glyph-name="aLam.medi_aAlifHamzabelow.fina" unicode="&#xfee0;&#xfe88;" horiz-adv-x="701" arabic-form="final" 
d="M50 0v70h205v479h84v-479h118q41 0 53 18.5t12 60.5v574h84v-619q0 -9 7 -15.5t17.5 -10.5t22.5 -6t21 -2h27q20 0 30 -5.5t10 -26.5q0 -25 -9.5 -31.5t-30.5 -6.5h-19q-29 0 -51.5 9.5t-38.5 33.5q-12 -16 -38 -29.5t-78 -13.5h-426zM399 -271h-204v45h46
q-8 25 -10.5 38.5t-2.5 25.5q0 39 28.5 65t82.5 26q8 0 22 -0.5t22 -1.5v-44q-5 1 -15 1.5t-14 0.5q-37 0 -56 -12t-19 -44q0 -8 2.5 -21t10.5 -34h107v-45z" />
    <glyph glyph-name="aLam.init_aAlif.fina" unicode="&#xfedf;&#xfe8e;" horiz-adv-x="686" arabic-form="isolated" 
d="M50 0v70h205v479h84v-479h183v653h84v-723h-556z" />
    <glyph glyph-name="aLam.medi_aAlif.fina" unicode="&#xfee0;&#xfe8e;" horiz-adv-x="701" arabic-form="final" 
d="M50 0v70h205v479h84v-479h118q41 0 53 18.5t12 60.5v574h84v-619q0 -9 7 -15.5t17.5 -10.5t22.5 -6t21 -2h27q20 0 30 -5.5t10 -26.5q0 -25 -9.5 -31.5t-30.5 -6.5h-19q-29 0 -51.5 9.5t-38.5 33.5q-12 -16 -38 -29.5t-78 -13.5h-426z" />
    <glyph glyph-name="aLam.init_aAlifWasla.fina" unicode="&#xfedf;&#xfb51;" horiz-adv-x="686" 
d="M50 0v70h205v479h84v-479h183v653h84v-723h-556zM181 631v33h38v102h36v-10q14 2 37 6t40 4q45 0 67.5 -19t22.5 -51v-65h-241zM329 734q-17 0 -35.5 -2.5t-38.5 -6.5v-61h130v12q0 32 -13 45t-43 13z" />
    <glyph glyph-name="aLam.medi_aAlifWasla.fina" unicode="&#xfee0;&#xfb51;" horiz-adv-x="701" 
d="M50 0v70h205v479h84v-479h118q41 0 53 18.5t12 60.5v574h84v-619q0 -9 7 -15.5t17.5 -10.5t22.5 -6t21 -2h27q20 0 30 -5.5t10 -26.5q0 -25 -9.5 -31.5t-30.5 -6.5h-19q-29 0 -51.5 9.5t-38.5 33.5q-12 -16 -38 -29.5t-78 -13.5h-426zM181 631v33h38v102h36v-10
q14 2 37 6t40 4q45 0 67.5 -19t22.5 -51v-65h-241zM329 734q-17 0 -35.5 -2.5t-38.5 -6.5v-61h130v12q0 32 -13 45t-43 13z" />
    <glyph glyph-name="aHamza" unicode="&#x621;" horiz-adv-x="487" arabic-form="isolated" 
d="M427 0h-367v64h88q-9 27 -15 46t-9 33.5t-4 25t-1 19.5q0 71 51 113t148 42q7 0 17.5 -0.5t21.5 -1t21.5 -1t18.5 -1.5v-62q-4 0 -11.5 0.5l-15 1t-14.5 1t-11 0.5q-33 0 -60.5 -4t-47 -15.5t-30.5 -31.5t-11 -51q0 -14 6 -39.5t27 -74.5h198v-64z" />
    <glyph glyph-name="aAlifMadda" unicode="&#x622;" horiz-adv-x="254" arabic-form="isolated" 
d="M169 723v-723h-84v723h84zM-45 852q26 22 47 28.5t38 6.5q22 0 43 -6t42.5 -13.5t44 -13.5t46.5 -6q23 0 35 9.5t22 25.5l36 -22q-18 -33 -37 -48t-56 -15q-25 0 -48.5 6t-45.5 13.5t-43 13.5t-42 6q-13 0 -27 -4t-33 -15z" />
    <glyph glyph-name="aAlifHamza" unicode="&#x623;" horiz-adv-x="254" arabic-form="isolated" 
d="M169 723v-723h-84v723h84zM229 801h-204v45h46q-8 25 -10.5 38.5t-2.5 25.5q0 39 28.5 65t82.5 26q8 0 22 -0.5t22 -1.5v-44q-5 1 -15 1.5t-14 0.5q-37 0 -56 -12t-19 -44q0 -8 2.5 -21.5t10.5 -33.5h107v-45z" />
    <glyph glyph-name="aWawHamza" unicode="&#x624;" horiz-adv-x="521" arabic-form="isolated" 
d="M249 -108q60 0 86.5 25.5t29.5 82.5h-59q-79 0 -127 21t-74.5 53t-35.5 69.5t-9 70.5q0 49 15.5 89t48 69t83.5 45t123 16q26 0 58.5 -3t62.5 -5v-395q0 -48 -9 -86t-31.5 -64.5t-62 -40.5t-99.5 -14h-122v67h122zM143 214q0 -40 12 -67.5t34.5 -44.5t53.5 -24.5t70 -7.5
h53v295q-8 1 -17 1.5t-18 0.5q-29 0 -62 -3.5t-61 -19t-46.5 -46t-18.5 -84.5zM398 506h-237v49h54q-11 31 -13.5 47t-2.5 31q0 45 33 73.5t96 28.5q9 0 25.5 -0.5t25.5 -1.5v-48q-5 1 -16.5 1.5t-16.5 0.5q-43 0 -65 -11.5t-22 -49.5q0 -12 3 -28t14 -43h122v-49z" />
    <glyph glyph-name="aAlifHamzabelow" unicode="&#x625;" horiz-adv-x="254" arabic-form="isolated" 
d="M169 723v-723h-84v723h84zM228 -271h-204v45h46q-8 25 -10.5 38.5t-2.5 25.5q0 39 28.5 65t82.5 26q8 0 22 -0.5t22 -1.5v-44q-5 1 -15 1.5t-14 0.5q-37 0 -56 -12t-19 -44q0 -8 2.5 -21t10.5 -34h107v-45z" />
    <glyph glyph-name="aYehHamza" unicode="&#x626;" horiz-adv-x="795" arabic-form="isolated" 
d="M665 2q0 24 -19.5 41t-49 32.5t-63.5 31.5t-63.5 37.5t-49 51.5t-19.5 74q0 28 12.5 57t41 53t74 39t112.5 15q9 0 22.5 -0.5t27.5 -1.5t28 -1.5t23 -1.5v-67q-5 0 -14 1t-19.5 1.5t-19.5 1t-14 0.5q-97 0 -144 -27t-47 -75q0 -28 20 -49t49.5 -38.5t64 -33.5t64 -34
t49.5 -40t20 -52q0 -39 -21.5 -73.5t-64.5 -61t-106 -42t-147 -15.5q-174 0 -263 55.5t-89 184.5v180h84v-163q0 -48 15 -83.5t47.5 -58.5t84 -34t123.5 -11q60 0 107 9.5t79 24.5t48.5 34t16.5 39zM245 307h-237v49h54q-11 31 -13.5 47t-2.5 31q0 45 33 73.5t96 28.5
q9 0 25.5 -0.5t25.5 -1.5v-48q-5 1 -16.5 1.5t-16.5 0.5q-43 0 -65 -11.5t-22 -49.5q0 -12 3 -28t14 -43h122v-49z" />
    <glyph glyph-name="aAlif" unicode="&#x627;" horiz-adv-x="254" arabic-form="isolated" 
d="M169 723v-723h-84v723h84z" />
    <glyph glyph-name="aBeh" unicode="&#x628;" horiz-adv-x="938" arabic-form="isolated" 
d="M784 70v355h84v-425h-665q-64 0 -103.5 31.5t-39.5 106.5v197h85v-185q0 -34 13.5 -57t57.5 -23h568zM423 -126q0 22 15.5 37.5t37.5 15.5t37.5 -15.5t15.5 -37.5t-15.5 -37.5t-37.5 -15.5t-37.5 15.5t-15.5 37.5z" />
    <glyph glyph-name="aTehMarbuta" unicode="&#x629;" horiz-adv-x="537" arabic-form="isolated" 
d="M271 65q32 0 55.5 11.5t38.5 31.5t22.5 45.5t7.5 54.5q0 33 -8.5 61.5t-24.5 49.5t-39 33t-52 12t-52 -12t-39 -33t-24.5 -49.5t-8.5 -61.5q0 -29 7.5 -54.5t22.5 -45.5t38.5 -31.5t55.5 -11.5zM271 -5q-57 0 -97 20t-65.5 51t-37 69.5t-11.5 74.5q0 44 13.5 84.5
t40 71.5t66 49.5t91.5 18.5t91.5 -18.5t66 -49.5t40 -71.5t13.5 -84.5q0 -36 -11.5 -74.5t-37 -69.5t-65.5 -51t-97 -20zM150 558q0 22 15.5 37.5t37.5 15.5t37.5 -15.5t15.5 -37.5t-15.5 -37.5t-37.5 -15.5t-37.5 15.5t-15.5 37.5zM280 558q0 22 15.5 37.5t37.5 15.5
t37.5 -15.5t15.5 -37.5t-15.5 -37.5t-37.5 -15.5t-37.5 15.5t-15.5 37.5z" />
    <glyph glyph-name="aTeh" unicode="&#x62a;" horiz-adv-x="938" arabic-form="isolated" 
d="M784 70v355h84v-425h-665q-64 0 -103.5 31.5t-39.5 106.5v197h85v-185q0 -34 13.5 -57t57.5 -23h568zM352 499q0 22 15.5 37.5t37.5 15.5t37.5 -15.5t15.5 -37.5t-15.5 -37.5t-37.5 -15.5t-37.5 15.5t-15.5 37.5zM482 499q0 22 15.5 37.5t37.5 15.5t37.5 -15.5
t15.5 -37.5t-15.5 -37.5t-37.5 -15.5t-37.5 15.5t-15.5 37.5z" />
    <glyph glyph-name="aTheh" unicode="&#x62b;" horiz-adv-x="938" arabic-form="isolated" 
d="M784 70v355h84v-425h-665q-64 0 -103.5 31.5t-39.5 106.5v197h85v-185q0 -34 13.5 -57t57.5 -23h568zM349 499q0 22 15.5 37.5t37.5 15.5t37.5 -15.5t15.5 -37.5t-15.5 -37.5t-37.5 -15.5t-37.5 15.5t-15.5 37.5zM479 499q0 22 15.5 37.5t37.5 15.5t37.5 -15.5
t15.5 -37.5t-15.5 -37.5t-37.5 -15.5t-37.5 15.5t-15.5 37.5zM416 619q0 22 15.5 37.5t37.5 15.5t37.5 -15.5t15.5 -37.5t-15.5 -37.5t-37.5 -15.5t-37.5 15.5t-15.5 37.5z" />
    <glyph glyph-name="aJim" unicode="&#x62c;" horiz-adv-x="570" arabic-form="isolated" 
d="M429 70q-16 25 -22.5 57t-10.5 65t-9 64t-18.5 55.5t-38 39.5t-67.5 15q-39 0 -67 -6.5t-44 -11.5v63q18 8 49.5 15.5t73.5 7.5q65 0 103.5 -20.5t60 -53t29.5 -73t13.5 -81t12.5 -76.5t26 -60v-70h-292q-48 0 -77 -22t-29 -64q0 -26 11 -43.5t30 -29t44.5 -16.5t54.5 -5
q19 0 33.5 0.5t28 1t27.5 2.5t31 5v-66q-37 -9 -63.5 -11t-49.5 -2q-119 0 -174 42.5t-55 120.5q0 72 49.5 114.5t140.5 42.5h199zM226.002 -91.4033q0 19.8008 13.9502 33.751q13.9512 13.9502 33.751 13.9502q19.8008 0 33.751 -13.9502t13.9502 -33.751
q0 -19.7998 -13.9502 -33.751q-13.9502 -13.9502 -33.751 -13.9502q-19.7998 0 -33.751 13.9502q-13.9502 13.9512 -13.9502 33.751z" />
    <glyph glyph-name="aHah" unicode="&#x62d;" horiz-adv-x="570" arabic-form="isolated" 
d="M429 70q-16 25 -22.5 57t-10.5 65t-9 64t-18.5 55.5t-38 39.5t-67.5 15q-39 0 -67 -6.5t-44 -11.5v63q18 8 49.5 15.5t73.5 7.5q65 0 103.5 -20.5t60 -53t29.5 -73t13.5 -81t12.5 -76.5t26 -60v-70h-292q-48 0 -77 -22t-29 -64q0 -26 11 -43.5t30 -29t44.5 -16.5t54.5 -5
q19 0 33.5 0.5t28 1t27.5 2.5t31 5v-66q-37 -9 -63.5 -11t-49.5 -2q-119 0 -174 42.5t-55 120.5q0 72 49.5 114.5t140.5 42.5h199z" />
    <glyph glyph-name="aKhah" unicode="&#x62e;" horiz-adv-x="570" arabic-form="isolated" 
d="M429 70q-16 25 -22.5 57t-10.5 65t-9 64t-18.5 55.5t-38 39.5t-67.5 15q-39 0 -67 -6.5t-44 -11.5v63q18 8 49.5 15.5t73.5 7.5q65 0 103.5 -20.5t60 -53t29.5 -73t13.5 -81t12.5 -76.5t26 -60v-70h-292q-48 0 -77 -22t-29 -64q0 -26 11 -43.5t30 -29t44.5 -16.5t54.5 -5
q19 0 33.5 0.5t28 1t27.5 2.5t31 5v-66q-37 -9 -63.5 -11t-49.5 -2q-119 0 -174 42.5t-55 120.5q0 72 49.5 114.5t140.5 42.5h199zM222 558q0 22 15.5 37.5t37.5 15.5t37.5 -15.5t15.5 -37.5t-15.5 -37.5t-37.5 -15.5t-37.5 15.5t-15.5 37.5z" />
    <glyph glyph-name="aDal" unicode="&#x62f;" horiz-adv-x="518" arabic-form="isolated" 
d="M102 358v67h86q85 0 139 -16.5t84 -46.5t41 -72t11 -94v-196h-423v70h338v109q0 39 -5 72t-24.5 56.5t-58.5 37t-108 13.5h-80z" />
    <glyph glyph-name="aDhal" unicode="&#x630;" horiz-adv-x="518" arabic-form="isolated" 
d="M102 358v67h86q85 0 139 -16.5t84 -46.5t41 -72t11 -94v-196h-423v70h338v109q0 39 -5 72t-24.5 56.5t-58.5 37t-108 13.5h-80zM154 558q0 22 15.5 37.5t37.5 15.5t37.5 -15.5t15.5 -37.5t-15.5 -37.5t-37.5 -15.5t-37.5 15.5t-15.5 37.5z" />
    <glyph glyph-name="aReh" unicode="&#x631;" horiz-adv-x="292" arabic-form="isolated" 
d="M137 425h85v-407q0 -42 -8 -77.5t-28.5 -61t-56.5 -40t-91 -14.5h-18v70h11q61 0 83.5 29t22.5 93v408z" />
    <glyph glyph-name="aZeh" unicode="&#x632;" horiz-adv-x="292" arabic-form="isolated" 
d="M137 425h85v-407q0 -42 -8 -77.5t-28.5 -61t-56.5 -40t-91 -14.5h-18v70h11q61 0 83.5 29t22.5 93v408zM129 558q0 22 15.5 37.5t37.5 15.5t37.5 -15.5t15.5 -37.5t-15.5 -37.5t-37.5 -15.5t-37.5 15.5t-15.5 37.5z" />
    <glyph glyph-name="aSin" unicode="&#x633;" horiz-adv-x="1150" arabic-form="isolated" 
d="M559 0q-16 -93 -77.5 -134t-172.5 -41q-68 0 -115.5 16t-77 46.5t-43 75t-13.5 102.5v180h84v-163q0 -48 8 -83.5t27 -58.5t51.5 -34t80.5 -11q50 0 83 9.5t52 30.5t26.5 55t7.5 84v261h84v-265h178v265h84v-265h170v355h84v-425h-521z" />
    <glyph glyph-name="aShin" unicode="&#x634;" horiz-adv-x="1150" arabic-form="isolated" 
d="M559 0q-16 -93 -77.5 -134t-172.5 -41q-68 0 -115.5 16t-77 46.5t-43 75t-13.5 102.5v180h84v-163q0 -48 8 -83.5t27 -58.5t51.5 -34t80.5 -11q50 0 83 9.5t52 30.5t26.5 55t7.5 84v261h84v-265h178v265h84v-265h170v355h84v-425h-521zM666 558q0 22 15.5 37.5t37.5 15.5
t37.5 -15.5t15.5 -37.5t-15.5 -37.5t-37.5 -15.5t-37.5 15.5t-15.5 37.5zM796 558q0 22 15.5 37.5t37.5 15.5t37.5 -15.5t15.5 -37.5t-15.5 -37.5t-37.5 -15.5t-37.5 15.5t-15.5 37.5zM733 678q0 22 15.5 37.5t37.5 15.5t37.5 -15.5t15.5 -37.5t-15.5 -37.5t-37.5 -15.5
t-37.5 15.5t-15.5 37.5z" />
    <glyph glyph-name="aSad" unicode="&#x635;" horiz-adv-x="1159" arabic-form="isolated" 
d="M60 245h84v-163q0 -48 8 -83.5t27 -58.5t51.5 -34t80.5 -11q50 0 83 9.5t52 30.5t26.5 55t7.5 84v351h84v-36q22 5 54.5 11.5t68.5 12t73 9t70 3.5q77 0 129 -17t83 -48.5t44 -76.5t13 -100v-183h-540q-16 -93 -77.5 -134t-172.5 -41q-68 0 -115.5 16t-77 46.5t-43 75
t-13.5 102.5v180zM817 358q-57 0 -120.5 -8.5t-132.5 -23.5v-256h450v86q0 56 -11 94.5t-35 62.5t-61.5 34.5t-89.5 10.5z" />
    <glyph glyph-name="aDad" unicode="&#x636;" horiz-adv-x="1159" arabic-form="isolated" 
d="M60 245h84v-163q0 -48 8 -83.5t27 -58.5t51.5 -34t80.5 -11q50 0 83 9.5t52 30.5t26.5 55t7.5 84v351h84v-36q22 5 54.5 11.5t68.5 12t73 9t70 3.5q77 0 129 -17t83 -48.5t44 -76.5t13 -100v-183h-540q-16 -93 -77.5 -134t-172.5 -41q-68 0 -115.5 16t-77 46.5t-43 75
t-13.5 102.5v180zM817 358q-57 0 -120.5 -8.5t-132.5 -23.5v-256h450v86q0 56 -11 94.5t-35 62.5t-61.5 34.5t-89.5 10.5zM738 558q0 22 15.5 37.5t37.5 15.5t37.5 -15.5t15.5 -37.5t-15.5 -37.5t-37.5 -15.5t-37.5 15.5t-15.5 37.5z" />
    <glyph glyph-name="aTah" unicode="&#x637;" horiz-adv-x="826" arabic-form="isolated" 
d="M231 389q22 5 54.5 11.5t68.5 12t73 9t70 3.5q77 0 129 -17t83 -48.5t44 -76.5t13 -100v-183h-716v70h97v653h84v-334zM484 358q-57 0 -120.5 -8.5t-132.5 -23.5v-256h450v86q0 56 -11 94.5t-35 62.5t-61.5 34.5t-89.5 10.5z" />
    <glyph glyph-name="aZah" unicode="&#x638;" horiz-adv-x="826" arabic-form="isolated" 
d="M231 389q22 5 54.5 11.5t68.5 12t73 9t70 3.5q77 0 129 -17t83 -48.5t44 -76.5t13 -100v-183h-716v70h97v653h84v-334zM484 358q-57 0 -120.5 -8.5t-132.5 -23.5v-256h450v86q0 56 -11 94.5t-35 62.5t-61.5 34.5t-89.5 10.5zM420 558q0 22 15.5 37.5t37.5 15.5
t37.5 -15.5t15.5 -37.5t-15.5 -37.5t-37.5 -15.5t-37.5 15.5t-15.5 37.5z" />
    <glyph glyph-name="aAyn" unicode="&#x639;" horiz-adv-x="591" arabic-form="isolated" 
d="M228 0q-48 0 -77 -22t-29 -64q0 -26 11 -43.5t30 -29t44.5 -16.5t54.5 -5q19 0 33.5 0.5t28 1t27.5 2.5t31 5v-66q-37 -9 -63.5 -11t-49.5 -2q-119 0 -174 42.5t-55 120.5q0 67 43 108.5t121 47.5q-12 29 -25.5 73t-13.5 92q0 41 14 77.5t43 63.5t74.5 43t108.5 16
q9 0 22.5 -0.5t27.5 -1.5t28 -1.5t23 -1.5v-67q-5 0 -14 1t-19.5 1.5t-19.5 1t-14 0.5q-86 0 -136.5 -32.5t-50.5 -111.5q0 -21 4 -42.5t10.5 -41.5t14 -37.5t13.5 -30.5h267v-70h-333z" />
    <glyph glyph-name="aGhayn" unicode="&#x63a;" horiz-adv-x="591" arabic-form="isolated" 
d="M228 0q-48 0 -77 -22t-29 -64q0 -26 11 -43.5t30 -29t44.5 -16.5t54.5 -5q19 0 33.5 0.5t28 1t27.5 2.5t31 5v-66q-37 -9 -63.5 -11t-49.5 -2q-119 0 -174 42.5t-55 120.5q0 67 43 108.5t121 47.5q-12 29 -25.5 73t-13.5 92q0 41 14 77.5t43 63.5t74.5 43t108.5 16
q9 0 22.5 -0.5t27.5 -1.5t28 -1.5t23 -1.5v-67q-5 0 -14 1t-19.5 1.5t-19.5 1t-14 0.5q-86 0 -136.5 -32.5t-50.5 -111.5q0 -21 4 -42.5t10.5 -41.5t14 -37.5t13.5 -30.5h267v-70h-333zM323 557q0 22 15.5 37.5t37.5 15.5t37.5 -15.5t15.5 -37.5t-15.5 -37.5t-37.5 -15.5
t-37.5 15.5t-15.5 37.5z" />
    <glyph glyph-name="aFeh" unicode="&#x641;" horiz-adv-x="996" arabic-form="isolated" 
d="M565 70q-17 41 -25.5 81t-8.5 74q0 45 14.5 83t44.5 65.5t76 43.5t109 16q46 0 82 -3t69 -5v-425h-723q-64 0 -103.5 31.5t-39.5 106.5v197h85v-185q0 -34 13.5 -57t57.5 -23h349zM842 70v293q-9 1 -19 2t-18 1q-92 0 -139.5 -31.5t-47.5 -108.5q0 -17 5.5 -54t32.5 -102
h186zM701 558q0 22 15.5 37.5t37.5 15.5t37.5 -15.5t15.5 -37.5t-15.5 -37.5t-37.5 -15.5t-37.5 15.5t-15.5 37.5z" />
    <glyph glyph-name="aQaf" unicode="&#x642;" horiz-adv-x="825" arabic-form="isolated" 
d="M414 -105q76 0 126 7t79 20.5t40.5 33t11.5 44.5h-61q-79 0 -127 21t-74.5 53t-35.5 69.5t-9 70.5q0 49 15 89t45.5 69t77 45t109.5 16q44 0 80 -3t64 -5v-408q0 -49 -18 -85t-59 -60t-106.5 -35.5t-159.5 -11.5q-174 0 -263 55.5t-89 184.5v180h84v-163q0 -48 15 -83.5
t47.5 -58.5t84 -34t123.5 -11zM447 210q0 -23 6 -47.5t24 -45t51.5 -34t88.5 -13.5h54v295q-8 1 -17 1.5t-19 0.5q-45 0 -80 -7t-59 -24.5t-36.5 -48t-12.5 -77.5zM468 558q0 22 15.5 37.5t37.5 15.5t37.5 -15.5t15.5 -37.5t-15.5 -37.5t-37.5 -15.5t-37.5 15.5t-15.5 37.5z
M598 558q0 22 15.5 37.5t37.5 15.5t37.5 -15.5t15.5 -37.5t-15.5 -37.5t-37.5 -15.5t-37.5 15.5t-15.5 37.5z" />
    <glyph glyph-name="aKaf" unicode="&#x643;" horiz-adv-x="948" arabic-form="isolated" 
d="M784 70v653h84v-723h-665q-64 0 -103.5 31.5t-39.5 106.5v197h85v-185q0 -34 13.5 -57t57.5 -23h568zM563 335h-204v42h47q-9 26 -11.5 40t-2.5 27q0 39 28.5 63.5t82.5 24.5q8 0 22 -0.5t22 -1.5v-41q-5 1 -15 1.5t-14 0.5q-37 0 -56 -10.5t-19 -42.5q0 -11 2.5 -24.5
t12.5 -36.5h105v-42z" />
    <glyph glyph-name="aLam" unicode="&#x644;" horiz-adv-x="644" arabic-form="isolated" 
d="M60 245h84v-163q0 -48 8 -83.5t27 -58.5t51.5 -34t80.5 -11q50 0 83 9.5t52 30.5t26.5 55t7.5 84v649h84v-650q0 -131 -62.5 -189.5t-192.5 -58.5q-68 0 -115.5 16t-77 46.5t-43 75t-13.5 102.5v180z" />
    <glyph glyph-name="aMim" unicode="&#x645;" horiz-adv-x="595" arabic-form="isolated" 
d="M172 0q-13 0 -22 -2.5t-15 -10t-8.5 -22.5t-2.5 -40v-175h-84v245q0 25 7.5 40t18.5 22.5t24 10t25 2.5h46q-12 28 -25 70.5t-13 93.5q0 41 14 77.5t41 63.5t67 43t91 16q57 0 96 -19t63 -49.5t34.5 -68t10.5 -73.5q0 -44 -13 -84.5t-38 -71.5t-62.5 -49.5t-86.5 -18.5
h-168zM331 70q32 0 55 13.5t38 35t22 49t7 54.5q0 64 -30.5 104.5t-89.5 40.5q-23 0 -45.5 -7.5t-39.5 -24t-27.5 -42.5t-10.5 -62q0 -26 4.5 -49.5t11 -44.5t13.5 -38t13 -29h79z" />
    <glyph glyph-name="aNun" unicode="&#x646;" horiz-adv-x="634" arabic-form="isolated" 
d="M60 245h84v-163q0 -48 8 -83.5t27 -58.5t51.5 -34t80.5 -11q50 0 83 9.5t52 30.5t26.5 55t7.5 84v261h84v-262q0 -131 -62.5 -189.5t-192.5 -58.5q-68 0 -115.5 16t-77 46.5t-43 75t-13.5 102.5v180zM259 427q0 22 15.5 37.5t37.5 15.5t37.5 -15.5t15.5 -37.5
t-15.5 -37.5t-37.5 -15.5t-37.5 15.5t-15.5 37.5z" />
    <glyph glyph-name="aWaw" unicode="&#x648;" horiz-adv-x="521" arabic-form="isolated" 
d="M249 -108q60 0 86.5 25.5t29.5 82.5h-59q-79 0 -127 21t-74.5 53t-35.5 69.5t-9 70.5q0 49 15.5 89t48 69t83.5 45t123 16q26 0 58.5 -3t62.5 -5v-395q0 -48 -9 -86t-31.5 -64.5t-62 -40.5t-99.5 -14h-122v67h122zM143 214q0 -40 12 -67.5t34.5 -44.5t53.5 -24.5t70 -7.5
h53v295q-8 1 -17 1.5t-18 0.5q-29 0 -62 -3.5t-61 -19t-46.5 -46t-18.5 -84.5z" />
    <glyph glyph-name="aAlifMaksura" unicode="&#x649;" horiz-adv-x="795" arabic-form="isolated" 
d="M665 2q0 24 -19.5 41t-49 32.5t-63.5 31.5t-63.5 37.5t-49 51.5t-19.5 74q0 28 12.5 57t41 53t74 39t112.5 15q9 0 22.5 -0.5t27.5 -1.5t28 -1.5t23 -1.5v-67q-5 0 -14 1t-19.5 1.5t-19.5 1t-14 0.5q-97 0 -144 -27t-47 -75q0 -28 20 -49t49.5 -38.5t64 -33.5t64 -34
t49.5 -40t20 -52q0 -39 -21.5 -73.5t-64.5 -61t-106 -42t-147 -15.5q-174 0 -263 55.5t-89 184.5v180h84v-163q0 -48 15 -83.5t47.5 -58.5t84 -34t123.5 -11q60 0 107 9.5t79 24.5t48.5 34t16.5 39z" />
    <glyph glyph-name="aYeh" unicode="&#x64a;" horiz-adv-x="795" arabic-form="isolated" 
d="M665 77q0 24 -19.5 41t-49 32.5t-63.5 31.5t-63.5 37.5t-49 51.5t-19.5 74q0 28 12.5 57t41 53t74 39t112.5 15q9 0 22.5 -0.5t27.5 -1.5t28 -1.5t23 -1.5v-67q-5 0 -14 1t-19.5 1.5t-19.5 1t-14 0.5q-97 0 -144 -27t-47 -75q0 -28 20 -49t49.5 -38.5t64 -33.5t64 -34
t49.5 -40t20 -52q0 -39 -21.5 -73.5t-64.5 -61t-106 -42t-147 -15.5q-174 0 -263 55.5t-89 184.5v180h84v-163q0 -48 15 -83.5t47.5 -58.5t84 -34t123.5 -11q60 0 107 9.5t79 24.5t48.5 34t16.5 39zM290 -224q0 22 15.5 37.5t37.5 15.5t37.5 -15.5t15.5 -37.5t-15.5 -37.5
t-37.5 -15.5t-37.5 15.5t-15.5 37.5zM420 -224q0 22 15.5 37.5t37.5 15.5t37.5 -15.5t15.5 -37.5t-15.5 -37.5t-37.5 -15.5t-37.5 15.5t-15.5 37.5z" />
    <glyph glyph-name="aAlifWasla" unicode="&#x671;" horiz-adv-x="254" arabic-form="isolated" 
d="M169 723v-723h-84v723h84zM6 782v33h38v102h36v-10q14 2 37 6t40 4q45 0 67.5 -19t22.5 -51v-65h-241zM154 885q-17 0 -35.5 -2.5t-38.5 -6.5v-61h130v12q0 32 -13 45t-43 13z" />
    <glyph glyph-name="aTteh" unicode="&#x679;" horiz-adv-x="938" arabic-form="isolated" 
d="M784 70v355h84v-425h-665q-64 0 -103.5 31.5t-39.5 106.5v197h85v-185q0 -34 13.5 -57t57.5 -23h568zM354 445v33h38v186h36v-94q13 2 37 6t40 4q45 0 67.5 -19t22.5 -51v-65h-241zM502 548q-17 0 -35.5 -2.5t-38.5 -6.5v-61h130v12q0 32 -13 45t-43 13z" />
    <glyph glyph-name="aPeh" unicode="&#x67e;" horiz-adv-x="938" arabic-form="isolated" 
d="M784 70v355h84v-425h-665q-64 0 -103.5 31.5t-39.5 106.5v197h85v-185q0 -34 13.5 -57t57.5 -23h568zM587 -126q0 -22 -15.5 -37.5t-37.5 -15.5t-37.5 15.5t-15.5 37.5t15.5 37.5t37.5 15.5t37.5 -15.5t15.5 -37.5zM457 -126q0 -22 -15.5 -37.5t-37.5 -15.5t-37.5 15.5
t-15.5 37.5t15.5 37.5t37.5 15.5t37.5 -15.5t15.5 -37.5zM520 -246q0 -22 -15.5 -37.5t-37.5 -15.5t-37.5 15.5t-15.5 37.5t15.5 37.5t37.5 15.5t37.5 -15.5t15.5 -37.5z" />
    <glyph glyph-name="aTcheh" unicode="&#x686;" horiz-adv-x="570" arabic-form="isolated" 
d="M429 70q-16 25 -22.5 57t-10.5 65t-9 64t-18.5 55.5t-38 39.5t-67.5 15q-39 0 -67 -6.5t-44 -11.5v63q18 8 49.5 15.5t73.5 7.5q65 0 103.5 -20.5t60 -53t29.5 -73t13.5 -81t12.5 -76.5t26 -60v-70h-292q-48 0 -77 -22t-29 -64q0 -26 12 -43.5t32.5 -29t47 -16.5t55.5 -5
v-70q-119 0 -174 42.5t-55 120.5q0 72 49.5 114.5t140.5 42.5h199zM474 -84q0 -20 -14 -34t-34 -14t-33.5 14t-13.5 34t13.5 33.5t33.5 13.5t34 -13.5t14 -33.5zM357 -84q0 -20 -14 -34t-34 -14t-33.5 14t-13.5 34t13.5 33.5t33.5 13.5t34 -13.5t14 -33.5zM414 -192
q0 -20 -14 -34t-34 -14t-34 14t-14 34t14 33.5t34 13.5t34 -13.5t14 -33.5z" />
    <glyph glyph-name="aDdal" unicode="&#x688;" horiz-adv-x="518" arabic-form="isolated" 
d="M102 358v67h86q85 0 139 -16.5t84 -46.5t41 -72t11 -94v-196h-423v70h338v109q0 39 -5 72t-24.5 56.5t-58.5 37t-108 13.5h-80zM113 537v33h38v186h36v-94q13 2 37 6t40 4q45 0 67.5 -19t22.5 -51v-65h-241zM261 640q-17 0 -35.5 -2.5t-38.5 -6.5v-61h130v12q0 32 -13 45
t-43 13z" />
    <glyph glyph-name="aRreh" unicode="&#x691;" horiz-adv-x="292" arabic-form="isolated" 
d="M137 425h85v-407q0 -42 -8 -77.5t-28.5 -61t-56.5 -40t-91 -14.5h-18v70h11q61 0 83.5 29t22.5 93v408zM53 504v33h38v186h36v-94q13 2 37 6t40 4q45 0 67.5 -19t22.5 -51v-65h-241zM201 607q-17 0 -35.5 -2.5t-38.5 -6.5v-61h130v12q0 32 -13 45t-43 13z" />
    <glyph glyph-name="aJeh" unicode="&#x698;" horiz-adv-x="292" arabic-form="isolated" 
d="M137 425h85v-407q0 -42 -8 -77.5t-28.5 -61t-56.5 -40t-91 -14.5h-18v70h11q61 0 83.5 29t22.5 93v408zM60 558q0 22 15.5 37.5t37.5 15.5t37.5 -15.5t15.5 -37.5t-15.5 -37.5t-37.5 -15.5t-37.5 15.5t-15.5 37.5zM190 558q0 22 15.5 37.5t37.5 15.5t37.5 -15.5
t15.5 -37.5t-15.5 -37.5t-37.5 -15.5t-37.5 15.5t-15.5 37.5zM127 678q0 22 15.5 37.5t37.5 15.5t37.5 -15.5t15.5 -37.5t-15.5 -37.5t-37.5 -15.5t-37.5 15.5t-15.5 37.5z" />
    <glyph glyph-name="aVeh" unicode="&#x6a4;" horiz-adv-x="996" arabic-form="isolated" 
d="M565 70q-17 41 -25.5 81t-8.5 74q0 45 14.5 83t44.5 65.5t76 43.5t109 16q46 0 82 -3t69 -5v-425h-723q-64 0 -103.5 31.5t-39.5 106.5v197h85v-185q0 -34 13.5 -57t57.5 -23h349zM842 70v293q-9 1 -19 2t-18 1q-92 0 -139.5 -31.5t-47.5 -108.5q0 -17 5.5 -54t32.5 -102
h186zM632 558q0 22 15.5 37.5t37.5 15.5t37.5 -15.5t15.5 -37.5t-15.5 -37.5t-37.5 -15.5t-37.5 15.5t-15.5 37.5zM762 558q0 22 15.5 37.5t37.5 15.5t37.5 -15.5t15.5 -37.5t-15.5 -37.5t-37.5 -15.5t-37.5 15.5t-15.5 37.5zM699 678q0 22 15.5 37.5t37.5 15.5t37.5 -15.5
t15.5 -37.5t-15.5 -37.5t-37.5 -15.5t-37.5 15.5t-15.5 37.5z" />
    <glyph glyph-name="aKeheh" unicode="&#x6a9;" horiz-adv-x="928" arabic-form="isolated" 
d="M203 0q-64 0 -103.5 31.5t-39.5 106.5v197h85v-188q0 -34 13.5 -55.5t57.5 -21.5h567v109q0 51 -12 85.5t-37.5 55t-65.5 29.5t-97 9h-174v67l283 303l55 -51l-234 -252h76q66 0 120 -10.5t92 -36.5t58.5 -70t20.5 -112v-196h-665z" />
    <glyph glyph-name="aGaf" unicode="&#x6af;" horiz-adv-x="928" arabic-form="isolated" 
d="M203 0q-64 0 -103.5 31.5t-39.5 106.5v197h85v-188q0 -34 13.5 -55.5t57.5 -21.5h567v109q0 51 -12 85.5t-37.5 55t-65.5 29.5t-97 9h-174v67l283 303l55 -51l-234 -252h76q66 0 120 -10.5t92 -36.5t58.5 -70t20.5 -112v-196h-665zM583 816l55 -51l-283 -305l-55 52z" />
    <glyph glyph-name="aNunGhunna" unicode="&#x6ba;" horiz-adv-x="634" arabic-form="isolated" 
d="M60 245h84v-163q0 -48 8 -83.5t27 -58.5t51.5 -34t80.5 -11q50 0 83 9.5t52 30.5t26.5 55t7.5 84v261h84v-262q0 -131 -62.5 -189.5t-192.5 -58.5q-68 0 -115.5 16t-77 46.5t-43 75t-13.5 102.5v180z" />
    <glyph glyph-name="aHehDoachashmi" unicode="&#x6be;" horiz-adv-x="726" arabic-form="isolated" 
d="M165 0q-29 0 -38.5 -13t-9.5 -34v-30h-77v75q0 38 25 55t55 17h79q-23 26 -33.5 60t-10.5 67q0 55 23 102t66 70q-12 -1 -25.5 -2t-30.5 -2v60q18 1 44 2.5t54.5 3t55 2.5t46.5 1q85 0 139 -23.5t85 -63t42.5 -93t11.5 -113.5v-141h-501zM314 70q21 0 37.5 10.5t27.5 28
t17 40.5t6 47q0 29 -6 54t-17.5 44t-27.5 29.5t-37 10.5t-37 -10.5t-27.5 -28t-17.5 -40.5t-6 -47q0 -29 6.5 -54t18 -44t27.5 -29.5t36 -10.5zM371 374q45 -20 74.5 -64t29.5 -102q0 -43 -12 -78t-34 -60h152v79q0 50 -10.5 91.5t-34.5 71t-62.5 46t-94.5 16.5h-8z" />
    <glyph glyph-name="aHehGoal" unicode="&#x6c1;" horiz-adv-x="537" arabic-form="isolated" 
d="M271 65q32 0 55.5 11.5t38.5 31.5t22.5 45.5t7.5 54.5q0 33 -8.5 61.5t-24.5 49.5t-39 33t-52 12t-52 -12t-39 -33t-24.5 -49.5t-8.5 -61.5q0 -29 7.5 -54.5t22.5 -45.5t38.5 -31.5t55.5 -11.5zM271 -5q-57 0 -97 20t-65.5 51t-37 69.5t-11.5 74.5q0 44 13.5 84.5
t40 71.5t66 49.5t91.5 18.5t91.5 -18.5t66 -49.5t40 -71.5t13.5 -84.5q0 -36 -11.5 -74.5t-37 -69.5t-65.5 -51t-97 -20z" />
    <glyph glyph-name="aHehGoalHamzaabove.fina" unicode="&#x6c2;" horiz-adv-x="421" 
d="M404 0q-38 0 -64.5 9.5t-45.5 24t-32.5 31.5t-25.5 31.5t-25 24t-30 9.5q-25 0 -38.5 -16t-13.5 -44v-125h-80v116q0 60 33 99.5t97 39.5q30 0 51 -9.5t37 -24t29.5 -31.5t28.5 -31.5t34.5 -24t47.5 -9.5h14q20 0 30 -7.5t10 -27.5q0 -35 -40 -35h-17zM287 296h-204v45
h46q-8 25 -10.5 38.5t-2.5 25.5q0 39 28.5 65t82.5 26q8 0 22 -0.5t22 -1.5v-44q-5 1 -15 1.5t-14 0.5q-37 0 -56 -12t-19 -44q0 -8 2.5 -21.5t10.5 -33.5h107v-45z" />
    <glyph glyph-name="aTehMarbutaGoal.fina" unicode="&#x6c3;" horiz-adv-x="547" 
d="M587 38q0 -25 -9.5 -31.5t-30.5 -6.5h-40q-42 0 -72.5 12.5t-47.5 41.5h-93q-119 0 -176.5 45.5t-57.5 133.5q0 104 65 152t180 48q13 0 33 -1t41 -2.5t40.5 -3.5t33.5 -4v-272q0 -34 13.5 -57t57.5 -23h23q20 0 30 -5.5t10 -26.5zM147 241q0 -64 42 -92t120 -28h59v241
q-24 3 -43.5 4t-24.5 1q-70 0 -111.5 -29t-41.5 -97zM156 558q0 22 15.5 37.5t37.5 15.5t37.5 -15.5t15.5 -37.5t-15.5 -37.5t-37.5 -15.5t-37.5 15.5t-15.5 37.5zM286 558q0 22 15.5 37.5t37.5 15.5t37.5 -15.5t15.5 -37.5t-15.5 -37.5t-37.5 -15.5t-37.5 15.5t-15.5 37.5z
" />
    <glyph glyph-name="aYehFarsi" unicode="&#x6cc;" horiz-adv-x="795" arabic-form="isolated" 
d="M665 2q0 24 -19.5 41t-49 32.5t-63.5 31.5t-63.5 37.5t-49 51.5t-19.5 74q0 28 12.5 57t41 53t74 39t112.5 15q9 0 22.5 -0.5t27.5 -1.5t28 -1.5t23 -1.5v-67q-5 0 -14 1t-19.5 1.5t-19.5 1t-14 0.5q-97 0 -144 -27t-47 -75q0 -28 20 -49t49.5 -38.5t64 -33.5t64 -34
t49.5 -40t20 -52q0 -39 -21.5 -73.5t-64.5 -61t-106 -42t-147 -15.5q-174 0 -263 55.5t-89 184.5v180h84v-163q0 -48 15 -83.5t47.5 -58.5t84 -34t123.5 -11q60 0 107 9.5t79 24.5t48.5 34t16.5 39z" />
    <glyph glyph-name="aYehBarri" unicode="&#x6d2;" horiz-adv-x="920" arabic-form="isolated" 
d="M428 380v-37q0 -36 -21.5 -60t-54 -40.5t-70.5 -28.5t-70.5 -24t-54 -26.5t-21.5 -35.5t17.5 -33t51 -17.5t84 -6.5t116.5 -1h488v-70h-531q-80 0 -139 5t-97.5 18t-57 36.5t-18.5 61.5t21.5 63t54.5 42t70.5 29.5t70.5 25t54.5 27.5t21.5 38v34h85z" />
    <glyph glyph-name="aYehBarriHamzaabove" unicode="&#x6d3;" horiz-adv-x="920" arabic-form="isolated" 
d="M428 380v-37q0 -36 -21.5 -60t-54 -40.5t-70.5 -28.5t-70.5 -24t-54 -26.5t-21.5 -35.5t17.5 -33t51 -17.5t84 -6.5t116.5 -1h488v-70h-531q-80 0 -139 5t-97.5 18t-57 36.5t-18.5 61.5t21.5 63t54.5 42t70.5 29.5t70.5 25t54.5 27.5t21.5 38v34h85zM296 419h-204v45h46
q-8 25 -10.5 38.5t-2.5 25.5q0 39 28.5 65t82.5 26q8 0 22 -0.5t22 -1.5v-44q-5 1 -15 1.5t-14 0.5q-37 0 -56 -12t-19 -44q0 -8 2.5 -21.5t10.5 -33.5h107v-45z" />
    <glyph glyph-name="aAe.fina" unicode="&#x6d5;" horiz-adv-x="547" 
d="M587 38q0 -25 -9.5 -31.5t-30.5 -6.5h-40q-42 0 -72.5 12.5t-47.5 41.5h-93q-119 0 -176.5 45.5t-57.5 133.5q0 104 65 152t180 48q13 0 33 -1t41 -2.5t40.5 -3.5t33.5 -4v-272q0 -34 13.5 -57t57.5 -23h23q20 0 30 -5.5t10 -26.5zM147 241q0 -64 42 -92t120 -28h59v241
q-24 3 -43.5 4t-24.5 1q-70 0 -111.5 -29t-41.5 -97z" />
    <glyph glyph-name="aAlifWasla.fina" unicode="&#x671;" horiz-adv-x="260" arabic-form="final" 
d="M301 38q0 -25 -10 -31.5t-31 -6.5h-38q-64 0 -103 31.5t-39 106.5v585h84v-573q0 -39 13 -59.5t57 -20.5h26q20 0 30.5 -5.5t10.5 -26.5zM6 782v33h38v102h36v-10q14 2 37 6t40 4q45 0 67.5 -19t22.5 -51v-65h-241zM154 885q-17 0 -35.5 -2.5t-38.5 -6.5v-61h130v12
q0 32 -13 45t-43 13z" />
    <glyph glyph-name="aPeh.fina" unicode="&#x67e;" horiz-adv-x="963" arabic-form="final" 
d="M203 0q-64 0 -103.5 31.5t-39.5 106.5v197h85v-185q0 -34 13.5 -57t57.5 -23h504q41 0 53 18.5t12 60.5v276h84v-321q0 -9 7 -15.5t17.5 -10.5t22.5 -6t21 -2h26q20 0 30 -5.5t10 -26.5q0 -25 -9.5 -31.5t-30.5 -6.5h-18q-29 0 -51.5 9.5t-38.5 33.5q-12 -16 -38 -29.5
t-78 -13.5h-536zM586 -126q0 -22 -15.5 -37.5t-37.5 -15.5t-37.5 15.5t-15.5 37.5t15.5 37.5t37.5 15.5t37.5 -15.5t15.5 -37.5zM456 -126q0 -22 -15.5 -37.5t-37.5 -15.5t-37.5 15.5t-15.5 37.5t15.5 37.5t37.5 15.5t37.5 -15.5t15.5 -37.5zM519 -246q0 -22 -15.5 -37.5
t-37.5 -15.5t-37.5 15.5t-15.5 37.5t15.5 37.5t37.5 15.5t37.5 -15.5t15.5 -37.5z" />
    <glyph glyph-name="aPeh.init" unicode="&#x67e;" horiz-adv-x="284" arabic-form="initial" 
d="M0 0q-20 0 -30 7t-10 28q0 35 40 35h125v355h84v-425h-209zM252 -126q0 -22 -15.5 -37.5t-37.5 -15.5t-37.5 15.5t-15.5 37.5t15.5 37.5t37.5 15.5t37.5 -15.5t15.5 -37.5zM122 -126q0 -22 -15.5 -37.5t-37.5 -15.5t-37.5 15.5t-15.5 37.5t15.5 37.5t37.5 15.5
t37.5 -15.5t15.5 -37.5zM185 -246q0 -22 -15.5 -37.5t-37.5 -15.5t-37.5 15.5t-15.5 37.5t15.5 37.5t37.5 15.5t37.5 -15.5t15.5 -37.5z" />
    <glyph glyph-name="aPeh.medi" unicode="&#x67e;" horiz-adv-x="313" arabic-form="medial" 
d="M0 0q-20 0 -30 7t-10 28q0 25 9.5 30t30.5 5h70q41 0 53 18.5t12 60.5v276h84v-321q0 -9 7 -15.5t17.5 -10.5t22.5 -6t21 -2h26q20 0 30 -5.5t10 -26.5q0 -25 -9.5 -31.5t-30.5 -6.5h-18q-29 0 -51.5 9.5t-38.5 33.5q-12 -16 -38 -29.5t-78 -13.5h-89zM293 -126
q0 -22 -15.5 -37.5t-37.5 -15.5t-37.5 15.5t-15.5 37.5t15.5 37.5t37.5 15.5t37.5 -15.5t15.5 -37.5zM163 -126q0 -22 -15.5 -37.5t-37.5 -15.5t-37.5 15.5t-15.5 37.5t15.5 37.5t37.5 15.5t37.5 -15.5t15.5 -37.5zM226 -246q0 -22 -15.5 -37.5t-37.5 -15.5t-37.5 15.5
t-15.5 37.5t15.5 37.5t37.5 15.5t37.5 -15.5t15.5 -37.5z" />
    <glyph glyph-name="aTteh.fina" unicode="&#x679;" horiz-adv-x="963" arabic-form="final" 
d="M203 0q-64 0 -103.5 31.5t-39.5 106.5v197h85v-185q0 -34 13.5 -57t57.5 -23h504q41 0 53 18.5t12 60.5v276h84v-321q0 -9 7 -15.5t17.5 -10.5t22.5 -6t21 -2h26q20 0 30 -5.5t10 -26.5q0 -25 -9.5 -31.5t-30.5 -6.5h-18q-29 0 -51.5 9.5t-38.5 33.5q-12 -16 -38 -29.5
t-78 -13.5h-536zM355 445v33h38v186h36v-94q13 2 37 6t40 4q45 0 67.5 -19t22.5 -51v-65h-241zM503 548q-17 0 -35.5 -2.5t-38.5 -6.5v-61h130v12q0 32 -13 45t-43 13z" />
    <glyph glyph-name="aTteh.init" unicode="&#x679;" horiz-adv-x="284" arabic-form="initial" 
d="M0 0q-20 0 -30 7t-10 28q0 35 40 35h125v355h84v-425h-209zM35 504v33h38v186h36v-94q13 2 37 6t40 4q45 0 67.5 -19t22.5 -51v-65h-241zM183 607q-17 0 -35.5 -2.5t-38.5 -6.5v-61h130v12q0 32 -13 45t-43 13z" />
    <glyph glyph-name="aTteh.medi" unicode="&#x679;" horiz-adv-x="313" arabic-form="medial" 
d="M0 0q-20 0 -30 7t-10 28q0 25 9.5 30t30.5 5h70q41 0 53 18.5t12 60.5v276h84v-321q0 -9 7 -15.5t17.5 -10.5t22.5 -6t21 -2h26q20 0 30 -5.5t10 -26.5q0 -25 -9.5 -31.5t-30.5 -6.5h-18q-29 0 -51.5 9.5t-38.5 33.5q-12 -16 -38 -29.5t-78 -13.5h-89zM51 504v33h38v186
h36v-94q13 2 37 6t40 4q45 0 67.5 -19t22.5 -51v-65h-241zM199 607q-17 0 -35.5 -2.5t-38.5 -6.5v-61h130v12q0 32 -13 45t-43 13z" />
    <glyph glyph-name="aVeh.fina" unicode="&#x6a4;" horiz-adv-x="1021" arabic-form="final" 
d="M203 0q-64 0 -103.5 31.5t-39.5 106.5v197h85v-185q0 -34 13.5 -57t57.5 -23h349q-17 41 -25.5 81t-8.5 74q0 45 14.5 83t44.5 65.5t76 43.5t109 16q46 0 82 -3t70 -5v-321q0 -9 7 -15.5t17.5 -10.5t22.5 -6t21 -2h26q20 0 30 -5.5t10 -26.5q0 -25 -9.5 -31.5t-30.5 -6.5
h-18q-29 0 -51.5 9.5t-38.5 33.5q-12 -16 -38 -29.5t-78 -13.5h-594zM778 70q41 0 53 18.5t12 60.5v214l-20 2t-18 1q-92 0 -139.5 -31.5t-47.5 -108.5q0 -17 5.5 -54t32.5 -102h122zM632 558q0 22 15.5 37.5t37.5 15.5t37.5 -15.5t15.5 -37.5t-15.5 -37.5t-37.5 -15.5
t-37.5 15.5t-15.5 37.5zM762 558q0 22 15.5 37.5t37.5 15.5t37.5 -15.5t15.5 -37.5t-15.5 -37.5t-37.5 -15.5t-37.5 15.5t-15.5 37.5zM699 678q0 22 15.5 37.5t37.5 15.5t37.5 -15.5t15.5 -37.5t-15.5 -37.5t-37.5 -15.5t-37.5 15.5t-15.5 37.5z" />
    <glyph glyph-name="aVeh.init" unicode="&#x6a4;" horiz-adv-x="570" arabic-form="initial" 
d="M0 0q-20 0 -30 7t-10 28q0 25 9.5 30t30.5 5h139q-17 41 -25.5 81t-8.5 74q0 45 14.5 83t44.5 65.5t76 43.5t109 16q48 0 83.5 -3t67.5 -5v-425h-500zM416 70v293q-9 1 -19 2t-18 1q-92 0 -139.5 -31.5t-47.5 -108.5q0 -17 5.5 -54t32.5 -102h186zM199 558
q0 22 15.5 37.5t37.5 15.5t37.5 -15.5t15.5 -37.5t-15.5 -37.5t-37.5 -15.5t-37.5 15.5t-15.5 37.5zM329 558q0 22 15.5 37.5t37.5 15.5t37.5 -15.5t15.5 -37.5t-15.5 -37.5t-37.5 -15.5t-37.5 15.5t-15.5 37.5zM266 678q0 22 15.5 37.5t37.5 15.5t37.5 -15.5t15.5 -37.5
t-15.5 -37.5t-37.5 -15.5t-37.5 15.5t-15.5 37.5z" />
    <glyph glyph-name="aVeh.medi" unicode="&#x6a4;" horiz-adv-x="594" arabic-form="medial" 
d="M0 0q-20 0 -30 7t-10 28q0 25 9.5 30t30.5 5h139q-17 41 -25.5 81t-8.5 74q0 45 14.5 83t44.5 65.5t76 43.5t109 16q46 0 82 -3t69 -5v-321q0 -9 7 -15.5t17.5 -10.5t22.5 -6t21 -2h26q20 0 30 -5.5t10 -26.5q0 -25 -9.5 -31.5t-30.5 -6.5h-18q-29 0 -51.5 9.5
t-38.5 33.5q-12 -16 -38 -29.5t-78 -13.5h-370zM351 70q41 0 53 18.5t12 60.5v214q-9 1 -19 2t-18 1q-92 0 -139.5 -31.5t-47.5 -108.5q0 -17 5.5 -54t32.5 -102h121zM199 558q0 22 15.5 37.5t37.5 15.5t37.5 -15.5t15.5 -37.5t-15.5 -37.5t-37.5 -15.5t-37.5 15.5
t-15.5 37.5zM329 558q0 22 15.5 37.5t37.5 15.5t37.5 -15.5t15.5 -37.5t-15.5 -37.5t-37.5 -15.5t-37.5 15.5t-15.5 37.5zM266 678q0 22 15.5 37.5t37.5 15.5t37.5 -15.5t15.5 -37.5t-15.5 -37.5t-37.5 -15.5t-37.5 15.5t-15.5 37.5z" />
    <glyph glyph-name="aTcheh.fina" unicode="&#x686;" horiz-adv-x="579" arabic-form="final" 
d="M40 -87q0 72 49.5 114.5t140.5 42.5h199q-16 25 -22.5 57t-10.5 65t-9 64t-18.5 55.5t-38 39.5t-67.5 15q-39 0 -67 -6.5t-44 -11.5v63q18 8 49.5 15.5t73.5 7.5q65 0 103.5 -20.5t60 -53t29.5 -73t13.5 -81t12.5 -76.5t26 -60h59q20 0 30 -5.5t10 -26.5
q0 -25 -9.5 -31.5t-30.5 -6.5h-351q-48 0 -77 -22t-29 -64q0 -26 12 -43.5t32.5 -29t47 -16.5t55.5 -5v-70q-119 0 -174 42.5t-55 120.5zM474 -84q0 -20 -14 -34t-34 -14t-33.5 14t-13.5 34t13.5 33.5t33.5 13.5t34 -13.5t14 -33.5zM357 -84q0 -20 -14 -34t-34 -14t-33.5 14
t-13.5 34t13.5 33.5t33.5 13.5t34 -13.5t14 -33.5zM414 -192q0 -20 -14 -34t-34 -14t-34 14t-14 34t14 33.5t34 13.5t34 -13.5t14 -33.5z" />
    <glyph glyph-name="aTcheh.init" unicode="&#x686;" horiz-adv-x="472" arabic-form="initial" 
d="M166 366q-39 0 -67 -6.5t-44 -11.5v63q18 8 49.5 15.5t73.5 7.5q65 0 103.5 -20.5t60 -53t29.5 -73t13.5 -81t12.5 -76.5t26 -60v-70h-423q-40 0 -40 35q0 22 9.5 28.5t30.5 6.5h332q-16 25 -22.5 57t-10.5 65t-9 64t-18.5 55.5t-38 39.5t-67.5 15zM314 -126
q0 -22 -15.5 -37.5t-37.5 -15.5t-37.5 15.5t-15.5 37.5t15.5 37.5t37.5 15.5t37.5 -15.5t15.5 -37.5zM184 -126q0 -22 -15.5 -37.5t-37.5 -15.5t-37.5 15.5t-15.5 37.5t15.5 37.5t37.5 15.5t37.5 -15.5t15.5 -37.5zM247 -246q0 -22 -15.5 -37.5t-37.5 -15.5t-37.5 15.5
t-15.5 37.5t15.5 37.5t37.5 15.5t37.5 -15.5t15.5 -37.5z" />
    <glyph glyph-name="aTcheh.medi" unicode="&#x686;" horiz-adv-x="482" arabic-form="medial" 
d="M332 70q-16 25 -22.5 57t-10.5 65t-9 64t-18.5 55.5t-38 39.5t-67.5 15q-39 0 -67 -6.5t-44 -11.5v63q18 8 49.5 15.5t73.5 7.5q65 0 103.5 -20.5t60 -53t29.5 -73t13.5 -81t12.5 -76.5t26 -60h59q20 0 30 -5.5t10 -26.5q0 -25 -9.5 -31.5t-30.5 -6.5h-482q-40 0 -40 40
q0 18 9.5 24t30.5 6h332zM314 -126q0 -22 -15.5 -37.5t-37.5 -15.5t-37.5 15.5t-15.5 37.5t15.5 37.5t37.5 15.5t37.5 -15.5t15.5 -37.5zM184 -126q0 -22 -15.5 -37.5t-37.5 -15.5t-37.5 15.5t-15.5 37.5t15.5 37.5t37.5 15.5t37.5 -15.5t15.5 -37.5zM247 -246
q0 -22 -15.5 -37.5t-37.5 -15.5t-37.5 15.5t-15.5 37.5t15.5 37.5t37.5 15.5t37.5 -15.5t15.5 -37.5z" />
    <glyph glyph-name="aDdal.fina" unicode="&#x688;" horiz-adv-x="549" arabic-form="final" 
d="M378 179q0 39 -5 72t-24.5 56.5t-58.5 37t-108 13.5h-80v67h86q85 0 139 -16.5t84 -46.5t41 -72t11 -94v-92q0 -9 7 -15.5t17.5 -10.5t22.5 -6t21 -2h18q20 0 30 -5.5t10 -26.5q0 -25 -9.5 -31.5t-30.5 -6.5h-10q-29 0 -51.5 9.5t-38.5 33.5q-12 -16 -38 -29.5t-78 -13.5
h-293v70h273q41 0 53 18.5t12 60.5v30zM113 537v33h38v186h36v-94q13 2 37 6t40 4q45 0 67.5 -19t22.5 -51v-65h-241zM261 640q-17 0 -35.5 -2.5t-38.5 -6.5v-61h130v12q0 32 -13 45t-43 13z" />
    <glyph glyph-name="aJeh.fina" unicode="&#x698;" horiz-adv-x="314" arabic-form="final" 
d="M137 425h85v-355h92q20 0 30 -5.5t10 -26.5q0 -25 -9.5 -31.5t-30.5 -6.5h-93q-2 -39 -11 -71t-29.5 -55t-55.5 -36t-87 -13h-18v70h11q61 0 83.5 29t22.5 93v408zM60 558q0 22 15.5 37.5t37.5 15.5t37.5 -15.5t15.5 -37.5t-15.5 -37.5t-37.5 -15.5t-37.5 15.5
t-15.5 37.5zM190 558q0 22 15.5 37.5t37.5 15.5t37.5 -15.5t15.5 -37.5t-15.5 -37.5t-37.5 -15.5t-37.5 15.5t-15.5 37.5zM127 678q0 22 15.5 37.5t37.5 15.5t37.5 -15.5t15.5 -37.5t-15.5 -37.5t-37.5 -15.5t-37.5 15.5t-15.5 37.5z" />
    <glyph glyph-name="aRreh.fina" unicode="&#x691;" horiz-adv-x="314" arabic-form="final" 
d="M137 425h85v-355h92q20 0 30 -5.5t10 -26.5q0 -25 -9.5 -31.5t-30.5 -6.5h-93q-2 -39 -11 -71t-29.5 -55t-55.5 -36t-87 -13h-18v70h11q61 0 83.5 29t22.5 93v408zM53 504v33h38v186h36v-94q13 2 37 6t40 4q45 0 67.5 -19t22.5 -51v-65h-241zM201 607q-17 0 -35.5 -2.5
t-38.5 -6.5v-61h130v12q0 32 -13 45t-43 13z" />
    <glyph glyph-name="aKeheh.fina" unicode="&#x6a9;" horiz-adv-x="953" arabic-form="final" 
d="M203 0q-64 0 -103.5 31.5t-39.5 106.5v197h85v-188q0 -34 13.5 -55.5t57.5 -21.5h502q41 0 53 18.5t12 60.5v30q0 52 -12.5 87t-38 55t-66 28.5t-95.5 8.5h-174v67l283 303l55 -51l-234 -252h76q69 0 123 -11.5t91.5 -37.5t57 -70t19.5 -110v-92q0 -9 7 -15.5t17 -10.5
t22 -6t21 -2h19q20 0 30 -5.5t10 -26.5q0 -25 -9.5 -31.5t-30.5 -6.5h-11q-29 0 -51.5 9.5t-38.5 33.5q-12 -16 -38 -29.5t-78 -13.5h-534z" />
    <glyph glyph-name="aKeheh.init" unicode="&#x6a9;" horiz-adv-x="586" arabic-form="initial" 
d="M55 358v67l283 303l55 -51l-234 -252h76q66 0 120 -10.5t92 -36.5t58.5 -70t20.5 -112v-196h-526q-20 0 -30 7t-10 28q0 25 9 30t30 5h442v109q0 51 -12 85.5t-37.5 55t-65.5 29.5t-97 9h-174z" />
    <glyph glyph-name="aKeheh.medi" unicode="&#x6a9;" horiz-adv-x="612" arabic-form="medial" 
d="M526 104q0 -9 7 -15.5t17 -10.5t22 -6t21 -2h19q20 0 30 -5.5t10 -26.5q0 -25 -9.5 -31.5t-30.5 -6.5h-11q-29 0 -51.5 9.5t-38.5 33.5q-12 -16 -38 -29.5t-78 -13.5h-395q-20 0 -30 7t-10 28q0 25 9.5 30t30.5 5h376q41 0 53 18.5t12 60.5v30q0 52 -12.5 87t-38 55
t-66 28.5t-95.5 8.5h-174v67l283 303l55 -51l-234 -252h76q69 0 123 -11.5t91.5 -37.5t57 -70t19.5 -110v-92z" />
    <glyph glyph-name="aGaf.fina" unicode="&#x6af;" horiz-adv-x="953" arabic-form="final" 
d="M203 0q-64 0 -103.5 31.5t-39.5 106.5v197h85v-188q0 -34 13.5 -55.5t57.5 -21.5h502q41 0 53 18.5t12 60.5v30q0 52 -12.5 87t-38 55t-66 28.5t-95.5 8.5h-174v67l283 303l55 -51l-234 -252h76q69 0 123 -11.5t91.5 -37.5t57 -70t19.5 -110v-92q0 -9 7 -15.5t17 -10.5
t22 -6t21 -2h19q20 0 30 -5.5t10 -26.5q0 -25 -9.5 -31.5t-30.5 -6.5h-11q-29 0 -51.5 9.5t-38.5 33.5q-12 -16 -38 -29.5t-78 -13.5h-534zM583 816l55 -51l-283 -305l-55 52z" />
    <glyph glyph-name="aGaf.init" unicode="&#x6af;" horiz-adv-x="657" arabic-form="initial" 
d="M126 358v67l283 303l55 -51l-234 -252h76q66 0 120 -10.5t92 -36.5t58.5 -70t20.5 -112v-196h-596q-20 0 -30 7t-10 28q0 25 9 30t30 5h512v109q0 51 -12 85.5t-37.5 55t-65.5 29.5t-97 9h-174zM312 816l55 -51l-283 -305l-55 52z" />
    <glyph glyph-name="aGaf.medi" unicode="&#x6af;" horiz-adv-x="681" arabic-form="medial" 
d="M595 104q0 -9 7 -15.5t17 -10.5t22 -6t21 -2h19q20 0 30 -5.5t10 -26.5q0 -25 -9.5 -31.5t-30.5 -6.5h-11q-29 0 -51.5 9.5t-38.5 33.5q-12 -16 -38 -29.5t-78 -13.5h-465q-20 0 -30 7t-10 28q0 25 9.5 30t30.5 5h446q41 0 53 18.5t12 60.5v30q0 52 -12.5 87t-38 55
t-66 28.5t-95.5 8.5h-174v67l283 303l55 -51l-234 -252h76q69 0 123 -11.5t91.5 -37.5t57 -70t19.5 -110v-92zM310 816l55 -51l-283 -305l-55 52z" />
    <glyph glyph-name="aNunGhunna.fina" unicode="&#x6ba;" horiz-adv-x="645" arabic-form="final" 
d="M60 245h84v-163q0 -48 8 -83.5t27 -58.5t51.5 -34t80.5 -11q50 0 83 9.5t52 30.5t26.5 55t7.5 84v261h84v-265h81q20 0 30 -5.5t10 -26.5q0 -25 -9.5 -31.5t-30.5 -6.5h-87q-16 -92 -77 -133.5t-172 -41.5q-68 0 -115.5 16t-77 46.5t-43 75t-13.5 102.5v180z" />
    <glyph glyph-name="aHehYeh.fina" unicode="&#x6c0;" horiz-adv-x="547" arabic-form="final" 
d="M587 38q0 -25 -9.5 -31.5t-30.5 -6.5h-40q-42 0 -72.5 12.5t-47.5 41.5h-93q-119 0 -176.5 45.5t-57.5 133.5q0 104 65 152t180 48q13 0 33 -1t41 -2.5t40.5 -3.5t33.5 -4v-272q0 -34 13.5 -57t57.5 -23h23q20 0 30 -5.5t10 -26.5zM147 241q0 -64 42 -92t120 -28h59v241
q-24 3 -43.5 4t-24.5 1q-70 0 -111.5 -29t-41.5 -97zM394 506h-204v45h46q-8 25 -10.5 38.5t-2.5 25.5q0 39 28.5 65t82.5 26q8 0 22 -0.5t22 -1.5v-44q-5 1 -15 1.5t-14 0.5q-37 0 -56 -12t-19 -44q0 -8 2.5 -21.5t10.5 -33.5h107v-45z" />
    <glyph glyph-name="aHehGoal.fina" unicode="&#x6c1;" horiz-adv-x="421" arabic-form="final" 
d="M404 0q-38 0 -64.5 9.5t-45.5 24t-32.5 31.5t-25.5 31.5t-25 24t-30 9.5q-25 0 -38.5 -16t-13.5 -44v-125h-80v116q0 60 33 99.5t97 39.5q30 0 51 -9.5t37 -24t29.5 -31.5t28.5 -31.5t34.5 -24t47.5 -9.5h14q20 0 30 -7.5t10 -27.5q0 -35 -40 -35h-17z" />
    <glyph glyph-name="aHehGoal.init" unicode="&#x6c1;" horiz-adv-x="284" arabic-form="initial" 
d="M153 0q-14 -19 -22.5 -39.5t-8.5 -37.5q0 -39 48 -39h13q-4 -28 -22.5 -42t-44.5 -14q-32 0 -49.5 18.5t-17.5 50.5q0 25 7 49t25 54h-81q-20 0 -30 7t-10 28q0 35 40 35h125v355h84v-425h-56z" />
    <glyph glyph-name="aHehGoal.medi" unicode="&#x6c1;" horiz-adv-x="429" arabic-form="medial" 
d="M0 0q-40 0 -40 36q0 34 40 34h168q-16 -44 -24 -74t-8 -55q0 -30 12 -56t45 -38q6 61 25 103.5t47 69t62.5 38.5t72.5 12h30q20 0 30 -7.5t10 -27.5q0 -35 -40 -35h-33q-75 0 -110.5 -58.5t-35.5 -190.5q-48 6 -82 21.5t-56 37.5t-32.5 49.5t-10.5 57.5q0 16 2 35t9 48
h-81z" />
    <glyph glyph-name="aHehDoachashmi.fina" unicode="&#x6be;" horiz-adv-x="654" arabic-form="final" 
d="M165 0q-29 0 -38.5 -13t-9.5 -34v-30h-77v75q0 38 25 55t55 17h91v159q0 97 49.5 151t140.5 54q52 0 87 -18.5t56.5 -47t30.5 -64t9 -69.5q0 -60 -20.5 -101t-43.5 -64h135q20 0 30 -5.5t10 -26.5q0 -25 -9.5 -31.5t-30.5 -6.5h-115q23 -23 31.5 -52t8.5 -47
q0 -66 -44.5 -108.5t-137.5 -42.5q-43 0 -77.5 10t-59 31.5t-37.5 56t-13 83.5v69h-46zM383 70q29 0 51 13.5t37 35.5t22.5 50t7.5 57q0 28 -6.5 54t-19.5 45t-32.5 30.5t-45.5 11.5q-18 0 -36.5 -6.5t-33.5 -24t-24 -47t-9 -74.5v-145h89zM509 -95q0 14 -4.5 30.5t-16.5 31
t-31.5 24t-49.5 9.5h-113v-75q0 -57 29 -82.5t80 -25.5q31 0 51.5 8t32.5 20.5t17 28.5t5 31z" />
    <glyph glyph-name="aHehDoachashmi.init" unicode="&#x6be;" horiz-adv-x="679" arabic-form="initial" 
d="M-40 40q0 30 40 30h152q-23 26 -33.5 60t-10.5 67q0 55 23 102t66 70q-12 -1 -25.5 -2t-30.5 -2v60q18 1 44 2.5t54.5 3t55 2.5t46.5 1q85 0 139 -23.5t85 -63t42.5 -93t11.5 -113.5v-141h-619q-40 0 -40 40zM267 70q21 0 37.5 10.5t27.5 28t17 40.5t6 47q0 29 -6 54
t-17.5 44t-27.5 29.5t-37 10.5t-37 -10.5t-27.5 -28t-17.5 -40.5t-6 -47q0 -29 6.5 -54t18 -44t27.5 -29.5t36 -10.5zM324 374q45 -20 74.5 -64t29.5 -102q0 -43 -12 -78t-34 -60h152v79q0 50 -10.5 91.5t-34.5 71t-62.5 46t-94.5 16.5h-8z" />
    <glyph glyph-name="aHehDoachashmi.medi" unicode="&#x6be;" horiz-adv-x="556" arabic-form="medial" 
d="M442 0q23 -23 31.5 -52t8.5 -47q0 -66 -44.5 -108.5t-137.5 -42.5q-43 0 -77.5 10t-59 31.5t-37.5 56t-13 83.5v69h-117q-20 0 -30 7t-10 28q0 25 9.5 30t30.5 5h117v159q0 97 49.5 151t140.5 54q52 0 87 -18.5t56.5 -47t30.5 -64t9 -69.5q0 -60 -20.5 -101t-43.5 -64
h135q20 0 30 -5.5t10 -26.5q0 -25 -9.5 -31.5t-30.5 -6.5h-115zM285 70q29 0 51 13.5t37 35.5t22.5 50t7.5 57q0 28 -6.5 54t-19.5 45t-32.5 30.5t-45.5 11.5q-18 0 -36.5 -6.5t-33.5 -24t-24 -47t-9 -74.5v-145h89zM411 -95q0 14 -4.5 30.5t-16.5 31t-31.5 24t-49.5 9.5
h-113v-75q0 -57 29 -82.5t80 -25.5q31 0 51.5 8t32.5 20.5t17 28.5t5 31z" />
    <glyph glyph-name="aYehBarri.fina" unicode="&#x6d2;" horiz-adv-x="572" arabic-form="final" 
d="M279 -250q-119 0 -174 42.5t-55 120.5q0 72 51 114.5t142 42.5h329q40 0 40 -33q0 -15 -9.5 -26t-30.5 -11h-334q-48 0 -77 -22t-29 -64q0 -26 11 -43.5t30 -29t44.5 -16.5t54.5 -5h512v-70h-505z" />
    <glyph glyph-name="aYehBarriHamzaabove.fina" unicode="&#x6d3;" horiz-adv-x="572" arabic-form="final" 
d="M279 -250q-119 0 -174 42.5t-55 120.5q0 72 51 114.5t142 42.5h329q40 0 40 -33q0 -15 -9.5 -26t-30.5 -11h-334q-48 0 -77 -22t-29 -64q0 -26 11 -43.5t30 -29t44.5 -16.5t54.5 -5h512v-70h-505zM288 189h-204v45h46q-8 25 -10.5 38.5t-2.5 25.5q0 39 28.5 65t82.5 26
q8 0 22 -0.5t22 -1.5v-44q-5 1 -15 1.5t-14 0.5q-37 0 -56 -12t-19 -44q0 -8 2.5 -21.5t10.5 -33.5h107v-45z" />
    <glyph glyph-name="aAlifMaksura.init" unicode="&#x649;" horiz-adv-x="284" arabic-form="initial" 
d="M0 0q-20 0 -30 7t-10 28q0 35 40 35h125v355h84v-425h-209z" />
    <glyph glyph-name="aAlifMaksura.medi" unicode="&#x649;" horiz-adv-x="313" arabic-form="medial" 
d="M0 0q-20 0 -30 7t-10 28q0 25 9.5 30t30.5 5h70q41 0 53 18.5t12 60.5v276h84v-321q0 -9 7 -15.5t17.5 -10.5t22.5 -6t21 -2h26q20 0 30 -5.5t10 -26.5q0 -25 -9.5 -31.5t-30.5 -6.5h-18q-29 0 -51.5 9.5t-38.5 33.5q-12 -16 -38 -29.5t-78 -13.5h-89z" />
    <glyph glyph-name="aYehFarsi.fina" unicode="&#x6cc;" horiz-adv-x="786" arabic-form="final" 
d="M755 -68q0 -32 -22 -64t-65.5 -58.5t-107.5 -43t-148 -16.5q-174 0 -263 55.5t-89 184.5v180h84v-163q0 -48 15 -83.5t47.5 -58.5t84 -34t123.5 -11q60 0 107.5 9.5t80 25t49.5 35.5t17 42q0 23 -24 41t-59.5 31.5t-75 24.5t-69.5 20v74q63 -23 123.5 -38t117.5 -15h105
q40 0 40 -33q0 -20 -9.5 -28.5t-30.5 -8.5h-74q18 -13 30.5 -29.5t12.5 -38.5z" />
    <glyph glyph-name="aYehFarsi.init" unicode="&#x6cc;" horiz-adv-x="284" arabic-form="initial" 
d="M0 0q-20 0 -30 7t-10 28q0 35 40 35h125v355h84v-425h-209zM19 -126q0 22 15.5 37.5t37.5 15.5t37.5 -15.5t15.5 -37.5t-15.5 -37.5t-37.5 -15.5t-37.5 15.5t-15.5 37.5zM149 -126q0 22 15.5 37.5t37.5 15.5t37.5 -15.5t15.5 -37.5t-15.5 -37.5t-37.5 -15.5t-37.5 15.5
t-15.5 37.5z" />
    <glyph glyph-name="aYehFarsi.medi" unicode="&#x6cc;" horiz-adv-x="313" arabic-form="medial" 
d="M0 0q-20 0 -30 7t-10 28q0 25 9.5 30t30.5 5h70q41 0 53 18.5t12 60.5v276h84v-321q0 -9 7 -15.5t17.5 -10.5t22.5 -6t21 -2h26q20 0 30 -5.5t10 -26.5q0 -25 -9.5 -31.5t-30.5 -6.5h-18q-29 0 -51.5 9.5t-38.5 33.5q-12 -16 -38 -29.5t-78 -13.5h-89zM51 -126
q0 22 15.5 37.5t37.5 15.5t37.5 -15.5t15.5 -37.5t-15.5 -37.5t-37.5 -15.5t-37.5 15.5t-15.5 37.5zM181 -126q0 22 15.5 37.5t37.5 15.5t37.5 -15.5t15.5 -37.5t-15.5 -37.5t-37.5 -15.5t-37.5 15.5t-15.5 37.5z" />
    <glyph glyph-name="aShadda_aDammatan" unicode="&#xfc5e;" horiz-adv-x="123" arabic-form="isolated" 
d="M5 724q-14 -20 -33 -25t-28 -5q-34 0 -55 19.5t-21 61.5v57h46v-51q0 -42 34 -42q11 0 22 7.5t11 33.5v40h46v-39q0 -26 11 -33t24 -7q30 0 30 37v54h46v-57q0 -42 -20 -61.5t-53 -19.5q-11 0 -29.5 5.5t-30.5 24.5zM35 942q12 0 19.5 1.5t15.5 4.5q-6 3 -15 8.5
t-17.5 13.5t-14.5 20t-6 29q0 39 25 57t56 18q16 0 34.5 -5t34.5 -14q0 -94 -36 -136t-102 -42q-31 0 -58 12.5t-45 44.5l-74 -13v45l94 15q17 -37 39.5 -48t49.5 -11zM60 1021q0 -18 12 -30.5t30 -20.5q10 11 16.5 34.5t8.5 46.5q-9 4 -17 5t-14 1q-13 0 -24.5 -8
t-11.5 -28z" />
    <glyph glyph-name="aShadda_aKasratan" unicode="&#xfc5f;" horiz-adv-x="123" arabic-form="isolated" 
d="M5 935q-14 -20 -33 -25t-28 -5q-34 0 -55 19.5t-21 61.5v57h46v-51q0 -42 34 -42q11 0 22 7.5t11 33.5v40h46v-39q0 -26 11 -33t24 -7q30 0 30 37v54h46v-57q0 -42 -20 -61.5t-53 -19.5q-11 0 -29.5 5.5t-30.5 24.5zM142 812l-285 -35v45l285 35v-45zM142 719l-285 -35
v45l285 35v-45z" />
    <glyph glyph-name="aShadda_aFatha" unicode="&#xfc60;" horiz-adv-x="123" arabic-form="isolated" 
d="M5 724q-14 -20 -33 -25t-28 -5q-34 0 -55 19.5t-21 61.5v57h46v-51q0 -42 34 -42q11 0 22 7.5t11 33.5v40h46v-39q0 -26 11 -33t24 -7q30 0 30 37v54h46v-57q0 -42 -20 -61.5t-53 -19.5q-11 0 -29.5 5.5t-30.5 24.5zM139 919l-285 -35v45l285 35v-45z" />
    <glyph glyph-name="aShadda_aDamma" unicode="&#xfc61;" horiz-adv-x="123" arabic-form="isolated" 
d="M5 724q-14 -20 -33 -25t-28 -5q-34 0 -55 19.5t-21 61.5v57h46v-51q0 -42 34 -42q11 0 22 7.5t11 33.5v40h46v-39q0 -26 11 -33t24 -7q30 0 30 37v54h46v-57q0 -42 -20 -61.5t-53 -19.5q-11 0 -29.5 5.5t-30.5 24.5zM0 1014q0 -20 13 -32t34 -22q13 11 16.5 34.5
t3.5 49.5q-8 3 -16.5 4.5t-14.5 1.5q-13 0 -24.5 -8t-11.5 -28zM-107 883v45l90 11q11 2 16 2.5t10 2.5q-16 7 -34 24.5t-18 44.5q0 39 24.5 57t56.5 18q16 0 33.5 -4t35.5 -15q0 -51 -6.5 -83.5t-21 -51.5t-37.5 -27.5t-56 -12.5z" />
    <glyph glyph-name="aShadda_aKasra" unicode="&#xfc62;" horiz-adv-x="123" arabic-form="isolated" 
d="M-1 844q-14 -20 -33 -25t-28 -5q-34 0 -55 19.5t-21 61.5v57h46v-51q0 -42 34 -42q11 0 22 7.5t11 33.5v40h46v-39q0 -26 11 -33t24 -7q30 0 30 37v54h46v-57q0 -42 -20 -61.5t-53 -19.5q-11 0 -29.5 5.5t-30.5 24.5zM142 719l-285 -35v45l285 35v-45z" />
    <glyph glyph-name="aShadda_aAlifabove" unicode="&#xfc63;" horiz-adv-x="123" arabic-form="isolated" 
d="M5 724q-14 -20 -33 -25t-28 -5q-34 0 -55 19.5t-21 61.5v57h46v-51q0 -42 34 -42q11 0 22 7.5t11 33.5v40h46v-39q0 -26 11 -33t24 -7q30 0 30 37v54h46v-57q0 -42 -20 -61.5t-53 -19.5q-11 0 -29.5 5.5t-30.5 24.5zM-20 1081h47v-201h-47v201z" />
    <glyph glyph-name="aAllah" unicode="&#xfdf2;" horiz-adv-x="1373" arabic-form="isolated" 
d="M507 0q-42 0 -72.5 12.5t-47.5 41.5h-93q-119 0 -176.5 45.5t-57.5 133.5q0 104 65 152t180 48q13 0 33 -1t41 -2.5t40.5 -3.5t33.5 -4v-272q0 -34 13.5 -57t57.5 -23h81q41 0 53 18.5t12 60.5v574h84v-619q0 -9 7 -15.5t17.5 -10.5t22.5 -6t21 -2h135v653h83v-723h-210
q-29 0 -51.5 9.5t-38.5 33.5q-12 -16 -38 -29.5t-78 -13.5h-117zM147 241q0 -64 42 -92t120 -28h59v241q-24 3 -43.5 4t-24.5 1q-70 0 -111.5 -29t-41.5 -97zM1288 723v-723h-84v723h84z" />
    <glyph glyph-name="aAllahlong" unicode="&#xfdfa;" horiz-adv-x="1057" arabic-form="isolated" 
d="M1017 437q0 -14 -16 -39q-15 -24 -31 -31q-47 -21 -116 -21h-23t-25 2q-24 -47 -38 -47q-4 0 -4 6q0 16 22 47q-43 17 -48 26q-40 -26 -50 -26q8 -141 25 -176q19 -38 87 -39q-22 17 -22 44q0 33 32 76q24 32 61 32q28 0 53 -17q24 -17 24 -31q-26 9 -52 9q-35 0 -65 -14
q-26 -14 -26 -27q0 -14 25 -39q24 -25 44 -29q19 2 68 18q25 8 42 14t25 11l-17 -37q-101 -53 -191 -53q-97 0 -119 73q-30 -65 -57 -65q-26 0 -67 44q-65 -56 -197 -56q-20 0 -37.5 1.5t-32.5 3.5q4 -32 9 -52q9 -36 23 -50q44 -44 176 -44q113 0 165 32q15 37 28 37
q4 0 4 -8q0 -14 -12 -44q6 -13 27 -13q26 0 49 12q21 66 33 66q4 0 4 -11q0 -19 -10 -43q30 -13 44 -13q1 0 4.5 0.5t3.5 3.5q0 4 -8 38l17 36q12 -36 12 -52q0 -67 -44 -67q-23 0 -48 19q-15 -26 -59 -26q-48 0 -48 26q-20 -14 -64 -24q-53 -11 -121 -11q-97 0 -143 28
q-59 34 -60 126l-22 -32q-16 -24 -26 -26q12 -21 12 -41q0 -26 -16 -42q-8 -8 -21 -8q-20 0 -61 23q-13 -30 -42 -47q-3 -2 -9.5 -3t-13.5 -1.5t-13 -1t-9 -1.5l-11 -4q-6 0 -6 5q0 4 24 15q31 12 39 19l34 26q-10 17 -10 40q0 21 18 41q18 21 34 21q2 0 6 -2q17 -10 29 -10
q18 0 36 23l23 42q-39 12 -55 27q-29 26 -41 85q-29 -50 -79 -50q-18 0 -39 8q-16 7 -16 12q0 25 43 58q20 16 41.5 26.5t43.5 17.5l-2 17l20 33q7 -108 21 -141q13 -31 56 -45l-13 132l19 43l17 -180q52 -6 95 -6q104 0 177 40q14 38 19 38q4 0 4 -9q0 -10 -4 -25
q37 -35 59 -35q26 0 42 43l-13 161q-73 0 -90 74q-7 -28 -14 -42q-11 -26 -27 -30l3 -3q35 0 52 -8t17 -30q0 -30 -25 -46q-86 -59 -160 -59q-46 0 -74 23.5t-28 65.5q0 32 16 67q-27 7 -38 43q-18 -51 -57 -51q-47 0 -47 77l-27 -24q-7 -7 -39 -7q-49 0 -49 18q0 11 13 31
q13 22 25 27l76 37v10l17 36l4 -120q1 -42 32 -42q15 0 29.5 10.5t16.5 22.5l-16 114l18 39l28 -161q9 -21 33 -21q23 0 23 13q0 22 -16 74l-10 32t-10 33l13 33q40 -124 40 -157q0 -21 -10 -44q-10 -28 -25 -28q-5 0 -9 3q-7 -20 -7 -39q0 -75 91 -75q71 0 142 48q2 2 2 3
q0 6 -38 12q-59 9 -61 10q-4 3 -4 8q0 10 17 32q60 25 64 53q1 3 1 14q0 49 -5 106.5t-15 124.5l17 56q24 -211 38 -256q18 -57 72 -66l-5 96l21 45l8 -140q28 10 60 36l30 -21q19 -12 39 -15q23 24 65 55q52 38 70 38t41 -14q26 -15 26 -33zM1008 2q0 -50 -39 -108
q-42 -64 -89 -64q-23 0 -59 16q-37 16 -37 23q0 4 5 4q6 0 27 -7q8 -3 18.5 -5.5t18.5 -2.5q68 0 138 106l-7 22q-18 -26 -37 -26q-15 0 -25.5 14t-10.5 31q0 21 15 50q16 31 28 31t32 -24q22 -26 22 -60zM970 639q-36 -13 -116 -51q-96 -47 -96 -61q0 -11 26 -25l-9 -24
q-33 10 -33 40t26 44q128 74 211 102zM476 447q-3 -66 -13 -73l-25 242l22 57zM602 37l-26 -31l-48 35l-28 -36l-50 36l29 35l47 -35l27 33zM989 420q0 7 -18 16q-17 9 -26 9q-21 0 -60 -24q-30 -19 -47 -34q4 -1 20 -1q39 0 82 8q49 10 49 26zM632 -121q0 -20 -2 -30
q-6 -13 -25 -13q-10 0 -14 4q-15 -16 -30 -16q-8 0 -16.5 8.5t-12.5 8.5q-8 0 -37 -17q-29 -18 -70 -18q-44 0 -44 8q0 7 32 7q17 0 29 0.5t17 1.5q15 3 35 16q29 19 40 19q8 0 19 -8t13 -8q15 0 18 17q1 13 11 13q4 0 4 -6t-1 -9q1 -4 11 -6q12 0 12 12q0 16 11 16z
M815 705l-6 -22l-195 -96l4 25zM169 263q-88 -34 -88 -52q0 -10 31 -10q33 0 59 24zM324 665q0 -32 -21 -32q-13 0 -21 8q-18 -15 -30 -15q-21 0 -21 27q0 19 3 27l6 6q0 -37 17 -37q12 0 19 16l-2 23l9 14l4 -30q1 -16 15 -16q11 0 11 12q0 1 -0.5 4.5t-2.5 20.5l7 10
q7 -18 7 -38zM189 487q-10 -5 -20 -9t-21 -8q-34 -17 -34 -25q0 -10 25 -10q29 0 51 13zM214 -39q0 8 -7.5 18.5t-16.5 16.5q-19 14 -34 14q-14 0 -14 -12q0 -13 26 -27q24 -15 39 -15q7 0 7 5zM979 10q-6 32 -26 32q-16 0 -20 -25q4 -18 31 -18q13 0 15 11z" />
    <glyph glyph-name="aAlifMadda.fina" unicode="&#x622;" horiz-adv-x="260" arabic-form="final" 
d="M301 38q0 -25 -10 -31.5t-31 -6.5h-38q-64 0 -103 31.5t-39 106.5v585h84v-573q0 -39 13 -59.5t57 -20.5h26q20 0 30.5 -5.5t10.5 -26.5zM-56 851q26 22 47 28.5t38 6.5q22 0 43 -6t42.5 -13.5t44 -13.5t46.5 -6q23 0 35 9.5t22 25.5l36 -22q-18 -33 -37 -48t-56 -15
q-25 0 -48.5 6t-45.5 13.5t-43 13.5t-42 6q-13 0 -27 -4t-33 -15z" />
    <glyph glyph-name="aAlifHamza.fina" unicode="&#x623;" horiz-adv-x="260" arabic-form="final" 
d="M301 38q0 -25 -10 -31.5t-31 -6.5h-38q-64 0 -103 31.5t-39 106.5v585h84v-573q0 -39 13 -59.5t57 -20.5h26q20 0 30.5 -5.5t10.5 -26.5zM232 801h-204v45h46q-8 25 -10.5 38.5t-2.5 25.5q0 39 28.5 65t82.5 26q8 0 22 -0.5t22 -1.5v-44q-5 1 -15 1.5t-14 0.5
q-37 0 -56 -12t-19 -44q0 -8 2.5 -21.5t10.5 -33.5h107v-45z" />
    <glyph glyph-name="aWawHamza.fina" unicode="&#x624;" horiz-adv-x="543" arabic-form="final" 
d="M450 0q-2 -41 -13 -73.5t-34.5 -55t-61 -34.5t-92.5 -12h-122v67h122q60 0 86.5 25.5t29.5 82.5h-59q-79 0 -127 21t-74.5 53t-35.5 69.5t-9 70.5q0 49 15.5 89t48 69t83.5 45t123 16q26 0 59.5 -3t61.5 -5v-355h92q20 0 30 -5.5t10 -26.5q0 -25 -9.5 -31.5t-30.5 -6.5
h-93zM143 214q0 -40 12 -67.5t34.5 -44.5t53.5 -24.5t70 -7.5h53v295q-8 1 -17 1.5t-18 0.5q-29 0 -62 -3.5t-61 -19t-46.5 -46t-18.5 -84.5zM398 506h-237v49h54q-11 31 -13.5 47t-2.5 31q0 45 33 73.5t96 28.5q9 0 25.5 -0.5t25.5 -1.5v-48q-5 1 -16.5 1.5t-16.5 0.5
q-43 0 -65 -11.5t-22 -49.5q0 -12 3 -28t14 -43h122v-49z" />
    <glyph glyph-name="aAlifHamzabelow.fina" unicode="&#x625;" horiz-adv-x="260" arabic-form="final" 
d="M301 38q0 -25 -10 -31.5t-31 -6.5h-38q-64 0 -103 31.5t-39 106.5v585h84v-573q0 -39 13 -59.5t57 -20.5h26q20 0 30.5 -5.5t10.5 -26.5zM232 -271h-204v45h46q-8 25 -10.5 38.5t-2.5 25.5q0 39 28.5 65t82.5 26q8 0 22 -0.5t22 -1.5v-44q-5 1 -15 1.5t-14 0.5
q-37 0 -56 -12t-19 -44q0 -8 2.5 -21t10.5 -34h107v-45z" />
    <glyph glyph-name="aYehHamza.fina" unicode="&#x626;" horiz-adv-x="786" arabic-form="final" 
d="M755 -68q0 -32 -22 -64t-65.5 -58.5t-107.5 -43t-148 -16.5q-174 0 -263 55.5t-89 184.5v180h84v-163q0 -48 15 -83.5t47.5 -58.5t84 -34t123.5 -11q60 0 107.5 9.5t80 25t49.5 35.5t17 42q0 23 -24 41t-59.5 31.5t-75 24.5t-69.5 20v74q63 -23 123.5 -38t117.5 -15h105
q40 0 40 -33q0 -20 -9.5 -28.5t-30.5 -8.5h-74q18 -13 30.5 -29.5t12.5 -38.5zM252 275h-237v49h54q-11 31 -13.5 47t-2.5 31q0 45 33 73.5t96 28.5q9 0 25.5 -0.5t25.5 -1.5v-48q-5 1 -16.5 1.5t-16.5 0.5q-43 0 -65 -11.5t-22 -49.5q0 -12 3 -28t14 -43h122v-49z" />
    <glyph glyph-name="aYehHamza.init" unicode="&#x626;" horiz-adv-x="284" arabic-form="initial" 
d="M0 0q-20 0 -30 7t-10 28q0 35 40 35h125v355h84v-425h-209zM286 506h-237v49h54q-11 31 -13.5 47t-2.5 31q0 45 33 73.5t96 28.5q9 0 25.5 -0.5t25.5 -1.5v-48q-5 1 -16.5 1.5t-16.5 0.5q-43 0 -65 -11.5t-22 -49.5q0 -12 3 -28t14 -43h122v-49z" />
    <glyph glyph-name="aYehHamza.medi" unicode="&#x626;" horiz-adv-x="313" arabic-form="medial" 
d="M0 0q-20 0 -30 7t-10 28q0 25 9.5 30t30.5 5h70q41 0 53 18.5t12 60.5v276h84v-321q0 -9 7 -15.5t17.5 -10.5t22.5 -6t21 -2h26q20 0 30 -5.5t10 -26.5q0 -25 -9.5 -31.5t-30.5 -6.5h-18q-29 0 -51.5 9.5t-38.5 33.5q-12 -16 -38 -29.5t-78 -13.5h-89zM295 506h-237v49
h54q-11 31 -13.5 47t-2.5 31q0 45 33 73.5t96 28.5q9 0 25.5 -0.5t25.5 -1.5v-48q-5 1 -16.5 1.5t-16.5 0.5q-43 0 -65 -11.5t-22 -49.5q0 -12 3 -28t14 -43h122v-49z" />
    <glyph glyph-name="aAlif.fina" unicode="&#x627;" horiz-adv-x="260" arabic-form="final" 
d="M301 38q0 -25 -10 -31.5t-31 -6.5h-38q-64 0 -103 31.5t-39 106.5v585h84v-573q0 -39 13 -59.5t57 -20.5h26q20 0 30.5 -5.5t10.5 -26.5z" />
    <glyph glyph-name="aBeh.fina" unicode="&#x628;" horiz-adv-x="963" arabic-form="final" 
d="M203 0q-64 0 -103.5 31.5t-39.5 106.5v197h85v-185q0 -34 13.5 -57t57.5 -23h504q41 0 53 18.5t12 60.5v276h84v-321q0 -9 7 -15.5t17.5 -10.5t22.5 -6t21 -2h26q20 0 30 -5.5t10 -26.5q0 -25 -9.5 -31.5t-30.5 -6.5h-18q-29 0 -51.5 9.5t-38.5 33.5q-12 -16 -38 -29.5
t-78 -13.5h-536zM416 -126q0 22 15.5 37.5t37.5 15.5t37.5 -15.5t15.5 -37.5t-15.5 -37.5t-37.5 -15.5t-37.5 15.5t-15.5 37.5z" />
    <glyph glyph-name="aBeh.init" unicode="&#x628;" horiz-adv-x="284" arabic-form="initial" 
d="M0 0q-20 0 -30 7t-10 28q0 35 40 35h125v355h84v-425h-209zM114 -123q0 22 15.5 37.5t37.5 15.5t37.5 -15.5t15.5 -37.5t-15.5 -37.5t-37.5 -15.5t-37.5 15.5t-15.5 37.5z" />
    <glyph glyph-name="aBeh.medi" unicode="&#x628;" horiz-adv-x="313" arabic-form="medial" 
d="M0 0q-20 0 -30 7t-10 28q0 25 9.5 30t30.5 5h70q41 0 53 18.5t12 60.5v276h84v-321q0 -9 7 -15.5t17.5 -10.5t22.5 -6t21 -2h26q20 0 30 -5.5t10 -26.5q0 -25 -9.5 -31.5t-30.5 -6.5h-18q-29 0 -51.5 9.5t-38.5 33.5q-12 -16 -38 -29.5t-78 -13.5h-89zM120 -123
q0 22 15.5 37.5t37.5 15.5t37.5 -15.5t15.5 -37.5t-15.5 -37.5t-37.5 -15.5t-37.5 15.5t-15.5 37.5z" />
    <glyph glyph-name="aTehMarbuta.fina" unicode="&#x629;" horiz-adv-x="547" arabic-form="final" 
d="M587 38q0 -25 -9.5 -31.5t-30.5 -6.5h-40q-42 0 -72.5 12.5t-47.5 41.5h-93q-119 0 -176.5 45.5t-57.5 133.5q0 104 65 152t180 48q13 0 33 -1t41 -2.5t40.5 -3.5t33.5 -4v-272q0 -34 13.5 -57t57.5 -23h23q20 0 30 -5.5t10 -26.5zM147 241q0 -64 42 -92t120 -28h59v241
q-24 3 -43.5 4t-24.5 1q-70 0 -111.5 -29t-41.5 -97zM156 558q0 22 15.5 37.5t37.5 15.5t37.5 -15.5t15.5 -37.5t-15.5 -37.5t-37.5 -15.5t-37.5 15.5t-15.5 37.5zM286 558q0 22 15.5 37.5t37.5 15.5t37.5 -15.5t15.5 -37.5t-15.5 -37.5t-37.5 -15.5t-37.5 15.5t-15.5 37.5z
" />
    <glyph glyph-name="aTeh.fina" unicode="&#x62a;" horiz-adv-x="963" arabic-form="final" 
d="M203 0q-64 0 -103.5 31.5t-39.5 106.5v197h85v-185q0 -34 13.5 -57t57.5 -23h504q41 0 53 18.5t12 60.5v276h84v-321q0 -9 7 -15.5t17.5 -10.5t22.5 -6t21 -2h26q20 0 30 -5.5t10 -26.5q0 -25 -9.5 -31.5t-30.5 -6.5h-18q-29 0 -51.5 9.5t-38.5 33.5q-12 -16 -38 -29.5
t-78 -13.5h-536zM349 499q0 22 15.5 37.5t37.5 15.5t37.5 -15.5t15.5 -37.5t-15.5 -37.5t-37.5 -15.5t-37.5 15.5t-15.5 37.5zM479 499q0 22 15.5 37.5t37.5 15.5t37.5 -15.5t15.5 -37.5t-15.5 -37.5t-37.5 -15.5t-37.5 15.5t-15.5 37.5z" />
    <glyph glyph-name="aTeh.init" unicode="&#x62a;" horiz-adv-x="284" arabic-form="initial" 
d="M0 0q-20 0 -30 7t-10 28q0 35 40 35h125v355h84v-425h-209zM47 558q0 22 15.5 37.5t37.5 15.5t37.5 -15.5t15.5 -37.5t-15.5 -37.5t-37.5 -15.5t-37.5 15.5t-15.5 37.5zM177 558q0 22 15.5 37.5t37.5 15.5t37.5 -15.5t15.5 -37.5t-15.5 -37.5t-37.5 -15.5t-37.5 15.5
t-15.5 37.5z" />
    <glyph glyph-name="aTeh.medi" unicode="&#x62a;" horiz-adv-x="313" arabic-form="medial" 
d="M0 0q-20 0 -30 7t-10 28q0 25 9.5 30t30.5 5h70q41 0 53 18.5t12 60.5v276h84v-321q0 -9 7 -15.5t17.5 -10.5t22.5 -6t21 -2h26q20 0 30 -5.5t10 -26.5q0 -25 -9.5 -31.5t-30.5 -6.5h-18q-29 0 -51.5 9.5t-38.5 33.5q-12 -16 -38 -29.5t-78 -13.5h-89zM62 558
q0 22 15.5 37.5t37.5 15.5t37.5 -15.5t15.5 -37.5t-15.5 -37.5t-37.5 -15.5t-37.5 15.5t-15.5 37.5zM192 558q0 22 15.5 37.5t37.5 15.5t37.5 -15.5t15.5 -37.5t-15.5 -37.5t-37.5 -15.5t-37.5 15.5t-15.5 37.5z" />
    <glyph glyph-name="aTheh.fina" unicode="&#x62b;" horiz-adv-x="963" arabic-form="final" 
d="M203 0q-64 0 -103.5 31.5t-39.5 106.5v197h85v-185q0 -34 13.5 -57t57.5 -23h504q41 0 53 18.5t12 60.5v276h84v-321q0 -9 7 -15.5t17.5 -10.5t22.5 -6t21 -2h26q20 0 30 -5.5t10 -26.5q0 -25 -9.5 -31.5t-30.5 -6.5h-18q-29 0 -51.5 9.5t-38.5 33.5q-12 -16 -38 -29.5
t-78 -13.5h-536zM346 499q0 22 15.5 37.5t37.5 15.5t37.5 -15.5t15.5 -37.5t-15.5 -37.5t-37.5 -15.5t-37.5 15.5t-15.5 37.5zM476 499q0 22 15.5 37.5t37.5 15.5t37.5 -15.5t15.5 -37.5t-15.5 -37.5t-37.5 -15.5t-37.5 15.5t-15.5 37.5zM413 619q0 22 15.5 37.5t37.5 15.5
t37.5 -15.5t15.5 -37.5t-15.5 -37.5t-37.5 -15.5t-37.5 15.5t-15.5 37.5z" />
    <glyph glyph-name="aTheh.init" unicode="&#x62b;" horiz-adv-x="284" arabic-form="initial" 
d="M0 0q-20 0 -30 7t-10 28q0 35 40 35h125v355h84v-425h-209zM49 558q0 22 15.5 37.5t37.5 15.5t37.5 -15.5t15.5 -37.5t-15.5 -37.5t-37.5 -15.5t-37.5 15.5t-15.5 37.5zM179 558q0 22 15.5 37.5t37.5 15.5t37.5 -15.5t15.5 -37.5t-15.5 -37.5t-37.5 -15.5t-37.5 15.5
t-15.5 37.5zM116 678q0 22 15.5 37.5t37.5 15.5t37.5 -15.5t15.5 -37.5t-15.5 -37.5t-37.5 -15.5t-37.5 15.5t-15.5 37.5z" />
    <glyph glyph-name="aTheh.medi" unicode="&#x62b;" horiz-adv-x="313" arabic-form="medial" 
d="M0 0q-20 0 -30 7t-10 28q0 25 9.5 30t30.5 5h70q41 0 53 18.5t12 60.5v276h84v-321q0 -9 7 -15.5t17.5 -10.5t22.5 -6t21 -2h26q20 0 30 -5.5t10 -26.5q0 -25 -9.5 -31.5t-30.5 -6.5h-18q-29 0 -51.5 9.5t-38.5 33.5q-12 -16 -38 -29.5t-78 -13.5h-89zM58 558
q0 22 15.5 37.5t37.5 15.5t37.5 -15.5t15.5 -37.5t-15.5 -37.5t-37.5 -15.5t-37.5 15.5t-15.5 37.5zM188 558q0 22 15.5 37.5t37.5 15.5t37.5 -15.5t15.5 -37.5t-15.5 -37.5t-37.5 -15.5t-37.5 15.5t-15.5 37.5zM125 678q0 22 15.5 37.5t37.5 15.5t37.5 -15.5t15.5 -37.5
t-15.5 -37.5t-37.5 -15.5t-37.5 15.5t-15.5 37.5z" />
    <glyph glyph-name="aJim.fina" unicode="&#x62c;" horiz-adv-x="579" arabic-form="final" 
d="M228 0q-48 0 -77 -22t-29 -64q0 -26 11 -43.5t30 -29t44.5 -16.5t54.5 -5q19 0 33.5 0.5t28 1t27.5 2.5t31 5v-66q-37 -9 -63.5 -11t-49.5 -2q-119 0 -174 42.5t-55 120.5q0 72 49.5 114.5t140.5 42.5h199q-16 25 -22.5 57t-10.5 65t-9 64t-18.5 55.5t-38 39.5t-67.5 15
q-39 0 -67 -6.5t-44 -11.5v63q18 8 49.5 15.5t73.5 7.5q65 0 103.5 -20.5t60 -53t29.5 -73t13.5 -81t12.5 -76.5t26 -60h59q20 0 30 -5.5t10 -26.5q0 -25 -9.5 -31.5t-30.5 -6.5h-351zM226.002 -91.4033q0 19.8008 13.9502 33.751q13.9512 13.9502 33.751 13.9502
q19.8008 0 33.751 -13.9502t13.9502 -33.751q0 -19.7998 -13.9502 -33.751q-13.9502 -13.9502 -33.751 -13.9502q-19.7998 0 -33.751 13.9502q-13.9502 13.9512 -13.9502 33.751z" />
    <glyph glyph-name="aJim.init" unicode="&#x62c;" horiz-adv-x="472" arabic-form="initial" 
d="M166 366q-39 0 -67 -6.5t-44 -11.5v63q18 8 49.5 15.5t73.5 7.5q65 0 103.5 -20.5t60 -53t29.5 -73t13.5 -81t12.5 -76.5t26 -60v-70h-423q-40 0 -40 35q0 22 9.5 28.5t30.5 6.5h332q-16 25 -22.5 57t-10.5 65t-9 64t-18.5 55.5t-38 39.5t-67.5 15zM116 -124
q0 22 15.5 37.5t37.5 15.5t37.5 -15.5t15.5 -37.5t-15.5 -37.5t-37.5 -15.5t-37.5 15.5t-15.5 37.5z" />
    <glyph glyph-name="aJim.medi" unicode="&#x62c;" horiz-adv-x="482" arabic-form="medial" 
d="M332 70q-16 25 -22.5 57t-10.5 65t-9 64t-18.5 55.5t-38 39.5t-67.5 15q-39 0 -67 -6.5t-44 -11.5v63q18 8 49.5 15.5t73.5 7.5q65 0 103.5 -20.5t60 -53t29.5 -73t13.5 -81t12.5 -76.5t26 -60h59q20 0 30 -5.5t10 -26.5q0 -25 -9.5 -31.5t-30.5 -6.5h-482q-40 0 -40 40
q0 18 9.5 24t30.5 6h332zM116 -124q0 22 15.5 37.5t37.5 15.5t37.5 -15.5t15.5 -37.5t-15.5 -37.5t-37.5 -15.5t-37.5 15.5t-15.5 37.5z" />
    <glyph glyph-name="aHah.fina" unicode="&#x62d;" horiz-adv-x="579" arabic-form="final" 
d="M228 0q-48 0 -77 -22t-29 -64q0 -26 11 -43.5t30 -29t44.5 -16.5t54.5 -5q19 0 33.5 0.5t28 1t27.5 2.5t31 5v-66q-37 -9 -63.5 -11t-49.5 -2q-119 0 -174 42.5t-55 120.5q0 72 49.5 114.5t140.5 42.5h199q-16 25 -22.5 57t-10.5 65t-9 64t-18.5 55.5t-38 39.5t-67.5 15
q-39 0 -67 -6.5t-44 -11.5v63q18 8 49.5 15.5t73.5 7.5q65 0 103.5 -20.5t60 -53t29.5 -73t13.5 -81t12.5 -76.5t26 -60h59q20 0 30 -5.5t10 -26.5q0 -25 -9.5 -31.5t-30.5 -6.5h-351z" />
    <glyph glyph-name="aHah.init" unicode="&#x62d;" horiz-adv-x="472" arabic-form="initial" 
d="M166 366q-39 0 -67 -6.5t-44 -11.5v63q18 8 49.5 15.5t73.5 7.5q65 0 103.5 -20.5t60 -53t29.5 -73t13.5 -81t12.5 -76.5t26 -60v-70h-423q-40 0 -40 35q0 22 9.5 28.5t30.5 6.5h332q-16 25 -22.5 57t-10.5 65t-9 64t-18.5 55.5t-38 39.5t-67.5 15z" />
    <glyph glyph-name="aHah.medi" unicode="&#x62d;" horiz-adv-x="482" arabic-form="medial" 
d="M332 70q-16 25 -22.5 57t-10.5 65t-9 64t-18.5 55.5t-38 39.5t-67.5 15q-39 0 -67 -6.5t-44 -11.5v63q18 8 49.5 15.5t73.5 7.5q65 0 103.5 -20.5t60 -53t29.5 -73t13.5 -81t12.5 -76.5t26 -60h59q20 0 30 -5.5t10 -26.5q0 -25 -9.5 -31.5t-30.5 -6.5h-482q-40 0 -40 40
q0 18 9.5 24t30.5 6h332z" />
    <glyph glyph-name="aKhah.fina" unicode="&#x62e;" horiz-adv-x="579" arabic-form="final" 
d="M228 0q-48 0 -77 -22t-29 -64q0 -26 11 -43.5t30 -29t44.5 -16.5t54.5 -5q19 0 33.5 0.5t28 1t27.5 2.5t31 5v-66q-37 -9 -63.5 -11t-49.5 -2q-119 0 -174 42.5t-55 120.5q0 72 49.5 114.5t140.5 42.5h199q-16 25 -22.5 57t-10.5 65t-9 64t-18.5 55.5t-38 39.5t-67.5 15
q-39 0 -67 -6.5t-44 -11.5v63q18 8 49.5 15.5t73.5 7.5q65 0 103.5 -20.5t60 -53t29.5 -73t13.5 -81t12.5 -76.5t26 -60h59q20 0 30 -5.5t10 -26.5q0 -25 -9.5 -31.5t-30.5 -6.5h-351zM222 558q0 22 15.5 37.5t37.5 15.5t37.5 -15.5t15.5 -37.5t-15.5 -37.5t-37.5 -15.5
t-37.5 15.5t-15.5 37.5z" />
    <glyph glyph-name="aKhah.init" unicode="&#x62e;" horiz-adv-x="472" arabic-form="initial" 
d="M166 366q-39 0 -67 -6.5t-44 -11.5v63q18 8 49.5 15.5t73.5 7.5q65 0 103.5 -20.5t60 -53t29.5 -73t13.5 -81t12.5 -76.5t26 -60v-70h-423q-40 0 -40 35q0 22 9.5 28.5t30.5 6.5h332q-16 25 -22.5 57t-10.5 65t-9 64t-18.5 55.5t-38 39.5t-67.5 15zM128 558
q0 22 15.5 37.5t37.5 15.5t37.5 -15.5t15.5 -37.5t-15.5 -37.5t-37.5 -15.5t-37.5 15.5t-15.5 37.5z" />
    <glyph glyph-name="aKhah.medi" unicode="&#x62e;" horiz-adv-x="482" arabic-form="medial" 
d="M332 70q-16 25 -22.5 57t-10.5 65t-9 64t-18.5 55.5t-38 39.5t-67.5 15q-39 0 -67 -6.5t-44 -11.5v63q18 8 49.5 15.5t73.5 7.5q65 0 103.5 -20.5t60 -53t29.5 -73t13.5 -81t12.5 -76.5t26 -60h59q20 0 30 -5.5t10 -26.5q0 -25 -9.5 -31.5t-30.5 -6.5h-482q-40 0 -40 40
q0 18 9.5 24t30.5 6h332zM128 558q0 22 15.5 37.5t37.5 15.5t37.5 -15.5t15.5 -37.5t-15.5 -37.5t-37.5 -15.5t-37.5 15.5t-15.5 37.5z" />
    <glyph glyph-name="aDal.fina" unicode="&#x62f;" horiz-adv-x="549" arabic-form="final" 
d="M378 179q0 39 -5 72t-24.5 56.5t-58.5 37t-108 13.5h-80v67h86q85 0 139 -16.5t84 -46.5t41 -72t11 -94v-92q0 -9 7 -15.5t17.5 -10.5t22.5 -6t21 -2h18q20 0 30 -5.5t10 -26.5q0 -25 -9.5 -31.5t-30.5 -6.5h-10q-29 0 -51.5 9.5t-38.5 33.5q-12 -16 -38 -29.5t-78 -13.5
h-293v70h273q41 0 53 18.5t12 60.5v30z" />
    <glyph glyph-name="aDhal.fina" unicode="&#x630;" horiz-adv-x="549" arabic-form="final" 
d="M378 179q0 39 -5 72t-24.5 56.5t-58.5 37t-108 13.5h-80v67h86q85 0 139 -16.5t84 -46.5t41 -72t11 -94v-92q0 -9 7 -15.5t17.5 -10.5t22.5 -6t21 -2h18q20 0 30 -5.5t10 -26.5q0 -25 -9.5 -31.5t-30.5 -6.5h-10q-29 0 -51.5 9.5t-38.5 33.5q-12 -16 -38 -29.5t-78 -13.5
h-293v70h273q41 0 53 18.5t12 60.5v30zM154 558q0 22 15.5 37.5t37.5 15.5t37.5 -15.5t15.5 -37.5t-15.5 -37.5t-37.5 -15.5t-37.5 15.5t-15.5 37.5z" />
    <glyph glyph-name="aReh.fina" unicode="&#x631;" horiz-adv-x="314" arabic-form="final" 
d="M137 425h85v-355h92q20 0 30 -5.5t10 -26.5q0 -25 -9.5 -31.5t-30.5 -6.5h-93q-2 -39 -11 -71t-29.5 -55t-55.5 -36t-87 -13h-18v70h11q61 0 83.5 29t22.5 93v408z" />
    <glyph glyph-name="aZeh.fina" unicode="&#x632;" horiz-adv-x="314" arabic-form="final" 
d="M137 425h85v-355h92q20 0 30 -5.5t10 -26.5q0 -25 -9.5 -31.5t-30.5 -6.5h-93q-2 -39 -11 -71t-29.5 -55t-55.5 -36t-87 -13h-18v70h11q61 0 83.5 29t22.5 93v408zM129 558q0 22 15.5 37.5t37.5 15.5t37.5 -15.5t15.5 -37.5t-15.5 -37.5t-37.5 -15.5t-37.5 15.5
t-15.5 37.5z" />
    <glyph glyph-name="aSin.fina" unicode="&#x633;" horiz-adv-x="1175" arabic-form="final" 
d="M60 245h84v-163q0 -48 8 -83.5t27 -58.5t51.5 -34t80.5 -11q50 0 83 9.5t52 30.5t26.5 55t7.5 84v261h84v-265h175v265h84v-265h108q41 0 53 18.5t12 60.5v276h84v-321q0 -9 7 -15.5t17.5 -10.5t22.5 -6t21 -2h27q20 0 30 -5.5t10 -26.5q0 -25 -9.5 -31.5t-30.5 -6.5h-19
q-29 0 -51.5 9.5t-38.5 33.5q-12 -16 -38 -29.5t-78 -13.5h-391q-16 -93 -77.5 -134t-172.5 -41q-68 0 -115.5 16t-77 46.5t-43 75t-13.5 102.5v180z" />
    <glyph glyph-name="aSin.init" unicode="&#x633;" horiz-adv-x="846" arabic-form="initial" 
d="M1 0q-20 0 -30 7t-10 28q0 25 9.5 30t30.5 5h175v265h84v-265h178v265h84v-265h170v355h84v-425h-775z" />
    <glyph glyph-name="aSin.medi" unicode="&#x633;" horiz-adv-x="860" arabic-form="medial" 
d="M0 0q-20 0 -30 7t-10 28q0 25 9.5 30t30.5 5h165v265h84v-265h175v265h84v-265h108q41 0 53 18.5t12 60.5v276h84v-321q0 -9 7 -15.5t17.5 -10.5t22.5 -6t21 -2h27q20 0 30 -5.5t10 -26.5q0 -25 -9.5 -31.5t-30.5 -6.5h-19q-29 0 -51.5 9.5t-38.5 33.5q-12 -16 -38 -29.5
t-78 -13.5h-635z" />
    <glyph glyph-name="aShin.fina" unicode="&#x634;" horiz-adv-x="1175" arabic-form="final" 
d="M60 245h84v-163q0 -48 8 -83.5t27 -58.5t51.5 -34t80.5 -11q50 0 83 9.5t52 30.5t26.5 55t7.5 84v261h84v-265h175v265h84v-265h108q41 0 53 18.5t12 60.5v276h84v-321q0 -9 7 -15.5t17.5 -10.5t22.5 -6t21 -2h27q20 0 30 -5.5t10 -26.5q0 -25 -9.5 -31.5t-30.5 -6.5h-19
q-29 0 -51.5 9.5t-38.5 33.5q-12 -16 -38 -29.5t-78 -13.5h-391q-16 -93 -77.5 -134t-172.5 -41q-68 0 -115.5 16t-77 46.5t-43 75t-13.5 102.5v180zM666 558q0 22 15.5 37.5t37.5 15.5t37.5 -15.5t15.5 -37.5t-15.5 -37.5t-37.5 -15.5t-37.5 15.5t-15.5 37.5zM796 558
q0 22 15.5 37.5t37.5 15.5t37.5 -15.5t15.5 -37.5t-15.5 -37.5t-37.5 -15.5t-37.5 15.5t-15.5 37.5zM733 678q0 22 15.5 37.5t37.5 15.5t37.5 -15.5t15.5 -37.5t-15.5 -37.5t-37.5 -15.5t-37.5 15.5t-15.5 37.5z" />
    <glyph glyph-name="aShin.init" unicode="&#x634;" horiz-adv-x="846" arabic-form="initial" 
d="M1 0q-20 0 -30 7t-10 28q0 25 9.5 30t30.5 5h175v265h84v-265h178v265h84v-265h170v355h84v-425h-775zM364 558q0 22 15.5 37.5t37.5 15.5t37.5 -15.5t15.5 -37.5t-15.5 -37.5t-37.5 -15.5t-37.5 15.5t-15.5 37.5zM494 558q0 22 15.5 37.5t37.5 15.5t37.5 -15.5
t15.5 -37.5t-15.5 -37.5t-37.5 -15.5t-37.5 15.5t-15.5 37.5zM431 678q0 22 15.5 37.5t37.5 15.5t37.5 -15.5t15.5 -37.5t-15.5 -37.5t-37.5 -15.5t-37.5 15.5t-15.5 37.5z" />
    <glyph glyph-name="aShin.medi" unicode="&#x634;" horiz-adv-x="860" arabic-form="medial" 
d="M0 0q-20 0 -30 7t-10 28q0 25 9.5 30t30.5 5h165v265h84v-265h175v265h84v-265h108q41 0 53 18.5t12 60.5v276h84v-321q0 -9 7 -15.5t17.5 -10.5t22.5 -6t21 -2h27q20 0 30 -5.5t10 -26.5q0 -25 -9.5 -31.5t-30.5 -6.5h-19q-29 0 -51.5 9.5t-38.5 33.5q-12 -16 -38 -29.5
t-78 -13.5h-635zM353 558q0 22 15.5 37.5t37.5 15.5t37.5 -15.5t15.5 -37.5t-15.5 -37.5t-37.5 -15.5t-37.5 15.5t-15.5 37.5zM483 558q0 22 15.5 37.5t37.5 15.5t37.5 -15.5t15.5 -37.5t-15.5 -37.5t-37.5 -15.5t-37.5 15.5t-15.5 37.5zM420 678q0 22 15.5 37.5t37.5 15.5
t37.5 -15.5t15.5 -37.5t-15.5 -37.5t-37.5 -15.5t-37.5 15.5t-15.5 37.5z" />
    <glyph glyph-name="aSad.fina" unicode="&#x635;" horiz-adv-x="1185" arabic-form="final" 
d="M60 245h84v-163q0 -48 8 -83.5t27 -58.5t51.5 -34t80.5 -11q50 0 83 9.5t52 30.5t26.5 55t7.5 84v351h84v-36q22 5 55 11.5t69 12t72 9t65 3.5q84 0 137.5 -18.5t84 -51.5t41.5 -79.5t11 -101.5v-70q0 -9 7 -15.5t17 -10.5t22 -6t21 -2h19q20 0 30 -5.5t10 -26.5
q0 -25 -9.5 -31.5t-30.5 -6.5h-11q-29 0 -51.5 9.5t-38.5 33.5q-12 -16 -38 -29.5t-78 -13.5h-409q-16 -93 -77.5 -134t-172.5 -41q-68 0 -115.5 16t-77 46.5t-43 75t-13.5 102.5v180zM1014 157q0 51 -9 88.5t-33 62.5t-64.5 37.5t-103.5 12.5q-30 0 -62.5 -3t-65 -8
t-61.5 -10.5t-51 -11.5v-255h385q41 0 53 18.5t12 60.5v8z" />
    <glyph glyph-name="aSad.init" unicode="&#x635;" horiz-adv-x="809" arabic-form="initial" 
d="M214 389q22 5 54.5 11.5t68.5 12t73 9t70 3.5q77 0 129 -17t83 -48.5t44 -76.5t13 -100v-183h-749q-20 0 -30 7t-10 28q0 25 9.5 30t30.5 5h130v355h84v-36zM467 358q-57 0 -120.5 -8.5t-132.5 -23.5v-256h450v86q0 56 -11 94.5t-35 62.5t-61.5 34.5t-89.5 10.5z" />
    <glyph glyph-name="aSad.medi" unicode="&#x635;" horiz-adv-x="835" arabic-form="medial" 
d="M214 389q22 5 55 11.5t69 12t72 9t65 3.5q84 0 137.5 -18.5t84 -51.5t41.5 -79.5t11 -101.5v-70q0 -9 7 -15.5t17 -10.5t22 -6t21 -2h19q20 0 30 -5.5t10 -26.5q0 -25 -9.5 -31.5t-30.5 -6.5h-11q-29 0 -51.5 9.5t-38.5 33.5q-12 -16 -38 -29.5t-78 -13.5h-618
q-20 0 -30 7t-10 28q0 25 9.5 30t30.5 5h130v355h84v-36zM664 157q0 51 -9 88.5t-33 62.5t-64.5 37.5t-103.5 12.5q-30 0 -62.5 -3t-65 -8t-61.5 -10.5t-51 -11.5v-255h385q41 0 53 18.5t12 60.5v8z" />
    <glyph glyph-name="aDad.fina" unicode="&#x636;" horiz-adv-x="1185" arabic-form="final" 
d="M60 245h84v-163q0 -48 8 -83.5t27 -58.5t51.5 -34t80.5 -11q50 0 83 9.5t52 30.5t26.5 55t7.5 84v351h84v-36q22 5 55 11.5t69 12t72 9t65 3.5q84 0 137.5 -18.5t84 -51.5t41.5 -79.5t11 -101.5v-70q0 -9 7 -15.5t17 -10.5t22 -6t21 -2h19q20 0 30 -5.5t10 -26.5
q0 -25 -9.5 -31.5t-30.5 -6.5h-11q-29 0 -51.5 9.5t-38.5 33.5q-12 -16 -38 -29.5t-78 -13.5h-409q-16 -93 -77.5 -134t-172.5 -41q-68 0 -115.5 16t-77 46.5t-43 75t-13.5 102.5v180zM1014 157q0 51 -9 88.5t-33 62.5t-64.5 37.5t-103.5 12.5q-30 0 -62.5 -3t-65 -8
t-61.5 -10.5t-51 -11.5v-255h385q41 0 53 18.5t12 60.5v8zM742 558q0 22 15.5 37.5t37.5 15.5t37.5 -15.5t15.5 -37.5t-15.5 -37.5t-37.5 -15.5t-37.5 15.5t-15.5 37.5z" />
    <glyph glyph-name="aDad.init" unicode="&#x636;" horiz-adv-x="809" arabic-form="initial" 
d="M214 389q22 5 54.5 11.5t68.5 12t73 9t70 3.5q77 0 129 -17t83 -48.5t44 -76.5t13 -100v-183h-749q-20 0 -30 7t-10 28q0 25 9.5 30t30.5 5h130v355h84v-36zM467 358q-57 0 -120.5 -8.5t-132.5 -23.5v-256h450v86q0 56 -11 94.5t-35 62.5t-61.5 34.5t-89.5 10.5zM399 558
q0 22 15.5 37.5t37.5 15.5t37.5 -15.5t15.5 -37.5t-15.5 -37.5t-37.5 -15.5t-37.5 15.5t-15.5 37.5z" />
    <glyph glyph-name="aDad.medi" unicode="&#x636;" horiz-adv-x="835" arabic-form="medial" 
d="M214 389q22 5 55 11.5t69 12t72 9t65 3.5q84 0 137.5 -18.5t84 -51.5t41.5 -79.5t11 -101.5v-70q0 -9 7 -15.5t17 -10.5t22 -6t21 -2h19q20 0 30 -5.5t10 -26.5q0 -25 -9.5 -31.5t-30.5 -6.5h-11q-29 0 -51.5 9.5t-38.5 33.5q-12 -16 -38 -29.5t-78 -13.5h-618
q-20 0 -30 7t-10 28q0 25 9.5 30t30.5 5h130v355h84v-36zM664 157q0 51 -9 88.5t-33 62.5t-64.5 37.5t-103.5 12.5q-30 0 -62.5 -3t-65 -8t-61.5 -10.5t-51 -11.5v-255h385q41 0 53 18.5t12 60.5v8zM399 558q0 22 15.5 37.5t37.5 15.5t37.5 -15.5t15.5 -37.5t-15.5 -37.5
t-37.5 -15.5t-37.5 15.5t-15.5 37.5z" />
    <glyph glyph-name="aTah.fina" unicode="&#x637;" horiz-adv-x="851" arabic-form="final" 
d="M231 389q22 5 55 11.5t69 12t71.5 9t64.5 3.5q84 0 137.5 -18.5t84 -51.5t41.5 -79.5t11 -101.5v-70q0 -9 7 -15.5t17 -10.5t22 -6t21 -2h19q20 0 30 -5.5t10 -26.5q0 -25 -9.5 -31.5t-30.5 -6.5h-11q-29 0 -51.5 9.5t-38.5 33.5q-12 -16 -38 -29.5t-78 -13.5h-584v70h97
v653h84v-334zM680 157q0 51 -9 88.5t-33 62.5t-64.5 37.5t-103.5 12.5q-29 0 -62 -3t-65 -8t-61 -10.5t-51 -11.5v-255h384q41 0 53 18.5t12 60.5v8z" />
    <glyph glyph-name="aTah.init" unicode="&#x637;" horiz-adv-x="809" arabic-form="initial" 
d="M214 389q22 5 54.5 11.5t68.5 12t73 9t70 3.5q77 0 129 -17t83 -48.5t44 -76.5t13 -100v-183h-749q-20 0 -30 7t-10 28q0 25 9.5 30t30.5 5h130v653h84v-334zM467 358q-57 0 -120.5 -8.5t-132.5 -23.5v-256h450v86q0 56 -11 94.5t-35 62.5t-61.5 34.5t-89.5 10.5z" />
    <glyph glyph-name="aTah.medi" unicode="&#x637;" horiz-adv-x="836" arabic-form="medial" 
d="M215 389q22 5 55 11.5t69 12t72 9t65 3.5q84 0 137.5 -18.5t84 -51.5t41.5 -79.5t11 -101.5v-70q0 -9 7 -15.5t17 -10.5t22 -6t21 -2h19q20 0 30 -5.5t10 -26.5q0 -25 -9.5 -31.5t-30.5 -6.5h-11q-29 0 -51.5 9.5t-38.5 33.5q-12 -16 -38 -29.5t-78 -13.5h-619
q-20 0 -30 7t-10 28q0 25 9.5 30t30.5 5h131v653h84v-334zM665 157q0 51 -9 88.5t-33 62.5t-64.5 37.5t-103.5 12.5q-30 0 -62.5 -3t-65 -8t-61.5 -10.5t-51 -11.5v-255h385q41 0 53 18.5t12 60.5v8z" />
    <glyph glyph-name="aZah.fina" unicode="&#x638;" horiz-adv-x="851" arabic-form="final" 
d="M231 389q22 5 55 11.5t69 12t71.5 9t64.5 3.5q84 0 137.5 -18.5t84 -51.5t41.5 -79.5t11 -101.5v-70q0 -9 7 -15.5t17 -10.5t22 -6t21 -2h19q20 0 30 -5.5t10 -26.5q0 -25 -9.5 -31.5t-30.5 -6.5h-11q-29 0 -51.5 9.5t-38.5 33.5q-12 -16 -38 -29.5t-78 -13.5h-584v70h97
v653h84v-334zM680 157q0 51 -9 88.5t-33 62.5t-64.5 37.5t-103.5 12.5q-29 0 -62 -3t-65 -8t-61 -10.5t-51 -11.5v-255h384q41 0 53 18.5t12 60.5v8zM420 558q0 22 15.5 37.5t37.5 15.5t37.5 -15.5t15.5 -37.5t-15.5 -37.5t-37.5 -15.5t-37.5 15.5t-15.5 37.5z" />
    <glyph glyph-name="aZah.init" unicode="&#x638;" horiz-adv-x="809" arabic-form="initial" 
d="M214 389q22 5 54.5 11.5t68.5 12t73 9t70 3.5q77 0 129 -17t83 -48.5t44 -76.5t13 -100v-183h-749q-20 0 -30 7t-10 28q0 25 9.5 30t30.5 5h130v653h84v-334zM467 358q-57 0 -120.5 -8.5t-132.5 -23.5v-256h450v86q0 56 -11 94.5t-35 62.5t-61.5 34.5t-89.5 10.5z
M403 558q0 22 15.5 37.5t37.5 15.5t37.5 -15.5t15.5 -37.5t-15.5 -37.5t-37.5 -15.5t-37.5 15.5t-15.5 37.5z" />
    <glyph glyph-name="aZah.medi" unicode="&#x638;" horiz-adv-x="836" arabic-form="medial" 
d="M215 389q22 5 55 11.5t69 12t72 9t65 3.5q84 0 137.5 -18.5t84 -51.5t41.5 -79.5t11 -101.5v-70q0 -9 7 -15.5t17 -10.5t22 -6t21 -2h19q20 0 30 -5.5t10 -26.5q0 -25 -9.5 -31.5t-30.5 -6.5h-11q-29 0 -51.5 9.5t-38.5 33.5q-12 -16 -38 -29.5t-78 -13.5h-619
q-20 0 -30 7t-10 28q0 25 9.5 30t30.5 5h131v653h84v-334zM665 157q0 51 -9 88.5t-33 62.5t-64.5 37.5t-103.5 12.5q-30 0 -62.5 -3t-65 -8t-61.5 -10.5t-51 -11.5v-255h385q41 0 53 18.5t12 60.5v8zM404 558q0 22 15.5 37.5t37.5 15.5t37.5 -15.5t15.5 -37.5t-15.5 -37.5
t-37.5 -15.5t-37.5 15.5t-15.5 37.5z" />
    <glyph glyph-name="aAyn.fina" unicode="&#x639;" horiz-adv-x="561" arabic-form="final" 
d="M295 25q-27 -13 -57 -22.5t-56 -21.5t-43 -30.5t-17 -48.5q0 -21 11 -36.5t30 -25.5t44.5 -15t54.5 -5q19 0 33.5 0.5t28 1t27.5 2.5t31 5v-66q-37 -9 -63.5 -11t-49.5 -2q-119 0 -174 41.5t-55 110.5q0 39 17.5 65.5t45 44.5t61.5 30t67 23l-7 5q-42 34 -68.5 65.5
t-41.5 58.5t-20 50t-5 41q0 37 16 65t43.5 47t65.5 28t83 9t83 -8.5t66 -26.5t43.5 -45.5t15.5 -65.5q0 -39 -28.5 -95.5t-106.5 -122.5h191q20 0 30 -5.5t10 -26.5q0 -25 -9.5 -31.5t-30.5 -6.5h-121q-33 0 -56 2.5t-39.5 6.5t-28 8.5t-21.5 7.5zM297 366q-25 0 -47.5 -5.5
t-39 -17t-26 -29.5t-9.5 -43q0 -11 3 -27.5t15.5 -38t37 -49.5t67.5 -62q39 30 63 57.5t37 51t17 42t4 30.5q0 27 -11.5 44.5t-29.5 28t-39.5 14.5t-41.5 4z" />
    <glyph glyph-name="aAyn.init" unicode="&#x639;" horiz-adv-x="523" arabic-form="initial" 
d="M493 0h-493q-40 0 -40 40q0 30 40 30h136q-13 29 -26 72.5t-13 91.5q0 41 13.5 77.5t41.5 63.5t70.5 43t100.5 16q29 0 62.5 -3t52.5 -5v-67q-10 1 -37.5 4t-62.5 3q-30 0 -58 -7.5t-49.5 -24.5t-34 -44.5t-12.5 -67.5q0 -21 4 -42.5t10.5 -41.5t14 -37.5t13.5 -30.5h267
v-70z" />
    <glyph glyph-name="aAyn.medi" unicode="&#x639;" horiz-adv-x="555" arabic-form="medial" 
d="M292 366q-25 0 -47.5 -5.5t-39 -17t-26 -29.5t-9.5 -43q0 -11 3 -27.5t15.5 -38t37 -49.5t67.5 -62q39 30 63 57.5t37 51t17 42t4 30.5q0 27 -11.5 44.5t-29.5 28t-39.5 14.5t-41.5 4zM0 0q-40 0 -40 35q0 23 9.5 29t30.5 6h219q-42 34 -68.5 65.5t-41.5 58.5t-20 50
t-5 41q0 37 16 65t43.5 47t65.5 28t83 9t83 -8.5t66 -26.5t43.5 -45.5t15.5 -65.5q0 -39 -28.5 -95.5t-106.5 -122.5h191q20 0 30 -5.5t10 -26.5q0 -25 -9.5 -31.5t-30.5 -6.5h-121q-33 0 -56 2.5t-38.5 6.5t-26.5 8.5t-21 7.5q-10 -3 -21.5 -7.5t-28 -8.5t-40.5 -6.5
t-60 -2.5h-143z" />
    <glyph glyph-name="aGhayn.fina" unicode="&#x63a;" horiz-adv-x="561" arabic-form="final" 
d="M295 25q-27 -13 -57 -22.5t-56 -21.5t-43 -30.5t-17 -48.5q0 -21 11 -36.5t30 -25.5t44.5 -15t54.5 -5q19 0 33.5 0.5t28 1t27.5 2.5t31 5v-66q-37 -9 -63.5 -11t-49.5 -2q-119 0 -174 41.5t-55 110.5q0 39 17.5 65.5t45 44.5t61.5 30t67 23l-7 5q-42 34 -68.5 65.5
t-41.5 58.5t-20 50t-5 41q0 37 16 65t43.5 47t65.5 28t83 9t83 -8.5t66 -26.5t43.5 -45.5t15.5 -65.5q0 -39 -28.5 -95.5t-106.5 -122.5h191q20 0 30 -5.5t10 -26.5q0 -25 -9.5 -31.5t-30.5 -6.5h-121q-33 0 -56 2.5t-39.5 6.5t-28 8.5t-21.5 7.5zM297 366q-25 0 -47.5 -5.5
t-39 -17t-26 -29.5t-9.5 -43q0 -11 3 -27.5t15.5 -38t37 -49.5t67.5 -62q39 30 63 57.5t37 51t17 42t4 30.5q0 27 -11.5 44.5t-29.5 28t-39.5 14.5t-41.5 4zM243 558q0 22 15.5 37.5t37.5 15.5t37.5 -15.5t15.5 -37.5t-15.5 -37.5t-37.5 -15.5t-37.5 15.5t-15.5 37.5z" />
    <glyph glyph-name="aGhayn.init" unicode="&#x63a;" horiz-adv-x="523" arabic-form="initial" 
d="M493 0h-493q-40 0 -40 40q0 30 40 30h136q-13 29 -26 72.5t-13 91.5q0 41 13.5 77.5t41.5 63.5t70.5 43t100.5 16q29 0 62.5 -3t52.5 -5v-67q-10 1 -37.5 4t-62.5 3q-30 0 -58 -7.5t-49.5 -24.5t-34 -44.5t-12.5 -67.5q0 -21 4 -42.5t10.5 -41.5t14 -37.5t13.5 -30.5h267
v-70zM262 558q0 22 15.5 37.5t37.5 15.5t37.5 -15.5t15.5 -37.5t-15.5 -37.5t-37.5 -15.5t-37.5 15.5t-15.5 37.5z" />
    <glyph glyph-name="aGhayn.medi" unicode="&#x63a;" horiz-adv-x="555" arabic-form="medial" 
d="M292 366q-25 0 -47.5 -5.5t-39 -17t-26 -29.5t-9.5 -43q0 -11 3 -27.5t15.5 -38t37 -49.5t67.5 -62q39 30 63 57.5t37 51t17 42t4 30.5q0 27 -11.5 44.5t-29.5 28t-39.5 14.5t-41.5 4zM0 0q-40 0 -40 35q0 23 9.5 29t30.5 6h219q-42 34 -68.5 65.5t-41.5 58.5t-20 50
t-5 41q0 37 16 65t43.5 47t65.5 28t83 9t83 -8.5t66 -26.5t43.5 -45.5t15.5 -65.5q0 -39 -28.5 -95.5t-106.5 -122.5h191q20 0 30 -5.5t10 -26.5q0 -25 -9.5 -31.5t-30.5 -6.5h-121q-33 0 -56 2.5t-38.5 6.5t-26.5 8.5t-21 7.5q-10 -3 -21.5 -7.5t-28 -8.5t-40.5 -6.5
t-60 -2.5h-143zM242 558q0 22 15.5 37.5t37.5 15.5t37.5 -15.5t15.5 -37.5t-15.5 -37.5t-37.5 -15.5t-37.5 15.5t-15.5 37.5z" />
    <glyph glyph-name="aFeh.fina" unicode="&#x641;" horiz-adv-x="1021" arabic-form="final" 
d="M203 0q-64 0 -103.5 31.5t-39.5 106.5v197h85v-185q0 -34 13.5 -57t57.5 -23h349q-17 41 -25.5 81t-8.5 74q0 45 14.5 83t44.5 65.5t76 43.5t109 16q46 0 82 -3t70 -5v-321q0 -9 7 -15.5t17.5 -10.5t22.5 -6t21 -2h26q20 0 30 -5.5t10 -26.5q0 -25 -9.5 -31.5t-30.5 -6.5
h-18q-29 0 -51.5 9.5t-38.5 33.5q-12 -16 -38 -29.5t-78 -13.5h-594zM778 70q41 0 53 18.5t12 60.5v214l-20 2t-18 1q-92 0 -139.5 -31.5t-47.5 -108.5q0 -17 5.5 -54t32.5 -102h122zM701 558q0 22 15.5 37.5t37.5 15.5t37.5 -15.5t15.5 -37.5t-15.5 -37.5t-37.5 -15.5
t-37.5 15.5t-15.5 37.5z" />
    <glyph glyph-name="aFeh.init" unicode="&#x641;" horiz-adv-x="570" arabic-form="initial" 
d="M0 0q-20 0 -30 7t-10 28q0 25 9.5 30t30.5 5h139q-17 41 -25.5 81t-8.5 74q0 45 14.5 83t44.5 65.5t76 43.5t109 16q48 0 83.5 -3t67.5 -5v-425h-500zM416 70v293q-9 1 -19 2t-18 1q-92 0 -139.5 -31.5t-47.5 -108.5q0 -17 5.5 -54t32.5 -102h186zM290 558
q0 22 15.5 37.5t37.5 15.5t37.5 -15.5t15.5 -37.5t-15.5 -37.5t-37.5 -15.5t-37.5 15.5t-15.5 37.5z" />
    <glyph glyph-name="aFeh.medi" unicode="&#x641;" horiz-adv-x="594" arabic-form="medial" 
d="M0 0q-20 0 -30 7t-10 28q0 25 9.5 30t30.5 5h139q-17 41 -25.5 81t-8.5 74q0 45 14.5 83t44.5 65.5t76 43.5t109 16q46 0 82 -3t69 -5v-321q0 -9 7 -15.5t17.5 -10.5t22.5 -6t21 -2h26q20 0 30 -5.5t10 -26.5q0 -25 -9.5 -31.5t-30.5 -6.5h-18q-29 0 -51.5 9.5
t-38.5 33.5q-12 -16 -38 -29.5t-78 -13.5h-370zM351 70q41 0 53 18.5t12 60.5v214q-9 1 -19 2t-18 1q-92 0 -139.5 -31.5t-47.5 -108.5q0 -17 5.5 -54t32.5 -102h121zM290 558q0 22 15.5 37.5t37.5 15.5t37.5 -15.5t15.5 -37.5t-15.5 -37.5t-37.5 -15.5t-37.5 15.5
t-15.5 37.5z" />
    <glyph glyph-name="aQaf.fina" unicode="&#x642;" horiz-adv-x="847" arabic-form="final" 
d="M754 0q-3 -44 -23 -77t-61 -55t-104.5 -32.5t-153.5 -10.5q-174 0 -263 55.5t-89 184.5v180h84v-163q0 -48 15 -83.5t47.5 -58.5t84 -34t123.5 -11q76 0 126 7t79 20.5t40.5 33t11.5 44.5h-61q-79 0 -127 21t-74.5 53t-35.5 69.5t-9 70.5q0 49 15 89t45.5 69t77 45
t109.5 16q44 0 80 -3t64 -5v-355h92q20 0 30 -5.5t10 -26.5q0 -25 -9.5 -31.5t-30.5 -6.5h-93zM447 210q0 -23 6 -47.5t24 -45t51.5 -34t88.5 -13.5h54v295q-8 1 -17 1.5t-19 0.5q-45 0 -80 -7t-59 -24.5t-36.5 -48t-12.5 -77.5zM468 558q0 22 15.5 37.5t37.5 15.5
t37.5 -15.5t15.5 -37.5t-15.5 -37.5t-37.5 -15.5t-37.5 15.5t-15.5 37.5zM598 558q0 22 15.5 37.5t37.5 15.5t37.5 -15.5t15.5 -37.5t-15.5 -37.5t-37.5 -15.5t-37.5 15.5t-15.5 37.5z" />
    <glyph glyph-name="aQaf.init" unicode="&#x642;" horiz-adv-x="570" arabic-form="initial" 
d="M0 0q-20 0 -30 7t-10 28q0 25 9.5 30t30.5 5h139q-17 41 -25.5 81t-8.5 74q0 45 14.5 83t44.5 65.5t76 43.5t109 16q48 0 83.5 -3t67.5 -5v-425h-500zM416 70v293q-9 1 -19 2t-18 1q-92 0 -139.5 -31.5t-47.5 -108.5q0 -17 5.5 -54t32.5 -102h186zM205 558
q0 22 15.5 37.5t37.5 15.5t37.5 -15.5t15.5 -37.5t-15.5 -37.5t-37.5 -15.5t-37.5 15.5t-15.5 37.5zM335 558q0 22 15.5 37.5t37.5 15.5t37.5 -15.5t15.5 -37.5t-15.5 -37.5t-37.5 -15.5t-37.5 15.5t-15.5 37.5z" />
    <glyph glyph-name="aQaf.medi" unicode="&#x642;" horiz-adv-x="594" arabic-form="medial" 
d="M0 0q-20 0 -30 7t-10 28q0 25 9.5 30t30.5 5h139q-17 41 -25.5 81t-8.5 74q0 45 14.5 83t44.5 65.5t76 43.5t109 16q46 0 82 -3t69 -5v-321q0 -9 7 -15.5t17.5 -10.5t22.5 -6t21 -2h26q20 0 30 -5.5t10 -26.5q0 -25 -9.5 -31.5t-30.5 -6.5h-18q-29 0 -51.5 9.5
t-38.5 33.5q-12 -16 -38 -29.5t-78 -13.5h-370zM351 70q41 0 53 18.5t12 60.5v214q-9 1 -19 2t-18 1q-92 0 -139.5 -31.5t-47.5 -108.5q0 -17 5.5 -54t32.5 -102h121zM205 558q0 22 15.5 37.5t37.5 15.5t37.5 -15.5t15.5 -37.5t-15.5 -37.5t-37.5 -15.5t-37.5 15.5
t-15.5 37.5zM335 558q0 22 15.5 37.5t37.5 15.5t37.5 -15.5t15.5 -37.5t-15.5 -37.5t-37.5 -15.5t-37.5 15.5t-15.5 37.5z" />
    <glyph glyph-name="aKaf.fina" unicode="&#x643;" horiz-adv-x="964" arabic-form="final" 
d="M720 70q41 0 53 18.5t12 60.5v574h84v-619q0 -9 7 -15.5t17.5 -10.5t22.5 -6t21 -2h26q20 0 30 -5.5t10 -26.5q0 -25 -9.5 -31.5t-30.5 -6.5h-18q-29 0 -51.5 9.5t-38.5 33.5q-12 -16 -38 -29.5t-78 -13.5h-536q-64 0 -103.5 31.5t-39.5 106.5v197h85v-185
q0 -34 13.5 -57t57.5 -23h504zM563 335h-204v42h47q-9 26 -11.5 40t-2.5 27q0 39 28.5 63.5t82.5 24.5q8 0 22 -0.5t22 -1.5v-41q-5 1 -15 1.5t-14 0.5q-37 0 -56 -10.5t-19 -42.5q0 -11 2.5 -24.5t12.5 -36.5h105v-42z" />
    <glyph glyph-name="aKaf.init" unicode="&#x643;" horiz-adv-x="586" arabic-form="initial" 
d="M55 358v67l283 303l55 -51l-234 -252h76q66 0 120 -10.5t92 -36.5t58.5 -70t20.5 -112v-196h-526q-20 0 -30 7t-10 28q0 25 9 30t30 5h442v109q0 51 -12 85.5t-37.5 55t-65.5 29.5t-97 9h-174z" />
    <glyph glyph-name="aKaf.medi" unicode="&#x643;" horiz-adv-x="612" arabic-form="medial" 
d="M526 104q0 -9 7 -15.5t17 -10.5t22 -6t21 -2h19q20 0 30 -5.5t10 -26.5q0 -25 -9.5 -31.5t-30.5 -6.5h-11q-29 0 -51.5 9.5t-38.5 33.5q-12 -16 -38 -29.5t-78 -13.5h-395q-20 0 -30 7t-10 28q0 25 9.5 30t30.5 5h376q41 0 53 18.5t12 60.5v30q0 52 -12.5 87t-38 55
t-66 28.5t-95.5 8.5h-174v67l283 303l55 -51l-234 -252h76q69 0 123 -11.5t91.5 -37.5t57 -70t19.5 -110v-92z" />
    <glyph glyph-name="aLam.fina" unicode="&#x644;" horiz-adv-x="666" arabic-form="final" 
d="M60 245h84v-163q0 -48 8 -83.5t27 -58.5t51.5 -34t80.5 -11q50 0 83 9.5t52 30.5t26.5 55t7.5 84v649h84v-653h102q20 0 30 -5.5t10 -26.5q0 -25 -9.5 -31.5t-30.5 -6.5h-107q-16 -93 -77.5 -134t-172.5 -41q-68 0 -115.5 16t-77 46.5t-43 75t-13.5 102.5v180z" />
    <glyph glyph-name="aLam.init" unicode="&#x644;" horiz-adv-x="289" arabic-form="initial" 
d="M0 0q-20 0 -30 7t-10 28q0 25 9.5 30t30.5 5h125v653h84v-723h-209z" />
    <glyph glyph-name="aLam.medi" unicode="&#x644;" horiz-adv-x="313" arabic-form="medial" 
d="M0 0q-20 0 -30 7t-10 28q0 25 9.5 30t30.5 5h70q41 0 53 18.5t12 60.5v574h84v-619q0 -9 7 -15.5t17.5 -10.5t22.5 -6t21 -2h26q20 0 30 -5.5t10 -26.5q0 -25 -9.5 -31.5t-30.5 -6.5h-18q-29 0 -51.5 9.5t-38.5 33.5q-12 -16 -38 -29.5t-78 -13.5h-89z" />
    <glyph glyph-name="aMim.fina" unicode="&#x645;" horiz-adv-x="659" arabic-form="final" 
d="M240 -83q-6 13 -15.5 34.5t-20.5 48.5h-32q-13 0 -22 -2.5t-15 -10t-8.5 -22.5t-2.5 -40v-175h-84v245q0 25 7.5 40t18.5 22.5t24 10t25 2.5h67q-5 20 -7.5 40t-2.5 41q0 41 14 77.5t41 63.5t67 43t91 16q57 0 96 -19t63 -49.5t34.5 -68t10.5 -73.5q0 -38 -9 -71h79
q20 0 30 -5.5t10 -26.5q0 -25 -9.5 -31.5t-30.5 -6.5h-110q-26 -38 -65.5 -60.5t-94.5 -22.5h-149zM380 -13q32 0 55 13.5t38 35t22 49t7 54.5q0 64 -30.5 104.5t-89.5 40.5q-23 0 -45.5 -7.5t-39.5 -24t-27.5 -42.5t-10.5 -62q0 -26 4.5 -49.5t11 -44.5t13.5 -38t13 -29h79
z" />
    <glyph glyph-name="aMim.init" unicode="&#x645;" horiz-adv-x="576" arabic-form="initial" 
d="M142 70q-12 28 -25 70.5t-13 93.5q0 41 14 77.5t41 63.5t67 43t91 16q57 0 96 -19t63 -49.5t34.5 -68t10.5 -73.5q0 -44 -13 -84.5t-38 -71.5t-62.5 -49.5t-86.5 -18.5h-321q-20 0 -30 7t-10 28q0 25 9.5 30t30.5 5h142zM312 70q32 0 55 13.5t38 35t22 49t7 54.5
q0 64 -30.5 104.5t-89.5 40.5q-23 0 -45.5 -7.5t-39.5 -24t-27.5 -42.5t-10.5 -62q0 -26 4.5 -49.5t11 -44.5t13.5 -38t13 -29h79z" />
    <glyph glyph-name="aMim.medi" unicode="&#x645;" horiz-adv-x="594" arabic-form="medial" 
d="M176 -83q-6 13 -15.5 34.5t-20.5 48.5h-141q-20 0 -30 7t-10 28q0 25 9.5 30t30.5 5h119q-5 20 -7.5 40t-2.5 41q0 41 14 77.5t41 63.5t67 43t91 16q57 0 96 -19t63 -49.5t34.5 -68t10.5 -73.5q0 -38 -9 -71h79q20 0 30 -5.5t10 -26.5q0 -25 -9.5 -31.5t-30.5 -6.5h-110
q-26 -38 -65.5 -60.5t-94.5 -22.5h-149zM316 -13q32 0 55 13.5t38 35t22 49t7 54.5q0 64 -30.5 104.5t-89.5 40.5q-23 0 -45.5 -7.5t-39.5 -24t-27.5 -42.5t-10.5 -62q0 -26 4.5 -49.5t11 -44.5t13.5 -38t13 -29h79z" />
    <glyph glyph-name="aNun.fina" unicode="&#x646;" horiz-adv-x="645" arabic-form="final" 
d="M60 245h84v-163q0 -48 8 -83.5t27 -58.5t51.5 -34t80.5 -11q50 0 83 9.5t52 30.5t26.5 55t7.5 84v261h84v-265h81q20 0 30 -5.5t10 -26.5q0 -25 -9.5 -31.5t-30.5 -6.5h-87q-16 -92 -77 -133.5t-172 -41.5q-68 0 -115.5 16t-77 46.5t-43 75t-13.5 102.5v180zM259 427
q0 22 15.5 37.5t37.5 15.5t37.5 -15.5t15.5 -37.5t-15.5 -37.5t-37.5 -15.5t-37.5 15.5t-15.5 37.5z" />
    <glyph glyph-name="aNun.init" unicode="&#x646;" horiz-adv-x="305" arabic-form="initial" 
d="M118 558q0 22 15.5 37.5t37.5 15.5t37.5 -15.5t15.5 -37.5t-15.5 -37.5t-37.5 -15.5t-37.5 15.5t-15.5 37.5zM7 0q-20 0 -30 7t-10 28q0 35 40 35h125v355h84v-425h-209z" />
    <glyph glyph-name="aNun.medi" unicode="&#x646;" horiz-adv-x="313" arabic-form="medial" 
d="M0 0q-20 0 -30 7t-10 28q0 25 9.5 30t30.5 5h70q41 0 53 18.5t12 60.5v276h84v-321q0 -9 7 -15.5t17.5 -10.5t22.5 -6t21 -2h26q20 0 30 -5.5t10 -26.5q0 -25 -9.5 -31.5t-30.5 -6.5h-18q-29 0 -51.5 9.5t-38.5 33.5q-12 -16 -38 -29.5t-78 -13.5h-89zM119 558
q0 22 15.5 37.5t37.5 15.5t37.5 -15.5t15.5 -37.5t-15.5 -37.5t-37.5 -15.5t-37.5 15.5t-15.5 37.5z" />
    <glyph glyph-name="aHeh.isol" unicode="&#x647;" horiz-adv-x="726" arabic-form="isolated" 
d="M165 0q-29 0 -38.5 -13t-9.5 -34v-30h-77v75q0 38 25 55t55 17h79q-23 26 -33.5 60t-10.5 67q0 55 23 102t66 70q-12 -1 -25.5 -2t-30.5 -2v60q18 1 44 2.5t54.5 3t55 2.5t46.5 1q85 0 139 -23.5t85 -63t42.5 -93t11.5 -113.5v-141h-501zM314 70q21 0 37.5 10.5t27.5 28
t17 40.5t6 47q0 29 -6 54t-17.5 44t-27.5 29.5t-37 10.5t-37 -10.5t-27.5 -28t-17.5 -40.5t-6 -47q0 -29 6.5 -54t18 -44t27.5 -29.5t36 -10.5zM371 374q45 -20 74.5 -64t29.5 -102q0 -43 -12 -78t-34 -60h152v79q0 50 -10.5 91.5t-34.5 71t-62.5 46t-94.5 16.5h-8z" />
    <glyph glyph-name="aHeh.fina" unicode="&#x647;" horiz-adv-x="547" arabic-form="final" 
d="M587 38q0 -25 -9.5 -31.5t-30.5 -6.5h-40q-42 0 -72.5 12.5t-47.5 41.5h-93q-119 0 -176.5 45.5t-57.5 133.5q0 104 65 152t180 48q13 0 33 -1t41 -2.5t40.5 -3.5t33.5 -4v-272q0 -34 13.5 -57t57.5 -23h23q20 0 30 -5.5t10 -26.5zM147 241q0 -64 42 -92t120 -28h59v241
q-24 3 -43.5 4t-24.5 1q-70 0 -111.5 -29t-41.5 -97z" />
    <glyph glyph-name="aHeh.init" unicode="&#x647;" horiz-adv-x="679" arabic-form="initial" 
d="M-40 40q0 30 40 30h152q-23 26 -33.5 60t-10.5 67q0 55 23 102t66 70q-12 -1 -25.5 -2t-30.5 -2v60q18 1 44 2.5t54.5 3t55 2.5t46.5 1q85 0 139 -23.5t85 -63t42.5 -93t11.5 -113.5v-141h-619q-40 0 -40 40zM267 70q21 0 37.5 10.5t27.5 28t17 40.5t6 47q0 29 -6 54
t-17.5 44t-27.5 29.5t-37 10.5t-37 -10.5t-27.5 -28t-17.5 -40.5t-6 -47q0 -29 6.5 -54t18 -44t27.5 -29.5t36 -10.5zM324 374q45 -20 74.5 -64t29.5 -102q0 -43 -12 -78t-34 -60h152v79q0 50 -10.5 91.5t-34.5 71t-62.5 46t-94.5 16.5h-8z" />
    <glyph glyph-name="aHeh.medi" unicode="&#x647;" horiz-adv-x="561" arabic-form="medial" 
d="M446 0q23 -23 31.5 -52t8.5 -47q0 -66 -44.5 -108.5t-137.5 -42.5q-43 0 -77.5 10t-59 31.5t-37.5 56t-13 83.5v69h-117q-20 0 -30 7t-10 28q0 25 9.5 30t30.5 5h117v159q0 97 49.5 151t140.5 54q52 0 87 -18.5t56.5 -47t30.5 -64t9 -69.5q0 -60 -20.5 -101t-43.5 -64
h135q20 0 30 -5.5t10 -26.5q0 -25 -9.5 -31.5t-30.5 -6.5h-115zM289 70q29 0 51 13.5t37 35.5t22.5 50t7.5 57q0 28 -6.5 54t-19.5 45t-32.5 30.5t-45.5 11.5q-18 0 -36.5 -6.5t-33.5 -24t-24 -47t-9 -74.5v-145h89zM415 -95q0 14 -4.5 30.5t-16.5 31t-31.5 24t-49.5 9.5
h-113v-75q0 -57 29 -82.5t80 -25.5q31 0 51.5 8t32.5 20.5t17 28.5t5 31z" />
    <glyph glyph-name="aWaw.fina" unicode="&#x648;" horiz-adv-x="543" arabic-form="final" 
d="M450 0q-2 -41 -13 -73.5t-34.5 -55t-61 -34.5t-92.5 -12h-122v67h122q60 0 86.5 25.5t29.5 82.5h-59q-79 0 -127 21t-74.5 53t-35.5 69.5t-9 70.5q0 49 15.5 89t48 69t83.5 45t123 16q26 0 59.5 -3t61.5 -5v-355h92q20 0 30 -5.5t10 -26.5q0 -25 -9.5 -31.5t-30.5 -6.5
h-93zM143 214q0 -40 12 -67.5t34.5 -44.5t53.5 -24.5t70 -7.5h53v295q-8 1 -17 1.5t-18 0.5q-29 0 -62 -3.5t-61 -19t-46.5 -46t-18.5 -84.5z" />
    <glyph glyph-name="aAlifMaksura.fina" unicode="&#x649;" horiz-adv-x="786" arabic-form="final" 
d="M755 -68q0 -32 -22 -64t-65.5 -58.5t-107.5 -43t-148 -16.5q-174 0 -263 55.5t-89 184.5v180h84v-163q0 -48 15 -83.5t47.5 -58.5t84 -34t123.5 -11q60 0 107.5 9.5t80 25t49.5 35.5t17 42q0 23 -24 41t-59.5 31.5t-75 24.5t-69.5 20v74q63 -23 123.5 -38t117.5 -15h105
q40 0 40 -33q0 -20 -9.5 -28.5t-30.5 -8.5h-74q18 -13 30.5 -29.5t12.5 -38.5z" />
    <glyph glyph-name="aYeh.fina" unicode="&#x64a;" horiz-adv-x="786" arabic-form="final" 
d="M755 -68q0 -32 -22 -64t-65.5 -58.5t-107.5 -43t-148 -16.5q-174 0 -263 55.5t-89 184.5v180h84v-163q0 -48 15 -83.5t47.5 -58.5t84 -34t123.5 -11q60 0 107.5 9.5t80 25t49.5 35.5t17 42q0 23 -24 41t-59.5 31.5t-75 24.5t-69.5 20v74q63 -23 123.5 -38t117.5 -15h105
q40 0 40 -33q0 -20 -9.5 -28.5t-30.5 -8.5h-74q18 -13 30.5 -29.5t12.5 -38.5zM269 -364q0 22 15.5 37.5t37.5 15.5t37.5 -15.5t15.5 -37.5t-15.5 -37.5t-37.5 -15.5t-37.5 15.5t-15.5 37.5zM399 -364q0 22 15.5 37.5t37.5 15.5t37.5 -15.5t15.5 -37.5t-15.5 -37.5
t-37.5 -15.5t-37.5 15.5t-15.5 37.5z" />
    <glyph glyph-name="aYeh.init" unicode="&#x64a;" horiz-adv-x="284" arabic-form="initial" 
d="M0 0q-20 0 -30 7t-10 28q0 35 40 35h125v355h84v-425h-209zM19 -126q0 22 15.5 37.5t37.5 15.5t37.5 -15.5t15.5 -37.5t-15.5 -37.5t-37.5 -15.5t-37.5 15.5t-15.5 37.5zM149 -126q0 22 15.5 37.5t37.5 15.5t37.5 -15.5t15.5 -37.5t-15.5 -37.5t-37.5 -15.5t-37.5 15.5
t-15.5 37.5z" />
    <glyph glyph-name="aYeh.medi" unicode="&#x64a;" horiz-adv-x="313" arabic-form="medial" 
d="M0 0q-20 0 -30 7t-10 28q0 25 9.5 30t30.5 5h70q41 0 53 18.5t12 60.5v276h84v-321q0 -9 7 -15.5t17.5 -10.5t22.5 -6t21 -2h26q20 0 30 -5.5t10 -26.5q0 -25 -9.5 -31.5t-30.5 -6.5h-18q-29 0 -51.5 9.5t-38.5 33.5q-12 -16 -38 -29.5t-78 -13.5h-89zM54 -126
q0 22 15.5 37.5t37.5 15.5t37.5 -15.5t15.5 -37.5t-15.5 -37.5t-37.5 -15.5t-37.5 15.5t-15.5 37.5zM184 -126q0 22 15.5 37.5t37.5 15.5t37.5 -15.5t15.5 -37.5t-15.5 -37.5t-37.5 -15.5t-37.5 15.5t-15.5 37.5z" />
    <glyph glyph-name=".notdef" horiz-adv-x="379" 
d="M379 533v-533h-379v533h379zM343 37v459h-306v-459h306zM167 173l-1 13q0 50 15 71q8 10 15 18t13 14q24 24 30.5 36t6.5 29q0 27 -17 44.5t-39 17.5q-23 0 -40 -17t-22 -54l-36 6q6 51 33.5 76.5t65.5 25.5q40 0 66.5 -25.5t26.5 -71.5q0 -25 -9.5 -43.5t-36.5 -45.5
q-27 -24 -32 -40q-5 -18 -5 -51zM159 111q0 11 7.5 19t18.5 8q10 0 18 -8.5t8 -18.5q0 -11 -8 -19t-18 -8q-11 0 -18.5 7.5t-7.5 19.5z" />
    <glyph glyph-name=".null" horiz-adv-x="0" 
 />
    <glyph glyph-name=".null" horiz-adv-x="0" 
 />
    <glyph glyph-name="nonmarkingreturn" unicode="&#xd;" horiz-adv-x="0" 
 />
    <glyph glyph-name="space" unicode=" " horiz-adv-x="290" 
 />
    <glyph glyph-name="space" unicode="&#xa0;" horiz-adv-x="290" 
 />
    <glyph glyph-name="exclam" unicode="!" horiz-adv-x="298" 
d="M186 178h-74l-17 499h108zM99 0v101h100v-101h-100z" />
    <glyph glyph-name="quotedbl" unicode="&#x22;" horiz-adv-x="437" 
d="M330 493h-62l-12 230h86zM169 493h-61l-13 230h87z" />
    <glyph glyph-name="numbersign" unicode="#" horiz-adv-x="580" 
d="M444 436l-28 -157h105v-71h-117l-37 -208h-77l36 208h-123l-37 -208h-77l37 208h-105v71h118l28 157h-105v70h117l39 217h77l-39 -217h123l39 217h77l-39 -217h104v-70h-116zM244 436l-29 -157h124l28 157h-123z" />
    <glyph glyph-name="dollar" unicode="$" horiz-adv-x="580" 
d="M538 190q0 -49 -18.5 -84.5t-48.5 -59.5t-69 -37t-81 -17v-83h-49v82q-47 1 -88.5 11.5t-73 34t-49.5 61t-18 93.5h92q0 -35 10.5 -58.5t28.5 -38t43 -21.5t55 -9v256q-39 12 -77.5 26.5t-69.5 37t-50 56.5t-19 85q0 48 18.5 83t49 58.5t69 36t79.5 15.5v83h49v-84
q41 -3 76.5 -13.5t62.5 -31t44 -53t20 -80.5h-92q-1 27 -10 45t-24 30t-35 19t-42 10v-249q40 -12 78.5 -25.5t69.5 -36t50 -56.5t19 -86zM272 644q-24 -2 -46 -9t-39.5 -21t-27.5 -34.5t-10 -48.5t11 -48t28.5 -34.5t39.5 -24t44 -15.5v235zM445 186q0 29 -11 48.5
t-28.5 33t-40 22.5t-44.5 16v-241q24 4 46.5 12.5t40 23t27.5 35.5t10 50z" />
    <glyph glyph-name="percent" unicode="%" horiz-adv-x="918" 
d="M887 187q0 -38 -9 -73t-28.5 -61.5t-50.5 -42.5t-74 -16q-42 0 -72.5 16t-50.5 42.5t-29.5 61t-9.5 72.5t9.5 73t30 62t51 43t72.5 16q43 0 73.5 -16t50 -42.5t28.5 -61.5t9 -73zM279 -26h-71l433 779h69zM355 546q0 -38 -9 -73t-28.5 -62t-50.5 -43t-74 -16
q-42 0 -72.5 16t-50.5 43t-29.5 61.5t-9.5 72.5t10 73t30 61.5t51 42.5t73 16q43 0 73.5 -15.5t49.5 -42t28 -61.5t9 -73zM814 186q0 21 -3.5 45t-13 45t-26.5 34.5t-43 13.5q-28 0 -46 -13.5t-28 -34.5t-14 -46t-4 -47q0 -21 4 -45t14.5 -43.5t28 -32.5t43.5 -13
q27 0 44 13.5t27 33.5t13.5 44.5t3.5 45.5zM282 545q0 21 -3.5 45t-13 44.5t-26.5 34t-43 13.5q-28 0 -46 -13.5t-28 -34t-13.5 -45.5t-3.5 -47q0 -21 4 -45t14.5 -44t27.5 -33t43 -13q27 0 44 13.5t27 34t13.5 45t3.5 45.5z" />
    <glyph glyph-name="ampersand" unicode="&#x26;" horiz-adv-x="728" 
d="M582 352v-352h-249q-48 0 -98.5 8t-92 30.5t-67.5 62t-26 102.5q0 41 13 73t35.5 54.5t54 37t67.5 21.5q-24 5 -48 14.5t-44 28t-32.5 47.5t-12.5 72q0 49 22.5 84.5t57 58.5t77 33.5t82.5 10.5q33 0 66.5 -4t66.5 -9v-77q-29 8 -58 13t-58 5t-58 -6t-52.5 -20.5
t-38 -38.5t-14.5 -60q0 -41 19.5 -65t49 -36.5t64 -16.5t64.5 -4h121v157h89v-157h131v-67h-131zM493 351h-124q-35 0 -74 -3.5t-72 -17.5t-55 -41.5t-22 -75.5q0 -50 24.5 -78t60.5 -42t78 -17t78 -3h106v278z" />
    <glyph glyph-name="quotesingle" unicode="'" horiz-adv-x="277" 
d="M169 493h-61l-13 230h87z" />
    <glyph glyph-name="parenleft" unicode="(" horiz-adv-x="299" 
d="M184 -148q-21 52 -41.5 105t-37 107t-26.5 109.5t-10 112.5t10.5 113t27 110.5t37 107.5t41.5 106h62q-17 -54 -33.5 -108.5t-29.5 -109.5t-21 -111t-8 -113q0 -50 8 -105.5t21 -111.5t29.5 -110t33.5 -102h-63z" />
    <glyph glyph-name="parenright" unicode=")" horiz-adv-x="300" 
d="M231 288q0 -56 -10 -112t-26.5 -110.5t-37 -108.5t-41.5 -105h-63q16 52 32 105t29.5 106.5t22 107.5t8.5 110q0 57 -8 113t-21 111.5t-30 109.5l-34 108h63q21 -52 42 -105t37.5 -107.5t26.5 -110t10 -112.5z" />
    <glyph glyph-name="asterisk" unicode="*" horiz-adv-x="568" 
d="M324 523l86 -126l-65 -32l-60 134l-64 -137l-62 36l87 124l-149 -15v74l150 -15l-89 121l64 36l63 -135l62 135l63 -36l-88 -121l149 15v-74z" />
    <glyph glyph-name="plus" unicode="+" horiz-adv-x="673" 
d="M376 212v-212h-79v212h-215v74h215v211h79v-211h215v-74h-215z" />
    <glyph glyph-name="comma" unicode="," horiz-adv-x="290" 
d="M125 -120h-72l54 219h105z" />
    <glyph glyph-name="hyphen" unicode="-" horiz-adv-x="341" 
d="M40 234v66h261v-66h-261z" />
    <glyph glyph-name="hyphen" unicode="&#x2010;" horiz-adv-x="341" 
d="M40 234v66h261v-66h-261z" />
    <glyph glyph-name="hyphen" unicode="&#xad;" horiz-adv-x="341" 
d="M40 234v66h261v-66h-261z" />
    <glyph glyph-name="period" unicode="." horiz-adv-x="290" 
d="M96 0v99h101v-99h-101z" />
    <glyph glyph-name="slash" unicode="/" horiz-adv-x="290" 
d="M67 -12h-77l234 750h76z" />
    <glyph glyph-name="zero" unicode="0" horiz-adv-x="580" 
d="M534 371q0 -62 -10.5 -129.5t-38 -123.5t-75 -92.5t-122.5 -36.5q-51 0 -88.5 17t-64.5 46t-44 67t-27 81t-14 87.5t-4 86.5q0 61 11.5 125.5t39.5 117.5t76 87t120 34q73 0 120 -34t74 -87.5t37 -118.5t10 -127zM440 360q0 26 -1.5 59t-6.5 67t-15 66.5t-26 58t-40 41
t-58 15.5q-35 0 -60 -15t-42 -40t-27 -57.5t-15.5 -66.5t-7 -67t-1.5 -60q0 -25 1.5 -57.5t7 -65.5t15.5 -64.5t26.5 -56.5t40 -40t56.5 -15q51 0 81.5 31.5t46.5 77.5t20.5 97.5t4.5 91.5z" />
    <glyph glyph-name="one" unicode="1" horiz-adv-x="580" 
d="M279 0v629q-35 -34 -74.5 -58.5t-84.5 -44.5v84q51 20 91 47.5t79 65.5h79v-723h-90z" />
    <glyph glyph-name="two" unicode="2" horiz-adv-x="580" 
d="M52 0v87q23 21 54 49t64.5 59.5t67.5 65.5t64 68t53.5 66t36.5 60q9 20 14 40t5 43q0 59 -34.5 93t-89.5 34q-60 0 -96 -38t-36 -101h-95q1 52 19.5 92t49.5 66.5t72.5 40t88.5 13.5q43 0 82 -11.5t69 -35.5t48 -60t18 -85q0 -32 -10.5 -64.5t-28.5 -65.5t-42.5 -65.5
t-51.5 -63.5q-28 -32 -56.5 -61.5t-57.5 -56.5q-14 -14 -31.5 -30t-33.5 -31q-18 -18 -37 -35h357v-73h-463z" />
    <glyph glyph-name="three" unicode="3" horiz-adv-x="580" 
d="M534 196q0 -54 -22 -93t-57.5 -64.5t-81 -37.5t-92.5 -12q-49 0 -92 12t-75 37t-52 64.5t-23 93.5h94q0 -33 13 -58.5t33.5 -42.5t47.5 -26t56 -9q31 0 59 9t49 27t33.5 44.5t12.5 61.5q0 37 -14 63t-37.5 42.5t-53 24t-60.5 7.5h-19t-20 -2v75q21 -3 41 -3q29 0 56 8
t48 24t33.5 40.5t12.5 57.5q0 36 -11.5 60.5t-31 39.5t-44.5 22t-53 7q-61 0 -98 -33t-44 -98h-92q2 51 22.5 88.5t53 62.5t74 37.5t85.5 12.5q46 0 88 -11.5t73.5 -35.5t50.5 -61t19 -88q0 -66 -38.5 -107t-96.5 -56q34 -10 62 -24.5t48.5 -36.5t31.5 -52t11 -70z" />
    <glyph glyph-name="four" unicode="4" horiz-adv-x="580" 
d="M445 166v-166h-90v166h-327v86l307 471h110v-488h111v-69h-111zM356 633l-253 -398h253v398z" />
    <glyph glyph-name="five" unicode="5" horiz-adv-x="580" 
d="M528 237q0 -57 -17.5 -103t-49.5 -78.5t-76.5 -50.5t-98.5 -18q-45 0 -86 11t-72.5 35t-50.5 61t-21 90h97q1 -30 11.5 -53.5t28.5 -39.5t41.5 -24.5t50.5 -8.5q37 0 65 14.5t46.5 39.5t27.5 57.5t9 68.5q0 34 -8.5 64.5t-25.5 54t-43 37.5t-61 14q-48 0 -85 -28t-48 -79
h-93l16 422h406v-71h-320l-12 -248q59 73 153 73q51 0 91.5 -18t68 -50.5t42 -76.5t14.5 -95z" />
    <glyph glyph-name="six" unicode="6" horiz-adv-x="580" 
d="M536 235q0 -53 -17 -98t-48 -78t-73.5 -51.5t-93.5 -18.5q-77 0 -126 31t-77.5 81.5t-39.5 114.5t-11 131q0 44 4.5 90.5t15.5 90t29.5 82t47.5 67.5t68 45.5t92 16.5q102 0 160 -50.5t58 -138.5h-95q-5 58 -33.5 87t-91.5 29q-56 0 -88 -30.5t-49 -76t-22 -98.5t-6 -97
q28 57 74.5 83.5t106.5 26.5q51 0 91 -18.5t67.5 -50.5t42 -75.5t14.5 -94.5zM445 233q0 34 -8.5 65.5t-25.5 54.5t-43 37t-62 14t-64.5 -13.5t-48 -37.5t-29.5 -55.5t-10 -67.5q0 -34 10 -64.5t28.5 -53.5t45.5 -36.5t62 -13.5q36 0 63 13.5t45.5 36.5t27.5 54.5t9 66.5z
" />
    <glyph glyph-name="seven" unicode="7" horiz-adv-x="580" 
d="M246 0h-107l286 646h-375v77h465v-81z" />
    <glyph glyph-name="eight" unicode="8" horiz-adv-x="580" 
d="M539 201q0 -54 -21 -94.5t-56 -67t-79.5 -39.5t-91.5 -13q-48 0 -93 11.5t-80 36t-56 63.5t-21 94q0 77 43.5 122.5t111.5 62.5q-30 9 -56 22t-45 32t-29.5 46t-10.5 63q0 51 21.5 88.5t55.5 62t76 36t84 11.5q43 0 85 -11t75 -34.5t53.5 -59.5t20.5 -86
q0 -70 -39.5 -111t-100.5 -58q33 -9 61 -23t48.5 -35.5t32 -50.5t11.5 -68zM437 540q0 33 -12 57.5t-32 41t-46 25t-55 8.5t-56 -8.5t-47.5 -25t-32.5 -42t-12 -58.5q0 -34 12.5 -58t32.5 -39.5t46.5 -22.5t55.5 -7q28 0 54 8t46.5 24.5t33 40.5t12.5 56zM446 201
q0 36 -13 62.5t-34.5 44t-50.5 26t-60 8.5t-59 -9t-49.5 -27t-34 -44.5t-12.5 -61.5t12 -61.5t33 -44.5t49 -27.5t60 -9.5q31 0 60 9.5t51 27.5t35 45t13 62z" />
    <glyph glyph-name="nine" unicode="9" horiz-adv-x="580" 
d="M527 392q0 -67 -9 -139t-36.5 -131.5t-77.5 -98t-132 -38.5q-45 0 -84.5 11t-68.5 34t-47 59t-21 87h94q2 -60 37.5 -89t89.5 -29q40 0 68.5 15.5t47 42t29 60t16 69t7 71t2.5 64.5q-28 -54 -74 -80.5t-105 -26.5q-48 0 -88 17t-69 48t-45.5 73.5t-16.5 92.5
q0 52 18.5 94.5t51 73.5t76.5 48t94 17q75 0 122.5 -29.5t74 -78t36.5 -110.5t10 -127zM428 508q0 34 -10.5 62.5t-29 49.5t-45.5 33t-60 12q-34 0 -61.5 -12t-47 -33t-30 -50.5t-10.5 -64.5q0 -34 9.5 -63.5t27.5 -51.5t44 -34.5t60 -12.5q75 0 114 46.5t39 118.5z" />
    <glyph glyph-name="colon" unicode=":" horiz-adv-x="290" 
d="M101 404v100h101v-100h-101zM101 0v101h101v-101h-101z" />
    <glyph glyph-name="semicolon" unicode=";" horiz-adv-x="290" 
d="M97 404v100h101v-100h-101zM125 -120h-72l54 220h105z" />
    <glyph glyph-name="less" unicode="&#x3c;" horiz-adv-x="673" 
d="M82 209v78l509 201v-79l-416 -162l416 -159v-79z" />
    <glyph glyph-name="equal" unicode="=" horiz-adv-x="673" 
d="M82 310v72h509v-72h-509zM82 114v72h509v-72h-509z" />
    <glyph glyph-name="greater" unicode="&#x3e;" horiz-adv-x="673" 
d="M82 9v79l416 159l-416 162v79l509 -201v-78z" />
    <glyph glyph-name="question" unicode="?" horiz-adv-x="522" 
d="M440 552q0 -34 -12 -62.5t-33 -55t-49 -53t-60 -55.5q-26 -24 -33.5 -38.5t-7.5 -37.5v-72h-77v72q0 26 3 44t12 33t25 31t41 39q19 17 36.5 33t31 33.5t21.5 38t8 46.5q0 33 -12.5 55.5t-33 36.5t-47.5 20t-56 6q-26 0 -52 -4t-52 -12v73q29 5 57.5 8.5t57.5 3.5
q45 0 87 -9t74 -30.5t51.5 -56.5t19.5 -87zM156 0v101h101v-101h-101z" />
    <glyph glyph-name="at" unicode="@" horiz-adv-x="990" 
d="M941 371q0 -65 -18.5 -116.5t-49.5 -86.5t-71.5 -53.5t-84.5 -18.5q-46 0 -77 23.5t-33 71.5q-20 -39 -61.5 -67t-96.5 -28q-40 0 -69.5 12.5t-49 34.5t-29 51.5t-9.5 64.5q0 47 13.5 92.5t39.5 81.5t65.5 58.5t91.5 22.5q51 0 81.5 -22.5t44.5 -57.5l11 71h78l-43 -254
q-2 -8 -2.5 -16t-0.5 -15q0 -26 12 -45t44 -19q25 0 51 14.5t47 42t34.5 67.5t13.5 91q0 67 -22 123.5t-66 97t-109.5 63t-153.5 22.5q-87 0 -161 -32t-128 -86.5t-84.5 -128.5t-30.5 -158q0 -78 25.5 -141.5t72.5 -108.5t113 -69.5t146 -24.5q68 0 131.5 16t110.5 44
l30 -51q-54 -34 -125.5 -52.5t-146.5 -18.5q-94 0 -172 28t-134.5 80.5t-87.5 128t-31 169.5q0 95 35 179.5t98 147.5t150.5 99.5t191.5 36.5q99 0 176 -26t130.5 -73.5t81.5 -115t28 -149.5zM610 352q0 43 -22 74.5t-72 31.5q-27 0 -49 -11t-39 -29.5t-29 -43t-19 -52.5
q-4 -16 -5.5 -32t-1.5 -30q0 -44 21.5 -74.5t72.5 -30.5q27 0 50 12t40.5 32t29.5 46.5t18 55.5q2 11 3.5 25.5t1.5 25.5z" />
    <glyph glyph-name="A" unicode="A" horiz-adv-x="712" 
d="M599 0l-75 191h-350l-74 -191h-95l294 723h103l305 -723h-108zM345 642l-145 -380h295z" />
    <glyph glyph-name="B" unicode="B" horiz-adv-x="670" 
d="M612 201q0 -61 -23.5 -100t-62 -61.5t-87 -31t-98.5 -8.5h-243v723h255q42 0 83.5 -10t74 -31.5t52.5 -56t20 -83.5q0 -68 -36 -107.5t-99 -56.5q75 -14 119.5 -55t44.5 -122zM486 534q0 31 -11.5 53t-31 36t-45.5 20t-54 6h-154v-241h140q31 0 59.5 6.5t50 21t34 38.5
t12.5 60zM514 205q0 40 -13.5 66t-37 41t-54.5 21t-66 6h-153v-265h124q36 0 71.5 3.5t64 16.5t46.5 39.5t18 71.5z" />
    <glyph glyph-name="C" unicode="C" horiz-adv-x="681" 
d="M632 194q-7 -57 -30 -96t-58 -63t-80 -35t-96 -11q-84 0 -144 28.5t-98.5 78t-56.5 116t-18 143.5q0 74 20 142.5t60 121.5t101 84.5t142 31.5q45 0 89.5 -11.5t80.5 -36t58.5 -62t24.5 -88.5h-99q-3 31 -17 54t-35 38t-47.5 22t-55.5 7q-61 0 -103.5 -27t-69 -70
t-38.5 -96.5t-12 -105.5q0 -53 11 -105.5t36.5 -94t67.5 -67.5t105 -26q70 0 113.5 35.5t47.5 92.5h101v0z" />
    <glyph glyph-name="D" unicode="D" horiz-adv-x="744" 
d="M693 364q0 -74 -17.5 -136.5t-54.5 -109.5t-93 -76.5t-134 -37.5q-30 -3 -61 -3.5t-61 -0.5h-174v723h212q48 0 102 -6t98 -24q52 -21 87 -54.5t56.5 -76t30.5 -93t9 -105.5zM595 364q0 34 -5 68.5t-17 66.5t-31.5 60t-49.5 49q-41 29 -90.5 36t-97.5 7h-112v-578h130
q74 0 126 19t84.5 55.5t47.5 91t15 125.5z" />
    <glyph glyph-name="E" unicode="E" horiz-adv-x="608" 
d="M98 0v723h448v-73h-355v-240h340v-73h-340v-264h369v-73h-462z" />
    <glyph glyph-name="F" unicode="F" horiz-adv-x="565" 
d="M191 650v-242h323v-72h-323v-336h-93v723h432v-73h-339z" />
    <glyph glyph-name="G" unicode="G" horiz-adv-x="731" 
d="M646 32q-61 -17 -123 -28.5t-125 -11.5q-85 0 -150 27.5t-108.5 77t-66 118t-22.5 149.5q0 77 21 145t63 119t104.5 80.5t145.5 29.5q49 0 93.5 -12t79 -36.5t56 -63t26.5 -92.5h-98q-11 66 -53.5 97.5t-107.5 31.5q-62 0 -105.5 -25.5t-71 -67.5t-40 -94.5t-12.5 -106.5
q0 -59 14 -114t44 -97t77.5 -67t113.5 -25q39 0 77.5 5.5t76.5 16.5v215h-173v71h264v-342v0z" />
    <glyph glyph-name="H" unicode="H" horiz-adv-x="758" 
d="M566 0v334h-374v-334h-94v723h94v-315h374v315h94v-723h-94z" />
    <glyph glyph-name="I" unicode="I" horiz-adv-x="290" 
d="M98 0v723h94v-723h-94z" />
    <glyph glyph-name="J" unicode="J" horiz-adv-x="519" 
d="M435 217q0 -110 -54 -168.5t-167 -58.5q-42 0 -79.5 12t-66 36t-45 61t-16.5 87h96q0 -24 6 -46t19.5 -39t35 -27t53.5 -10q36 0 60 12.5t38 33.5t20 49t6 60v504h94v-506v0z" />
    <glyph glyph-name="K" unicode="K" horiz-adv-x="652" 
d="M529 0l-335 393l304 330h120l-317 -324l351 -399h-123zM98 0v723h94v-723h-94z" />
    <glyph glyph-name="L" unicode="L" horiz-adv-x="568" 
d="M98 0v723h94v-650h355v-73h-449z" />
    <glyph glyph-name="M" unicode="M" horiz-adv-x="966" 
d="M780 0v651l-255 -651h-86l-256 652v-652h-85v723h150l238 -611l232 611h150v-723h-88z" />
    <glyph glyph-name="N" unicode="N" horiz-adv-x="766" 
d="M542 0l-359 627v-627h-85v723h126l359 -629v629h85v-723h-126z" />
    <glyph glyph-name="O" unicode="O" horiz-adv-x="755" 
d="M704 367q0 -78 -19 -147t-59 -120.5t-102 -81.5t-147 -30t-146.5 29t-101.5 80t-59 119t-19 146q0 76 19.5 144.5t60 120t102 81.5t145.5 30q86 0 147.5 -28.5t101.5 -78t58.5 -117.5t18.5 -147zM605 364q0 56 -11 109.5t-37.5 95.5t-70.5 68t-109 26q-63 0 -106.5 -26.5
t-70.5 -69t-38.5 -96t-11.5 -107.5q0 -55 11.5 -109t38 -97t70 -69.5t107.5 -26.5t107.5 26.5t70.5 69.5t38.5 97t11.5 109z" />
    <glyph glyph-name="P" unicode="P" horiz-adv-x="621" 
d="M588 515q0 -66 -34.5 -115t-97.5 -72q-29 -11 -62.5 -15t-68.5 -4h-133v-309h-94v723h223q47 0 93 -5t87 -31q45 -29 66 -75t21 -97zM490 522q0 41 -14 66t-37.5 39t-54.5 19t-66 5h-126v-269h99q38 0 74 4.5t63.5 19t44.5 42t17 74.5z" />
    <glyph glyph-name="Q" unicode="Q" horiz-adv-x="755" 
d="M732 0q-31 0 -60.5 0.5t-59.5 0.5q-63 0 -123.5 -6t-123.5 -6q-81 0 -140.5 31t-98 82.5t-57 119t-18.5 140.5q0 78 20 146.5t60.5 119.5t102.5 80.5t146 29.5q82 0 143 -27.5t101.5 -76t60 -114.5t19.5 -143q0 -94 -32 -176t-111 -139q42 6 84.5 8t86.5 2v-72zM605 364
q0 56 -11 109.5t-37.5 95.5t-70.5 68t-109 26q-63 0 -106.5 -26.5t-70.5 -69t-38.5 -96t-11.5 -107.5q0 -55 11.5 -109t38 -96.5t70 -69t107.5 -26.5t107.5 26.5t70.5 69t38.5 96.5t11.5 109z" />
    <glyph glyph-name="R" unicode="R" horiz-adv-x="674" 
d="M512 0q-17 43 -21 88l-8 90q-4 40 -8.5 69.5t-18 49t-39.5 29t-71 9.5h-154v-335h-94v723h258q44 0 87.5 -8t78 -28t56 -54.5t21.5 -87.5q0 -72 -39 -112.5t-105 -58.5q34 -8 56.5 -21t36.5 -32t20.5 -43.5t9.5 -53.5q4 -36 6 -74t10 -80q4 -20 9 -38t15 -32h-106z
M503 534q0 38 -14.5 61t-38.5 35.5t-54 16.5t-61 4h-143v-245h117q34 0 68.5 4t62.5 17.5t45.5 38.5t17.5 68z" />
    <glyph glyph-name="S" unicode="S" horiz-adv-x="635" 
d="M581 202q0 -57 -24 -97.5t-62 -66t-87 -37t-98 -11.5q-51 0 -95.5 11t-79 35.5t-56 63t-25.5 94.5h97q2 -35 15.5 -59.5t35.5 -40.5t50.5 -23.5t60.5 -7.5q30 0 60.5 7t55.5 22.5t40.5 39.5t15.5 59q0 28 -12 48.5t-31.5 35.5t-45.5 25.5t-54 19.5l-62 19
q-39 12 -76 26.5t-66 36.5t-46.5 54t-17.5 79q0 54 22 91.5t58 61.5t81.5 35t92.5 11q45 0 87.5 -9t75.5 -30.5t53.5 -56.5t21.5 -87h-95q-3 31 -15 52.5t-31.5 35t-44.5 19t-53 5.5t-56.5 -6.5t-51 -21t-36.5 -37.5t-14 -55q0 -24 11.5 -42.5t29.5 -32t40 -23t42 -16.5
l82 -27q39 -13 76 -27.5t66 -36.5t47 -54.5t18 -81.5z" />
    <glyph glyph-name="T" unicode="T" horiz-adv-x="568" 
d="M330 649v-649h-93v649h-230v74h554v-74h-231z" />
    <glyph glyph-name="U" unicode="U" horiz-adv-x="758" 
d="M669 276q0 -140 -75 -214.5t-215 -74.5q-145 0 -217.5 71t-72.5 220v445h98v-432q0 -39 4 -78t26 -73q26 -41 71 -59.5t92 -18.5q56 0 104.5 25t71.5 79q13 30 15.5 62.5t2.5 64.5v430h95v-447v0z" />
    <glyph glyph-name="V" unicode="V" horiz-adv-x="667" 
d="M388 0h-108l-274 723h102l230 -633l230 633h93z" />
    <glyph glyph-name="W" unicode="W" horiz-adv-x="1049" 
d="M842 0h-119l-199 633l-194 -633h-122l-193 723h99l159 -640l196 640h114l201 -639l158 639h92z" />
    <glyph glyph-name="X" unicode="X" horiz-adv-x="668" 
d="M550 0l-218 318l-216 -318h-109l266 376l-255 347h116l199 -292l196 292h108l-246 -347l270 -376h-111z" />
    <glyph glyph-name="Y" unicode="Y" horiz-adv-x="635" 
d="M365 299v-299h-94v303l-279 420h111l220 -344l217 344h104z" />
    <glyph glyph-name="Z" unicode="Z" horiz-adv-x="584" 
d="M21 0v83l426 567h-399v73h503v-77l-429 -573h441v-73h-542z" />
    <glyph glyph-name="bracketleft" unicode="[" horiz-adv-x="299" 
d="M77 -149v872h174v-56h-99v-759h99v-57h-174z" />
    <glyph glyph-name="backslash" unicode="\" horiz-adv-x="290" 
d="M223 -12l-233 750h77l233 -750h-77z" />
    <glyph glyph-name="bracketright" unicode="]" horiz-adv-x="299" 
d="M48 -149v57h99v759h-99v56h174v-872h-174z" />
    <glyph glyph-name="asciicircum" unicode="^" horiz-adv-x="673" 
d="M495 303l-159 333l-157 -333h-82l206 420h67l206 -420h-81z" />
    <glyph glyph-name="underscore" unicode="_" horiz-adv-x="500" 
d="M-1 -125v50h502v-50h-502z" />
    <glyph glyph-name="grave" unicode="`" horiz-adv-x="300" 
d="M153 591l-139 145h108l94 -145h-63z" />
    <glyph glyph-name="a" unicode="a" horiz-adv-x="549" 
d="M402 0q-3 16 -5.5 35.5t-3.5 35.5q-32 -46 -74 -64t-97 -18q-35 0 -67 9t-56.5 27.5t-39 46.5t-14.5 67q0 57 28 90.5t70.5 51t93.5 22.5t97 5q14 0 26.5 -0.5t23.5 -1.5v30q0 58 -24.5 90t-86.5 32q-47 0 -73.5 -19.5t-31.5 -69.5h-86q2 41 18.5 69t42.5 45t59 24.5
t69 7.5q97 0 144.5 -41t47.5 -140v-186q0 -50 5.5 -90.5t10.5 -57.5h-77zM384 253q-16 2 -25 2h-20q-29 0 -65 -3t-67.5 -14.5t-52.5 -33.5t-21 -61q0 -23 9 -41t24.5 -30t35.5 -18t42 -6q48 0 75.5 17.5t42 46.5t18.5 66t4 75z" />
    <glyph glyph-name="b" unicode="b" horiz-adv-x="598" 
d="M553 260q0 -51 -13.5 -99.5t-41.5 -86t-70.5 -60.5t-99.5 -23q-54 0 -90.5 21.5t-67.5 64.5l-5 -77h-86q2 37 2.5 73.5t0.5 73.5v576h88v-303q58 95 170 95q56 0 96 -21t66 -56.5t38.5 -81.5t12.5 -96zM461 254q0 34 -6.5 69t-23 64t-43.5 47.5t-67 18.5q-42 0 -71 -18
t-47 -46.5t-26 -64.5t-8 -72q0 -34 6.5 -69t23 -63.5t43.5 -46.5t68 -18q43 0 72 17.5t46.5 45.5t25 63.5t7.5 72.5z" />
    <glyph glyph-name="c" unicode="c" horiz-adv-x="536" 
d="M503 169q-3 -45 -20.5 -79t-46 -56.5t-66 -33.5t-80.5 -11q-60 0 -105.5 19t-76.5 53t-47 81.5t-16 104.5q0 58 16 108t47.5 86.5t78 57t108.5 20.5q86 0 142 -43.5t64 -133.5h-86q-4 54 -35 84.5t-85 30.5q-45 0 -75 -18t-48 -47t-26 -66t-8 -75q0 -36 8 -72t26.5 -65
t47.5 -47t71 -18q56 0 89 33t37 88h83l3 -1v0z" />
    <glyph glyph-name="d" unicode="d" horiz-adv-x="598" 
d="M433 0l-5 77q-32 -44 -69 -65t-93 -21q-57 0 -99 22t-69 59t-40 85t-13 99q0 49 13 96t40 83t68 58t97 22q57 0 96.5 -21t68.5 -69v298h88v-576q0 -36 0.5 -73t2.5 -74h-86zM429 252q0 36 -8 72t-26 64.5t-47 46.5t-71 18q-41 0 -68 -18.5t-43 -47t-22.5 -64t-6.5 -69.5
q0 -37 7.5 -72.5t25 -63.5t46.5 -45.5t72 -17.5q41 0 68 18t43.5 46.5t23 63.5t6.5 69z" />
    <glyph glyph-name="e" unicode="e" horiz-adv-x="547" 
d="M133 236v-10q0 -35 9.5 -67t28.5 -57t47.5 -39.5t66.5 -14.5q54 0 88 30.5t42 84.5h84q-15 -89 -75 -131.5t-146 -42.5q-59 0 -102.5 18.5t-72.5 52.5t-43.5 81t-14.5 103q0 57 14.5 106t44 85.5t74.5 57.5t107 21q63 0 105 -23t67 -61t35 -88.5t10 -105.5h-369zM415 294
q0 31 -7.5 60t-24 51t-42 35.5t-59.5 13.5q-35 0 -61 -13t-44 -35.5t-28.5 -51.5t-13.5 -60h280z" />
    <glyph glyph-name="f" unicode="f" horiz-adv-x="341" 
d="M326 662q-10 1 -19.5 1.5t-19.5 0.5q-37 0 -59.5 -13t-22.5 -54v-92h113v-61h-113v-444h-88v444h-101v61h101v48q0 38 4 70.5t18 56t41 36.5t73 13q35 0 73 -3v-64v0z" />
    <glyph glyph-name="g" unicode="g" horiz-adv-x="604" 
d="M526 505q-3 -44 -3.5 -87.5t-0.5 -87.5v-187q0 -73 -5 -135.5t-28 -109t-71 -73t-134 -26.5q-38 0 -75.5 7t-67 24t-48 47t-18.5 76h86q0 -27 10.5 -45t27.5 -29t39 -15.5t45 -4.5q40 0 67 10.5t44 30.5t26 48t12 63q2 20 2 41v42q-58 -89 -167 -89q-57 0 -98.5 20
t-69 54.5t-41 81t-13.5 98.5q0 50 14 96t41.5 81.5t69 56.5t96.5 21q115 0 171 -95v86h89zM435 264q0 33 -8.5 67t-26.5 61t-46 44t-66 17q-42 0 -70.5 -17.5t-46 -45.5t-25 -63t-7.5 -71q0 -35 8 -69.5t25.5 -61.5t45.5 -44t69 -17q42 0 70.5 17.5t45.5 46t24.5 64.5
t7.5 72z" />
    <glyph glyph-name="h" unicode="h" horiz-adv-x="593" 
d="M426 0v280q0 33 -3 63t-15 52.5t-35.5 36t-63.5 13.5q-38 0 -64.5 -15t-43 -39.5t-24 -57t-7.5 -66.5v-267h-88v723h88v-297q30 43 69.5 64.5t93.5 21.5q50 0 84.5 -13.5t56 -39t31 -62t9.5 -83.5v-314h-88z" />
    <glyph glyph-name="i" unicode="i" horiz-adv-x="252" 
d="M77 634v89h98v-89h-98zM82 0v505h88v-505h-88z" />
    <glyph glyph-name="j" unicode="j" horiz-adv-x="252" 
d="M77 634v89h98v-89h-98zM170 -63q0 -38 -7.5 -62t-24 -37.5t-42 -18.5t-61.5 -5q-17 0 -29.5 0.5t-20.5 1.5v66q19 -3 38 -3q21 0 33 5.5t18 16t7 25.5t1 33v546h88v-568z" />
    <glyph glyph-name="k" unicode="k" horiz-adv-x="542" 
d="M419 0l-246 285l227 221h112l-235 -218l255 -288h-113zM82 0v723h88v-723h-88z" />
    <glyph glyph-name="l" unicode="l" horiz-adv-x="252" 
d="M82 0v723h88v-723h-88z" />
    <glyph glyph-name="m" unicode="m" horiz-adv-x="919" 
d="M752 0v298q0 31 -5 57.5t-18 46t-35.5 31t-57.5 11.5q-38 0 -63 -13t-40 -35t-21.5 -52t-6.5 -64v-280h-88v293q0 31 -4.5 58.5t-17 48t-35 32.5t-58.5 12q-35 0 -60 -14t-41 -36.5t-23.5 -52.5t-7.5 -61v-280h-88v332q0 86 -3 173h87l3 -84q54 90 160 90q60 0 99 -24
t62 -80q53 104 175 104q53 0 87 -16.5t53.5 -45t27 -68t7.5 -85.5v-296h-88z" />
    <glyph glyph-name="n" unicode="n" horiz-adv-x="593" 
d="M426 0v280q0 33 -3 62.5t-15 52t-35.5 36t-63.5 13.5q-41 0 -68 -17t-42.5 -44t-22 -61.5t-6.5 -69.5v-252h-88v375q0 16 -0.5 34.5t-1 36t-1 33t-0.5 26.5h87l3 -81q31 44 70.5 65.5t94.5 21.5q99 0 139.5 -52t40.5 -145v-314h-88z" />
    <glyph glyph-name="o" unicode="o" horiz-adv-x="587" 
d="M542 255q0 -56 -16.5 -104.5t-48.5 -84.5t-78 -56.5t-105 -20.5q-60 0 -106.5 20t-78 55.5t-48 84.5t-16.5 106t17 105t49 82.5t78.5 54t105.5 19.5q60 0 106 -19t77.5 -53.5t47.5 -82.5t16 -106zM450 255q0 37 -8.5 72.5t-27 63.5t-48.5 45t-72 17t-72 -17t-48.5 -45
t-27 -63.5t-8.5 -72.5t8.5 -73.5t27 -66t48 -48t72.5 -18.5q42 0 71.5 18.5t48.5 48.5t27.5 66.5t8.5 72.5z" />
    <glyph glyph-name="p" unicode="p" horiz-adv-x="598" 
d="M553 260q0 -51 -13.5 -99.5t-41.5 -86t-70 -60.5t-99 -23q-55 0 -91 21t-68 64v-266h-88v551q0 35 -0.5 71.5t-2.5 72.5h87l3 -87q29 50 71 73t100 23q55 0 95.5 -21t66.5 -56t38.5 -81t12.5 -96zM461 254q0 34 -7 69t-23 63.5t-43.5 47t-67.5 18.5q-42 0 -71 -18
t-46.5 -46.5t-25.5 -64.5t-8 -72q0 -34 6.5 -69.5t23 -64t43.5 -46.5t68 -18q43 0 72 18t46.5 46.5t25 64.5t7.5 72z" />
    <glyph glyph-name="q" unicode="q" horiz-adv-x="598" 
d="M519 505q-2 -36 -2.5 -72.5t-0.5 -71.5v-551h-88v266q-32 -43 -68 -64t-91 -21q-61 0 -103.5 22t-69.5 59t-39 85t-12 101q0 49 13 95t40 82t68 57.5t96 21.5q59 0 98.5 -20.5t68.5 -70.5l3 82h87zM429 251q0 36 -8 72t-25.5 64.5t-46.5 46.5t-71 18q-41 0 -68 -18
t-43.5 -46.5t-23 -64t-6.5 -69.5q0 -36 7.5 -72t25 -64.5t46.5 -46.5t72 -18q41 0 68 18t43.5 46.5t23 64t6.5 69.5z" />
    <glyph glyph-name="r" unicode="r" horiz-adv-x="363" 
d="M351 423q-10 2 -21 3t-22 1q-78 0 -108 -41.5t-30 -113.5v-272h-88v357q0 74 -3 148h86l4 -81q27 45 64.5 64.5t89.5 19.5q7 0 14.5 -0.5t13.5 -1.5v-83v0z" />
    <glyph glyph-name="s" unicode="s" horiz-adv-x="496" 
d="M449 146q0 -43 -18 -73t-47.5 -48.5t-66 -27t-73.5 -8.5q-40 0 -76 8.5t-63 28t-42.5 50.5t-15.5 77h88q3 -53 32 -78t81 -25q20 0 40 5t36.5 15.5t27 26.5t10.5 39q0 20 -8.5 34t-23.5 24.5t-35 17.5t-42 12l-41 10q-28 7 -55.5 17t-49 25.5t-34.5 39t-13 57.5
q0 39 17.5 66.5t45 45t62 25t67.5 7.5q38 0 71 -8.5t58 -26.5t39.5 -47t16.5 -71h-87q-2 45 -28.5 69t-71.5 24q-17 0 -35.5 -4t-33.5 -13t-25 -23.5t-10 -34.5q0 -35 31.5 -54t76.5 -30l40 -10q33 -8 61.5 -19t49 -27.5t32.5 -39.5t12 -56z" />
    <glyph glyph-name="t" unicode="t" horiz-adv-x="344" 
d="M318 1q-42 -6 -81 -6q-61 0 -92 27t-31 90v332h-99v61h99v98l88 37v-135h113v-61h-113v-297q0 -23 2 -39t9.5 -26t21 -14.5t36.5 -4.5q12 0 23 1.5t24 3.5v-67v0z" />
    <glyph glyph-name="u" unicode="u" horiz-adv-x="592" 
d="M427 0l-4 80q-32 -44 -70 -65t-93 -21q-50 0 -84.5 13t-56 38.5t-31 62t-9.5 83.5v314h88v-280q0 -33 3 -63t15 -52.5t35.5 -35.5t63.5 -13t66.5 14.5t42.5 39.5t23 56.5t7 66.5v267h88v-245v-129.5t2 -130.5h-86z" />
    <glyph glyph-name="v" unicode="v" horiz-adv-x="530" 
d="M310 0h-92l-205 505h100l157 -420l160 420h90z" />
    <glyph glyph-name="w" unicode="w" horiz-adv-x="853" 
d="M657 0h-87l-141 418l-144 -418h-90l-179 505h98l130 -414l139 414h101l136 -409l129 409h88z" />
    <glyph glyph-name="x" unicode="x" horiz-adv-x="524" 
d="M400 0l-145 208l-145 -208h-97l195 259l-184 246h110l132 -192l135 192h97l-183 -246l196 -259h-111z" />
    <glyph glyph-name="y" unicode="y" horiz-adv-x="529" 
d="M233 -190h-88l83 191l-215 504h100l159 -413l158 413h89z" />
    <glyph glyph-name="z" unicode="z" horiz-adv-x="461" 
d="M37 0v71l289 368h-281v66h371v-73l-284 -366h292v-66h-387z" />
    <glyph glyph-name="braceleft" unicode="{" horiz-adv-x="371" 
d="M351 -149q-70 4 -110 22t-60.5 49.5t-26 76.5t-5.5 104q0 16 -0.5 34t-4.5 35t-11.5 31.5t-21.5 25.5q-20 15 -45.5 23t-50.5 10v51q27 1 53 10t46 26q18 16 25 39t9 52t1 59.5t2 61.5t12.5 59t31.5 50t59.5 36t96.5 17v-50q-48 -3 -73.5 -19.5t-37.5 -42.5
q-11 -23 -14 -57q-4 -39 -3 -82t-7.5 -81.5t-34 -66.5t-82.5 -37q47 -8 72 -27t37 -47q6 -14 9 -30.5t5 -34.5t2 -37.5v-39.5q0 -36 4 -66.5t17.5 -52.5t38.5 -35.5t67 -15.5v-50v0z" />
    <glyph glyph-name="bar" unicode="|" horiz-adv-x="246" 
d="M84 -213v999h78v-999h-78z" />
    <glyph glyph-name="braceright" unicode="}" horiz-adv-x="371" 
d="M356 262q-25 -2 -50.5 -10t-45.5 -23q-14 -11 -21.5 -25.5t-11.5 -31.5t-4.5 -35t-0.5 -34q0 -59 -5.5 -104t-26 -76.5t-60.5 -49.5t-110 -22v50q42 2 67 15.5t38.5 35.5t17.5 52.5t4 66.5v39.5t2 37.5t5 34.5t9 30.5q12 28 37 47t72 27q-57 9 -82.5 37t-34 66.5
t-7.5 81.5t-3 82q-3 34 -14 57q-12 26 -37.5 42.5t-73.5 19.5v50q59 -3 96.5 -17t59.5 -36t31.5 -50t12.5 -59t2 -61.5t1 -59.5t9 -52t25 -39q20 -17 46 -26t53 -10v-51v0z" />
    <glyph glyph-name="asciitilde" unicode="~" horiz-adv-x="673" 
d="M601 325q-3 -28 -11.5 -54.5t-23.5 -47.5t-38 -33.5t-54 -12.5q-32 0 -68 10.5t-73 24.5q-38 14 -72.5 25t-61.5 11q-33 0 -52 -22.5t-24 -53.5h-52q4 28 12.5 54.5t24 47.5t38.5 33.5t55 12.5t67.5 -10.5t72.5 -24.5q36 -14 70.5 -24.5t62.5 -10.5q35 0 52.5 21.5
t23.5 53.5h51v0z" />
    <glyph glyph-name="exclamdown" unicode="&#xa1;" horiz-adv-x="298" 
d="M99 413v100h100v-100h-100zM95 -210l16 545h76l16 -545h-108z" />
    <glyph glyph-name="cent" unicode="&#xa2;" horiz-adv-x="580" 
d="M338 455q-6 1 -12 1.5t-12 0.5q-45 0 -75 -18t-48 -47t-26 -66t-8 -75q0 -52 17 -101.5t57 -77.5zM522 169q-3 -45 -20.5 -79t-46 -56.5t-66 -33.5t-80.5 -11q-26 0 -48 3l-28 -102l-49 11l28 103q-73 26 -110.5 89.5t-37.5 153.5q0 58 16 108t47.5 86.5t78 57
t108.5 20.5q22 0 40 -3l29 103l49 -11l-29 -103q50 -18 81 -58.5t36 -104.5h-86q-5 67 -49 96l-107 -386q15 -3 32 -3q56 0 89 33t37 88h83z" />
    <glyph glyph-name="sterling" unicode="&#xa3;" horiz-adv-x="580" 
d="M458 564q-2 53 -31 80t-80 27q-77 0 -107 -53t-30 -144v-39h159v-68h-159v-295h319v-72h-473v72h61v295h-76v68h76v13q0 32 1.5 65.5t9 66t22.5 61t42 50.5q32 26 73 36.5t82 10.5q43 0 80 -9.5t64.5 -30.5t43.5 -54t18 -80h-95z" />
    <glyph glyph-name="currency" unicode="&#xa4;" horiz-adv-x="580" 
d="M538 549l-68 -68q18 -26 28.5 -58t10.5 -67q0 -71 -39 -127l68 -67l-53 -53l-68 68q-26 -19 -58.5 -29t-68.5 -10q-72 0 -128 39l-67 -68l-53 53l68 67q-39 56 -39 127q0 35 10 67t29 58l-68 68l53 53l68 -68q26 18 58.5 28.5t68.5 10.5t68 -10.5t59 -28.5l68 68z
M429 356q0 31 -10.5 57t-29.5 45.5t-44 30.5t-55 11q-29 0 -54.5 -11t-44.5 -30.5t-29.5 -45.5t-10.5 -57t10.5 -57.5t29.5 -46t44.5 -30.5t54.5 -11q30 0 55 11t44 30.5t29.5 46t10.5 57.5z" />
    <glyph glyph-name="yen" unicode="&#xa5;" horiz-adv-x="580" 
d="M363 351h152v-62h-182v-77h182v-62h-182v-150h-89v150h-181v62h181v77h-181v62h153l-215 372h104l189 -347l191 347h94z" />
    <glyph glyph-name="brokenbar" unicode="&#xa6;" horiz-adv-x="246" 
d="M84 410v251h78v-251h-78zM84 -89v251h78v-251h-78z" />
    <glyph glyph-name="section" unicode="&#xa7;" horiz-adv-x="589" 
d="M474 140q0 -41 -18.5 -69.5t-47.5 -46.5t-65 -26t-70 -8q-38 0 -73.5 5.5t-72.5 17.5v68q32 -13 61.5 -19t63.5 -6q20 0 42 3.5t41 12.5t31 24.5t12 40.5q0 20 -11 33t-30 24q-9 5 -20 9t-23 9l-48 17q-25 8 -49 18t-43 24.5t-30.5 34.5t-11.5 48q0 25 9 45t23.5 36
t33.5 28t40 22q-39 17 -65 45.5t-26 74.5q0 37 16 62.5t41 41t56.5 22t63.5 6.5t63.5 -4.5t63.5 -11.5v-68q-29 9 -57 14t-57 5q-16 0 -33.5 -3.5t-31.5 -11.5t-23.5 -21t-9.5 -32q0 -17 10.5 -29.5t28.5 -23.5q9 -5 19 -10t21 -10l46 -18q24 -9 46.5 -20t40.5 -25.5
t29 -33.5t11 -44q0 -23 -8.5 -42.5t-22.5 -35t-32 -27.5t-37 -21q22 -9 40.5 -20t32.5 -25.5t22 -33.5t8 -45zM381 373q0 19 -10.5 32t-26.5 24q-15 10 -31.5 17.5t-33.5 14.5q-13 -6 -27 -14.5t-26 -19.5t-19.5 -24.5t-7.5 -29.5q0 -20 10.5 -33.5t25.5 -23.5t32.5 -17
l32.5 -13q13 6 27 14.5t26 19.5t20 24t8 29z" />
    <glyph glyph-name="dieresis" unicode="&#xa8;" horiz-adv-x="300" 
d="M199 636v88h93v-88h-93zM8 636v88h93v-88h-93z" />
    <glyph glyph-name="copyright" unicode="&#xa9;" horiz-adv-x="844" 
d="M797 362q0 -80 -28.5 -148.5t-78.5 -118.5t-118.5 -78t-149.5 -28t-149.5 28t-118.5 78t-78.5 118t-28.5 149q0 80 28.5 148.5t78.5 118.5t118.5 78t149.5 28t149.5 -28t118.5 -78t78.5 -118.5t28.5 -148.5zM743 362q0 71 -24 130.5t-67 102.5t-101.5 67t-128.5 24
t-129 -24t-101.5 -67t-66.5 -102.5t-24 -130.5t24 -131t66.5 -103t101.5 -67t129 -24t128.5 24t101.5 67t67 103t24 131zM595 272q-5 -30 -20.5 -52.5t-38 -37.5t-50 -22.5t-57.5 -7.5q-96 0 -142 56.5t-46 150.5q0 46 12.5 85t36.5 67.5t60.5 44.5t84.5 16q27 0 54 -7
t49 -22t37 -37.5t17 -52.5h-78q-8 33 -27.5 47.5t-51.5 14.5q-33 0 -55 -12.5t-35.5 -34t-19 -50.5t-5.5 -61t5.5 -59.5t18.5 -47.5t34 -31t53 -11t54 15t31 49h79z" />
    <glyph glyph-name="ordfeminine" unicode="&#xaa;" horiz-adv-x="330" 
d="M228 432q0 10 -0.5 19.5t-1.5 18.5q-20 -23 -42 -33.5t-54 -10.5q-21 0 -40 6t-33.5 17t-23.5 28t-9 40q0 33 16.5 53t41.5 31t55 14.5t57 3.5h29q0 37 -10 56t-52 19q-26 0 -42 -10t-19 -38h-62q3 26 13.5 44t27 28.5t37.5 15t45 4.5q56 0 81.5 -17t34.5 -46
q5 -14 6 -30.5t1 -34.5t-1 -37.5t-1 -39.5q0 -25 1.5 -50t5.5 -51h-61zM202 578q-16 0 -36 -1.5t-38 -7t-30 -17.5t-12 -33q0 -24 17 -36t40 -12q25 0 41 8.5t24.5 23.5t11.5 34.5t3 40.5h-21z" />
    <glyph glyph-name="guillemotleft" unicode="&#xab;" horiz-adv-x="499" 
d="M364 64l-107 197l106 192h75l-97 -197l98 -192h-75zM167 64l-107 197l107 192h74l-97 -197l98 -192h-75z" />
    <glyph glyph-name="logicalnot" unicode="&#xac;" horiz-adv-x="673" 
d="M516 114v196h-434v72h509v-268h-75z" />
    <glyph glyph-name="registered" unicode="&#xae;" horiz-adv-x="478" 
d="M427 550q0 -39 -15 -73t-40.5 -59.5t-59.5 -40.5t-73 -15t-73 15t-59.5 40.5t-40.5 59.5t-15 73t15 73t40.5 59.5t59.5 40t73 14.5t73 -14.5t59.5 -40t40.5 -59.5t15 -73zM394 550q0 32 -12 60t-33 49t-49.5 33.5t-60.5 12.5t-60.5 -12.5t-49.5 -33.5t-33.5 -49
t-12.5 -60t12.5 -60t33.5 -49t49.5 -33.5t60.5 -12.5t60.5 12.5t49.5 33.5t33 49t12 60zM278 455q-2 5 -3 11t-2 13l-2 28q-2 14 -8 23t-21 9h-40v-84h-33v194h74q13 0 25 -1.5t21 -6.5t14.5 -14.5t5.5 -25.5q0 -35 -35 -46q17 -5 22.5 -16.5t7.5 -25.5l2 -30
q1 -8 2.5 -14.5t6.5 -13.5h-37zM275 596q0 19 -12 24t-29 5h-32v-62h28q17 0 31 6.5t14 26.5z" />
    <glyph glyph-name="macron" unicode="&#xaf;" horiz-adv-x="300" 
d="M13 636v61h274v-61h-274z" />
    <glyph glyph-name="degree" unicode="&#xb0;" horiz-adv-x="386" 
d="M347 582q0 -32 -12 -60t-33 -48.5t-49 -32.5t-60 -12t-60 12t-49 32.5t-33 48.5t-12 60t12 60t33 48.5t49 32.5t60 12t60 -12t49 -32.5t33 -48.5t12 -60zM286 582q0 42 -26.5 69.5t-66.5 27.5t-66 -27.5t-26 -69.5t26 -69t66 -27t66.5 27t26.5 69z" />
    <glyph glyph-name="plusminus" unicode="&#xb1;" horiz-adv-x="673" 
d="M376 283v-169h-79v169h-215v73h215v170h79v-170h215v-73h-215zM82 0v73h509v-73h-509z" />
    <glyph glyph-name="twosuperior" unicode="&#xb2;" horiz-adv-x="369" 
d="M38 469v56l67 60q67 60 108 105.5t41 87.5q0 31 -18.5 48t-50.5 17q-36 0 -54.5 -20.5t-19.5 -55.5h-68q0 32 11.5 56.5t31 40.5t45 24t55.5 8q28 0 53 -7t44 -21.5t29.5 -36t10.5 -50.5q0 -55 -41 -105.5t-110 -109.5l-50 -42h206v-55h-290z" />
    <glyph glyph-name="threesuperior" unicode="&#xb3;" horiz-adv-x="369" 
d="M336 584q0 -31 -12.5 -54t-34 -38t-49.5 -22.5t-59 -7.5t-57.5 7t-46.5 22.5t-32.5 39.5t-13.5 57h65q1 -38 26.5 -56.5t60.5 -18.5q38 0 62.5 19t24.5 57t-27 55t-65 17q-16 0 -29 -3v54q7 -1 14 -1.5t15 -0.5q35 0 60.5 15.5t25.5 53.5q0 35 -22.5 50.5t-57.5 15.5
q-32 0 -55 -16.5t-26 -54.5h-66q1 30 13.5 53t33.5 38t47 22.5t54 7.5q27 0 53 -6.5t46.5 -20.5t32.5 -36t12 -52q0 -36 -20 -58.5t-53 -35.5q37 -11 58.5 -35.5t21.5 -66.5z" />
    <glyph glyph-name="acute" unicode="&#xb4;" horiz-adv-x="301" 
d="M148 591h-64l95 145h108z" />
    <glyph glyph-name="micron" unicode="&#xb5;" horiz-adv-x="596" 
d="M428 0l-1 78q-16 -33 -50 -58.5t-85 -25.5q-83 0 -122 63v-247h-88v695h88v-280q0 -34 5.5 -64t19 -52.5t37 -35.5t59.5 -13q37 0 63 13.5t42 37t23 55.5t7 70v269h88v-338q0 -38 0.5 -80.5t2.5 -86.5h-89z" />
    <glyph glyph-name="paragraph" unicode="&#xb6;" horiz-adv-x="588" 
d="M414 0v661h-115v-661h-76v328q-94 8 -144.5 54.5t-50.5 140.5q0 55 18.5 93t51.5 62t79 34.5t101 10.5h212v-723h-76z" />
    <glyph glyph-name="periodcentered" unicode="&#xb7;" horiz-adv-x="290" 
d="M95 269v99h101v-99h-101z" />
    <glyph glyph-name="cedilla" unicode="&#xb8;" horiz-adv-x="300" 
d="M256 -119q0 -22 -10.5 -36t-26.5 -22.5t-35 -11.5t-37 -3q-28 0 -55 6t-53 17l8 33q23 -11 46.5 -17.5t47.5 -6.5q20 0 35 7.5t15 29.5t-14.5 30t-34.5 8q-17 0 -33 -4v20l29 75h30l-19 -58h13q16 0 33 -3t30.5 -10.5t22 -20.5t8.5 -33z" />
    <glyph glyph-name="onesuperior" unicode="&#xb9;" horiz-adv-x="369" 
d="M171 469v351q-23 -18 -45.5 -31t-50.5 -24v58q18 7 31 13t25 13.5t23.5 17t25.5 22.5h57v-420h-66z" />
    <glyph glyph-name="ordmasculine" unicode="&#xba;" horiz-adv-x="362" 
d="M333 583q0 -71 -39 -114.5t-113 -43.5q-72 0 -112 43t-40 113q0 71 39.5 114t112.5 43q72 0 112 -42.5t40 -112.5zM269 583q0 21 -5 40.5t-15.5 35t-27 24.5t-40.5 9t-40.5 -9t-27 -24.5t-15 -35t-4.5 -40.5t4.5 -40.5t15 -35.5t27 -25.5t40.5 -9.5t40.5 9.5t27 25.5
t15.5 35.5t5 40.5z" />
    <glyph glyph-name="guillemotright" unicode="&#xbb;" horiz-adv-x="499" 
d="M333 64h-74l96 197l-98 192h76l106 -197zM136 64h-75l97 197l-98 192h75l107 -197z" />
    <glyph glyph-name="onequarter" unicode="&#xbc;" horiz-adv-x="915" 
d="M277 -26h-71l433 779h69zM820 92v-92h-63v92h-199v58l188 270h74v-278h67v-50h-67zM758 352l-143 -210h143v210zM176 303v351q-23 -18 -45.5 -31t-50.5 -24v58q18 7 31 13t25 13.5t23.5 17t25.5 22.5h57v-420h-66z" />
    <glyph glyph-name="onehalf" unicode="&#xbd;" horiz-adv-x="915" 
d="M270 -26h-71l433 779h69zM176 303v351q-23 -18 -45.5 -31t-50.5 -24v58q18 7 31 13t25 13.5t23.5 17t25.5 22.5h57v-420h-66zM574 0v56l67 60q67 60 108 105.5t41 87.5q0 31 -18.5 48t-50.5 17q-36 0 -54.5 -20.5t-19.5 -55.5h-68q0 32 11.5 56.5t31 40.5t45 24t55.5 8
q28 0 53 -7t44 -21.5t29.5 -36t10.5 -50.5q0 -55 -41 -105.5t-110 -109.5l-50 -42h206v-55h-290z" />
    <glyph glyph-name="threequarters" unicode="&#xbe;" horiz-adv-x="915" 
d="M305 -26h-71l433 779h69zM334 419q0 -31 -12.5 -54t-34 -38t-49.5 -22.5t-59 -7.5t-57.5 7t-46.5 22.5t-32.5 39.5t-13.5 57h65q1 -38 26.5 -56.5t60.5 -18.5q38 0 62.5 19t24.5 57t-27 55t-65 17q-16 0 -29 -3v54q7 -1 14 -1.5t15 -0.5q35 0 60.5 15.5t25.5 53.5
q0 35 -22.5 50.5t-57.5 15.5q-32 0 -55 -16.5t-26 -54.5h-66q1 30 13.5 53t33.5 38t47 22.5t54 7.5q27 0 53 -6.5t46.5 -20.5t32.5 -36t12 -52q0 -36 -20 -58.5t-53 -35.5q37 -11 58.5 -35.5t21.5 -66.5zM820 92v-92h-63v92h-199v58l188 270h74v-278h67v-50h-67zM758 352
l-143 -210h143v210z" />
    <glyph glyph-name="questiondown" unicode="&#xbf;" horiz-adv-x="521" 
d="M82 -39q0 34 12 62.5t33 55t49 53t60 55.5q26 24 33.5 38.5t7.5 37.5v72h77v-72q0 -26 -3 -44t-12 -33t-25 -31t-41 -39q-19 -17 -36.5 -33t-31 -33.5t-21.5 -38t-8 -46.5q0 -33 12.5 -55.5t33 -36.5t47.5 -20t56 -6q26 0 52 4t52 12v-73q-29 -5 -57.5 -8.5t-57.5 -3.5
q-45 0 -87 9t-74 30.5t-51.5 56.5t-19.5 87zM366 513v-101h-101v101h101z" />
    <glyph glyph-name="Agrave" unicode="&#xc0;" horiz-adv-x="712" 
d="M599 0l-75 191h-350l-74 -191h-95l294 723h103l305 -723h-108zM345 642l-145 -380h295zM347 776l-139 145h108l94 -145h-63z" />
    <glyph glyph-name="Aacute" unicode="&#xc1;" horiz-adv-x="712" 
d="M599 0l-75 191h-350l-74 -191h-95l294 723h103l305 -723h-108zM345 642l-145 -380h295zM344 776h-64l95 145h108z" />
    <glyph glyph-name="Acircumflex" unicode="&#xc2;" horiz-adv-x="712" 
d="M599 0l-75 191h-350l-74 -191h-95l294 723h103l305 -723h-108zM345 642l-145 -380h295zM432 775l-86 99l-88 -99h-64l105 146h94l103 -146h-64z" />
    <glyph glyph-name="Atilde" unicode="&#xc3;" horiz-adv-x="712" 
d="M599 0l-75 191h-350l-74 -191h-95l294 723h103l305 -723h-108zM345 642l-145 -380h295zM500 901q-3 -18 -11 -35.5t-20.5 -31t-28.5 -21.5t-36 -8q-15 0 -30 3.5t-29 8t-29 8.5t-30 4q-17 0 -29 -6.5t-19 -23.5h-47q7 40 33 67t68 27q15 0 29 -4t28.5 -8.5t28.5 -8
t29 -3.5q33 0 45 32h48z" />
    <glyph glyph-name="Adieresis" unicode="&#xc4;" horiz-adv-x="712" 
d="M599 0l-75 191h-350l-74 -191h-95l294 723h103l305 -723h-108zM345 642l-145 -380h295zM394 811v88h93v-88h-93zM203 811v88h93v-88h-93z" />
    <glyph glyph-name="Aring" unicode="&#xc5;" horiz-adv-x="712" 
d="M599 0l-75 191h-350l-74 -191h-95l294 723h103l305 -723h-108zM345 642l-145 -380h295zM439 836q0 -40 -27 -66.5t-67 -26.5t-67 26.5t-27 66.5t27 66.5t67 26.5t67 -26.5t27 -66.5zM398 836q0 25 -14 41t-39 16t-39 -16t-14 -41t14 -41t39 -16t39 16t14 41z" />
    <glyph glyph-name="AE" unicode="&#xc6;" horiz-adv-x="981" 
d="M552 0l-30 187h-325l-102 -187h-100l400 723h525v-76h-374l38 -237h320v-76h-310l41 -258h298v-76h-381zM450 650l-214 -392h276z" />
    <glyph glyph-name="Ccedilla" unicode="&#xc7;" horiz-adv-x="681" 
d="M458 -119q0 -22 -10.5 -36t-26.5 -22.5t-35 -11.5t-37 -3q-28 0 -55 6t-53 17l8 33q23 -11 46.5 -17.5t47.5 -6.5q20 0 35 7.5t15 29.5t-14.5 30t-34.5 8q-17 0 -33 -4v20l23 59q-75 6 -128.5 36.5t-88 79t-50.5 112.5t-16 137q0 74 20 142.5t60 121.5t101 84.5t142 31.5
q45 0 89.5 -11.5t80.5 -36t58.5 -62t24.5 -88.5h-99q-3 31 -17 54t-35 38t-47.5 22t-55.5 7q-61 0 -103.5 -27t-69 -70t-38.5 -96.5t-12 -105.5q0 -53 11 -105.5t36.5 -94t67.5 -67.5t105 -26q70 0 113.5 35.5t47.5 92.5h101q-7 -57 -30 -96t-58 -63t-80 -35t-96 -11h-4
l-13 -41h13q16 0 33 -3t30.5 -10.5t22 -20.5t8.5 -33z" />
    <glyph glyph-name="Egrave" unicode="&#xc8;" horiz-adv-x="608" 
d="M98 0v723h448v-73h-355v-240h340v-73h-340v-264h369v-73h-462zM330 776l-139 145h108l94 -145h-63z" />
    <glyph glyph-name="Eacute" unicode="&#xc9;" horiz-adv-x="608" 
d="M98 0v723h448v-73h-355v-240h340v-73h-340v-264h369v-73h-462zM327 776h-64l95 145h108z" />
    <glyph glyph-name="Ecircumflex" unicode="&#xca;" horiz-adv-x="608" 
d="M98 0v723h448v-73h-355v-240h340v-73h-340v-264h369v-73h-462zM415 775l-86 99l-88 -99h-64l105 146h94l103 -146h-64z" />
    <glyph glyph-name="Edieresis" unicode="&#xcb;" horiz-adv-x="608" 
d="M98 0v723h448v-73h-355v-240h340v-73h-340v-264h369v-73h-462zM377 811v88h93v-88h-93zM186 811v88h93v-88h-93z" />
    <glyph glyph-name="Igrave" unicode="&#xcc;" horiz-adv-x="290" 
d="M98 0v723h94v-723h-94zM147 776l-139 145h108l94 -145h-63z" />
    <glyph glyph-name="Iacute" unicode="&#xcd;" horiz-adv-x="290" 
d="M98 0v723h94v-723h-94zM144 776h-64l95 145h108z" />
    <glyph glyph-name="Icircumflex" unicode="&#xce;" horiz-adv-x="290" 
d="M98 0v723h94v-723h-94zM232 775l-86 99l-88 -99h-64l105 146h94l103 -146h-64z" />
    <glyph glyph-name="Idieresis" unicode="&#xcf;" horiz-adv-x="290" 
d="M98 0v723h94v-723h-94zM194 811v88h93v-88h-93zM3 811v88h93v-88h-93z" />
    <glyph glyph-name="Eth" unicode="&#xd0;" horiz-adv-x="744" 
d="M693 365q0 -74 -17.5 -136.5t-54.5 -110t-93 -77t-134 -37.5q-31 -3 -61 -3.5t-61 -0.5h-174v369h-69v61h69v293h212q90 0 161 -21t120.5 -64.5t75.5 -111.5t26 -161zM595 366q0 34 -5 69t-16.5 67t-31 60t-49.5 49q-41 28 -91 34t-98 6h-112v-221h194v-61h-194v-296h130
q75 0 127 19t84.5 56t47 92t14.5 126z" />
    <glyph glyph-name="Ntilde" unicode="&#xd1;" horiz-adv-x="766" 
d="M542 0l-359 627v-627h-85v723h126l359 -629v629h85v-723h-126zM533 901q-3 -18 -11 -35.5t-20.5 -31t-28.5 -21.5t-36 -8q-15 0 -30 3.5t-29 8t-29 8.5t-30 4q-17 0 -29 -6.5t-19 -23.5h-47q7 40 33 67t68 27q15 0 29 -4t28.5 -8.5t28.5 -8t29 -3.5q33 0 45 32h48z" />
    <glyph glyph-name="Ograve" unicode="&#xd2;" horiz-adv-x="755" 
d="M704 367q0 -78 -19 -147t-59 -120.5t-102 -81.5t-147 -30t-146.5 29t-101.5 80t-59 119t-19 146q0 76 19.5 144.5t60 120t102 81.5t145.5 30q86 0 147.5 -28.5t101.5 -78t58.5 -117.5t18.5 -147zM605 364q0 56 -11 109.5t-37.5 95.5t-70.5 68t-109 26q-63 0 -106.5 -26.5
t-70.5 -69t-38.5 -96t-11.5 -107.5q0 -55 11.5 -109t38 -97t70 -69.5t107.5 -26.5t107.5 26.5t70.5 69.5t38.5 97t11.5 109zM379 776l-139 145h108l94 -145h-63z" />
    <glyph glyph-name="Oacute" unicode="&#xd3;" horiz-adv-x="755" 
d="M704 367q0 -78 -19 -147t-59 -120.5t-102 -81.5t-147 -30t-146.5 29t-101.5 80t-59 119t-19 146q0 76 19.5 144.5t60 120t102 81.5t145.5 30q86 0 147.5 -28.5t101.5 -78t58.5 -117.5t18.5 -147zM605 364q0 56 -11 109.5t-37.5 95.5t-70.5 68t-109 26q-63 0 -106.5 -26.5
t-70.5 -69t-38.5 -96t-11.5 -107.5q0 -55 11.5 -109t38 -97t70 -69.5t107.5 -26.5t107.5 26.5t70.5 69.5t38.5 97t11.5 109zM376 776h-64l95 145h108z" />
    <glyph glyph-name="Ocircumflex" unicode="&#xd4;" horiz-adv-x="755" 
d="M704 367q0 -78 -19 -147t-59 -120.5t-102 -81.5t-147 -30t-146.5 29t-101.5 80t-59 119t-19 146q0 76 19.5 144.5t60 120t102 81.5t145.5 30q86 0 147.5 -28.5t101.5 -78t58.5 -117.5t18.5 -147zM605 364q0 56 -11 109.5t-37.5 95.5t-70.5 68t-109 26q-63 0 -106.5 -26.5
t-70.5 -69t-38.5 -96t-11.5 -107.5q0 -55 11.5 -109t38 -97t70 -69.5t107.5 -26.5t107.5 26.5t70.5 69.5t38.5 97t11.5 109zM464 775l-86 99l-88 -99h-64l105 146h94l103 -146h-64z" />
    <glyph glyph-name="Otilde" unicode="&#xd5;" horiz-adv-x="755" 
d="M704 367q0 -78 -19 -147t-59 -120.5t-102 -81.5t-147 -30t-146.5 29t-101.5 80t-59 119t-19 146q0 76 19.5 144.5t60 120t102 81.5t145.5 30q86 0 147.5 -28.5t101.5 -78t58.5 -117.5t18.5 -147zM605 364q0 56 -11 109.5t-37.5 95.5t-70.5 68t-109 26q-63 0 -106.5 -26.5
t-70.5 -69t-38.5 -96t-11.5 -107.5q0 -55 11.5 -109t38 -97t70 -69.5t107.5 -26.5t107.5 26.5t70.5 69.5t38.5 97t11.5 109zM532 901q-3 -18 -11 -35.5t-20.5 -31t-28.5 -21.5t-36 -8q-15 0 -30 3.5t-29 8t-29 8.5t-30 4q-17 0 -29 -6.5t-19 -23.5h-47q7 40 33 67t68 27
q15 0 29 -4t28.5 -8.5t28.5 -8t29 -3.5q33 0 45 32h48z" />
    <glyph glyph-name="Odieresis" unicode="&#xd6;" horiz-adv-x="755" 
d="M704 367q0 -78 -19 -147t-59 -120.5t-102 -81.5t-147 -30t-146.5 29t-101.5 80t-59 119t-19 146q0 76 19.5 144.5t60 120t102 81.5t145.5 30q86 0 147.5 -28.5t101.5 -78t58.5 -117.5t18.5 -147zM605 364q0 56 -11 109.5t-37.5 95.5t-70.5 68t-109 26q-63 0 -106.5 -26.5
t-70.5 -69t-38.5 -96t-11.5 -107.5q0 -55 11.5 -109t38 -97t70 -69.5t107.5 -26.5t107.5 26.5t70.5 69.5t38.5 97t11.5 109zM426 811v88h93v-88h-93zM235 811v88h93v-88h-93z" />
    <glyph glyph-name="multiply" unicode="&#xd7;" horiz-adv-x="673" 
d="M390 248l188 -188l-53 -53l-188 188l-189 -187l-54 52l189 188l-189 188l54 53l189 -188l188 188l54 -53z" />
    <glyph glyph-name="Oslash" unicode="&#xd8;" horiz-adv-x="755" 
d="M704 367q0 -78 -19 -147t-59 -120.5t-102 -81.5t-147 -30q-74 0 -129.5 22t-95.5 61l-87 -95l-40 39l91 100q-33 50 -49 112.5t-16 134.5q0 76 19.5 144.5t60 120t102 81.5t145.5 30q76 0 133 -22t97 -62l82 90l41 -38l-88 -96q32 -48 46.5 -110t14.5 -133zM545 585
q-27 35 -67.5 56.5t-100.5 21.5q-63 0 -106.5 -26.5t-70.5 -69t-38.5 -96t-11.5 -107.5q0 -46 7.5 -91t25.5 -84zM605 364q0 45 -6.5 89t-23.5 82l-362 -397q27 -35 67 -55.5t97 -20.5q64 0 107.5 26.5t70.5 69.5t38.5 97t11.5 109z" />
    <glyph glyph-name="Ugrave" unicode="&#xd9;" horiz-adv-x="758" 
d="M669 276q0 -140 -75 -214.5t-215 -74.5q-145 0 -217.5 71t-72.5 220v445h98v-432q0 -39 4 -78t26 -73q26 -41 71 -59.5t92 -18.5q56 0 104.5 25t71.5 79q13 30 15.5 62.5t2.5 64.5v430h95v-447zM381 776l-139 145h108l94 -145h-63z" />
    <glyph glyph-name="Uacute" unicode="&#xda;" horiz-adv-x="758" 
d="M669 276q0 -140 -75 -214.5t-215 -74.5q-145 0 -217.5 71t-72.5 220v445h98v-432q0 -39 4 -78t26 -73q26 -41 71 -59.5t92 -18.5q56 0 104.5 25t71.5 79q13 30 15.5 62.5t2.5 64.5v430h95v-447zM378 776h-64l95 145h108z" />
    <glyph glyph-name="Ucircumflex" unicode="&#xdb;" horiz-adv-x="758" 
d="M669 276q0 -140 -75 -214.5t-215 -74.5q-145 0 -217.5 71t-72.5 220v445h98v-432q0 -39 4 -78t26 -73q26 -41 71 -59.5t92 -18.5q56 0 104.5 25t71.5 79q13 30 15.5 62.5t2.5 64.5v430h95v-447zM466 775l-86 99l-88 -99h-64l105 146h94l103 -146h-64z" />
    <glyph glyph-name="Udieresis" unicode="&#xdc;" horiz-adv-x="758" 
d="M669 276q0 -140 -75 -214.5t-215 -74.5q-145 0 -217.5 71t-72.5 220v445h98v-432q0 -39 4 -78t26 -73q26 -41 71 -59.5t92 -18.5q56 0 104.5 25t71.5 79q13 30 15.5 62.5t2.5 64.5v430h95v-447zM428 811v88h93v-88h-93zM237 811v88h93v-88h-93z" />
    <glyph glyph-name="Yacute" unicode="&#xdd;" horiz-adv-x="635" 
d="M365 299v-299h-94v303l-279 420h111l220 -344l217 344h104zM319 776h-64l95 145h108z" />
    <glyph glyph-name="Thorn" unicode="&#xde;" horiz-adv-x="621" 
d="M588 384q0 -66 -34.5 -115t-97.5 -72q-29 -11 -62.5 -15.5t-68.5 -4.5h-52q-21 0 -43.5 0.5t-37.5 0.5v-178h-94v723h94v-131h110q23 0 49.5 -1t53 -4.5t51.5 -11t45 -20.5q45 -29 66 -74t21 -97zM490 390q0 41 -13.5 66.5t-37 39.5t-55 19t-66.5 5h-126v-270h99
q38 0 74 4.5t63.5 19t44.5 42t17 74.5z" />
    <glyph glyph-name="germandbls" unicode="&#xdf;" horiz-adv-x="638" 
d="M606 157q0 -41 -15.5 -71.5t-41.5 -51.5t-60.5 -31.5t-71.5 -10.5q-36 0 -66.5 9.5t-53.5 28.5t-36.5 47.5t-14.5 66.5h84q0 -43 24 -67t66 -24t70 27t28 69q0 35 -21 56.5t-48 37.5q-17 11 -40 22q-21 11 -40.5 23t-35.5 27t-25.5 35t-9.5 46q0 20 8 36.5t20 30.5
t26.5 26.5t27.5 24.5q14 13 26 29t12 36q0 26 -10 43.5t-25.5 28.5t-35.5 15.5t-40 4.5q-37 0 -70.5 -17t-50.5 -51q-14 -26 -16 -63.5t-2 -72.5v-467h-88v452q0 44 4.5 89.5t24.5 85.5q29 55 83.5 80.5t114.5 25.5q35 0 70 -7.5t62.5 -25t45 -47t17.5 -73.5
q0 -35 -18.5 -58.5t-41.5 -42.5q-11 -9 -21.5 -18t-19.5 -19q-8 -10 -13 -20t-5 -22q0 -17 9 -29.5t25 -23.5q8 -5 17 -10.5t19 -10.5l41 -22q21 -11 41 -24.5t36 -31t25.5 -40t9.5 -51.5z" />
    <glyph glyph-name="agrave" unicode="&#xe0;" horiz-adv-x="549" 
d="M402 0q-3 16 -5.5 35.5t-3.5 35.5q-32 -46 -74 -64t-97 -18q-35 0 -67 9t-56.5 27.5t-39 46.5t-14.5 67q0 57 28 90.5t70.5 51t93.5 22.5t97 5q14 0 26.5 -0.5t23.5 -1.5v30q0 58 -24.5 90t-86.5 32q-47 0 -73.5 -19.5t-31.5 -69.5h-86q2 41 18.5 69t42.5 45t59 24.5
t69 7.5q97 0 144.5 -41t47.5 -140v-186q0 -50 5.5 -90.5t10.5 -57.5h-77zM384 253q-16 2 -25 2h-20q-29 0 -65 -3t-67.5 -14.5t-52.5 -33.5t-21 -61q0 -23 9 -41t24.5 -30t35.5 -18t42 -6q48 0 75.5 17.5t42 46.5t18.5 66t4 75zM280 591l-139 145h108l94 -145h-63z" />
    <glyph glyph-name="aacute" unicode="&#xe1;" horiz-adv-x="549" 
d="M402 0q-3 16 -5.5 35.5t-3.5 35.5q-32 -46 -74 -64t-97 -18q-35 0 -67 9t-56.5 27.5t-39 46.5t-14.5 67q0 57 28 90.5t70.5 51t93.5 22.5t97 5q14 0 26.5 -0.5t23.5 -1.5v30q0 58 -24.5 90t-86.5 32q-47 0 -73.5 -19.5t-31.5 -69.5h-86q2 41 18.5 69t42.5 45t59 24.5
t69 7.5q97 0 144.5 -41t47.5 -140v-186q0 -50 5.5 -90.5t10.5 -57.5h-77zM384 253q-16 2 -25 2h-20q-29 0 -65 -3t-67.5 -14.5t-52.5 -33.5t-21 -61q0 -23 9 -41t24.5 -30t35.5 -18t42 -6q48 0 75.5 17.5t42 46.5t18.5 66t4 75zM276 591h-64l95 145h108z" />
    <glyph glyph-name="acircumflex" unicode="&#xe2;" horiz-adv-x="549" 
d="M402 0q-3 16 -5.5 35.5t-3.5 35.5q-32 -46 -74 -64t-97 -18q-35 0 -67 9t-56.5 27.5t-39 46.5t-14.5 67q0 57 28 90.5t70.5 51t93.5 22.5t97 5q14 0 26.5 -0.5t23.5 -1.5v30q0 58 -24.5 90t-86.5 32q-47 0 -73.5 -19.5t-31.5 -69.5h-86q2 41 18.5 69t42.5 45t59 24.5
t69 7.5q97 0 144.5 -41t47.5 -140v-186q0 -50 5.5 -90.5t10.5 -57.5h-77zM384 253q-16 2 -25 2h-20q-29 0 -65 -3t-67.5 -14.5t-52.5 -33.5t-21 -61q0 -23 9 -41t24.5 -30t35.5 -18t42 -6q48 0 75.5 17.5t42 46.5t18.5 66t4 75zM365 591l-86 99l-88 -99h-64l105 146h94
l103 -146h-64z" />
    <glyph glyph-name="atilde" unicode="&#xe3;" horiz-adv-x="549" 
d="M402 0q-3 16 -5.5 35.5t-3.5 35.5q-32 -46 -74 -64t-97 -18q-35 0 -67 9t-56.5 27.5t-39 46.5t-14.5 67q0 57 28 90.5t70.5 51t93.5 22.5t97 5q14 0 26.5 -0.5t23.5 -1.5v30q0 58 -24.5 90t-86.5 32q-47 0 -73.5 -19.5t-31.5 -69.5h-86q2 41 18.5 69t42.5 45t59 24.5
t69 7.5q97 0 144.5 -41t47.5 -140v-186q0 -50 5.5 -90.5t10.5 -57.5h-77zM384 253q-16 2 -25 2h-20q-29 0 -65 -3t-67.5 -14.5t-52.5 -33.5t-21 -61q0 -23 9 -41t24.5 -30t35.5 -18t42 -6q48 0 75.5 17.5t42 46.5t18.5 66t4 75zM433 716q-3 -18 -11 -35.5t-20.5 -31
t-28.5 -21.5t-36 -8q-15 0 -30 3.5t-29 8t-29 8.5t-30 4q-17 0 -29 -6.5t-19 -23.5h-47q7 40 33 67t68 27q15 0 29 -4t28.5 -8.5t28.5 -8t29 -3.5q33 0 45 32h48z" />
    <glyph glyph-name="adieresis" unicode="&#xe4;" horiz-adv-x="549" 
d="M402 0q-3 16 -5.5 35.5t-3.5 35.5q-32 -46 -74 -64t-97 -18q-35 0 -67 9t-56.5 27.5t-39 46.5t-14.5 67q0 57 28 90.5t70.5 51t93.5 22.5t97 5q14 0 26.5 -0.5t23.5 -1.5v30q0 58 -24.5 90t-86.5 32q-47 0 -73.5 -19.5t-31.5 -69.5h-86q2 41 18.5 69t42.5 45t59 24.5
t69 7.5q97 0 144.5 -41t47.5 -140v-186q0 -50 5.5 -90.5t10.5 -57.5h-77zM384 253q-16 2 -25 2h-20q-29 0 -65 -3t-67.5 -14.5t-52.5 -33.5t-21 -61q0 -23 9 -41t24.5 -30t35.5 -18t42 -6q48 0 75.5 17.5t42 46.5t18.5 66t4 75zM326 636v88h93v-88h-93zM135 636v88h93v-88
h-93z" />
    <glyph glyph-name="aring" unicode="&#xe5;" horiz-adv-x="549" 
d="M402 0q-3 16 -5.5 35.5t-3.5 35.5q-32 -46 -74 -64t-97 -18q-35 0 -67 9t-56.5 27.5t-39 46.5t-14.5 67q0 57 28 90.5t70.5 51t93.5 22.5t97 5q14 0 26.5 -0.5t23.5 -1.5v30q0 58 -24.5 90t-86.5 32q-47 0 -73.5 -19.5t-31.5 -69.5h-86q2 41 18.5 69t42.5 45t59 24.5
t69 7.5q97 0 144.5 -41t47.5 -140v-186q0 -50 5.5 -90.5t10.5 -57.5h-77zM384 253q-16 2 -25 2h-20q-29 0 -65 -3t-67.5 -14.5t-52.5 -33.5t-21 -61q0 -23 9 -41t24.5 -30t35.5 -18t42 -6q48 0 75.5 17.5t42 46.5t18.5 66t4 75zM371 666q0 -40 -27 -66.5t-67 -26.5t-67 26.5
t-27 66.5t27 66.5t67 26.5t67 -26.5t27 -66.5zM330 666q0 25 -14 41t-39 16t-39 -16t-14 -41t14 -41t39 -16t39 16t14 41z" />
    <glyph glyph-name="ae" unicode="&#xe6;" horiz-adv-x="844" 
d="M449 237q0 -33 6 -66t21 -59.5t40.5 -42.5t65.5 -16q24 0 45.5 7.5t38.5 21t27.5 33.5t11.5 45h90q-12 -86 -67 -128t-139 -42q-62 0 -109.5 26t-73.5 84q-27 -59 -76.5 -85t-112.5 -26q-34 0 -67 9t-59.5 27t-43 46t-16.5 66q0 45 23 79.5t61 54.5q36 19 84 22.5t95 3.5
h70q0 31 -3.5 59.5t-14.5 50t-33.5 34.5t-60.5 13q-45 0 -71.5 -19t-35.5 -64h-87q4 40 20.5 67t42 44t58 24.5t68.5 7.5q57 0 100.5 -19t68.5 -74q29 51 73 73t101 22q65 0 105.5 -23t64 -62t32 -89.5t8.5 -104.5h-351zM365 212v13t-1 13h-94q-25 0 -51.5 -4t-48.5 -14.5
t-36 -29.5t-14 -50q0 -45 31 -68.5t73 -23.5q38 0 64.5 12.5t43.5 34.5t25 52t8 65zM714 297q-1 31 -8 59t-22 49.5t-39.5 34.5t-58.5 13q-36 0 -61 -12.5t-41 -33.5t-24 -49.5t-11 -60.5h265z" />
    <glyph glyph-name="ccedilla" unicode="&#xe7;" horiz-adv-x="536" 
d="M503 169q-3 -45 -20.5 -78.5t-45 -56t-64.5 -33.5t-79 -12l-13 -41h13q16 0 33 -3t30.5 -10.5t22 -20.5t8.5 -33q0 -22 -10.5 -36t-26.5 -22.5t-35 -11.5t-37 -3q-28 0 -55 6t-53 17l8 33q23 -11 46.5 -17.5t47.5 -6.5q20 0 35 7.5t15 29.5t-14.5 30t-34.5 8
q-17 0 -33 -4v20l23 59q-54 4 -94.5 24.5t-68.5 54t-42 79t-14 99.5q0 58 16 108t47.5 86.5t78 57t108.5 20.5q86 0 142 -43.5t64 -133.5h-86q-4 54 -35 84.5t-85 30.5q-45 0 -75 -18t-48 -47t-26 -66t-8 -75q0 -36 8 -72t26.5 -65t47.5 -47t71 -18q56 0 89 33t37 88h83
l3 -1v0z" />
    <glyph glyph-name="egrave" unicode="&#xe8;" horiz-adv-x="547" 
d="M133 236v-10q0 -35 9.5 -67t28.5 -57t47.5 -39.5t66.5 -14.5q54 0 88 30.5t42 84.5h84q-15 -89 -75 -131.5t-146 -42.5q-59 0 -102.5 18.5t-72.5 52.5t-43.5 81t-14.5 103q0 57 14.5 106t44 85.5t74.5 57.5t107 21q63 0 105 -23t67 -61t35 -88.5t10 -105.5h-369zM415 294
q0 31 -7.5 60t-24 51t-42 35.5t-59.5 13.5q-35 0 -61 -13t-44 -35.5t-28.5 -51.5t-13.5 -60h280zM282 591l-139 145h108l94 -145h-63z" />
    <glyph glyph-name="eacute" unicode="&#xe9;" horiz-adv-x="547" 
d="M133 236v-10q0 -35 9.5 -67t28.5 -57t47.5 -39.5t66.5 -14.5q54 0 88 30.5t42 84.5h84q-15 -89 -75 -131.5t-146 -42.5q-59 0 -102.5 18.5t-72.5 52.5t-43.5 81t-14.5 103q0 57 14.5 106t44 85.5t74.5 57.5t107 21q63 0 105 -23t67 -61t35 -88.5t10 -105.5h-369zM415 294
q0 31 -7.5 60t-24 51t-42 35.5t-59.5 13.5q-35 0 -61 -13t-44 -35.5t-28.5 -51.5t-13.5 -60h280zM278 591h-64l95 145h108z" />
    <glyph glyph-name="ecircumflex" unicode="&#xea;" horiz-adv-x="547" 
d="M133 236v-10q0 -35 9.5 -67t28.5 -57t47.5 -39.5t66.5 -14.5q54 0 88 30.5t42 84.5h84q-15 -89 -75 -131.5t-146 -42.5q-59 0 -102.5 18.5t-72.5 52.5t-43.5 81t-14.5 103q0 57 14.5 106t44 85.5t74.5 57.5t107 21q63 0 105 -23t67 -61t35 -88.5t10 -105.5h-369zM415 294
q0 31 -7.5 60t-24 51t-42 35.5t-59.5 13.5q-35 0 -61 -13t-44 -35.5t-28.5 -51.5t-13.5 -60h280zM367 591l-86 99l-88 -99h-64l105 146h94l103 -146h-64z" />
    <glyph glyph-name="edieresis" unicode="&#xeb;" horiz-adv-x="547" 
d="M133 236v-10q0 -35 9.5 -67t28.5 -57t47.5 -39.5t66.5 -14.5q54 0 88 30.5t42 84.5h84q-15 -89 -75 -131.5t-146 -42.5q-59 0 -102.5 18.5t-72.5 52.5t-43.5 81t-14.5 103q0 57 14.5 106t44 85.5t74.5 57.5t107 21q63 0 105 -23t67 -61t35 -88.5t10 -105.5h-369zM415 294
q0 31 -7.5 60t-24 51t-42 35.5t-59.5 13.5q-35 0 -61 -13t-44 -35.5t-28.5 -51.5t-13.5 -60h280zM328 636v88h93v-88h-93zM137 636v88h93v-88h-93z" />
    <glyph glyph-name="igrave" unicode="&#xec;" horiz-adv-x="252" 
d="M82 0v505h88v-505h-88zM130 591l-139 145h108l94 -145h-63z" />
    <glyph glyph-name="iacute" unicode="&#xed;" horiz-adv-x="252" 
d="M82 0v505h88v-505h-88zM126 591h-64l95 145h108z" />
    <glyph glyph-name="icircumflex" unicode="&#xee;" horiz-adv-x="252" 
d="M82 0v505h88v-505h-88zM213 591l-86 99l-88 -99h-64l105 146h94l103 -146h-64z" />
    <glyph glyph-name="idieresis" unicode="&#xef;" horiz-adv-x="252" 
d="M82 0v505h88v-505h-88zM175 636v88h93v-88h-93zM-16 636v88h93v-88h-93z" />
    <glyph glyph-name="eth" unicode="&#xf0;" horiz-adv-x="580" 
d="M536 304q0 -60 -13 -116.5t-42.5 -100.5t-77 -71t-116.5 -27q-58 0 -103.5 19t-76.5 53.5t-47 81.5t-16 103q0 51 15.5 96.5t44.5 79.5t71.5 54t96.5 20q120 0 172 -107q-16 80 -53.5 141t-108.5 106l-87 -57l-36 28l80 52q-43 20 -94 34l29 58q35 -8 67.5 -19t63.5 -28
l86 55l37 -27l-80 -50q51 -30 86.5 -71.5t58 -91t33 -104.5t10.5 -111zM440 255q0 36 -9 68.5t-27.5 57.5t-47.5 39.5t-68 14.5q-42 0 -71 -16.5t-46.5 -43.5t-25.5 -61.5t-8 -70.5q0 -35 8 -69t26 -61t46.5 -43.5t69.5 -16.5q42 0 71.5 18t47.5 46.5t26 65t8 72.5z" />
    <glyph glyph-name="ntilde" unicode="&#xf1;" horiz-adv-x="593" 
d="M426 0v280q0 33 -3 62.5t-15 52t-35.5 36t-63.5 13.5q-41 0 -68 -17t-42.5 -44t-22 -61.5t-6.5 -69.5v-252h-88v375q0 16 -0.5 34.5t-1 36t-1 33t-0.5 26.5h87l3 -81q31 44 70.5 65.5t94.5 21.5q99 0 139.5 -52t40.5 -145v-314h-88zM464 716q-3 -18 -11 -35.5t-20.5 -31
t-28.5 -21.5t-36 -8q-15 0 -30 3.5t-29 8t-29 8.5t-30 4q-17 0 -29 -6.5t-19 -23.5h-47q7 40 33 67t68 27q15 0 29 -4t28.5 -8.5t28.5 -8t29 -3.5q33 0 45 32h48z" />
    <glyph glyph-name="ograve" unicode="&#xf2;" horiz-adv-x="587" 
d="M542 255q0 -56 -16.5 -104.5t-48.5 -84.5t-78 -56.5t-105 -20.5q-60 0 -106.5 20t-78 55.5t-48 84.5t-16.5 106t17 105t49 82.5t78.5 54t105.5 19.5q60 0 106 -19t77.5 -53.5t47.5 -82.5t16 -106zM450 255q0 37 -8.5 72.5t-27 63.5t-48.5 45t-72 17t-72 -17t-48.5 -45
t-27 -63.5t-8.5 -72.5t8.5 -73.5t27 -66t48 -48t72.5 -18.5q42 0 71.5 18.5t48.5 48.5t27.5 66.5t8.5 72.5zM299 591l-139 145h108l94 -145h-63z" />
    <glyph glyph-name="oacute" unicode="&#xf3;" horiz-adv-x="587" 
d="M542 255q0 -56 -16.5 -104.5t-48.5 -84.5t-78 -56.5t-105 -20.5q-60 0 -106.5 20t-78 55.5t-48 84.5t-16.5 106t17 105t49 82.5t78.5 54t105.5 19.5q60 0 106 -19t77.5 -53.5t47.5 -82.5t16 -106zM450 255q0 37 -8.5 72.5t-27 63.5t-48.5 45t-72 17t-72 -17t-48.5 -45
t-27 -63.5t-8.5 -72.5t8.5 -73.5t27 -66t48 -48t72.5 -18.5q42 0 71.5 18.5t48.5 48.5t27.5 66.5t8.5 72.5zM295 591h-64l95 145h108z" />
    <glyph glyph-name="ocircumflex" unicode="&#xf4;" horiz-adv-x="587" 
d="M542 255q0 -56 -16.5 -104.5t-48.5 -84.5t-78 -56.5t-105 -20.5q-60 0 -106.5 20t-78 55.5t-48 84.5t-16.5 106t17 105t49 82.5t78.5 54t105.5 19.5q60 0 106 -19t77.5 -53.5t47.5 -82.5t16 -106zM450 255q0 37 -8.5 72.5t-27 63.5t-48.5 45t-72 17t-72 -17t-48.5 -45
t-27 -63.5t-8.5 -72.5t8.5 -73.5t27 -66t48 -48t72.5 -18.5q42 0 71.5 18.5t48.5 48.5t27.5 66.5t8.5 72.5zM384 591l-86 99l-88 -99h-64l105 146h94l103 -146h-64z" />
    <glyph glyph-name="otilde" unicode="&#xf5;" horiz-adv-x="587" 
d="M542 255q0 -56 -16.5 -104.5t-48.5 -84.5t-78 -56.5t-105 -20.5q-60 0 -106.5 20t-78 55.5t-48 84.5t-16.5 106t17 105t49 82.5t78.5 54t105.5 19.5q60 0 106 -19t77.5 -53.5t47.5 -82.5t16 -106zM450 255q0 37 -8.5 72.5t-27 63.5t-48.5 45t-72 17t-72 -17t-48.5 -45
t-27 -63.5t-8.5 -72.5t8.5 -73.5t27 -66t48 -48t72.5 -18.5q42 0 71.5 18.5t48.5 48.5t27.5 66.5t8.5 72.5zM452 716q-3 -18 -11 -35.5t-20.5 -31t-28.5 -21.5t-36 -8q-15 0 -30 3.5t-29 8t-29 8.5t-30 4q-17 0 -29 -6.5t-19 -23.5h-47q7 40 33 67t68 27q15 0 29 -4
t28.5 -8.5t28.5 -8t29 -3.5q33 0 45 32h48z" />
    <glyph glyph-name="odieresis" unicode="&#xf6;" horiz-adv-x="587" 
d="M542 255q0 -56 -16.5 -104.5t-48.5 -84.5t-78 -56.5t-105 -20.5q-60 0 -106.5 20t-78 55.5t-48 84.5t-16.5 106t17 105t49 82.5t78.5 54t105.5 19.5q60 0 106 -19t77.5 -53.5t47.5 -82.5t16 -106zM450 255q0 37 -8.5 72.5t-27 63.5t-48.5 45t-72 17t-72 -17t-48.5 -45
t-27 -63.5t-8.5 -72.5t8.5 -73.5t27 -66t48 -48t72.5 -18.5q42 0 71.5 18.5t48.5 48.5t27.5 66.5t8.5 72.5zM345 636v88h93v-88h-93zM154 636v88h93v-88h-93z" />
    <glyph glyph-name="divide" unicode="&#xf7;" horiz-adv-x="673" 
d="M289 370v115h95v-115h-95zM82 212v73h509v-73h-509zM289 11v114h95v-114h-95z" />
    <glyph glyph-name="oslash" unicode="&#xf8;" horiz-adv-x="587" 
d="M542 255q0 -56 -16.5 -104.5t-48.5 -84.5t-78 -56.5t-105 -20.5q-51 0 -91.5 14t-71.5 40l-70 -75l-38 34l73 78q-51 69 -51 175q0 57 17 105t49 82.5t78.5 54t105.5 19.5q51 0 91 -13.5t70 -38.5l70 75l40 -31l-75 -80q51 -68 51 -173zM402 407q-19 21 -45.5 33.5
t-62.5 12.5q-42 0 -72 -17t-48.5 -45t-27 -63.5t-8.5 -72.5q0 -28 4.5 -55.5t15.5 -53.5zM450 255q0 29 -4.5 56t-15.5 51l-246 -262q19 -23 46 -37t64 -14q42 0 71.5 18.5t48.5 48.5t27.5 66.5t8.5 72.5z" />
    <glyph glyph-name="ugrave" unicode="&#xf9;" horiz-adv-x="592" 
d="M427 0l-4 80q-32 -44 -70 -65t-93 -21q-50 0 -84.5 13t-56 38.5t-31 62t-9.5 83.5v314h88v-280q0 -33 3 -63t15 -52.5t35.5 -35.5t63.5 -13t66.5 14.5t42.5 39.5t23 56.5t7 66.5v267h88v-245v-129.5t2 -130.5h-86zM297 591l-139 145h108l94 -145h-63z" />
    <glyph glyph-name="uacute" unicode="&#xfa;" horiz-adv-x="592" 
d="M427 0l-4 80q-32 -44 -70 -65t-93 -21q-50 0 -84.5 13t-56 38.5t-31 62t-9.5 83.5v314h88v-280q0 -33 3 -63t15 -52.5t35.5 -35.5t63.5 -13t66.5 14.5t42.5 39.5t23 56.5t7 66.5v267h88v-245v-129.5t2 -130.5h-86zM293 591h-64l95 145h108z" />
    <glyph glyph-name="ucircumflex" unicode="&#xfb;" horiz-adv-x="592" 
d="M427 0l-4 80q-32 -44 -70 -65t-93 -21q-50 0 -84.5 13t-56 38.5t-31 62t-9.5 83.5v314h88v-280q0 -33 3 -63t15 -52.5t35.5 -35.5t63.5 -13t66.5 14.5t42.5 39.5t23 56.5t7 66.5v267h88v-245v-129.5t2 -130.5h-86zM382 591l-86 99l-88 -99h-64l105 146h94l103 -146h-64z
" />
    <glyph glyph-name="udieresis" unicode="&#xfc;" horiz-adv-x="592" 
d="M427 0l-4 80q-32 -44 -70 -65t-93 -21q-50 0 -84.5 13t-56 38.5t-31 62t-9.5 83.5v314h88v-280q0 -33 3 -63t15 -52.5t35.5 -35.5t63.5 -13t66.5 14.5t42.5 39.5t23 56.5t7 66.5v267h88v-245v-129.5t2 -130.5h-86zM343 636v88h93v-88h-93zM152 636v88h93v-88h-93z" />
    <glyph glyph-name="yacute" unicode="&#xfd;" horiz-adv-x="529" 
d="M233 -190h-88l83 191l-215 504h100l159 -413l158 413h89zM272 591h-64l95 145h108z" />
    <glyph glyph-name="thorn" unicode="&#xfe;" horiz-adv-x="599" 
d="M554 260q0 -51 -13.5 -99.5t-41.5 -86t-70 -60t-99 -22.5q-56 0 -92 20.5t-68 64.5v-267h-88v913h88v-304q31 49 71 72t100 23q55 0 95.5 -21t66.5 -56.5t38.5 -81.5t12.5 -95zM462 255q0 34 -6.5 69t-23 64t-43.5 47.5t-67 18.5q-42 0 -71 -18t-47 -47t-26 -65t-8 -72
q0 -34 6.5 -69.5t23 -64t43.5 -46.5t68 -18q43 0 72 18t46.5 46.5t25 64.5t7.5 72z" />
    <glyph glyph-name="ydieresis" unicode="&#xff;" horiz-adv-x="529" 
d="M233 -190h-88l83 191l-215 504h100l159 -413l158 413h89zM322 636v88h93v-88h-93zM131 636v88h93v-88h-93z" />
    <glyph glyph-name="dotlessi" unicode="&#x131;" horiz-adv-x="252" 
d="M82 0v505h88v-505h-88z" />
    <glyph glyph-name="Lslash" unicode="&#x141;" horiz-adv-x="568" 
d="M98 0v319l-77 -46v67l77 45v338h94v-286l193 115v-66l-193 -115v-298h355v-73h-449z" />
    <glyph glyph-name="lslash" unicode="&#x142;" horiz-adv-x="252" 
d="M170 379v-379h-88v323l-91 -57v67l91 58v332h88v-275l91 56v-66z" />
    <glyph glyph-name="OE" unicode="&#x152;" horiz-adv-x="984" 
d="M620 0q-48 -1 -95.5 -4t-95.5 -3q-182 0 -280 91t-98 276q0 178 94 274t274 96q48 0 94.5 -3.5t94.5 -3.5h314v-76h-320v-237h304v-76h-304v-258h333v-76h-315zM510 647q-22 4 -43.5 6.5t-43.5 2.5q-71 0 -122.5 -21t-86 -60t-51 -93.5t-16.5 -121.5t16.5 -121.5
t50.5 -92.5t85.5 -59t121.5 -21q23 0 45 2.5t44 7.5v571z" />
    <glyph glyph-name="oe" unicode="&#x153;" horiz-adv-x="909" 
d="M513 235q0 -33 6 -66t21 -58.5t41 -41.5t66 -16q48 0 82 29t41 77h89q-6 -43 -24.5 -74.5t-46 -52.5t-63.5 -31.5t-77 -10.5q-58 0 -108 27.5t-72 83.5q-29 -57 -76 -83.5t-110 -26.5q-59 0 -103.5 20.5t-74.5 55.5t-45 83t-15 104q0 55 16.5 103t47 83.5t74.5 56
t99 20.5q129 0 190 -113q23 57 71.5 83.5t107.5 26.5q67 0 108.5 -22t65 -60.5t32.5 -89t9 -107.5h-352zM777 298q0 31 -8 59t-23.5 49t-40.5 33t-60 12q-34 0 -58 -12.5t-39.5 -34t-23.5 -49t-9 -57.5h262zM425 248q0 35 -6.5 71t-22.5 65t-44 47t-70 18t-70 -18.5
t-44 -47.5t-22.5 -65t-6.5 -71t7 -69.5t24 -61.5t45 -44t69 -17q40 0 67.5 17.5t43.5 45t23 62t7 68.5z" />
    <glyph glyph-name="Scaron" unicode="&#x160;" horiz-adv-x="635" 
d="M581 202q0 -57 -24 -97.5t-62 -66t-87 -37t-98 -11.5q-51 0 -95.5 11t-79 35.5t-56 63t-25.5 94.5h97q2 -35 15.5 -59.5t35.5 -40.5t50.5 -23.5t60.5 -7.5q30 0 60.5 7t55.5 22.5t40.5 39.5t15.5 59q0 28 -12 48.5t-31.5 35.5t-45.5 25.5t-54 19.5l-62 19
q-39 12 -76 26.5t-66 36.5t-46.5 54t-17.5 79q0 54 22 91.5t58 61.5t81.5 35t92.5 11q45 0 87.5 -9t75.5 -30.5t53.5 -56.5t21.5 -87h-95q-3 31 -15 52.5t-31.5 35t-44.5 19t-53 5.5t-56.5 -6.5t-51 -21t-36.5 -37.5t-14 -55q0 -24 11.5 -42.5t29.5 -32t40 -23t42 -16.5
l82 -27q39 -13 76 -27.5t66 -36.5t47 -54.5t18 -81.5zM378 776h-99l-103 145h64l90 -99l86 99h64z" />
    <glyph glyph-name="scaron" unicode="&#x161;" horiz-adv-x="496" 
d="M449 146q0 -43 -18 -73t-47.5 -48.5t-66 -27t-73.5 -8.5q-40 0 -76 8.5t-63 28t-42.5 50.5t-15.5 77h88q3 -53 32 -78t81 -25q20 0 40 5t36.5 15.5t27 26.5t10.5 39q0 20 -8.5 34t-23.5 24.5t-35 17.5t-42 12l-41 10q-28 7 -55.5 17t-49 25.5t-34.5 39t-13 57.5
q0 39 17.5 66.5t45 45t62 25t67.5 7.5q38 0 71 -8.5t58 -26.5t39.5 -47t16.5 -71h-87q-2 45 -28.5 69t-71.5 24q-17 0 -35.5 -4t-33.5 -13t-25 -23.5t-10 -34.5q0 -35 31.5 -54t76.5 -30l40 -10q33 -8 61.5 -19t49 -27.5t32.5 -39.5t12 -56zM300 591h-99l-103 145h64l90 -99
l86 99h64z" />
    <glyph glyph-name="Ydieresis" unicode="&#x178;" horiz-adv-x="635" 
d="M365 299v-299h-94v303l-279 420h111l220 -344l217 344h104zM369 811v88h93v-88h-93zM178 811v88h93v-88h-93z" />
    <glyph glyph-name="Zcaron" unicode="&#x17d;" horiz-adv-x="584" 
d="M21 0v83l426 567h-399v73h503v-77l-429 -573h441v-73h-542zM351 776h-99l-103 145h64l90 -99l86 99h64z" />
    <glyph glyph-name="zcaron" unicode="&#x17e;" horiz-adv-x="461" 
d="M37 0v71l289 368h-281v66h371v-73l-284 -366h292v-66h-387zM273 591h-99l-103 145h64l90 -99l86 99h64z" />
    <glyph glyph-name="florin" unicode="&#x192;" horiz-adv-x="580" 
d="M339 459h105l-11 -66h-106l-70 -378q-9 -50 -22.5 -85.5t-32 -58.5t-44.5 -34t-61 -11q-14 0 -28.5 2t-28.5 4l13 73q13 -3 28 -3q34 0 52 22.5t28 75.5l73 393h-94l12 66h94l18 93q7 36 16.5 70t26.5 60.5t43 42t67 15.5q19 0 38 -2.5t36 -6.5l-11 -72q-11 2 -21 4
t-21 2q-39 0 -55 -28t-25 -79z" />
    <glyph glyph-name="circumflex" unicode="&#x2c6;" horiz-adv-x="300" 
d="M237 591l-86 99l-88 -99h-64l105 146h94l103 -146h-64z" />
    <glyph glyph-name="caron" unicode="&#x2c7;" horiz-adv-x="300" 
d="M200 591h-99l-103 145h64l90 -99l86 99h64z" />
    <glyph glyph-name="breve" unicode="&#x2d8;" horiz-adv-x="301" 
d="M301 714q-7 -60 -47 -91.5t-105 -31.5q-62 0 -105.5 31.5t-45.5 91.5h45q3 -18 14 -31t26 -21t32.5 -12t33.5 -4q36 0 66 15t43 53h43v0z" />
    <glyph glyph-name="dotaccent" unicode="&#x2d9;" horiz-adv-x="301" 
d="M104 636v88h93v-88h-93z" />
    <glyph glyph-name="ring" unicode="&#x2da;" horiz-adv-x="300" 
d="M244 666q0 -40 -27 -66.5t-67 -26.5t-67 26.5t-27 66.5t27 66.5t67 26.5t67 -26.5t27 -66.5zM203 666q0 25 -14 41t-39 16t-39 -16t-14 -41t14 -41t39 -16t39 16t14 41z" />
    <glyph glyph-name="ogonek" unicode="&#x2db;" horiz-adv-x="301" 
d="M230 0q-56 -26 -82.5 -47t-26.5 -50q0 -25 18.5 -36.5t41.5 -11.5q19 0 42 10l6 -32q-19 -9 -38.5 -14t-40.5 -5q-16 0 -33 4t-30.5 12t-22.5 21.5t-9 32.5q0 21 10 38.5t26.5 32t38 26t43.5 19.5h57v0z" />
    <glyph glyph-name="tilde" unicode="&#x2dc;" horiz-adv-x="301" 
d="M305 716q-3 -18 -11 -35.5t-20.5 -31t-28.5 -21.5t-36 -8q-15 0 -30 3.5t-29 8t-29 8.5t-30 4q-17 0 -29 -6.5t-19 -23.5h-47q7 40 33 67t68 27q15 0 29 -4t28.5 -8.5t28.5 -8t29 -3.5q33 0 45 32h48v0z" />
    <glyph glyph-name="hungarumlaut" unicode="&#x2dd;" horiz-adv-x="300" 
d="M235 593h-66l100 143h108zM61 593h-66l99 143h109z" />
    <glyph glyph-name="pi" unicode="&#x3c0;" horiz-adv-x="659" 
d="M608 12q-18 -8 -37 -13.5t-42 -5.5q-51 0 -72.5 28t-21.5 85v327h-226v-433h-89v433h-77v72h561v-72h-81v-323q0 -48 40 -48q12 0 23 3t22 8v-61v0z" />
    <glyph glyph-name="aComma" unicode="&#x60c;" horiz-adv-x="290" 
d="M149 219h72l-54 -219h-105z" />
    <glyph glyph-name="aTahabove" unicode="&#x615;" horiz-adv-x="0" 
d="M-8 504v33h38v186h36v-94q13 2 37 6t40 4q45 0 67.5 -19t22.5 -51v-65h-241zM140 607q-17 0 -35.5 -2.5t-38.5 -6.5v-61h130v12q0 32 -13 45t-43 13z" />
    <glyph glyph-name="aSemicolon" unicode="&#x61b;" horiz-adv-x="290" 
d="M172 453h72l-54 -219h-105zM90 0v99h101v-99h-101z" />
    <glyph glyph-name="aQuestion" unicode="&#x61f;" horiz-adv-x="475" 
d="M52 494q0 52 19.5 87t51.5 56.5t74 30.5t87 9q29 0 57.5 -3.5t57.5 -8.5v-73q-26 8 -52 12t-52 4q-29 0 -56 -6t-47.5 -20t-33 -36.5t-12.5 -55.5q0 -24 8 -44.5t21.5 -38.5t31 -34.5t36.5 -33.5q25 -23 41 -39t25 -31t12 -33t3 -44v-28h-77v28q0 23 -7.5 37.5
t-33.5 38.5q-32 29 -60 56t-49 54t-33 55.5t-12 60.5zM235 0v101h101v-101h-101z" />
    <glyph glyph-name="aKashida" unicode="&#x640;" horiz-adv-x="148" 
d="M0 0q-20 0 -30 7t-10 28q0 25 9.5 30t30.5 5h149q20 0 30 -5.5t10 -26.5q0 -25 -9.5 -31.5t-30.5 -6.5h-149z" />
    <glyph glyph-name="aHeh" unicode="&#x647;" horiz-adv-x="537" 
d="M271 65q32 0 55.5 11.5t38.5 31.5t22.5 45.5t7.5 54.5q0 33 -8.5 61.5t-24.5 49.5t-39 33t-52 12t-52 -12t-39 -33t-24.5 -49.5t-8.5 -61.5q0 -29 7.5 -54.5t22.5 -45.5t38.5 -31.5t55.5 -11.5zM271 -5q-57 0 -97 20t-65.5 51t-37 69.5t-11.5 74.5q0 44 13.5 84.5
t40 71.5t66 49.5t91.5 18.5t91.5 -18.5t66 -49.5t40 -71.5t13.5 -84.5q0 -36 -11.5 -74.5t-37 -69.5t-65.5 -51t-97 -20z" />
    <glyph glyph-name="aFathatan" unicode="&#x64b;" horiz-adv-x="0" 
d="M142 812l-285 -35v45l285 35v-45zM142 719l-285 -35v45l285 35v-45z" />
    <glyph glyph-name="aDammatan" unicode="&#x64c;" horiz-adv-x="0" 
d="M10 746q12 0 19.5 1.5t15.5 4.5q-6 3 -15 8.5t-17.5 13.5t-14.5 20t-6 29q0 39 25 57t56 18q16 0 34.5 -5t34.5 -14q0 -94 -36 -136t-102 -42q-31 0 -58 12.5t-45 44.5l-74 -13v45l94 15q17 -37 39.5 -48t49.5 -11zM35 825q0 -18 12 -30.5t30 -20.5q10 11 16.5 34.5
t8.5 46.5q-9 4 -17 5t-14 1q-13 0 -24.5 -8t-11.5 -28z" />
    <glyph glyph-name="aKasratan" unicode="&#x64d;" horiz-adv-x="0" 
d="M142 -195l-285 -35v45l285 35v-45zM142 -288l-285 -35v45l285 35v-45z" />
    <glyph glyph-name="aFatha" unicode="&#x64e;" horiz-adv-x="0" 
d="M142 719l-285 -35v45l285 35v-45z" />
    <glyph glyph-name="aDamma" unicode="&#x64f;" horiz-adv-x="0" 
d="M-4 824q0 -20 13 -32t34 -22q13 11 16.5 34.5t3.5 49.5q-8 3 -16.5 4.5t-14.5 1.5q-13 0 -24.5 -8t-11.5 -28zM-111 693v45l90 11q11 2 16 2.5t10 2.5q-16 7 -34 24.5t-18 44.5q0 39 24.5 57t56.5 18q16 0 33.5 -4t35.5 -15q0 -51 -6.5 -83.5t-21 -51.5t-37.5 -27.5
t-56 -12.5z" />
    <glyph glyph-name="aKasra" unicode="&#x650;" horiz-adv-x="0" 
d="M142 -195l-285 -35v45l285 35v-45z" />
    <glyph glyph-name="aShadda" unicode="&#x651;" horiz-adv-x="0" 
d="M5 724q-14 -20 -33 -25t-28 -5q-34 0 -55 19.5t-21 61.5v57h46v-51q0 -42 34 -42q11 0 22 7.5t11 33.5v40h46v-39q0 -26 11 -33t24 -7q30 0 30 37v54h46v-57q0 -42 -20 -61.5t-53 -19.5q-11 0 -29.5 5.5t-30.5 24.5z" />
    <glyph glyph-name="aSukun" unicode="&#x652;" horiz-adv-x="0" 
d="M-80 781q0 33 23 56.5t56 23.5t56.5 -23.5t23.5 -56.5t-23.5 -56t-56.5 -23t-56 23t-23 56zM-44 782q0 -18 13 -31t31 -13t31 13t13 31t-13 31t-31 13t-31 -13t-13 -31z" />
    <glyph glyph-name="aMadda" unicode="&#x653;" horiz-adv-x="0" 
d="M-165 809q26 22 47 28.5t38 6.5q22 0 43 -6t42.5 -13.5t44 -13.5t46.5 -6q23 0 35 9.5t22 25.5l36 -22q-18 -33 -37 -48t-56 -15q-25 0 -48.5 6t-45.5 13.5t-43 13.5t-42 6q-13 0 -27 -4t-33 -15z" />
    <glyph glyph-name="aHamzaabove" unicode="&#x654;" horiz-adv-x="0" 
d="M100 751h-204v45h46q-8 25 -10.5 38.5t-2.5 25.5q0 39 28.5 65t82.5 26q8 0 22 -0.5t22 -1.5v-44q-5 1 -15 1.5t-14 0.5q-37 0 -56 -12t-19 -44q0 -8 2.5 -21.5t10.5 -33.5h107v-45z" />
    <glyph glyph-name="aHamzabelow" unicode="&#x655;" horiz-adv-x="0" 
d="M100 -271h-204v45h46q-8 25 -10.5 38.5t-2.5 25.5q0 39 28.5 65t82.5 26q8 0 22 -0.5t22 -1.5v-44q-5 1 -15 1.5t-14 0.5q-37 0 -56 -12t-19 -44q0 -8 2.5 -21t10.5 -34h107v-45z" />
    <glyph glyph-name="aAlifbelow" unicode="&#x656;" horiz-adv-x="0" 
d="M-22 -100h47v-201h-47v201z" />
    <glyph glyph-name="aNasalnun" unicode="&#x658;" horiz-adv-x="0" 
d="M97 822v-54q0 -50 -26 -75t-70 -25q-45 0 -71.5 25.5t-26.5 74.5v54h43v-56q0 -28 15 -43t40 -15q24 0 38.5 15t14.5 43v56h43z" />
    <glyph glyph-name="aZero" unicode="&#x660;" 
d="M245 107l-89 89l89 86l88 -87z" />
    <glyph glyph-name="aOne" unicode="&#x661;" 
d="M204 606h83v-606h-83v606z" />
    <glyph glyph-name="aTwo" unicode="&#x662;" 
d="M161 0h-83v606h85v-131q23 -6 49 -9t53 -3q39 0 60.5 13t21.5 52v78h82v-69q0 -46 -14.5 -74t-38 -43t-53 -19.5t-59.5 -4.5q-28 0 -56.5 3.5t-46.5 7.5v-407z" />
    <glyph glyph-name="aThree" unicode="&#x663;" 
d="M132 0h-83v606h85v-134q11 -4 22 -6.5t25 -2.5q27 0 35 15t8 50v78h82v-60q0 -24 -1.5 -42t-6.5 -32q11 -4 23 -6.5t23 -2.5q22 0 31 13t9 52v78h82v-84q0 -36 -8 -59.5t-21.5 -37t-32.5 -18.5t-41 -5q-25 0 -49 5.5t-44 13.5q-16 -12 -35 -17t-39 -5t-34.5 3t-29.5 8
v-410z" />
    <glyph glyph-name="aFour" unicode="&#x664;" 
d="M359 283q-53 -5 -88 -19.5t-56 -33.5t-29.5 -40t-8.5 -40q0 -23 9 -38.5t24.5 -24.5t36.5 -13t45 -4h113v-70h-139q-38 0 -70.5 8t-56 25t-37 42.5t-13.5 61.5q0 34 12 61.5t30.5 48.5t41 36.5t44.5 26.5q-40 16 -70 50t-30 87q0 40 15 70t42 50t63 29.5t78 9.5h59v-67
h-53q-21 0 -42 -4.5t-37.5 -15t-26.5 -28t-10 -44.5q0 -30 11.5 -49t28.5 -29.5t37 -14t38 -3.5h39v-68v0z" />
    <glyph glyph-name="aFive" unicode="&#x665;" 
d="M250 0q-42 0 -79 4t-64.5 25t-43.5 64.5t-16 121.5q0 94 18 167.5t46.5 123t65 75.5t74.5 26q37 0 74 -24.5t66 -73.5t47 -122.5t18 -171.5q0 -78 -15.5 -121.5t-43 -64.5t-65 -25t-82.5 -4zM251 70q30 0 52.5 3t37.5 17.5t22 44t7 82.5q0 70 -10 129t-26.5 101.5t-38 66
t-44.5 23.5q-26 0 -47.5 -25t-37.5 -68.5t-25 -101t-9 -123.5q0 -54 7 -84t22 -44.5t37.5 -17.5t52.5 -3z" />
    <glyph glyph-name="aSix" unicode="&#x666;" 
d="M400 0h-83v538h-254v68h337v-606z" />
    <glyph glyph-name="aSeven" unicode="&#x667;" 
d="M245 128l156 478h89l-204 -606h-81l-205 606h88z" />
    <glyph glyph-name="aEight" unicode="&#x668;" 
d="M245 478l-156 -478h-89l204 606h81l205 -606h-88z" />
    <glyph glyph-name="aNine" unicode="&#x669;" 
d="M418 606v-606h-82v255h-63q-36 0 -73 5.5t-67 24t-49 53t-19 92.5q0 49 17 83t45 54.5t63.5 29.5t71.5 9h156zM152 429q0 -35 11 -56.5t29.5 -32.5t42 -14.5t48.5 -3.5h53v216h-56q-26 0 -49.5 -4.5t-41 -17t-27.5 -33.5t-10 -54z" />
    <glyph glyph-name="aPercent" unicode="&#x66a;" horiz-adv-x="602" 
d="M138 432l-89 89l89 86l88 -87zM459 2l-89 89l89 86l88 -87zM152 -18h-67l372 637h66z" />
    <glyph glyph-name="aDecimal" unicode="&#x66b;" horiz-adv-x="290" 
d="M139 -120h-72l54 219h105z" />
    <glyph glyph-name="aThousands" unicode="&#x66c;" horiz-adv-x="290" 
d="M139 32h-72l54 219h105z" />
    <glyph glyph-name="aStar" unicode="&#x66d;" horiz-adv-x="343" 
d="M179 569l-83 -85l-14 8l57 104l-107 53l4 14l118 -20l17 117h16l15 -117l117 20l4 -14l-106 -53l56 -104l-14 -8z" />
    <glyph glyph-name="aAlifabove" unicode="&#x670;" horiz-adv-x="0" 
d="M-22 863h47v-201h-47v201z" />
    <glyph glyph-name="aHehYeh" unicode="&#x6c0;" horiz-adv-x="537" 
d="M271 65q32 0 55.5 11.5t38.5 31.5t22.5 45.5t7.5 54.5q0 33 -8.5 61.5t-24.5 49.5t-39 33t-52 12t-52 -12t-39 -33t-24.5 -49.5t-8.5 -61.5q0 -29 7.5 -54.5t22.5 -45.5t38.5 -31.5t55.5 -11.5zM271 -5q-57 0 -97 20t-65.5 51t-37 69.5t-11.5 74.5q0 44 13.5 84.5
t40 71.5t66 49.5t91.5 18.5t91.5 -18.5t66 -49.5t40 -71.5t13.5 -84.5q0 -36 -11.5 -74.5t-37 -69.5t-65.5 -51t-97 -20zM380 506h-204v45h46q-8 25 -10.5 38.5t-2.5 25.5q0 39 28.5 65t82.5 26q8 0 22 -0.5t22 -1.5v-44q-5 1 -15 1.5t-14 0.5q-37 0 -56 -12t-19 -44
q0 -8 2.5 -21.5t10.5 -33.5h107v-45z" />
    <glyph glyph-name="aHehGoalHamzaabove" unicode="&#x6c2;" horiz-adv-x="537" 
d="M271 65q32 0 55.5 11.5t38.5 31.5t22.5 45.5t7.5 54.5q0 33 -8.5 61.5t-24.5 49.5t-39 33t-52 12t-52 -12t-39 -33t-24.5 -49.5t-8.5 -61.5q0 -29 7.5 -54.5t22.5 -45.5t38.5 -31.5t55.5 -11.5zM271 -5q-57 0 -97 20t-65.5 51t-37 69.5t-11.5 74.5q0 44 13.5 84.5
t40 71.5t66 49.5t91.5 18.5t91.5 -18.5t66 -49.5t40 -71.5t13.5 -84.5q0 -36 -11.5 -74.5t-37 -69.5t-65.5 -51t-97 -20zM378 506h-204v45h46q-8 25 -10.5 38.5t-2.5 25.5q0 39 28.5 65t82.5 26q8 0 22 -0.5t22 -1.5v-44q-5 1 -15 1.5t-14 0.5q-37 0 -56 -12t-19 -44
q0 -8 2.5 -21.5t10.5 -33.5h107v-45z" />
    <glyph glyph-name="aTehMarbutaGoal" unicode="&#x6c3;" horiz-adv-x="537" 
d="M271 65q32 0 55.5 11.5t38.5 31.5t22.5 45.5t7.5 54.5q0 33 -8.5 61.5t-24.5 49.5t-39 33t-52 12t-52 -12t-39 -33t-24.5 -49.5t-8.5 -61.5q0 -29 7.5 -54.5t22.5 -45.5t38.5 -31.5t55.5 -11.5zM271 -5q-57 0 -97 20t-65.5 51t-37 69.5t-11.5 74.5q0 44 13.5 84.5
t40 71.5t66 49.5t91.5 18.5t91.5 -18.5t66 -49.5t40 -71.5t13.5 -84.5q0 -36 -11.5 -74.5t-37 -69.5t-65.5 -51t-97 -20zM150 558q0 22 15.5 37.5t37.5 15.5t37.5 -15.5t15.5 -37.5t-15.5 -37.5t-37.5 -15.5t-37.5 15.5t-15.5 37.5zM280 558q0 22 15.5 37.5t37.5 15.5
t37.5 -15.5t15.5 -37.5t-15.5 -37.5t-37.5 -15.5t-37.5 15.5t-15.5 37.5z" />
    <glyph glyph-name="aPeriodUrdu" unicode="&#x6d4;" horiz-adv-x="280" 
d="M235 0h-108q-20 0 -37 2t-29 8t-19 18t-7 32q0 12 3 29q21 -10 49 -14.5t54 -4.5h94v-70z" />
    <glyph glyph-name="aAe" unicode="&#x6d5;" horiz-adv-x="537" 
d="M271 65q32 0 55.5 11.5t38.5 31.5t22.5 45.5t7.5 54.5q0 33 -8.5 61.5t-24.5 49.5t-39 33t-52 12t-52 -12t-39 -33t-24.5 -49.5t-8.5 -61.5q0 -29 7.5 -54.5t22.5 -45.5t38.5 -31.5t55.5 -11.5zM271 -5q-57 0 -97 20t-65.5 51t-37 69.5t-11.5 74.5q0 44 13.5 84.5
t40 71.5t66 49.5t91.5 18.5t91.5 -18.5t66 -49.5t40 -71.5t13.5 -84.5q0 -36 -11.5 -74.5t-37 -69.5t-65.5 -51t-97 -20z" />
    <glyph glyph-name="aZeroFarsi" unicode="&#x6f0;" 
d="M245 107l-89 89l89 86l88 -87z" />
    <glyph glyph-name="aOneFarsi" unicode="&#x6f1;" 
d="M204 606h83v-606h-83v606z" />
    <glyph glyph-name="aTwoFarsi" unicode="&#x6f2;" 
d="M161 0h-83v606h85v-131q23 -6 49 -9t53 -3q39 0 60.5 13t21.5 52v78h82v-69q0 -46 -14.5 -74t-38 -43t-53 -19.5t-59.5 -4.5q-28 0 -56.5 3.5t-46.5 7.5v-407z" />
    <glyph glyph-name="aThreeFarsi" unicode="&#x6f3;" 
d="M132 0h-83v606h85v-134q11 -4 22 -6.5t25 -2.5q27 0 35 15t8 50v78h82v-60q0 -24 -1.5 -42t-6.5 -32q11 -4 23 -6.5t23 -2.5q22 0 31 13t9 52v78h82v-84q0 -36 -8 -59.5t-21.5 -37t-32.5 -18.5t-41 -5q-25 0 -49 5.5t-44 13.5q-16 -12 -35 -17t-39 -5t-34.5 3t-29.5 8
v-410z" />
    <glyph glyph-name="aFourFarsi" unicode="&#x6f4;" 
d="M145 0h-83v606h85v-131q36 -8 78 -11q-6 19 -8.5 40.5t-2.5 33.5q0 57 29 82.5t82 25.5h15v-61q-35 -1 -48.5 -17t-13.5 -47q0 -11 2.5 -25.5t10.5 -32.5q22 0 40.5 3t32 10t21.5 19.5t8 32.5v79h82v-70q0 -46 -19 -74t-48.5 -43t-66 -19.5t-71.5 -4.5q-14 0 -32 1
t-35.5 2.5t-33 3.5t-24.5 4v-407z" />
    <glyph glyph-name="aFiveFarsi" unicode="&#x6f5;" 
d="M371 209q0 70 -9.5 130t-26 104t-38.5 69t-47 25q-26 0 -47 -26.5t-37 -71t-24.5 -103.5t-8.5 -125q0 -48 4.5 -74.5t12 -39t18 -14.5t22.5 -2q11 0 19.5 4t15.5 9t12.5 9t9.5 4t9 -4t11 -9t15 -9t21 -4t24.5 3.5t22 17t15.5 38.5t6 69zM457 207q0 -62 -10 -102.5
t-27.5 -63.5t-40.5 -32t-50 -9q-25 0 -45.5 11.5t-34.5 25.5q-20 -22 -38.5 -29t-34.5 -7q-30 0 -54 7t-40.5 28.5t-25 62t-8.5 108.5q0 94 18.5 168.5t47.5 126t65 78.5t71 27q37 0 74 -26t66.5 -76.5t48 -125t18.5 -172.5z" />
    <glyph glyph-name="aSixFarsi" unicode="&#x6f6;" 
d="M388 276l-199 -276h-97l209 275q-86 5 -134 47t-48 112q0 43 16 75.5t42 54t59.5 32t69.5 10.5h82v-67h-67q-23 0 -43.5 -5t-36.5 -16.5t-25.5 -29.5t-9.5 -44q0 -30 10 -49t27 -30t38.5 -15t44.5 -4h63z" />
    <glyph glyph-name="aSevenFarsi" unicode="&#x6f7;" 
d="M245 128l156 478h89l-204 -606h-81l-205 606h88z" />
    <glyph glyph-name="aEightFarsi" unicode="&#x6f8;" 
d="M245 478l-156 -478h-89l204 606h81l205 -606h-88z" />
    <glyph glyph-name="aNineFarsi" unicode="&#x6f9;" 
d="M418 606v-606h-82v255h-63q-36 0 -73 5.5t-67 24t-49 53t-19 92.5q0 49 17 83t45 54.5t63.5 29.5t71.5 9h156zM152 429q0 -35 11 -56.5t29.5 -32.5t42 -14.5t48.5 -3.5h53v216h-56q-26 0 -49.5 -4.5t-41 -17t-27.5 -33.5t-10 -54z" />
    <glyph glyph-name="enspace" unicode="&#x2002;" horiz-adv-x="500" 
 />
    <glyph glyph-name="emspace" unicode="&#x2003;" horiz-adv-x="1000" 
 />
    <glyph glyph-name="thinspace" unicode="&#x2009;" horiz-adv-x="100" 
 />
    <glyph glyph-name="hairspace" unicode="&#x200a;" horiz-adv-x="20" 
 />
    <glyph glyph-name="ZWNJ" unicode="&#x200c;" horiz-adv-x="33" 
d="M33 2h-33v1319h33v-1319z" />
    <glyph glyph-name="ZWJ" unicode="&#x200d;" horiz-adv-x="33" 
d="M78 1227l-45 46v-1273h-33v1276l-49 -49l-17 18l63 63l-63 64l17 17l64 -63l63 63l18 -17l-63 -63v-1l63 -63z" />
    <glyph glyph-name="LTR" unicode="&#x200e;" horiz-adv-x="32" 
d="M109 1227v61h-77v-1286h-32v1319h109v68l81 -81z" />
    <glyph glyph-name="RTL" unicode="&#x200f;" horiz-adv-x="33" 
d="M33 1321v-1319h-33v1286h-77v-61l-81 81l81 81v-68h110z" />
    <glyph glyph-name="endash" unicode="&#x2013;" horiz-adv-x="512" 
d="M5 233v59h502v-59h-502z" />
    <glyph glyph-name="emdash" unicode="&#x2014;" horiz-adv-x="1013" 
d="M135 233v59h743v-59h-743z" />
    <glyph glyph-name="quoteleft" unicode="&#x2018;" horiz-adv-x="302" 
d="M178 511h-102l79 212h71z" />
    <glyph glyph-name="quoteright" unicode="&#x2019;" horiz-adv-x="302" 
d="M147 511h-71l49 212h101z" />
    <glyph glyph-name="quotesinglbase" unicode="&#x201a;" horiz-adv-x="308" 
d="M147 -114h-71l53 213h103z" />
    <glyph glyph-name="quotedblleft" unicode="&#x201c;" horiz-adv-x="510" 
d="M379 511h-104l90 212h69zM180 511h-104l90 212h70z" />
    <glyph glyph-name="quotedblright" unicode="&#x201d;" horiz-adv-x="510" 
d="M344 511h-69l56 212h103zM146 511h-70l55 212h105z" />
    <glyph glyph-name="quotedblbase" unicode="&#x201e;" horiz-adv-x="506" 
d="M346 -114h-71l52 213h103zM147 -114h-71l53 213h102z" />
    <glyph glyph-name="dagger" unicode="&#x2020;" horiz-adv-x="590" 
d="M333 480v-480h-76v480h-174v63h174v179h76v-179h174v-63h-174z" />
    <glyph glyph-name="daggerdbl" unicode="&#x2021;" horiz-adv-x="590" 
d="M335 174v-174h-79v174h-173v62h173v251h-173v62h173v173h79v-173h171v-62h-171v-251h172v-62h-172z" />
    <glyph glyph-name="bullet" unicode="&#x2022;" horiz-adv-x="513" 
d="M438 362q0 -37 -14 -70t-39 -57.5t-58 -39t-70 -14.5q-38 0 -71 14t-57.5 39t-39 57.5t-14.5 70.5q0 37 14.5 70t39 57.5t57.5 38.5t71 14q37 0 70 -14t57.5 -38.5t39 -57.5t14.5 -70z" />
    <glyph glyph-name="ellipsis" unicode="&#x2026;" horiz-adv-x="1011" 
d="M788 0v99h101v-99h-101zM455 0v99h101v-99h-101zM122 0v99h101v-99h-101z" />
    <glyph glyph-name="LTRE" unicode="&#x202a;" horiz-adv-x="500" 
 />
    <glyph glyph-name="RTLE" unicode="&#x202b;" horiz-adv-x="500" 
 />
    <glyph glyph-name="POP" unicode="&#x202c;" horiz-adv-x="500" 
 />
    <glyph glyph-name="LTRO" unicode="&#x202d;" horiz-adv-x="500" 
 />
    <glyph glyph-name="RTLO" unicode="&#x202e;" horiz-adv-x="500" 
 />
    <glyph glyph-name="perthousand" unicode="&#x2030;" horiz-adv-x="1012" 
d="M981 156q0 -33 -9 -63.5t-27.5 -54t-46 -37.5t-63.5 -14q-35 0 -61.5 12.5t-44.5 34.5t-27.5 50.5t-9.5 61.5q0 35 8.5 65.5t26.5 53.5t45.5 36.5t65.5 13.5q36 0 63 -12t45 -33.5t26.5 -50.5t8.5 -63zM320 578q0 -33 -9 -63.5t-27 -53.5t-45.5 -37t-63.5 -14
q-35 0 -62 12.5t-45 34t-27.5 50t-9.5 61.5q0 35 8.5 66t26.5 54t46 36.5t66 13.5q36 0 63 -12.5t44.5 -34t26 -50.5t8.5 -63zM155 -26h-71l433 779h70zM637 156q0 -33 -9 -63.5t-27.5 -54t-45.5 -37.5t-63 -14q-35 0 -61.5 12.5t-44.5 34.5t-27.5 50.5t-9.5 61.5
q0 35 8.5 65.5t26.5 53.5t45.5 36.5t65.5 13.5q36 0 63 -12.5t44.5 -34t26 -50.5t8.5 -62zM910 159q0 18 -3.5 35.5t-11.5 31.5t-22 22.5t-35 8.5q-22 0 -36.5 -9.5t-23.5 -24.5t-12.5 -34t-3.5 -38q0 -18 3.5 -36.5t11.5 -34t22.5 -25t35.5 -9.5q23 0 37.5 11t23 27.5
t11.5 36.5t3 38zM249 581q0 18 -3.5 36t-11.5 32t-22 23t-35 9q-22 0 -36.5 -9.5t-23.5 -25t-12.5 -34.5t-3.5 -38q0 -18 3.5 -36.5t12 -34t23 -25t35.5 -9.5q23 0 37.5 10.5t22.5 27t11 36.5t3 38zM566 159q0 18 -3.5 35.5t-11.5 31.5t-22 22.5t-35 8.5q-22 0 -36.5 -9.5
t-23 -25t-12 -34.5t-3.5 -37t3 -36.5t11.5 -34t22.5 -25t36 -9.5t36.5 11t23 27.5t11.5 36.5t3 38z" />
    <glyph glyph-name="guilsinglleft" unicode="&#x2039;" horiz-adv-x="301" 
d="M166 64l-106 197l106 192h74l-96 -197l97 -192h-75z" />
    <glyph glyph-name="guilsinglright" unicode="&#x203a;" horiz-adv-x="301" 
d="M135 64h-74l96 197l-97 192h75l106 -197z" />
    <glyph glyph-name="fraction" unicode="&#x2044;" horiz-adv-x="179" 
d="M-91 -26h-71l434 779h69z" />
    <glyph glyph-name="Euro" unicode="&#x20ac;" horiz-adv-x="580" 
d="M536 611q-17 19 -51.5 35.5t-91.5 16.5q-44 0 -76 -15t-53.5 -40.5t-34 -60t-16.5 -73.5h282l-16 -62h-268q-1 -7 -1 -12.5v-20.5v-21t1 -23h245l-16 -62h-228q5 -99 47 -154t135 -55q49 0 83 13.5t59 36.5v-89q-25 -16 -58.5 -26t-87.5 -10q-71 0 -119.5 20t-80 57
t-48 89.5t-22.5 117.5h-90l16 62h71q-1 13 -1 23v21v18.5t1 14.5h-86l16 62h72q9 56 28 104.5t51.5 84t80 55.5t112.5 20q35 0 61.5 -5.5t47 -13t34.5 -15.5t23 -14z" />
    <glyph glyph-name="liter" unicode="&#x2113;" horiz-adv-x="508" 
d="M445 37q-33 -25 -70.5 -38.5t-75.5 -13.5q-68 0 -106.5 35.5t-38.5 98.5v111l-74 -69l-26 38l99 87v272q0 41 12 75t33.5 58.5t50 38t61.5 13.5q59 0 93.5 -36.5t34.5 -99.5q0 -78 -49 -157t-147 -170v-143q0 -28 7.5 -46.5t20 -29.5t28 -15.5t31.5 -4.5q44 0 90 33z
M374 599q0 41 -18 68.5t-46 27.5q-29 0 -48.5 -29t-19.5 -86v-247q69 75 100.5 143t31.5 123z" />
    <glyph glyph-name="trademark" unicode="&#x2122;" horiz-adv-x="954" 
d="M765 361v309l-114 -309h-46l-116 309v-309h-58v361h91l107 -281l108 281h87v-361h-59zM265 676v-315h-61v315h-129v46h316v-46h-126z" />
    <glyph glyph-name="ohm" unicode="&#x2126;" horiz-adv-x="753" 
d="M452 0v75q33 22 60.5 52.5t47.5 69t31.5 83.5t11.5 96q0 59 -13 111.5t-41 91.5t-70.5 61.5t-102.5 22.5q-57 0 -99 -23t-70 -62t-41.5 -91.5t-13.5 -110.5q0 -51 11.5 -96t31.5 -83.5t47.5 -69t59.5 -52.5v-75h-248v75h157q-69 45 -113.5 124t-44.5 186q0 74 22 138.5
t63.5 112t101.5 75t136 27.5q77 0 137.5 -25t102.5 -71t64 -111.5t22 -145.5q0 -107 -45 -186t-114 -124h158v-75h-249z" />
    <glyph glyph-name="estimated" unicode="&#x212e;" horiz-adv-x="600" 
d="M157 259v-181q59 -59 145 -59q63 0 109 28.5t84 91.5l35 -21q-23 -36 -46.5 -61.5t-51 -42t-59.5 -24t-71 -7.5q-59 0 -106.5 21.5t-81.5 59t-52 87.5t-18 108t18 108.5t52 87.5t81.5 58.5t106.5 21.5q58 0 105.5 -20.5t81.5 -57t53 -87t19 -111.5h-404zM448 295v145
q-63 60 -147 60t-144 -60v-145h291z" />
    <glyph glyph-name="partialdiff" unicode="&#x2202;" horiz-adv-x="557" 
d="M508 361q0 -93 -20.5 -163.5t-56 -117t-84 -70t-104.5 -23.5q-52 0 -90 17.5t-63.5 47t-38 68t-12.5 79.5q0 52 16.5 95.5t45.5 75t69 48.5t88 17q54 0 94 -20.5t69 -57.5v7q0 57 -12 110.5t-35 95t-57 67t-78 25.5q-38 0 -70.5 -11.5t-67.5 -32.5l-29 64q38 23 80.5 38
t93.5 15q65 0 114 -32.5t82 -85t49.5 -120t16.5 -136.5zM248 59q30 0 57 12.5t49.5 39t38.5 68t23 98.5q-23 38 -59.5 62.5t-82.5 24.5q-30 0 -56.5 -11.5t-46.5 -33.5t-32 -52.5t-12 -67.5q0 -29 8 -54.5t23.5 -44.5t38 -30t51.5 -11z" />
    <glyph glyph-name="Delta" unicode="&#x2206;" horiz-adv-x="683" 
d="M-3 0l294 723h100l299 -723h-693zM342 642l-225 -569h450z" />
    <glyph glyph-name="product" unicode="&#x220f;" horiz-adv-x="747" 
d="M573 -205v914h-399v-914h-89v988h577v-988h-89z" />
    <glyph glyph-name="summation" unicode="&#x2211;" horiz-adv-x="633" 
d="M41 -205v69l309 426l-296 423v70h531v-74h-424l294 -418l-310 -422h451v-74h-555z" />
    <glyph glyph-name="minus" unicode="&#x2212;" horiz-adv-x="673" 
d="M82 213v71h509v-71h-509z" />
    <glyph glyph-name="radical" unicode="&#x221a;" horiz-adv-x="610" 
d="M349 -205h-93l-148 364l-55 -23l-24 53l131 55l137 -346l223 885h88z" />
    <glyph glyph-name="infinity" unicode="&#x221e;" horiz-adv-x="784" 
d="M574 96q-23 0 -44 6.5t-42.5 20t-45 33.5t-50.5 48q-47 -48 -91.5 -78t-96.5 -30q-33 0 -61.5 11.5t-48.5 32.5t-31.5 49.5t-11.5 62.5q0 31 12 59.5t33 50t50.5 34t64.5 12.5q47 0 87.5 -26.5t93.5 -82.5q46 46 91.5 77.5t98.5 31.5q33 0 61 -12t48.5 -33t31.5 -49.5
t11 -61.5q0 -32 -11.5 -60.5t-32.5 -49.5t-50.5 -33.5t-65.5 -12.5zM572 161q19 0 35.5 7t28.5 19t18.5 28.5t6.5 35.5q0 41 -23.5 65.5t-60.5 24.5t-71 -26t-69 -63q44 -46 74 -68.5t61 -22.5zM209 161q34 0 67 24.5t71 65.5q-24 24 -42 41.5t-33.5 28t-30 15.5t-29.5 5
q-38 0 -62.5 -26t-24.5 -64q0 -40 23.5 -65t60.5 -25z" />
    <glyph glyph-name="integral" unicode="&#x222b;" horiz-adv-x="485" 
d="M288 18q0 -114 -37.5 -166.5t-112.5 -52.5q-15 0 -32 2.5t-25 5.5l9 64q15 -5 32 -5q43 0 59 36t16 120v542q0 115 37.5 167t112.5 52q15 0 32 -2t25 -5l-9 -64q-15 5 -32 5q-43 0 -59 -36t-16 -120v-543z" />
    <glyph glyph-name="approxequal" unicode="&#x2248;" horiz-adv-x="673" 
d="M601 416q-3 -28 -11.5 -54.5t-24 -47.5t-38.5 -34t-54 -13q-32 0 -68.5 10.5t-72.5 24.5q-38 15 -72.5 26t-60.5 11q-33 0 -52 -23t-24 -53h-52q3 27 12 53.5t24 47.5t38 34t55 13t68 -10.5t72 -24.5q37 -14 71.5 -24.5t61.5 -10.5q35 0 53 21.5t24 53.5h51zM601 234
q-3 -27 -11.5 -53.5t-24 -47.5t-38.5 -34t-54 -13q-32 0 -68.5 10.5t-72.5 24.5q-38 14 -72.5 25.5t-60.5 11.5q-33 0 -52 -23t-24 -53h-52q3 27 12 53.5t24 47.5t38 34t55 13t68 -10.5t72 -24.5q37 -14 71.5 -24.5t61.5 -10.5q35 0 53 21.5t24 52.5h51z" />
    <glyph glyph-name="notequal" unicode="&#x2260;" horiz-adv-x="673" 
d="M303 113l-77 -145l-62 32l58 113h-140v73h178l65 124h-243v73h282l78 147l63 -32l-61 -115h147v-73h-184l-66 -124h250v-73h-288z" />
    <glyph glyph-name="lessequal" unicode="&#x2264;" horiz-adv-x="673" 
d="M82 296v76l509 184v-77l-406 -144l406 -147v-78zM82 0v73h509v-73h-509z" />
    <glyph glyph-name="greaterequal" unicode="&#x2265;" horiz-adv-x="673" 
d="M82 110v78l406 147l-406 144v77l509 -184v-76zM82 0v73h509v-73h-509z" />
    <glyph glyph-name="lozenge" unicode="&#x25ca;" horiz-adv-x="563" 
d="M323 -30h-84l-199 392l200 391h84l199 -391zM281 669l-148 -307l149 -308l149 308z" />
    <glyph glyph-name="BASE" unicode="&#x25cc;" horiz-adv-x="911" 
d="M484 671q0 -12 -8 -20t-20 -8q-11 0 -19.5 8t-8.5 20q0 11 8.5 19.5t19.5 8.5q12 0 20 -8.5t8 -19.5zM611 644q0 -11 -8 -19.5t-20 -8.5q-11 0 -19.5 8.5t-8.5 19.5q0 12 8.5 20t19.5 8q12 0 20 -8t8 -20zM716 573q0 -11 -8 -19.5t-20 -8.5t-20 8.5t-8 19.5q0 12 8 20.5
t20 8.5t20 -8.5t8 -20.5zM786 467q0 -11 -8 -19.5t-20 -8.5q-11 0 -19.5 8.5t-8.5 19.5q0 12 8.5 20t19.5 8q12 0 20 -8t8 -20zM811 344q0 -12 -8 -20t-20 -8q-11 0 -19.5 8t-8.5 20q0 11 8.5 19.5t19.5 8.5q12 0 20 -8.5t8 -19.5zM786 217q0 -12 -8 -20t-20 -8
q-11 0 -19.5 8t-8.5 20q0 11 8.5 19.5t19.5 8.5q12 0 20 -8.5t8 -19.5zM716 112q0 -11 -8 -19.5t-20 -8.5t-20 8.5t-8 19.5t8 19.5t20 8.5t20 -8.5t8 -19.5zM608 40q0 -11 -8 -19.5t-20 -8.5q-11 0 -19.5 8.5t-8.5 19.5q0 12 8.5 20t19.5 8q12 0 20 -8t8 -20zM484 17
q0 -12 -8 -20.5t-20 -8.5q-11 0 -19.5 8.5t-8.5 20.5q0 11 8.5 19.5t19.5 8.5q12 0 20 -8.5t8 -19.5zM358 42q0 -12 -8.5 -20t-19.5 -8q-12 0 -20 8t-8 20q0 11 8 19.5t20 8.5q11 0 19.5 -8.5t8.5 -19.5zM253 112q0 -11 -8 -19.5t-20 -8.5t-20 8.5t-8 19.5t8 19.5t20 8.5
t20 -8.5t8 -19.5zM181 220q0 -12 -8.5 -20t-19.5 -8q-12 0 -20 8t-8 20q0 11 8 19.5t20 8.5q11 0 19.5 -8.5t8.5 -19.5zM156 344q0 -12 -8 -20t-20 -8t-20 8t-8 20q0 11 8 19.5t20 8.5t20 -8.5t8 -19.5zM182 471q0 -12 -8 -20t-20 -8q-11 0 -19.5 8t-8.5 20q0 11 8.5 19.5
t19.5 8.5q12 0 20 -8.5t8 -19.5zM253 573q0 -11 -8 -19.5t-20 -8.5t-20 8.5t-8 19.5q0 12 8 20.5t20 8.5t20 -8.5t8 -20.5zM361 646q0 -12 -8.5 -20t-19.5 -8q-12 0 -20 8t-8 20q0 11 8 19.5t20 8.5q11 0 19.5 -8.5t8.5 -19.5z" />
    <glyph glyph-name="aAsterisk" unicode="&#x274a;" horiz-adv-x="371" 
d="M288 507l-48 -34l-50 81l-50 -81l-48 34l61 70l-91 24l16 55l91 -36l-9 96h58l-7 -96l90 39l16 -57l-92 -24z" />
    <glyph glyph-name="fi" unicode="&#xfb01;" horiz-adv-x="584" 
d="M326 662q-10 1 -19.5 1.5t-19.5 0.5q-37 0 -59.5 -13t-22.5 -54v-92h113v-61h-113v-444h-88v444h-101v61h101v48q0 38 4 70.5t18 56t41 36.5t73 13q35 0 73 -3v-64zM414 634v89h98v-89h-98zM419 0v505h88v-505h-88z" />
    <glyph glyph-name="fl" unicode="&#xfb02;" horiz-adv-x="589" 
d="M326 662q-10 1 -19.5 1.5t-19.5 0.5q-37 0 -59.5 -13t-22.5 -54v-92h113v-61h-113v-444h-88v444h-101v61h101v48q0 38 4 70.5t18 56t41 36.5t73 13q35 0 73 -3v-64zM419 0v723h88v-723h-88z" />
    <glyph glyph-name="aParenleftfancy" unicode="&#xfd3e;" horiz-adv-x="611" 
d="M499 277q0 10 -20 20q-10 5 -20.5 9.5t-23.5 6.5v57l-75 -59h43v-21q21 -3 34 -13q-14 -9 -34 -12v-20h-44l-3 -2l79 -58v57q64 18 64 35zM330 279q0 22 -15 37.5t-37 15.5t-37 -15t-15 -37t15 -37q15 -16 37 -16t37 15.5t15 36.5zM195 243h-47v22q-14 3 -31 12
q12 9 31 12v20h47l-77 62v-58q-65 -21 -65 -35q0 -20 65 -37v-56zM372 121l-61 63v-29h-23v-33l-21 33h-24v32l-52 -74l69 16q4 -18 12 -39.5t18.5 -43.5t23 -43t27.5 -36v47q-17 37 -24 63t-12 53l64 -12zM217 327q13 0 13 11q0 7 -9 18l-62 86q-6 9 -6 15q0 11 12 11
q4 0 6 -1l73 -13q8 31 27.5 66.5t45 69.5t53.5 65t54 55t47 38t31 14q7 0 8 -5q0 -1 0.5 -2t0.5 -2q0 -6 -6 -13q-68 -73 -113.5 -146.5t-52.5 -140.5l50 7q2 0 6 0.5t5 0.5q11 0 11 -10q0 -4 -6 -13l-68 -77q-12 -14 -12 -21q0 -9 11 -9q6 0 16 5l80 60q13 10 19 10
q7 0 9 -14v-61q8 -3 19 -8t21.5 -12t17.5 -16t7 -18q0 -26 -65 -55v-57q0 -21 -9 -21q-6 0 -15 8l-84 64q-8 6 -17 6q-11 0 -11 -10q0 -7 12 -20l68 -77q6 -9 6 -13q0 -10 -11 -10q-1 0 -5 0.5t-6 0.5l-50 7q7 -67 52.5 -140t113.5 -147q6 -6 6 -13q0 -1 -0.5 -2t-0.5 -2
q-1 -5 -8 -5q-10 0 -31 14t-47 38t-54 55t-53.5 65t-45 69t-27.5 67l-73 -13q-2 -1 -6 -1q-12 0 -12 11q0 6 6 15l62 86q9 12 9 17q0 13 -11 13q-8 0 -22 -13l-72 -62q-13 -10 -19 -10q-14 0 -14 25v56q-64 24 -64 53q0 24 64 55v62q0 20 14 20q5 0 16 -9l80 -69q9 -8 16 -8
zM370 435l-64 -12q5 27 12 53t24 63v47q-15 -15 -27.5 -36t-23 -43t-18.5 -43.5t-12 -39.5l-69 16l52 -74v32h24l21 33v-33h23v-29l61 63z" />
    <glyph glyph-name="aParenrightfancy" unicode="&#xfd3f;" horiz-adv-x="611" 
d="M110 277q0 -17 64 -35v-57l79 58l-3 2h-44v20q-20 3 -34 12q13 10 34 13v21h43l-75 59v-57q-13 -2 -23.5 -6.5t-21.5 -9.5q-19 -10 -19 -20zM279 279q0 -21 15 -36.5t37 -15.5q21 0 37 16q15 15 15 37t-15 37t-37 15t-37 -15.5t-15 -37.5zM491 185v56q65 17 65 37
q0 14 -65 35v58l-77 -62h47v-20q19 -3 31 -12q-17 -9 -31 -12v-22h-47zM240 118l64 12q-5 -27 -12 -53t-24 -63v-47q15 15 27.5 36t23 43t18 43.5t12.5 39.5l69 -16l-52 74v-32h-24l-21 -33v33h-23v29l-61 -63zM392 327q5 0 16 8l80 69q10 9 16 9q14 0 14 -20v-62
q64 -31 64 -55q0 -29 -64 -53v-56q0 -25 -14 -25q-6 0 -19 10l-72 62q-14 13 -22 13q-11 0 -11 -13q0 -5 9 -17l62 -86q6 -9 6 -15q0 -11 -12 -11q-4 0 -6 1l-73 13q-8 -31 -27.5 -66.5t-45 -69.5t-54 -65t-54.5 -55t-46.5 -38t-30.5 -14q-7 0 -8 5q0 1 -0.5 2t-0.5 2
q0 7 6 13q68 74 113.5 147t52.5 140l-50 -7q-2 0 -3.5 -0.5t-3.5 -0.5h-4q-11 0 -11 10q0 4 6 13l68 77q12 13 12 20q0 10 -11 10q-10 0 -17 -6l-84 -64q-9 -8 -15 -8q-9 0 -9 21v57q-65 28 -65 55q0 9 7 18t17 16t21.5 12t19.5 8v61q2 14 9 14q5 0 19 -10l80 -60
q10 -5 16 -5q11 0 11 9q0 7 -12 21l-68 77q-6 9 -6 13q0 10 11 10q2 -1 4 -1h7l50 -7q-7 67 -52.5 140.5t-113.5 146.5q-6 7 -6 13q0 1 0.5 2t0.5 2q1 5 8 5q10 0 30.5 -14t46.5 -38t54.5 -55t54 -65t45 -69.5t27.5 -66.5l73 13q2 1 6 1q12 0 12 -11q0 -6 -6 -15l-62 -86
q-9 -11 -9 -18q0 -11 13 -11zM236 432l61 -63v29h23v33l21 -33h24v-32l52 74l-69 -16q-5 18 -12.5 39.5t-18 43.5t-23 43t-27.5 36v-47q17 -37 24 -63t12 -53l-64 12z" />
    <glyph glyph-name="aKashida.Narrow" horiz-adv-x="115" 
d="M0 0q-20 0 -30 7t-10 28q0 25 9.5 30t30.5 5h116q20 0 30 -5.5t10 -26.5q0 -25 -9.5 -31.5t-30.5 -6.5h-116z" />
    <glyph glyph-name="aKashida.Long" horiz-adv-x="196" 
d="M0 0q-20 0 -30 7t-10 28q0 25 9.5 30t30.5 5h195q20 0 30 -5.5t10 -26.5q0 -25 -9.5 -31.5t-30.5 -6.5h-195z" />
    <glyph glyph-name="aShadda_aFathatan" horiz-adv-x="123" 
d="M5 724q-14 -20 -33 -25t-28 -5q-34 0 -55 19.5t-21 61.5v57h46v-51q0 -42 34 -42q11 0 22 7.5t11 33.5v40h46v-39q0 -26 11 -33t24 -7q30 0 30 37v54h46v-57q0 -42 -20 -61.5t-53 -19.5q-11 0 -29.5 5.5t-30.5 24.5zM142 1012l-285 -35v45l285 35v-45zM142 919l-285 -35
v45l285 35v-45z" />
    <glyph glyph-name="aHamzaabove_aFathatan" horiz-adv-x="352" 
d="M100 751h-204v45h46q-8 25 -10.5 38.5t-2.5 25.5q0 39 28.5 65t82.5 26q8 0 22 -0.5t22 -1.5v-44q-5 1 -15 1.5t-14 0.5q-37 0 -56 -12t-19 -44q0 -8 2.5 -21.5t10.5 -33.5h107v-45zM140 1122l-285 -35v45l285 35v-45zM140 1029l-285 -35v45l285 35v-45z" />
    <glyph glyph-name="aHamzaabove_aFatha" horiz-adv-x="352" 
d="M100 751h-204v45h46q-8 25 -10.5 38.5t-2.5 25.5q0 39 28.5 65t82.5 26q8 0 22 -0.5t22 -1.5v-44q-5 1 -15 1.5t-14 0.5q-37 0 -56 -12t-19 -44q0 -8 2.5 -21.5t10.5 -33.5h107v-45zM142 1029l-285 -35v45l285 35v-45z" />
    <glyph glyph-name="aHamzaabove_aDammatan" horiz-adv-x="352" 
d="M100 751h-204v45h46q-8 25 -10.5 38.5t-2.5 25.5q0 39 28.5 65t82.5 26q8 0 22 -0.5t22 -1.5v-44q-5 1 -15 1.5t-14 0.5q-37 0 -56 -12t-19 -44q0 -8 2.5 -21.5t10.5 -33.5h107v-45zM10 1056q12 0 19.5 1.5t15.5 4.5q-6 3 -15 8.5t-17.5 13.5t-14.5 20t-6 29q0 39 25 57
t56 18q16 0 34.5 -5t34.5 -14q0 -94 -36 -136t-102 -42q-31 0 -58 12.5t-45 44.5l-74 -13v45l94 15q17 -37 39.5 -48t49.5 -11zM35 1135q0 -18 12 -30.5t30 -20.5q10 11 16.5 34.5t8.5 46.5q-9 4 -17 5t-14 1q-13 0 -24.5 -8t-11.5 -28z" />
    <glyph glyph-name="aHamzaabove_aDamma" horiz-adv-x="352" 
d="M100 751h-204v45h46q-8 25 -10.5 38.5t-2.5 25.5q0 39 28.5 65t82.5 26q8 0 22 -0.5t22 -1.5v-44q-5 1 -15 1.5t-14 0.5q-37 0 -56 -12t-19 -44q0 -8 2.5 -21.5t10.5 -33.5h107v-45zM-4 1134q0 -20 13 -32t34 -22q13 11 16.5 34.5t3.5 49.5q-8 3 -16.5 4.5t-14.5 1.5
q-13 0 -24.5 -8t-11.5 -28zM-111 1003v45l90 11q11 2 16 2.5t10 2.5q-16 7 -34 24.5t-18 44.5q0 39 24.5 57t56.5 18q16 0 33.5 -4t35.5 -15q0 -51 -6.5 -83.5t-21 -51.5t-37.5 -27.5t-56 -12.5z" />
    <glyph glyph-name="aHamzaabove_aSukun" horiz-adv-x="352" 
d="M100 751h-204v45h46q-8 25 -10.5 38.5t-2.5 25.5q0 39 28.5 65t82.5 26q8 0 22 -0.5t22 -1.5v-44q-5 1 -15 1.5t-14 0.5q-37 0 -56 -12t-19 -44q0 -8 2.5 -21.5t10.5 -33.5h107v-45zM-80 1091q0 33 23 56.5t56 23.5t56.5 -23.5t23.5 -56.5t-23.5 -56t-56.5 -23t-56 23
t-23 56zM-44 1092q0 -18 13 -31t31 -13t31 13t13 31t-13 31t-31 13t-31 -13t-13 -31z" />
    <glyph glyph-name="aHamzabelow_aKasra" horiz-adv-x="352" 
d="M100 -271h-204v45h46q-8 25 -10.5 38.5t-2.5 25.5q0 39 28.5 65t82.5 26q8 0 22 -0.5t22 -1.5v-44q-5 1 -15 1.5t-14 0.5q-37 0 -56 -12t-19 -44q0 -8 2.5 -21t10.5 -34h107v-45zM142 -369l-285 -35v45l285 35v-45z" />
    <glyph glyph-name="aHamzabelow_aKasratan" horiz-adv-x="352" 
d="M100 -271h-204v45h46q-8 25 -10.5 38.5t-2.5 25.5q0 39 28.5 65t82.5 26q8 0 22 -0.5t22 -1.5v-44q-5 1 -15 1.5t-14 0.5q-37 0 -56 -12t-19 -44q0 -8 2.5 -21t10.5 -34h107v-45zM143 -369l-285 -35v45l285 35v-45zM143 -462l-285 -35v45l285 35v-45z" />
    <glyph glyph-name="aLam.init_aLam.medi_aHeh.fina" horiz-adv-x="1125" 
d="M507 0q-42 0 -72.5 12.5t-47.5 41.5h-93q-119 0 -176.5 45.5t-57.5 133.5q0 104 65 152t180 48q13 0 33 -1t41 -2.5t40.5 -3.5t33.5 -4v-272q0 -34 13.5 -57t57.5 -23h81q41 0 53 18.5t12 60.5v574h84v-619q0 -9 7 -15.5t17.5 -10.5t22.5 -6t21 -2h135v653h83v-723h-210
q-29 0 -51.5 9.5t-38.5 33.5q-12 -16 -38 -29.5t-78 -13.5h-117zM147 241q0 -64 42 -92t120 -28h59v241q-24 3 -43.5 4t-24.5 1q-70 0 -111.5 -29t-41.5 -97z" />
    <glyph glyph-name="aAllahlongFarsi" horiz-adv-x="1057" 
d="M441 437q19 7 31 11.5t18 9.5t8 11t2 16q0 12 -5.5 29t-13.5 36.5t-18.5 39.5t-20.5 38l9 35q2 8 6 8t11 -14l62 -131q9 -20 17 -32.5t19.5 -19.5t29.5 -9.5t49 -2.5q49 0 69.5 8t26.5 16q3 3 3 8t-1 6t-1 5q0 5 4 5q5 0 10 -8t12 -17t17.5 -17t27.5 -8q27 33 54.5 51.5
t53.5 18.5q21 0 35.5 -10t28.5 -42q4 -8 7.5 -12.5t6.5 -6.5l-10 -33q-2 -8 -9.5 -10t-16.5 -2l-121 -5h-21t-17 2q-14 -21 -20.5 -29.5t-10.5 -8.5q-3 0 -3 4t3.5 12.5t11.5 25.5q-9 7 -20.5 21t-16.5 33q-4 -14 -9.5 -24t-18.5 -16.5t-35.5 -10t-59.5 -3.5
q-50 0 -72.5 11.5t-33.5 47.5q-3 -12 -11 -23t-15 -16q12 -2 28 -8t16 -13l-10 -36q-34 -27 -70.5 -43t-69.5 -16q-48 0 -72.5 28.5t-24.5 99.5q-22 5 -45 44q-13 -50 -45 -50q-22 0 -35 10.5t-24 33.5q-18 -13 -33.5 -18t-26.5 -5q-15 0 -23 6t-8 12q0 16 6.5 29t14.5 18
q22 14 27 18t5 9q0 3 -2.5 8t-10.5 13l6 29q2 11 6 11q7 0 18 -18t35 -72q8 -18 22 -25.5t27 -7.5q11 0 18 4t7 12q0 5 -4.5 16t-11 23.5t-14.5 26t-15 23.5l8 25q4 11 9 11q2 0 7 -8t12 -20t14 -26l13 -26q18 -36 32 -47.5t28 -11.5l19 3q-29 35 -45.5 56.5t-25 34.5
t-10.5 20.5t-2 13.5q0 11 5.5 25.5t11.5 14.5q4 0 10 -12q2 -8 12.5 -20t21.5 -20q12 -11 12 -13q0 -7 -20 -7q13 -18 23 -32.5t16.5 -28t10 -27t3.5 -30.5q0 -14 -10 -21t-23 -7q-6 0 -14 2q1 -19 11 -33.5t24 -24.5t31 -15t33 -5q46 0 97 23v4q-35 3 -51 7t-20 7zM174 89
q5 15 7 15t6.5 -6t11.5 -23l45 -99q7 -16 18 -27.5t29 -18.5t44.5 -10.5t64.5 -3.5q94 0 153.5 7.5t93 16t46.5 16t15 7.5q3 0 8.5 -4.5t12.5 -10t15 -10t17 -4.5l13 2q0 24 2.5 34.5t6.5 10.5t4 -7q0 -14 12.5 -28t34.5 -14l-18 26q2 13 5.5 22t7.5 9t9.5 -5.5t10 -14
t7.5 -18t3 -16.5q0 -26 -11 -38t-25 -12q-19 0 -32 15q-13 -16 -30 -16q-15 0 -29.5 9.5t-23.5 22.5q-17 -10 -50.5 -19t-75.5 -16t-89.5 -11t-93.5 -4q-42 0 -71 3.5t-49 11.5t-32 21t-20 32q-4 -14 -13 -25.5t-22 -11.5q-8 -25 -17.5 -36.5t-23.5 -11.5q-11 0 -21 9
t-14 34q-6 -12 -18.5 -21.5t-26 -16.5t-25 -10.5t-15.5 -3.5q-5 0 -5 2q0 4 12 9q6 2 18 12.5t24.5 25.5t22.5 32t11 33q5 3 9.5 12.5t4.5 18.5t6 11q4 0 11.5 -7t20.5 -26q8 -12 14.5 -16t14.5 -4q19 0 19 16q0 7 -4.5 20.5t-11 29t-14.5 31t-15 26.5zM739 390q4 11 6 11
t5 -3.5t5 -7.5l65 -150q8 -18 21 -32t28 -14q0 12 3.5 25.5t10.5 25t16.5 19.5t21.5 8q10 0 19.5 -6.5t16.5 -15.5t11.5 -17t4.5 -11q0 -5 -3 -5t-7 3l-10 7q-13 11 -33 11q-11 0 -19 -4.5t-8 -13.5q0 -6 4 -11t9 -8.5t10 -6t7 -2.5l53 3q13 0 13 -8q0 -9 -11 -31
q-6 -1 -22 -3t-33.5 -3.5t-33 -3t-21.5 -1.5q-19 0 -34 8.5t-29 40.5q-8 -29 -19 -39.5t-21 -10.5q-17 0 -29 9.5t-14 20.5q-4 -18 -18 -26t-36 -8t-44 11t-30 31q-22 -14 -42.5 -20t-37.5 -6q-16 0 -25.5 6t-9.5 16q0 2 1.5 8t3.5 12.5t5 12t6 7.5l57 42l-15 25l6 28
q1 4 2.5 7.5t5.5 3.5q6 0 10 -10l48 -91q9 -17 31.5 -26t43.5 -9q26 0 35 12l5 28q1 10 5 10q5 0 5 -9q0 -12 12 -25t26 -13q9 0 17 9q0 13 -2 26.5t-8 31.5t-17.5 42t-29.5 59zM96 236q3 3 5 9.5t3 11.5q2 13 5 13q5 0 10 -12l33 -67q7 -14 16 -23t27 -9q13 0 13 4
q0 6 -10.5 24.5t-22.5 39.5t-22.5 40.5t-10.5 27.5q0 4 1.5 10.5t4 12.5t5 10.5t4.5 4.5q5 0 8 -7q2 -6 12 -19.5t21 -24.5q7 -6 9 -9t2 -4q0 -7 -18 -7q12 -23 19.5 -37t11.5 -24.5t5.5 -18t1.5 -16.5q0 -55 -37 -55q-22 0 -34.5 10t-19.5 33q-27 -17 -49 -17
q-17 0 -23.5 3.5t-6.5 9.5q0 7 1.5 17t4.5 14q4 6 16 17t26 19zM401 417l-2 12q-1 6 -3.5 13.5t-6.5 18t-11 25.5t-17 37q-24 51 -35.5 77t-11.5 36q0 19 6 34t9 15q4 0 7 -8q1 -2 5.5 -8t10.5 -13.5t13 -14.5t13 -11q12 -9 12 -12t-9 -3q-4 0 -10 0.5t-14 1.5
q15 -33 25 -57t16 -42.5t8.5 -34t2.5 -30.5q0 -8 -0.5 -16t-4.5 -18zM251 270q25 -50 34.5 -76.5t9.5 -45.5q0 -7 -3 -22.5t-5 -23.5q-4 -8 -6 -8t-3 1v8q0 16 -2 29.5t-7 24.5l-47 93q-7 14 -12.5 30.5t-5.5 21.5q0 3 1.5 10t4 13.5t5.5 11.5t6 5q2 0 7 -9q1 -4 6.5 -11.5
t11.5 -15.5t12 -14.5t10 -8.5q8 -5 10.5 -8t2.5 -5q0 -4 -10 -4q-3 0 -9 1t-11 3zM441 181q0 -23 -6 -37.5t-14.5 -23t-17 -11.5t-14.5 -3q-27 0 -49.5 2t-22.5 4q0 3 5 4.5t16 4.5q9 1 23 7.5t28 14.5t24 17t10 15q0 3 -3 6.5t-7 5.5q-6 -3 -16 -3q-11 0 -20 4.5t-9 15.5
q0 3 1.5 12t5.5 18.5t9.5 16.5t13.5 7q12 0 27.5 -19.5t15.5 -57.5zM984 -83q0 -23 -6 -37.5t-14.5 -23t-17 -11.5t-13.5 -3q-10 0 -22.5 1t-23.5 2.5t-18.5 3t-8.5 2.5q-5 2 -5 3q0 3 5 3q18 2 37 8t34.5 13.5t25 16t9.5 16.5q0 3 -3.5 7t-6.5 5q-8 -2 -16 -2q-10 0 -19 4
t-9 15q0 18 8 35.5t21 17.5q12 0 27.5 -18.5t15.5 -57.5zM938 666q-20 -12 -47 -25.5t-55.5 -27t-55.5 -25t-48 -20.5q7 -6 7 -15q0 -8 -4 -16t-9 -15t-10.5 -12t-8.5 -6l-6 2q0 3 2 6.5t4 7.5l4 9q2 6 2 9q0 6 -3.5 8.5t-8 3t-8 0.5t-3.5 2q0 3 3.5 8.5t17.5 16.5l19 15
l225 99zM377 5l154 61q23 10 42 20t32 17q3 2 6 2t3 -2q0 -1 -2 -4t-12 -16q-12 -10 -40.5 -25t-60.5 -29l-104 -43q4 -5 4 -14q0 -7 -4 -13.5t-9 -12t-10.5 -8.5t-9.5 -3q9 12 9 24q0 15 -13 17q-5 0 -5 4q0 2 2 4zM574 636q20 7 46 17.5t53.5 22.5t54 24.5t47.5 23.5
q-9 -26 -42 -41l-181 -83zM683 104l41 -21l14 28l40 -24l-22 -38l-35 19l-17 -26l-40 19zM172 392q10 0 23 5.5t26 11.5t23 11.5t13 5.5q8 0 14.5 -5t6.5 -11q0 -5 -2.5 -9.5t-4.5 -7.5q-6 7 -16 7q-6 0 -14.5 -5.5t-18.5 -11.5t-21 -11.5t-21 -5.5q0 -17 -1.5 -24t-4.5 -8
q-2 14 -13 27t-24 18q-3 10 -3 16q0 9 5 9q4 0 13.5 -6t19.5 -6zM910 494q-20 0 -41.5 -13t-29.5 -25h34q27 0 53.5 1t43.5 4q-2 4 -8.5 9.5t-15.5 11t-19 9t-17 3.5zM971 92q6 3 13.5 7t10.5 6q-1 -9 -7 -19.5t-14 -13.5l-135 -64l9 27zM615 -143q7 0 10.5 -5.5t9.5 -5.5
q11 0 15.5 8.5t6.5 8.5q4 0 4 -6.5t8 -6.5l4 1q0 11 7 14q3 -3 3 -10q0 -11 -5.5 -16.5t-12.5 -5.5q-8 0 -12 6q-6 -11 -23 -11q-9 0 -10.5 5.5t-9.5 5.5q-4 0 -10.5 -5t-17.5 -11q-10 -7 -24.5 -12t-34.5 -5q-30 0 -30 5q0 3 9 3q20 0 38.5 6.5t33.5 15t25.5 15t15.5 6.5z
M990 379l-12 -22q-2 -5 -15 -11l-134 -61l11 25zM169 675q7 0 7 7q0 4 -2.5 8.5t-2.5 7.5q0 9 5 9q4 0 6 -6q4 -15 9 -18.5t13 -3.5q-2 2 -4.5 9t-2.5 9q0 9 8 15q13 -18 13 -33q0 -11 -4.5 -15.5t-10.5 -4.5q-4 0 -8 1.5t-7 3.5q-5 -9 -17 -9q-9 0 -17 6.5t-8 21.5
q0 16 9 16q0 -24 14 -24zM393 285q-8 -6 -17 -12.5t-35 -20.5l-52 -28l10 25q8 3 23 11t32 17t32 18.5t23 15.5zM562 247q-6 -12 -21 -24.5t-33 -21.5q19 -3 37 -3q20 0 41 3zM115 539q-6 -10 -17 -20t-19 -15q4 -4 20 -4q19 0 34 3zM116 204l-35 -30q15 -3 26 -3
q6 0 12.5 1.5t11.5 2.5zM134 -59q0 -14 5.5 -30.5t19.5 -16.5q7 0 14 4z" />
    <glyph glyph-name="aZero.pnum" horiz-adv-x="297" 
d="M150 107l-89 89l89 86l88 -87z" />
    <glyph glyph-name="aOne.pnum" horiz-adv-x="263" 
d="M91 606h83v-606h-83v606z" />
    <glyph glyph-name="aTwo.pnum" horiz-adv-x="461" 
d="M173 0h-83v606h85v-131q23 -6 49 -9t53 -3q39 0 60.5 13t21.5 52v78h82v-69q0 -46 -14.5 -74t-38 -43t-53 -19.5t-59.5 -4.5q-28 0 -56.5 3.5t-46.5 7.5v-407z" />
    <glyph glyph-name="aThree.pnum" horiz-adv-x="522" 
d="M168 0h-83v606h85v-134q11 -4 22 -6.5t25 -2.5q27 0 35 15t8 50v78h82v-60q0 -24 -1.5 -42t-6.5 -32q11 -4 23 -6.5t23 -2.5q22 0 31 13t9 52v78h82v-84q0 -36 -8 -59.5t-21.5 -37t-32.5 -18.5t-41 -5q-25 0 -49 5.5t-44 13.5q-16 -12 -35 -17t-39 -5t-34.5 3t-29.5 8
v-410z" />
    <glyph glyph-name="aFour.pnum" horiz-adv-x="406" 
d="M321 283q-53 -5 -88 -19.5t-56 -33.5t-29.5 -40t-8.5 -40q0 -23 9 -38.5t24.5 -24.5t36.5 -13t45 -4h113v-70h-139q-38 0 -70.5 8t-56 25t-37 42.5t-13.5 61.5q0 34 12 61.5t30.5 48.5t41 36.5t44.5 26.5q-40 16 -70 50t-30 87q0 40 15 70t42 50t63 29.5t78 9.5h59v-67
h-53q-21 0 -42 -4.5t-37.5 -15t-26.5 -28t-10 -44.5q0 -30 11.5 -49t28.5 -29.5t37 -14t38 -3.5h39v-68v0z" />
    <glyph glyph-name="aFive.pnum" horiz-adv-x="529" 
d="M263 0q-42 0 -79 4t-64.5 25t-43.5 64.5t-16 121.5q0 94 18 167.5t46.5 123t65 75.5t74.5 26q37 0 74 -24.5t66 -73.5t47 -122.5t18 -171.5q0 -78 -15.5 -121.5t-43 -64.5t-65 -25t-82.5 -4zM264 70q30 0 52.5 3t37.5 17.5t22 44t7 82.5q0 70 -10 129t-26.5 101.5t-38 66
t-44.5 23.5q-26 0 -47.5 -25t-37.5 -68.5t-25 -101t-9 -123.5q0 -54 7 -84t22 -44.5t37.5 -17.5t52.5 -3z" />
    <glyph glyph-name="aSix.pnum" horiz-adv-x="437" 
d="M348 0h-83v538h-254v68h337v-606z" />
    <glyph glyph-name="aSeven.pnum" horiz-adv-x="500" 
d="M250 128l156 478h89l-204 -606h-81l-205 606h88z" />
    <glyph glyph-name="aEight.pnum" horiz-adv-x="500" 
d="M250 478l-156 -478h-89l204 606h81l205 -606h-88z" />
    <glyph glyph-name="aNine.pnum" horiz-adv-x="483" 
d="M394 606v-606h-82v255h-63q-36 0 -73 5.5t-67 24t-49 53t-19 92.5q0 49 17 83t45 54.5t63.5 29.5t71.5 9h156zM128 429q0 -35 11 -56.5t29.5 -32.5t42 -14.5t48.5 -3.5h53v216h-56q-26 0 -49.5 -4.5t-41 -17t-27.5 -33.5t-10 -54z" />
    <glyph glyph-name="aZeroFarsi.pnum" horiz-adv-x="297" 
d="M150 107l-89 89l89 86l88 -87z" />
    <glyph glyph-name="aOneFarsi.pnum" horiz-adv-x="263" 
d="M91 606h83v-606h-83v606z" />
    <glyph glyph-name="aTwoFarsi.pnum" horiz-adv-x="461" 
d="M173 0h-83v606h85v-131q23 -6 49 -9t53 -3q39 0 60.5 13t21.5 52v78h82v-69q0 -46 -14.5 -74t-38 -43t-53 -19.5t-59.5 -4.5q-28 0 -56.5 3.5t-46.5 7.5v-407z" />
    <glyph glyph-name="aThreeFarsi.pnum" horiz-adv-x="522" 
d="M168 0h-83v606h85v-134q11 -4 22 -6.5t25 -2.5q27 0 35 15t8 50v78h82v-60q0 -24 -1.5 -42t-6.5 -32q11 -4 23 -6.5t23 -2.5q22 0 31 13t9 52v78h82v-84q0 -36 -8 -59.5t-21.5 -37t-32.5 -18.5t-41 -5q-25 0 -49 5.5t-44 13.5q-16 -12 -35 -17t-39 -5t-34.5 3t-29.5 8
v-410z" />
    <glyph glyph-name="aFourFarsi.pnum" horiz-adv-x="518" 
d="M168 0h-83v606h85v-131q36 -8 78 -11q-6 19 -8.5 40.5t-2.5 33.5q0 57 29 82.5t82 25.5h15v-61q-35 -1 -48.5 -17t-13.5 -47q0 -11 2.5 -25.5t10.5 -32.5q22 0 40.5 3t32 10t21.5 19.5t8 32.5v79h82v-70q0 -46 -19 -74t-48.5 -43t-66 -19.5t-71.5 -4.5q-14 0 -32 1
t-35.5 2.5t-33 3.5t-24.5 4v-407z" />
    <glyph glyph-name="aFiveFarsi.pnum" horiz-adv-x="505" 
d="M373 209q0 70 -9.5 130t-26 104t-38.5 69t-47 25q-26 0 -47 -26.5t-37 -71t-24.5 -103.5t-8.5 -125q0 -48 4.5 -74.5t12 -39t18 -14.5t22.5 -2q11 0 19.5 4t15.5 9t12.5 9t9.5 4t9 -4t11 -9t15 -9t21 -4t24.5 3.5t22 17t15.5 38.5t6 69zM459 207q0 -62 -10 -102.5
t-27.5 -63.5t-40.5 -32t-50 -9q-25 0 -45.5 11.5t-34.5 25.5q-20 -22 -38.5 -29t-34.5 -7q-30 0 -54 7t-40.5 28.5t-25 62t-8.5 108.5q0 94 18.5 168.5t47.5 126t65 78.5t71 27q37 0 74 -26t66.5 -76.5t48 -125t18.5 -172.5z" />
    <glyph glyph-name="aSixFarsi.pnum" horiz-adv-x="392" 
d="M332 276l-199 -276h-97l209 275q-86 5 -134 47t-48 112q0 43 16 75.5t42 54t59.5 32t69.5 10.5h82v-67h-67q-23 0 -43.5 -5t-36.5 -16.5t-25.5 -29.5t-9.5 -44q0 -30 10 -49t27 -30t38.5 -15t44.5 -4h63z" />
    <glyph glyph-name="aSevenFarsi.pnum" horiz-adv-x="500" 
d="M250 128l156 478h89l-204 -606h-81l-205 606h88z" />
    </font>
</defs>
</svg>
