<svg width="23" height="23" viewBox="0 0 23 23" fill="none" xmlns="http://www.w3.org/2000/svg">
<g clip-path="url(#clip0_1_4380)">
<path d="M21.3579 0H2.44699C1.5411 0 0.808594 0.715173 0.808594 1.59939V20.5883C0.808594 21.4725 1.5411 22.192 2.44699 22.192H21.3579C22.2638 22.192 23.0006 21.4725 23.0006 20.5926V1.59939C23.0006 0.715173 22.2638 0 21.3579 0ZM7.39252 18.9109H4.09839V8.31768H7.39252V18.9109ZM5.74545 6.87433C4.68787 6.87433 3.83399 6.02046 3.83399 4.9672C3.83399 3.91395 4.68787 3.06007 5.74545 3.06007C6.79871 3.06007 7.65258 3.91395 7.65258 4.9672C7.65258 6.01612 6.79871 6.87433 5.74545 6.87433ZM19.7195 18.9109H16.4297V13.7617C16.4297 12.535 16.408 10.953 14.7176 10.953C13.0055 10.953 12.7455 12.2923 12.7455 13.675V18.9109H9.46002V8.31768H12.6154V9.76536H12.6588C13.0966 8.93316 14.1715 8.05328 15.7709 8.05328C19.104 8.05328 19.7195 10.2465 19.7195 13.0985V18.9109Z" fill="black"/>
</g>
<defs>
<clipPath id="clip0_1_4380">
<rect width="22.192" height="22.192" fill="white" transform="translate(0.808594)"/>
</clipPath>
</defs>
</svg>
