<svg width="170" height="57" viewBox="0 0 170 57" fill="none" xmlns="http://www.w3.org/2000/svg">
<path d="M35.1196 42.7594C35.1007 42.7707 35.0856 42.782 35.063 42.7933C31.2002 45.1321 26.7905 46.7617 22.1771 46.8862C21.9621 47.0635 21.434 47.4634 21.434 47.4634C21.434 47.4634 20.9021 47.0635 20.6871 46.8862C16.0774 46.7617 11.6677 45.1321 7.80493 42.7933C7.7823 42.782 7.77098 42.7707 7.74835 42.7594C7.71063 42.7858 3.68945 45.283 3.68945 45.283V50.6622C8.85739 53.7215 14.5459 55.5661 20.6871 55.6943C20.8908 55.8943 21.434 56.313 21.434 56.313C21.434 56.313 21.9809 55.8943 22.1771 55.6943C28.322 55.5661 34.0143 53.7252 39.1785 50.6622V45.283C39.1785 45.283 35.1535 42.7858 35.1196 42.7594Z" fill="#000100"/>
<path d="M35.2776 43.6508C31.4186 45.8688 26.7788 47.5701 22.2898 47.7059C22.1767 47.7927 21.4298 48.3547 21.4298 48.3547C21.4298 48.3547 20.6791 47.7889 20.5697 47.7059C16.0808 47.5701 11.4447 45.8688 7.58571 43.6508L4.47363 45.7783V50.2597C9.42278 53.0662 14.9717 54.6958 20.6904 54.8165H20.7847C20.7847 54.8165 21.2185 55.1749 21.4298 55.3484C21.6372 55.1711 22.0748 54.8127 22.0748 54.8127H22.1691C27.8878 54.6958 33.4367 53.0662 38.3821 50.2597V45.7783L35.2738 43.6508H35.2776Z" fill="url(#paint0_linear_7_1784)"/>
<path d="M15.6889 3.12267C14.6704 3.6885 14.6101 4.37505 14.8402 4.83148C14.9307 4.75981 15.3683 4.75981 15.8587 4.50707C16.0737 4.46558 17.2167 4.66551 17.9711 5.28415C18.0541 5.00123 18.0994 4.69568 18.0994 4.37882C18.0994 3.38295 17.658 2.5078 16.9752 1.9646C16.8998 2.00609 16.8168 2.05136 16.7414 2.09663C15.87 2.60588 15.9756 2.96801 15.6889 3.12644V3.12267Z" fill="white"/>
<path d="M42.106 24.8642C42.0758 24.6152 42.0456 24.3663 42.0154 24.1173C41.7778 22.0426 41.8419 20.0094 41.8872 17.9309C41.9286 15.9995 41.6344 14.2077 40.6725 12.514C39.8238 11.0126 38.3036 9.05107 36.4552 8.80587C34.7614 8.57954 33.6449 10.0771 32.0794 10.4883C30.3517 10.9447 29.3559 10.9032 27.7527 9.71875C27.085 9.07747 24.7651 4.2264 24.1238 3.23054C23.4033 2.10642 22.4602 1.42742 21.1173 1.11809C19.6499 0.778595 17.0245 1.38215 16.4662 2.0951C16.0814 2.58549 15.8702 2.50627 15.8702 2.85332C15.8438 3.43801 17.0358 4.66775 18.0279 5.33166C17.281 5.39202 18.4202 7.10083 18.2467 7.52332C18.0769 7.94581 18.0958 10.1299 15.6061 10.6052C13.6257 11.1107 11.2794 10.6429 10.6947 10.4883C9.12545 10.0771 7.88062 8.65121 6.19066 8.88132C4.34228 9.13029 2.95033 11.0164 2.10158 12.5177C1.13967 14.2115 0.845436 16.0033 0.890703 17.9346C0.935969 20.0169 1.00009 22.0464 0.758673 24.1211C0.728495 24.37 0.698325 24.619 0.671919 24.868C0.649286 24.7888 9.31406 20.2772 9.57434 20.0207C9.96288 19.6359 10.1402 19.3756 10.5853 18.9267L10.6193 30.5603C10.6193 30.5603 11.9961 28.7647 12.362 29.1381C12.5846 29.3607 11.6642 35.449 10.8909 38.3046C11.0757 38.3159 12.1131 37.6973 12.2564 37.769C12.4261 37.8557 12.3507 39.2967 12.4148 39.4287C12.5129 39.2628 12.8788 38.5951 13.1693 38.6743C13.4522 38.7535 13.4824 39.523 13.4786 39.7531C13.7276 39.2099 13.9388 38.4706 14.2104 37.9387C14.4745 37.4219 15.0252 36.4449 15.3911 35.8753C15.6778 35.4302 16.9 34.1363 17.6092 33.91C18.5296 33.6195 20.9099 33.8685 21.3286 35.1058C21.3286 35.1058 21.4832 35.1058 21.487 35.1058C22.1585 33.4196 24.4972 33.3555 25.6855 34.2797C26.2777 34.7361 27.8017 36.7806 28.0658 37.2974C28.3336 37.8142 29.0767 39.2288 29.3295 39.7871C29.3295 39.557 29.303 38.7573 29.5897 38.6818C29.884 38.6064 30.2461 39.2703 30.3479 39.4363C30.4121 39.308 30.3404 37.8633 30.5064 37.7765C30.6497 37.7048 31.6909 38.3235 31.8757 38.3122C31.0798 35.8074 30.5064 30.7828 30.4875 30.432C30.4724 30.1642 30.3668 28.0215 30.5101 27.1803C30.5856 28.6666 30.7554 29.0023 32.1473 30.564C32.1699 30.183 32.2755 19.9905 32.185 18.9305C32.6301 19.3794 32.7433 19.7151 33.196 20.0245C34.6256 21.0052 42.1248 24.7925 42.1022 24.8718L42.106 24.8642Z" fill="#BD8913"/>
<path d="M32.2677 28.2706C32.2866 28.2329 32.313 28.1951 32.3432 28.165C32.5129 28.3234 32.6789 28.4818 32.8411 28.6478C33.5427 29.3683 34.0067 30.2359 34.5839 31.0507C35.1987 31.9146 35.9984 32.5822 36.768 33.299C37.4168 33.8987 40.4836 36.1734 41.9849 37.1051C42.2037 35.9093 41.917 33.5102 41.9321 32.288C41.9472 31.1978 41.9246 30.4472 40.9664 29.7757C39.7254 28.9043 38.2655 28.3347 36.9528 27.5803C35.791 26.9164 34.7197 26.0337 33.5691 25.3434C32.7128 24.8266 32.3809 24.2494 32.2564 23.5629C32.0904 25.1321 32.1508 26.7051 32.2677 28.2744V28.2706Z" fill="url(#paint1_linear_7_1784)"/>
<path d="M10.5476 28.2706C10.5325 28.2329 10.5023 28.1951 10.4721 28.165C10.3062 28.3234 10.1364 28.4818 9.97799 28.6478C9.27636 29.3683 8.81238 30.2359 8.239 31.0507C7.62413 31.9146 6.82441 32.5822 6.05111 33.299C5.40229 33.8987 2.33548 36.1734 0.837913 37.1051C0.615353 35.9093 0.902031 33.5102 0.886943 32.288C0.871854 31.1978 0.898262 30.4472 1.85641 29.7757C3.09746 28.9043 4.55731 28.3347 5.86627 27.5803C7.02812 26.9164 8.09566 26.0337 9.24995 25.3434C10.1062 24.8266 10.4382 24.2494 10.5665 23.5629C10.7287 25.1321 10.6683 26.7051 10.5514 28.2744L10.5476 28.2706Z" fill="url(#paint2_linear_7_1784)"/>
<path d="M25.8694 34.1975C24.998 33.3261 22.8366 33.1073 21.4069 34.884C19.981 33.1073 17.8195 33.3223 16.9444 34.1975C16.7822 35.0726 14.4509 42.7717 14.1416 43.5828C15.3261 43.926 15.2921 43.7412 16.073 43.5224C16.2276 45.7028 17.5555 44.4089 17.8497 44.1146C18.8795 45.9781 19.8452 44.8314 20.3733 43.9902C20.3733 44.6767 20.6675 45.0162 21.4069 45.5481C22.1425 45.0162 22.4443 44.6767 22.4443 43.9902C22.9724 44.8314 23.9343 45.9819 24.9679 44.1146C25.2621 44.4089 26.5899 45.7065 26.7446 43.5224C27.5217 43.7412 27.4915 43.926 28.676 43.5828C28.3629 42.7717 26.0316 35.0726 25.8694 34.1975Z" fill="white"/>
<path d="M32.2676 24.17C33.0711 26.5352 40.5627 29.7868 42.0641 30.7186C42.0641 29.1795 41.9132 28.1836 41.932 26.9614C41.9471 25.8713 41.9245 25.1168 40.9663 24.4454C39.7253 23.574 38.2654 23.0044 36.9527 22.2537C35.7909 21.5898 34.7196 20.7109 33.569 20.013C32.7127 19.4962 32.3808 18.9191 32.2563 18.2288C32.0903 19.798 32.2337 24.1964 32.2676 24.1662V24.17Z" fill="white"/>
<path d="M32.2679 32.4383C32.2679 33.5322 33.0412 34.3961 33.8673 35.0826C33.8937 35.7239 34.2483 37.3384 35.5762 37.859C35.5762 38.7643 36.3381 40.028 37.6924 40.6693C37.6924 41.8236 39.1069 42.8383 39.8614 42.9967C39.337 46.6596 41.54 47.7648 42.0644 48.093C42.0644 46.5539 41.9135 40.2204 41.9323 39.0057C41.9474 37.9156 41.9059 37.1875 40.9666 36.4859C37.1341 33.6454 33.6485 29.6431 32.1774 27.9154C32.0152 29.4846 32.234 32.4685 32.2679 32.4383Z" fill="white"/>
<path d="M10.5474 24.17C9.74017 26.5352 2.24855 29.7868 0.750977 30.7186C0.750977 29.1795 0.898095 28.1836 0.883006 26.9614C0.867918 25.8713 0.894314 25.1168 1.85246 24.4454C3.09352 23.574 4.54959 23.0044 5.86233 22.2537C7.02417 21.5898 8.09171 20.7109 9.24601 20.013C10.1023 19.4962 10.4343 18.9191 10.5625 18.2288C10.7247 19.798 10.5776 24.1964 10.5474 24.1662V24.17Z" fill="white"/>
<path d="M10.5474 32.4383C10.5474 33.5322 9.77413 34.3961 8.94801 35.0826C8.91783 35.7239 8.56701 37.3384 7.23542 37.859C7.23542 38.7643 6.4772 40.028 5.12298 40.6693C5.12298 41.8236 3.70839 42.8383 2.95395 42.9967C3.47829 46.6596 1.27909 47.7648 0.750977 48.093C0.750977 46.5539 0.898095 40.2204 0.883006 39.0057C0.867918 37.9156 0.913175 37.1875 1.85246 36.4859C5.68126 33.6454 9.17056 29.6431 10.638 27.9154C10.7964 29.4846 10.5776 32.4685 10.5474 32.4383Z" fill="white"/>
<path d="M25.8694 34.1975C24.998 33.3261 22.8366 33.1073 21.4069 34.884C19.981 33.1073 17.8195 33.3223 16.9444 34.1975C16.7822 35.0726 14.4509 42.7717 14.1416 43.5828C15.3261 43.926 15.2921 43.7412 16.073 43.5224C16.2276 45.7028 17.5555 44.4089 17.8497 44.1146C18.8795 45.9781 19.8452 44.8314 20.3733 43.9902C20.3733 44.6767 20.6675 45.0162 21.4069 45.5481C22.1425 45.0162 22.4443 44.6767 22.4443 43.9902C22.9724 44.8314 23.9343 45.9819 24.9679 44.1146C25.2621 44.4089 26.5899 45.7065 26.7446 43.5224C27.5217 43.7412 27.4915 43.926 28.676 43.5828C28.3629 42.7717 26.0316 35.0726 25.8694 34.1975Z" fill="url(#paint3_linear_7_1784)"/>
<path d="M32.2676 24.17C33.0711 26.5352 40.5627 29.7868 42.0641 30.7186C42.0641 29.1795 41.9132 28.1836 41.932 26.9614C41.9471 25.8713 41.9245 25.1168 40.9663 24.4454C39.7253 23.574 38.2654 23.0044 36.9527 22.2537C35.7909 21.5898 34.7196 20.7109 33.569 20.013C32.7127 19.4962 32.3808 18.9191 32.2563 18.2288C32.0903 19.798 32.2337 24.1964 32.2676 24.1662V24.17Z" fill="url(#paint4_linear_7_1784)"/>
<path d="M32.2679 32.4383C32.2679 33.5322 33.0412 34.3961 33.8673 35.0826C33.8937 35.7239 34.2483 37.3384 35.5762 37.859C35.5762 38.7643 36.3381 40.028 37.6924 40.6693C37.6924 41.8198 39.1069 42.8383 39.8614 42.9967C39.337 46.6596 41.54 47.7648 42.0644 48.093C42.0644 46.5539 41.9135 40.2204 41.9323 39.0057C41.9474 37.9156 41.9059 37.1875 40.9666 36.4859C37.1341 33.6454 33.6485 29.6431 32.1774 27.9154C32.0152 29.4846 32.234 32.4685 32.2679 32.4383Z" fill="url(#paint5_linear_7_1784)"/>
<path d="M10.5474 24.17C9.74017 26.5352 2.24855 29.7868 0.750977 30.7186C0.750977 29.1795 0.898095 28.1836 0.883006 26.9614C0.867918 25.8713 0.894314 25.1168 1.85246 24.4454C3.09352 23.574 4.54959 23.0044 5.86233 22.2537C7.02417 21.5898 8.09171 20.7109 9.24601 20.013C10.1023 19.4962 10.4343 18.9191 10.5625 18.2288C10.7247 19.798 10.5776 24.1964 10.5474 24.1662V24.17Z" fill="url(#paint6_linear_7_1784)"/>
<path d="M10.5474 32.4383C10.5474 33.5322 9.77413 34.3961 8.94801 35.0826C8.91783 35.7239 8.56701 37.3384 7.23542 37.859C7.23542 38.7643 6.4772 40.028 5.12298 40.6693C5.12298 41.8198 3.70839 42.8383 2.95017 42.9967C3.47451 46.6596 1.27531 47.7648 0.750977 48.093C0.750977 46.5539 0.898095 40.2204 0.883006 39.0057C0.867918 37.9156 0.898087 37.1687 1.85246 36.4859C7.14865 32.7137 9.17056 29.6431 10.638 27.9154C10.7964 29.4846 10.5776 32.4685 10.5474 32.4383Z" fill="url(#paint7_linear_7_1784)"/>
<path d="M12.4708 39.5157C12.4708 39.1611 12.6368 38.1917 12.2445 37.8937C11.9993 37.7088 11.3656 38.2482 10.8525 38.5576C11.7616 35.7209 13.8929 27.1881 13.561 24.6456C16.1638 26.0074 17.5558 26.8863 19.159 28.0331C20.7621 29.1836 20.9319 32.5522 19.887 32.1486C17.6161 31.2696 14.6285 34.3176 13.6251 39.3233C13.3648 38.7009 13.1574 38.2256 12.4746 39.5119L12.4708 39.5157Z" fill="url(#paint8_linear_7_1784)"/>
<path d="M30.3477 39.5157C30.3477 39.1611 30.1817 38.1917 30.574 37.8937C30.823 37.7088 31.4529 38.2482 31.9659 38.5576C31.0568 35.7209 28.9293 27.1881 29.2613 24.6456C26.6584 26.0074 25.2665 26.8863 23.6633 28.0331C22.0601 29.1836 21.8904 32.5522 22.939 32.1486C25.2099 31.2696 28.1937 34.3176 29.2009 39.3233C29.4612 38.7009 29.6687 38.2256 30.3552 39.5119L30.3477 39.5157Z" fill="url(#paint9_linear_7_1784)"/>
<path d="M16.9748 10.3833C11.9011 14.0424 7.17832 8.63303 5.56381 10.1683C4.59058 11.0925 1.70106 14.2914 1.70106 15.6795C1.70106 17.0677 1.87458 23.6729 1.39551 24.1482C2.77614 24.1595 9.72456 19.7913 10.1169 19.3952C11.4824 18.0334 11.9313 18.735 13.6741 18.7426C14.2965 18.305 15.0321 17.9957 15.7337 17.5958C18.2875 16.019 17.0351 12.9258 16.971 10.3833H16.9748Z" fill="url(#paint10_linear_7_1784)"/>
<path d="M41.0115 15.4118C40.5513 14.0802 37.5561 10.025 36.2509 10.025C34.6251 10.025 31.9732 12.6769 28.8536 11.4358C25.0852 9.93828 25.5869 4.30636 21.3507 2.32217C22.7351 2.70317 24.1308 3.46893 23.7008 3.23128C21.66 -0.427775 16.8881 1.0698 15.8621 2.66922C15.7037 3.30672 16.8806 4.46856 17.8689 5.23432C18.7667 6.63382 18.8799 6.74321 18.1405 9.18384C17.4162 11.5566 23.0557 10.8361 24.625 12.7109C26.3187 14.7705 28.2576 16.3775 30.8642 16.981C30.9547 16.9923 31.0302 17.0112 31.1094 17.0376C31.63 18.4333 35.6662 22.3074 41.483 24.1897C40.638 23.1146 41.4641 16.7358 41.0077 15.4042L41.0115 15.4118Z" fill="url(#paint11_linear_7_1784)"/>
<path d="M7.88806 45.186C8.03517 45.4123 8.23511 45.4501 8.51802 45.4463C8.62742 45.4463 8.74813 45.4123 8.85376 45.4388C8.95938 45.4689 9.06877 45.8235 9.21589 45.8537C9.35169 45.8801 9.75532 45.8537 9.89112 45.865C10.1476 45.8952 10.3513 46.1743 10.6154 46.1857C10.8304 46.197 11.0152 46.0008 11.0643 45.7933C11.1322 45.5255 11.0266 44.6579 11.2793 44.4542C11.3925 44.5447 11.7093 44.7975 11.8753 44.8616C12.0149 44.9144 12.3959 45.0691 12.5128 45.1143C12.5732 45.137 11.7848 43.828 11.7584 43.5677C11.6678 42.6737 12.4562 41.5043 12.6863 40.9951C12.7919 40.7612 13.0485 39.8672 13.1503 39.6144C13.2484 39.3617 13.3389 38.7582 13.0975 38.9204C12.211 39.5277 12.4487 38.0452 12.1544 38.1056C11.4792 38.2414 11.3095 39.3504 11.151 39.8936C11.0266 40.3274 10.0533 42.636 9.88734 42.685C9.72513 42.5945 9.42335 42.6813 9.18948 43.0811C8.92919 42.7756 8.63873 42.338 8.23133 42.3719C7.70322 42.421 7.91069 43.2131 7.95973 43.5376C7.99368 43.7601 7.76357 44.5825 7.79375 44.7937C7.80507 44.888 7.83526 45.0389 7.86166 45.137L7.88429 45.1898L7.88806 45.186Z" fill="white"/>
<path d="M35.0138 45.1596C34.8629 45.3859 34.4932 45.5331 34.2103 45.5293C34.1047 45.5293 33.8331 45.6651 33.7538 45.7405C33.652 45.8424 33.486 45.8235 33.3389 45.8499C33.2031 45.8801 33.0824 45.9027 32.9428 45.9178C32.6863 45.9518 32.4751 46.1894 32.2148 46.2007C31.9998 46.2121 31.8036 46.0008 31.7508 45.7933C31.6867 45.5255 31.5358 44.6202 31.3698 44.6919C31.2227 44.756 30.6116 45.0125 30.2721 45.1407C30.208 45.1634 30.9624 43.8092 31.0567 43.564C31.1586 43.2924 31.2001 43.1339 31.0228 42.7416C30.9926 42.6775 30.4418 41.6175 30.2117 41.1082C30.1061 40.8706 29.7666 39.8634 29.6685 39.6144C29.5629 39.3617 29.4799 38.7582 29.7138 38.9204C30.6041 39.5277 30.3664 38.0452 30.6606 38.1056C31.3321 38.2414 31.5018 39.3504 31.6603 39.8936C31.7848 40.3274 32.0375 40.7914 32.1808 41.2101C32.3242 41.6364 32.7429 42.2776 32.7429 42.934C32.7429 42.934 32.8674 42.7756 33.0145 42.7529C33.3087 42.7303 33.4747 42.6926 33.5652 43.1C33.8029 42.7077 34.1198 42.3418 34.5309 42.3757C35.059 42.4247 34.9006 43.2131 34.8516 43.5376C34.8176 43.7601 34.8403 43.8771 34.927 44.0883C35.225 44.8767 35.0138 45.1596 35.0138 45.1596Z" fill="white"/>
<path d="M19.3436 2.90324C19.3436 3.32195 18.9626 3.66145 18.4911 3.66145C18.0195 3.66145 17.6348 3.32195 17.6348 2.90324C17.6348 2.48452 18.0195 2.14502 18.4911 2.14502C18.9626 2.14502 19.3436 2.48452 19.3436 2.90324Z" fill="url(#paint12_linear_7_1784)"/>
<path d="M15.9566 3.65626C15.9868 3.65626 16.0132 3.65626 16.0358 3.66381C16.0358 3.53555 15.9113 3.42993 15.7567 3.42993C15.602 3.42993 15.4775 3.53178 15.4775 3.66004C15.4775 3.7732 15.5794 3.86751 15.7114 3.88637C15.7001 3.86751 15.6925 3.84488 15.6925 3.82601C15.6925 3.73171 15.8095 3.65626 15.9528 3.65626H15.9566Z" fill="#000100"/>
<path fill-rule="evenodd" clip-rule="evenodd" d="M17.7936 3.06545C18.0312 3.91043 19.3402 3.46908 18.9554 2.5298C19.4722 2.33741 19.8532 2.32232 20.2719 2.25442C19.1969 2.08845 17.9294 1.95265 17.1448 2.31478C16.76 2.4883 16.8694 2.72218 16.926 2.82026C16.9901 2.61279 17.3334 2.60147 17.5786 2.68446C17.3937 4.26502 19.4157 4.08018 19.3289 2.79385C19.1893 3.84253 17.8426 3.84253 17.7936 3.06922V3.06545Z" fill="#000100"/>
<path fill-rule="evenodd" clip-rule="evenodd" d="M18.8308 2.69993C18.7327 2.60186 18.3442 2.51887 18.1631 2.69993C18.1631 2.52264 18.314 2.38684 18.495 2.38684C18.6761 2.38684 18.8308 2.52641 18.8308 2.69993Z" fill="white"/>
<path d="M42.2941 31.1983C42.494 31.2699 42.6751 31.3341 42.8109 31.3907C42.2564 30.5457 42.2941 29.1764 42.2941 28.8557V25.5928C42.494 25.6682 42.6751 25.7323 42.8109 25.7889C42.2564 24.9439 42.2941 23.5746 42.2941 23.2502V15.653C42.2941 13.5481 39.0802 8.45934 36.3642 8.39144C34.4328 8.34617 32.1732 11.0546 29.4007 10.353C28.5104 10.1229 27.805 9.16852 27.2165 7.99159C26.183 5.88292 25.1946 3.0613 22.6786 1.42793C19.8947 -0.375192 16.6921 1.63917 16.3262 1.95981C16.0131 2.25027 15.5114 3.11411 15.2398 3.25368C14.3684 3.70635 14.2288 4.46833 14.2288 4.7588C14.2288 5.04926 14.2929 5.75089 14.821 6.14697C14.7456 5.8037 14.7267 5.61132 14.806 5.43779C15.153 5.49438 15.9188 5.65281 16.4091 5.44911C16.6506 5.69053 17.2315 6.15074 17.4805 6.63359C17.8313 7.2975 17.835 7.39935 17.835 7.65963C17.835 8.33109 17.5182 9.29677 16.56 9.93051C15.5491 10.651 13.1613 11.0546 10.1774 10.0286C8.55915 9.47407 7.89524 8.35372 6.45048 8.39144C3.73071 8.45934 0.516792 13.5518 0.516792 15.653V23.2502C0.516792 23.5746 0.56206 24.9402 0 25.7889C0.139572 25.7323 0.316864 25.672 0.516792 25.5928V28.8557C0.516792 29.1801 0.56206 30.5457 0 31.3907C0.139572 31.3341 0.316864 31.2699 0.516792 31.1983V35.3817C0.516792 35.7023 0.56206 37.0716 0 37.9204C0.139572 37.8638 0.316864 37.8072 0.516792 37.7355V46.1664C0.516792 46.4116 0.539426 47.2377 0.316865 47.9959C0.241421 48.2487 0.411163 48.5542 0.675219 48.4486C1.76162 48.0148 3.34595 47.1661 3.34595 44.8047V43.4693C4.13058 43.126 5.06609 42.5187 5.36409 41.04C6.25056 40.5986 7.23511 39.8329 7.45013 38.29C8.35923 37.7619 9.26079 36.8453 9.27211 35.0761C10.0605 34.4801 10.532 33.7747 10.6263 33.2315C10.6905 32.8618 10.7357 31.9904 10.7546 30.9795C11.328 30.5608 11.7391 30.0892 11.973 29.6554C11.8787 31.8509 11.4411 34.8007 10.4113 38.8823C10.5924 38.8823 10.8376 38.8408 11.0865 38.7842C10.947 39.6065 10.2491 41.5681 9.77758 42.4583C9.71345 42.4508 9.64555 42.4508 9.57388 42.4659C9.41922 42.4923 9.30606 42.6394 9.23062 42.828C9.01937 42.5036 8.75531 41.983 8.13666 42.183C7.51425 42.3867 7.65382 43.1449 7.75944 43.4844C7.97069 44.1521 7.49539 44.3708 7.58215 44.9216C7.6425 45.3026 7.87639 45.5742 8.15553 45.6987C8.2272 45.8684 8.36677 46.0042 8.55161 46.0797C8.74399 46.1513 8.72136 45.9891 8.71381 45.7439C8.75531 45.7326 8.79681 45.7213 8.8383 45.6987C8.89111 45.8797 9.00805 46.0155 9.16271 46.091C9.23061 46.2268 9.35509 46.355 9.60029 46.5172C9.84548 46.6342 9.67951 46.3664 9.63801 46.1325C9.72477 46.1098 9.81908 46.0721 9.90961 46.0118C9.93979 46.0872 9.98506 46.1513 10.053 46.1966C10.0756 46.2155 10.0982 46.2306 10.1209 46.2456C10.1812 46.4946 10.3547 46.638 10.6188 46.7888C10.7961 46.8454 10.7282 46.6455 10.7093 46.4569C10.9545 46.4569 11.1695 46.3211 11.2676 45.925C11.4072 45.3554 11.1054 45.4082 11.4336 44.7443C11.5053 44.7556 12.0032 44.9593 12.09 44.9782C11.6147 44.7896 11.3431 43.6466 11.2638 43.9823C10.8564 44.7141 11.2186 46.0834 10.7546 46.1136C9.42676 46.2004 10.4113 44.5331 10.4604 44.1181C10.5245 43.5862 10.4679 42.8092 10.9847 42.9714C11.4487 43.1147 12.0371 44.6198 12.3238 45.0687C12.3653 45.1328 13.0255 45.5252 13.0594 45.3516C12.4445 44.7405 12.0862 43.7824 12.0183 43.4655C11.9277 43.0355 11.9617 42.8205 12.09 42.4923C12.2144 42.183 12.9613 40.8589 13.2744 40.2139C13.3574 40.4704 13.4479 40.7118 13.4894 40.908C13.5913 39.5273 15.1304 36.9056 16.477 35.3553C15.9791 36.9245 14.8739 40.7608 14.5683 41.8246C14.3193 42.6998 13.7271 43.6089 13.5837 43.7484C14.1005 43.9408 15.0361 44.0955 15.7 43.8314C15.6019 44.1747 15.6094 44.4916 15.9037 44.7858C16.2658 45.1479 17.2843 45.4082 17.7747 44.5595C18.1745 45.974 19.6985 45.9061 20.2983 44.9178C20.5586 45.7364 21.098 45.842 21.4036 46.1513C21.7167 45.842 22.2523 45.7364 22.5126 44.9178C23.1086 45.9061 24.6363 45.974 25.0362 44.5595C25.5304 45.4082 26.5489 45.1479 26.9072 44.7858C27.2015 44.4916 27.2052 44.1785 27.1109 43.8314C27.7748 44.0955 28.7103 43.9446 29.2234 43.7484C29.0838 43.6089 28.484 42.696 28.235 41.8246C27.9333 40.7646 26.828 36.9283 26.3301 35.3553C27.6768 36.9056 29.2196 39.5273 29.3177 40.908C29.3592 40.7118 29.4497 40.4742 29.5327 40.2139C29.8458 40.8589 30.5927 42.183 30.7172 42.4923C30.8492 42.8205 30.8869 43.0355 30.7926 43.4655C30.7247 43.7824 30.438 44.733 29.8269 45.3441C29.8609 45.5176 30.4116 45.2083 30.4493 45.1442C30.7473 44.6726 31.366 43.1109 31.8262 42.9676C32.343 42.8054 32.2864 43.5825 32.3505 44.1143C32.3996 44.5293 33.3841 46.1966 32.0563 46.1098C31.5961 46.0834 31.9507 44.7104 31.5508 43.9785C31.4716 43.6428 31.2038 44.8386 30.7285 45.0234C30.8152 45.0046 31.2943 44.7443 31.3584 44.733C31.6904 45.4007 31.4037 45.3516 31.5433 45.9212C31.6414 46.3211 31.8564 46.4569 32.1016 46.4531C32.0827 46.6417 32.0186 46.8417 32.1959 46.7851C32.4599 46.6342 32.6334 46.4946 32.6938 46.2419C32.7202 46.2268 32.7428 46.2117 32.7655 46.1928C32.8334 46.1476 32.8749 46.0834 32.9088 46.008C32.9994 46.0683 33.0861 46.1061 33.1804 46.1287C33.1314 46.3664 32.9729 46.6304 33.2144 46.5135C33.4596 46.3513 33.584 46.2268 33.6519 46.0872C33.8028 46.0118 33.9235 45.8797 33.9726 45.6949C34.0141 45.7138 34.0556 45.7251 34.0971 45.7402C34.0933 45.9854 34.0669 46.1476 34.2593 46.0759C34.4441 46.0005 34.5799 45.8647 34.6554 45.6987C34.9345 45.5742 35.1684 45.3026 35.2287 44.9216C35.3117 44.3708 34.8364 44.1521 35.0514 43.4844C35.1571 43.1449 35.2929 42.3904 34.6704 42.183C34.0518 41.983 33.7877 42.5036 33.5803 42.828C33.5048 42.6394 33.3917 42.4923 33.237 42.4659C33.1616 42.4508 33.0974 42.4508 33.0333 42.4583C32.5655 41.5681 31.8601 39.6065 31.7243 38.7842C31.9771 38.8446 32.2147 38.8823 32.3996 38.8823C31.366 34.8007 30.9284 31.8471 30.8341 29.6554C31.0718 30.0892 31.4791 30.5608 32.045 30.9757C32.0638 31.9904 32.1091 32.8656 32.1732 33.2353C32.2675 33.7785 32.7391 34.4839 33.5312 35.0799C33.5425 36.849 34.4441 37.7619 35.3494 38.29C35.5682 39.8329 36.549 40.5986 37.4355 41.04C37.7373 42.5187 38.669 43.126 39.4574 43.4693V44.8047C39.4574 47.1397 41.004 47.996 42.0904 48.4335C42.3658 48.5467 42.5959 48.3317 42.528 48.128C42.2564 47.3396 42.2828 46.4229 42.2828 46.1664V37.7431C42.4827 37.8185 42.6638 37.8675 42.7996 37.9204C42.2451 37.0716 42.2828 35.7061 42.2828 35.3817V31.1983H42.2941ZM16.5902 5.06434C16.4054 5.11338 15.4284 5.28313 15.3039 5.15865C15.5189 5.04548 15.6622 4.98136 16.0772 4.72107C16.3752 4.74371 16.6656 4.92854 17.1296 5.20769C16.8693 5.10207 16.8429 5.01531 16.594 5.06434H16.5902ZM2.63678 38.9728V41.3455C2.63678 41.6435 2.61037 42.5149 2.60283 43.5221V45.114C2.60283 46.1098 1.64846 47.0001 0.939278 47.3056C1.07508 47.1283 1.22597 46.6417 1.22597 45.9212V37.4149C1.66732 37.1923 2.13129 36.8943 2.51229 36.4567C2.55755 36.4417 2.60283 36.4228 2.65187 36.4039C2.64055 37.7355 2.63678 38.7691 2.63678 38.9728ZM2.63678 31.7C2.63678 32.0885 2.60283 34.0878 2.60283 34.3292C2.60283 35.3666 1.64846 36.2191 0.939278 36.5284C1.07508 36.3511 1.22597 35.8645 1.22597 35.1402V30.8889C1.60319 30.7003 1.99172 30.4551 2.33877 30.1156C2.44439 30.0779 2.56133 30.0327 2.68958 29.9836C2.65563 30.5344 2.63678 31.2699 2.63678 31.6962V31.7ZM0.943054 29.9987C1.07885 29.8214 1.22974 29.3348 1.22974 28.6143V25.2834C1.60696 25.0986 1.9955 24.8496 2.34254 24.5101C2.44439 24.4724 2.55379 24.4309 2.6745 24.3856C2.65564 24.6572 2.64055 24.9515 2.64055 25.291V27.3393C2.64055 28.8331 1.74276 29.6517 0.946819 29.9987H0.943054ZM3.33086 24.1027C3.74581 23.8953 4.18339 23.6199 4.54929 23.2276C4.62474 23.2012 4.70772 23.1672 4.78693 23.137C4.76807 23.3973 4.75676 23.7066 4.75676 24.0725V26.151C4.75676 27.5769 3.93442 28.3917 3.16488 28.7652C3.27805 28.3955 3.34972 27.9768 3.34972 27.4939V25.457C3.34972 25.0005 3.32709 24.5403 3.33464 24.1065L3.33086 24.1027ZM4.75676 37.7544V39.8329C4.75676 41.3267 3.80239 42.1641 3.21015 42.4244C3.34595 42.2471 3.34972 41.8284 3.34972 41.1041V39.135C3.34972 38.9049 3.34218 37.6714 3.3384 36.1361C3.82879 35.9173 4.37199 35.5967 4.78693 35.0459C4.7643 36.0607 4.75676 37.3922 4.75676 37.7544ZM4.75676 30.4815V32.56C4.75676 33.9671 3.89292 34.8611 3.19883 35.178C3.29314 34.8385 3.34972 34.4575 3.34972 34.0199V33.9746C3.34972 33.9294 3.34972 33.8841 3.34972 33.8313V33.0768V31.8622C3.34972 31.3605 3.31955 30.4023 3.33464 29.7082C3.74958 29.5008 4.18339 29.2254 4.54929 28.8331C4.62474 28.8029 4.70772 28.7727 4.78693 28.7426C4.76807 29.3348 4.75676 30.1119 4.75676 30.4815ZM5.3075 27.4864C5.40935 27.1394 5.46594 26.7471 5.46594 26.3019V22.8353C5.70736 22.7108 5.94501 22.5637 6.17512 22.3826C6.39768 22.326 6.60138 22.2619 6.78999 22.1864C6.77867 22.4015 6.78622 22.6617 6.78622 23.0503V24.9364C6.78622 26.2944 6.04308 27.0941 5.3075 27.4902V27.4864ZM6.78622 35.5967V37.4828C6.78622 38.7427 6.14494 39.5198 5.46594 39.946V36.7208C5.46594 36.585 5.46594 35.0422 5.46594 34.167C5.93747 33.918 6.42408 33.5785 6.80507 33.0806C6.79753 33.82 6.78622 35.0535 6.78622 35.6042V35.5967ZM6.78622 28.7727V30.6551C6.78622 31.9263 6.13362 32.7109 5.45085 33.1296C5.46216 32.9938 5.46594 32.858 5.46594 32.7109V29.448C5.46594 29.3423 5.46594 28.867 5.46594 28.4408C5.72999 28.305 5.99782 28.1352 6.25433 27.924C6.42031 27.8636 6.60514 27.792 6.80507 27.709C6.80507 28.0598 6.78622 28.056 6.78622 28.7765V28.7727ZM7.51425 27.3506C7.78585 27.1884 8.0499 26.9922 8.29133 26.747C8.38563 26.7018 8.47994 26.6527 8.5667 26.6037C8.56293 26.7697 8.56293 26.9583 8.56293 27.1695V29.0632C8.56293 30.1835 8.05368 30.9267 7.46521 31.3756C7.48407 31.1945 7.49539 31.0059 7.49539 30.8097V28.0221C7.49539 27.8146 7.49539 27.5769 7.51425 27.3506ZM8.56293 33.0052V34.9026C8.56293 36.0003 8.07254 36.7359 7.49539 37.1848V34.846C7.49539 34.6121 7.49539 33.2089 7.52179 32.4129C7.89901 32.1904 8.27247 31.8886 8.57802 31.485C8.5667 31.998 8.56293 32.6543 8.56293 33.0089V33.0052ZM8.56293 22.1072V24.0009C8.56293 25.2306 7.94806 26.0077 7.29169 26.434C7.41995 26.0492 7.49916 25.6078 7.49916 25.0873V22.2996C7.49916 22.1525 7.49916 21.9978 7.50293 21.8394C7.85375 21.6244 8.14422 21.3754 8.38187 21.1038C8.45731 21.0661 8.5252 21.0321 8.59688 20.9944C8.57424 21.2622 8.56293 21.6206 8.56293 22.1072ZM10.3736 32.4506C10.3736 33.0316 9.89452 33.6163 9.27211 34.1066V32.76C9.27211 32.4356 9.24947 30.6362 9.28342 29.7761C9.80399 29.3801 10.185 28.9349 10.4075 28.5238C10.4 29.9949 10.3698 32.0432 10.3698 32.4506H10.3736ZM9.26833 26.1586C9.7889 25.7663 10.1699 25.3287 10.3962 24.9213C10.3849 25.9511 10.3736 26.8904 10.3736 27.1544C10.3736 27.7391 9.89452 28.3238 9.27211 28.8142V26.9281C9.27211 26.7093 9.26079 26.434 9.26456 26.1624L9.26833 26.1586ZM10.3774 23.518C10.3774 24.1518 9.82285 24.778 9.13253 25.291C9.22307 24.9552 9.27588 24.578 9.27588 24.1518V21.8583C9.27588 21.4924 9.2457 20.968 9.30605 20.5531C9.81153 20.1796 10.1699 19.7647 10.4189 19.3384C10.4151 20.8171 10.3811 23.088 10.3811 23.5218L10.3774 23.518ZM8.84962 43.6277C8.89489 43.8314 9.13253 45.2535 8.60065 45.3856C8.12912 45.5025 7.58215 45.1592 7.97446 44.1445C8.17439 43.624 7.85375 42.5602 8.1857 42.4847C8.60819 42.3867 8.98164 43.0015 9.11367 43.4504C9.15516 43.5787 9.14762 43.7673 9.13253 43.8088C9.01182 43.6202 8.8383 43.292 8.84962 43.6277ZM10.2944 44.0766C10.2793 44.1822 10.2567 44.2803 10.2378 44.3746C10.1359 44.1634 9.9511 43.6013 9.9511 43.971C9.9511 44.2313 9.97374 45.7251 9.48335 45.7703C9.0005 45.8156 8.89489 45.3856 9.14763 44.865C9.39659 44.352 9.21175 42.8771 9.55125 42.8506C9.89452 42.8242 10.1548 43.16 10.2868 43.5108C10.3057 43.6692 10.3321 43.8277 10.2944 44.0804V44.0766ZM12.5615 40.9721C12.4068 41.2965 12.1579 41.3644 12.0221 41.5756C11.8485 41.8435 11.9315 42.2961 11.7203 42.5111C11.5769 42.6583 11.5053 42.7714 11.5618 43.1487C11.4336 42.9374 11.2714 42.8016 11.1318 42.7111C10.8602 42.5376 10.4981 42.5753 10.351 42.9035C10.3057 42.828 10.2491 42.7488 10.1888 42.6809C10.2378 42.5941 10.2868 42.4923 10.3321 42.3942C10.4302 42.183 10.4 41.8812 10.4754 41.7642C10.532 41.6737 10.7282 41.5492 10.8149 41.3757C10.9017 41.1984 10.8791 40.8136 10.9658 40.625C11.0488 40.4327 11.1658 40.3534 11.245 40.1045C11.2676 40.0253 11.328 39.5386 11.3921 39.3727C11.4977 39.0897 11.8259 38.6786 12.1541 38.4032C12.1541 39.0633 12.1616 39.2444 12.2748 40.0064C12.5992 39.682 12.8369 39.4594 13.0443 39.1916C13.0368 39.682 12.9915 39.7989 12.8067 40.1611C12.6445 40.4817 12.7237 40.6552 12.5615 40.9759V40.9721ZM14.4853 43.3486C14.7494 43.0845 14.9116 42.5149 15.0625 41.885C15.1869 41.3644 16.5789 36.1701 16.9184 34.8686C17.1334 34.6498 17.3409 34.4763 17.5257 34.3481C17.6502 34.2424 17.8237 34.1783 18.0237 34.1368C17.6766 35.4496 16.3676 41.387 16.1111 42.5828C15.9112 43.3448 15.319 43.5032 14.4778 43.3448L14.4853 43.3486ZM17.7068 43.2467C17.5634 44.0238 17.4804 44.5255 16.5751 44.3029C15.9942 44.1634 16.5035 43.2543 16.6091 42.6168C16.7071 42.0623 18.1255 35.1516 18.333 34.1029C18.5819 34.0878 18.8686 34.1104 19.1553 34.167C18.978 34.9101 17.7068 43.2241 17.703 43.243L17.7068 43.2467ZM20.2266 42.1905C20.1663 42.9525 20.1135 43.5259 20.0795 43.7145C19.7928 45.2045 17.8916 45.0989 18.2198 43.1637C18.3103 42.6432 19.2873 35.7023 19.4986 34.2424C19.8871 34.3481 20.2719 34.5065 20.5925 34.7064C20.5774 35.4873 20.3662 39.5914 20.2229 42.1905H20.2266ZM21.3998 45.1253C21.0226 44.899 20.7321 44.5029 20.7321 43.4089C20.7321 42.4018 20.8868 35.9814 20.9169 34.9441C21.1734 35.1666 21.3507 35.4307 21.3998 35.7212C21.4488 35.4269 21.6261 35.1666 21.8864 34.9441C21.9128 35.9777 22.0712 42.4018 22.0712 43.4089C22.0712 44.5029 21.7808 44.899 21.4036 45.1253H21.3998ZM22.7238 43.7145C22.6899 43.5259 22.6408 42.9525 22.5767 42.1943C22.4371 39.5952 22.2184 35.4835 22.207 34.7064C22.5315 34.5027 22.9162 34.3481 23.3048 34.2424C23.516 35.7023 24.493 42.6469 24.5835 43.1637C24.9155 45.0989 23.0068 45.2045 22.7238 43.7145ZM26.2282 44.3029C25.3229 44.5255 25.2437 44.02 25.0966 43.2467C25.089 43.2241 23.8215 34.9139 23.6405 34.1708C23.9309 34.1142 24.2139 34.0953 24.4666 34.1066C24.6552 35.0233 26.1 42.1 26.1867 42.6205C26.2923 43.258 26.8016 44.1634 26.2245 44.3067L26.2282 44.3029ZM27.7409 41.8887C27.8918 42.5149 28.054 43.0883 28.318 43.3524C27.4768 43.5108 26.8846 43.3524 26.6884 42.5904C26.4357 41.3946 25.1192 35.4571 24.7759 34.1444C24.9796 34.1821 25.1494 34.25 25.2739 34.3556C25.4587 34.4801 25.6662 34.6612 25.8812 34.8762C26.2244 36.1776 27.6126 41.3719 27.7371 41.8925L27.7409 41.8887ZM33.6934 43.4467C33.8292 43.0015 34.1951 42.3867 34.6214 42.4847C34.9534 42.5602 34.6327 43.624 34.8327 44.1445C35.225 45.163 34.6742 45.5025 34.2065 45.3856C33.6784 45.2535 33.9122 43.8314 33.9575 43.6277C33.9726 43.292 33.7991 43.6202 33.6784 43.8088C33.652 43.722 33.6369 43.6654 33.6934 43.4504V43.4467ZM33.2596 42.8431C33.5991 42.8695 33.4105 44.3444 33.6633 44.8575C33.916 45.378 33.8066 45.8118 33.3238 45.7628C32.8334 45.7175 32.8598 44.2237 32.856 43.9635C32.856 43.5938 32.6674 44.1558 32.5693 44.3671C32.5467 44.2765 32.5278 44.1747 32.5127 44.0691C32.475 43.8163 32.5052 43.6579 32.5203 43.4995C32.6523 43.1487 32.9164 42.8167 33.2596 42.8393V42.8431ZM31.9922 41.3719C32.0789 41.5455 32.2751 41.6699 32.3279 41.7605C32.4033 41.8774 32.3732 42.183 32.4712 42.3904C32.5203 42.4885 32.5655 42.5904 32.6146 42.6771C32.5505 42.7488 32.4977 42.8242 32.4524 42.8997C32.3053 42.5715 31.9431 42.5338 31.6715 42.7073C31.5357 42.7941 31.3735 42.9336 31.2453 43.1449C31.2981 42.7714 31.2264 42.6545 31.0831 42.5074C30.8681 42.2924 30.9548 41.8397 30.7813 41.5719C30.6493 41.3606 30.4003 41.2927 30.2419 40.9683C30.0834 40.6477 30.1626 40.4741 30.0004 40.1535C29.8156 39.7914 29.7741 39.6782 29.759 39.1841C29.9703 39.4519 30.2041 39.6744 30.5286 39.9989C30.6455 39.2369 30.6568 39.0558 30.6568 38.3957C30.9812 38.671 31.3094 39.0822 31.415 39.3651C31.4754 39.5311 31.5357 40.0139 31.5584 40.0969C31.6376 40.3459 31.7545 40.4251 31.8413 40.6175C31.928 40.8099 31.9016 41.1909 31.9922 41.3682V41.3719ZM32.1053 27.2488C32.1053 27.2902 32.1129 27.3317 32.1129 27.3657C32.1053 27.3355 32.1016 27.294 32.1053 27.2488ZM33.5312 32.76V34.1104C32.9088 33.62 32.4298 33.0353 32.4298 32.4506C32.4298 32.0432 32.3958 29.9987 32.392 28.5238C32.6146 28.9349 32.9956 29.3763 33.5199 29.7761C33.5539 30.64 33.5312 32.4318 33.5312 32.76ZM32.4033 24.9138C32.6297 25.3249 33.0144 25.7625 33.5388 26.1586C33.5388 26.4302 33.5312 26.7056 33.5312 26.9243V28.8142C32.9088 28.3238 32.4298 27.7391 32.4298 27.1544C32.4298 26.8904 32.4184 25.9473 32.4033 24.9175V24.9138ZM32.4298 23.518C32.4298 23.088 32.3958 20.8171 32.392 19.3346C32.6372 19.7609 32.9994 20.1758 33.5011 20.5493C33.5576 20.968 33.5312 21.4924 33.5312 21.8545V24.148C33.5312 24.578 33.5878 24.9515 33.6746 25.2872C32.9843 24.778 32.4298 24.148 32.4298 23.5143V23.518ZM35.3079 34.846V37.1848C34.7308 36.7359 34.2442 36.0003 34.2442 34.9026V33.0052C34.2442 32.6543 34.2404 31.9942 34.2253 31.4812C34.5309 31.8848 34.9043 32.1828 35.2853 32.4091C35.3117 33.2089 35.3079 34.6084 35.3079 34.8422V34.846ZM34.2442 29.0632V27.1695C34.2442 26.9583 34.2442 26.7697 34.2366 26.6037C34.3272 26.6527 34.4215 26.7018 34.5158 26.747C34.7572 26.9922 35.025 27.1884 35.2929 27.3506C35.308 27.5769 35.3079 27.8108 35.3079 28.0221V30.8097C35.3079 31.0059 35.323 31.1945 35.3457 31.3756C34.7534 30.9267 34.2442 30.1873 34.2442 29.0632ZM34.2442 23.9971V22.1035C34.2442 21.6168 34.2329 21.2585 34.2102 20.9906C34.2819 21.0246 34.3536 21.0623 34.429 21.1C34.6667 21.3716 34.9571 21.6206 35.3042 21.8356C35.3117 21.9941 35.3117 22.1487 35.3117 22.2958V25.0835C35.3117 25.6003 35.3909 26.0454 35.5192 26.4302C34.8553 26.0039 34.248 25.2306 34.248 23.9971H34.2442ZM37.3374 36.717V39.9423C36.6584 39.5198 36.0171 38.7389 36.0171 37.479V35.5929C36.0171 35.0422 36.0058 33.8086 35.9983 33.0693C36.3793 33.571 36.8659 33.9105 37.3374 34.1557C37.3374 35.0346 37.3374 36.5774 37.3374 36.7132V36.717ZM36.0171 30.6551V28.7727C36.0171 28.056 35.9945 28.0598 35.9945 27.7052C36.1944 27.792 36.383 27.8599 36.549 27.9202C36.8017 28.1277 37.0696 28.2974 37.3336 28.437V32.7072C37.3336 32.8543 37.3412 32.9901 37.3487 33.1259C36.6659 32.7072 36.0134 31.9225 36.0134 30.6513L36.0171 30.6551ZM36.0171 24.9364V23.0503C36.0171 22.6655 36.0247 22.4015 36.0096 22.1864C36.202 22.2581 36.4057 22.326 36.6282 22.3826C36.8546 22.5637 37.0998 22.7108 37.3374 22.8353V26.3019C37.3374 26.7471 37.394 27.1431 37.4958 27.4864C36.7603 27.0903 36.0209 26.2906 36.0209 24.9326L36.0171 24.9364ZM38.0466 39.8329V37.7544C38.0466 37.3922 38.0353 36.0607 38.0126 35.0459C38.4313 35.5967 38.9708 35.9211 39.4687 36.1361C39.4612 37.6714 39.4612 38.9011 39.4612 39.135V41.1041C39.4612 41.8284 39.4612 42.2471 39.5932 42.4244C39.0047 42.1641 38.0504 41.3267 38.0504 39.8329H38.0466ZM38.0466 32.56V30.4815C38.0466 30.1119 38.0353 29.3348 38.0126 28.7426C38.0918 28.7765 38.1748 28.8029 38.2503 28.8331C38.62 29.2254 39.0538 29.5008 39.4687 29.7082C39.4838 30.4023 39.4612 31.3567 39.4612 31.8622V33.0731V33.9708V34.0161C39.4612 34.4499 39.514 34.8347 39.6045 35.178C38.9104 34.8611 38.0466 33.9633 38.0466 32.56ZM38.0466 26.1548V24.0763C38.0466 23.7066 38.0353 23.4011 38.0126 23.1408C38.0918 23.171 38.1748 23.2049 38.2503 23.2313C38.62 23.6274 39.0538 23.9028 39.4687 24.1065C39.4762 24.5403 39.4574 25.0005 39.4574 25.457V27.4939C39.4574 27.9806 39.5215 28.3993 39.6385 28.7652C38.8689 28.3955 38.0428 27.5807 38.0428 26.151L38.0466 26.1548ZM40.1967 45.1177V43.5259C40.1967 42.5225 40.1703 41.6473 40.1703 41.3493V38.9766C40.1703 38.7729 40.1628 37.7393 40.1552 36.4077C40.2005 36.4266 40.2496 36.4416 40.2911 36.4605C40.672 36.9019 41.136 37.1999 41.5774 37.4187V45.925C41.5774 46.6493 41.7245 47.1359 41.8603 47.3094C41.1549 47.0039 40.2005 46.1136 40.2005 45.1177H40.1967ZM40.1967 34.3368C40.1967 34.0953 40.1666 32.0961 40.1666 31.7075C40.1666 31.2775 40.1439 30.5419 40.11 29.9949C40.2382 30.044 40.3589 30.0855 40.4646 30.127C40.8041 30.4665 41.1964 30.7154 41.5736 30.9003V35.1516C41.5736 35.8758 41.7207 36.3624 41.8565 36.5397C41.1511 36.2304 40.1967 35.3779 40.1967 34.3405V34.3368ZM40.1666 27.3544V25.2985C40.1666 24.959 40.1552 24.661 40.1326 24.3932C40.2496 24.4385 40.3627 24.4799 40.4646 24.5177C40.8041 24.8572 41.1964 25.1061 41.5736 25.291V28.6218C41.5736 29.3461 41.7207 29.8327 41.8565 30.0062C41.0606 29.6592 40.1666 28.8406 40.1666 27.3544ZM40.1628 21.7413V20.9982C40.1628 20.6247 40.1628 20.2626 40.1666 20.0853C40.1666 19.3875 40.0534 18.4595 39.3895 18.0068C39.5894 18.7914 39.4574 18.9272 39.4574 20.2475V21.1755C39.4574 21.1755 39.4574 21.2057 39.4574 21.3151V21.8922C39.4574 22.3751 39.5215 22.7975 39.6385 23.1634C38.8689 22.79 38.0428 21.979 38.0428 20.5493C38.0428 20.0702 37.9296 18.0936 37.3299 17.2712V20.6964C37.3299 21.1491 37.3864 21.5452 37.4921 21.896C35.6852 20.9793 35.8662 17.8635 35.2778 16.6564C35.2778 17.7013 35.3004 18.4369 35.3004 19.4818C35.3004 19.9986 35.3796 20.4399 35.5041 20.8247C33.9235 19.8137 33.7387 17.8371 33.618 16.3584C33.4633 16.9053 33.2106 18.3501 33.6444 19.7119C32.5844 18.9008 31.9922 17.1694 32.0638 15.9321C31.9092 16.6111 31.7432 17.6296 32.0752 18.6519C32.0186 19.8137 32.0261 28.9915 32.0299 29.9912C31.4263 29.4932 30.8077 28.5917 30.8756 27.2223C30.8982 26.996 30.9246 26.7848 30.9548 26.5848C31.3811 23.7217 31.4678 19.5949 30.2834 16.2942C31.2377 21.4471 30.0495 26.7508 29.8797 27.8146C29.5817 29.7196 30.2305 33.6653 31.5735 38.0448C31.3132 37.7883 30.4191 37.4111 30.0608 37.0527C30.0608 37.4488 30.2041 37.8751 30.2041 38.7389C29.7402 37.9656 29.5666 37.9317 29.08 37.0792C29.2309 38.0863 29.1856 38.1769 29.1856 39.0483C28.7103 38.1429 28.4501 36.9471 27.3561 35.2345C24.9155 31.4246 21.3998 33.786 21.3998 34.4499C21.3998 33.786 17.8841 31.4246 15.4472 35.2345C14.3495 36.9471 14.093 38.1429 13.6139 39.0483C13.6139 38.1769 13.5724 38.0863 13.7233 37.0792C13.2329 37.9354 13.0556 37.9656 12.5954 38.7389C12.5954 37.8751 12.7388 37.4488 12.7388 37.0527C12.3804 37.4111 11.4864 37.7883 11.2261 38.0448C12.569 33.6691 13.2178 29.7196 12.9161 27.8146C12.7463 26.7471 11.5581 21.4471 12.5162 16.2942C11.3317 19.5949 11.4185 23.7217 11.8448 26.5848C11.8749 26.7885 11.9013 27.0036 11.9202 27.2261C11.9881 28.5992 11.3657 29.5008 10.7621 29.9987C10.7621 28.9991 10.7772 19.8326 10.7169 18.6519C11.0526 17.6296 10.8866 16.6111 10.7282 15.9321C10.8036 17.1694 10.2114 18.8971 9.14763 19.7119C9.57766 18.3501 9.32869 16.9091 9.17026 16.3584C9.04578 17.8371 8.86848 19.8175 7.28415 20.8247C7.41241 20.4399 7.48784 19.9986 7.48784 19.4818C7.48784 18.4369 7.51425 17.7013 7.51425 16.6564C6.92201 17.8673 7.10685 20.9831 5.29996 21.896C5.40181 21.5452 5.4584 21.1529 5.4584 20.6964V17.2712C4.86239 18.0936 4.74922 20.0702 4.74922 20.5493C4.74922 21.979 3.92688 22.79 3.15734 23.1597C3.27051 22.7938 3.34218 22.3713 3.34218 21.8884V21.3113C3.34218 21.2019 3.34218 21.1717 3.34218 21.1717V20.2437C3.34218 18.9235 3.20261 18.7877 3.40631 18.0031C2.7424 18.4557 2.62546 19.3837 2.633 20.0815V20.9944V21.7375C2.633 23.2276 1.73522 24.0537 0.939278 24.397C1.07508 24.2159 1.22597 23.733 1.22597 23.0088V15.8152C1.22597 13.7933 3.58737 11.4696 4.45875 10.4473C6.87674 7.61059 7.93297 9.91542 10.366 10.7378C14.4136 12.1146 16.5751 10.5793 16.5751 10.5793C18.7404 9.21756 18.7441 7.935 18.7441 7.13152C18.7441 6.58832 18.5367 5.88292 18.1406 5.43025C17.4012 4.6909 16.0885 4.45325 15.8546 4.49851C15.3605 4.75125 14.9229 4.75125 14.8361 4.82292C14.606 4.37026 14.6664 3.67994 15.6849 3.11411C15.9716 2.95568 15.8659 2.59354 16.7373 2.08429C19.2836 0.59804 21.7695 1.13747 23.2255 2.75575C22.7125 2.57091 22.2184 2.39739 21.3507 2.3144C22.5654 2.73689 24.0064 3.74407 24.9343 5.41516C25.3153 6.07907 26.1754 7.91237 26.481 8.46688C27.1298 9.65136 28.3029 12.1259 32.4373 10.7302C34.8741 9.90787 35.9228 7.60305 38.3446 10.4398C39.2197 11.462 41.5774 13.7857 41.5774 15.8076V23.0012C41.5774 23.7255 41.7245 24.2083 41.8603 24.3894C41.0644 24.0424 40.1666 23.22 40.1666 21.73L40.1628 21.7413Z" fill="#000100"/>
<path d="M16.0731 4.72009C15.6619 4.98038 15.5148 5.0445 15.2998 5.15767C15.4243 5.28215 16.4051 5.1124 16.5861 5.05959C16.8351 5.01433 16.8615 5.10486 17.1218 5.20671C16.654 4.92756 16.3673 4.7465 16.0693 4.72009H16.0731Z" fill="white"/>
<path d="M29.3253 21.5752C29.3253 25.9358 25.7869 29.4742 21.4262 29.4742C17.0656 29.4742 13.5234 25.9358 13.5234 21.5752C13.5234 17.2145 17.0618 13.6724 21.4262 13.6724C25.7907 13.6724 29.3253 17.2107 29.3253 21.5752Z" fill="#D9D9D9"/>
<path d="M28.0728 21.5722C28.0728 25.2803 25.0701 28.283 21.362 28.283C20.5585 28.283 19.7852 28.1397 19.0685 27.8831C16.4921 26.9439 14.6475 24.4731 14.6475 21.5722C14.6475 18.6714 16.4996 16.1855 19.0911 15.2538C19.8041 15.001 20.5661 14.8615 21.362 14.8615C25.0701 14.8615 28.0728 17.8679 28.0728 21.5722Z" fill="url(#paint13_linear_7_1784)"/>
<path d="M27.6916 19.3353C21.8372 17.7698 15.0283 19.3428 15.0283 19.3428C15.696 17.4416 17.1936 15.9365 19.0872 15.2538C19.8002 15.001 20.5622 14.8615 21.3581 14.8615C24.2816 14.8615 26.7675 16.7287 27.6879 19.3353H27.6916Z" fill="#008833"/>
<path d="M27.6916 23.805C21.8372 25.3667 15.0283 23.7975 15.0283 23.7975C15.696 25.6949 17.1936 27.2038 19.0872 27.8828C19.8002 28.1355 20.5622 28.2751 21.3581 28.2751C24.2816 28.2751 26.7675 26.4079 27.6879 23.8013L27.6916 23.805Z" fill="#000100"/>
<path d="M22.3992 18.9043C25.2661 19.0401 27.1748 19.4512 27.1748 19.4512C27.7822 20.0548 27.7407 22.5935 27.1937 23.6648C27.1937 23.6648 25.1265 24.1062 22.8217 24.2118C21.1431 24.291 19.0721 24.1137 19.0721 24.1137C19.0721 24.1137 18.9854 23.3894 18.9854 21.575C18.9854 19.7606 19.0683 19.0023 19.0683 19.0023C19.0683 19.0023 20.83 18.8288 22.3954 18.908L22.3992 18.9043Z" fill="url(#paint14_linear_7_1784)"/>
<path d="M18.6309 21.4282C18.6309 25.2532 19.0685 27.8824 19.0685 27.8824C16.4921 26.9432 14.6475 24.4724 14.6475 21.5715C14.6475 18.6707 16.4996 16.1848 19.0911 15.2531C19.0911 15.2531 18.6309 17.5315 18.6309 21.4282Z" fill="#DB0027"/>
<path d="M21.4154 29.8259C16.8774 29.8259 13.1807 26.1329 13.1807 21.5912C13.1807 17.0494 16.8737 13.3564 21.4154 13.3564C25.9572 13.3564 29.6539 17.0494 29.6539 21.5912C29.6539 26.1329 25.9572 29.8259 21.4154 29.8259ZM21.4154 13.9147C17.1868 13.9147 13.7427 17.3588 13.7427 21.5874C13.7427 25.8161 17.183 29.2601 21.4154 29.2601C25.6478 29.2601 29.0919 25.8161 29.0919 21.5874C29.0919 17.3588 25.6478 13.9147 21.4154 13.9147Z" fill="#000100"/>
<path d="M26.187 28.567C26.187 28.567 25.508 28.3746 25.3231 28.3105L25.1006 27.4504C25.1006 27.4504 25.0893 27.4391 25.0855 27.4353C25.0779 27.4353 25.0704 27.4353 25.0666 27.4428C25.0666 27.4428 24.6819 28.0049 24.5649 28.1558C24.3725 28.152 23.6898 28.0992 23.6898 28.0992C23.6822 28.0992 23.6784 28.0992 23.6709 28.1105C23.6709 28.1143 23.6709 28.1218 23.6709 28.1294L24.2141 28.8499C24.1462 29.031 23.8746 29.6986 23.8746 29.6986C23.8746 29.7062 23.8746 29.7137 23.8784 29.7175C23.8859 29.725 23.8935 29.725 23.901 29.7213L24.7233 29.3742L25.3797 29.891C25.3797 29.891 25.3873 29.891 25.391 29.891C25.3948 29.891 25.3986 29.891 25.4023 29.891C25.4061 29.891 25.4137 29.8835 25.4137 29.8722C25.4137 29.8722 25.425 29.1441 25.425 29.0309C25.591 28.9404 26.1945 28.5896 26.1945 28.5896C26.202 28.5896 26.2058 28.5783 26.2058 28.5707C26.2058 28.5632 26.1983 28.5556 26.1945 28.5556" fill="#000100"/>
<path d="M25.4968 28.6829C25.4968 28.6829 25.5006 28.6754 25.5006 28.6716C25.5006 28.6641 25.4968 28.6565 25.4892 28.6527L25.3912 28.6226L25.0932 28.5245L25.0479 28.3472L24.9838 28.0982C24.9838 28.0982 24.9762 28.0869 24.9687 28.0831C24.9649 28.0831 24.9574 28.0831 24.9536 28.0907L24.6895 28.4339L24.2708 28.4226C24.2708 28.4226 24.267 28.4226 24.2633 28.4264C24.2595 28.4264 24.2557 28.4264 24.252 28.4339V28.4453V28.4528L24.516 28.8036L24.433 29.0262L24.3727 29.1884C24.3727 29.1884 24.3727 29.1959 24.3727 29.1997C24.3727 29.2035 24.3727 29.2073 24.3727 29.211C24.3727 29.211 24.384 29.2148 24.3878 29.211L24.5349 29.1469L24.7461 29.0564L25.1007 29.3355C25.1007 29.3355 25.1082 29.3355 25.1158 29.3355H25.1233C25.1233 29.3355 25.1347 29.3242 25.1347 29.3204V28.8715L25.4779 28.6829C25.4817 28.6829 25.4817 28.6754 25.4817 28.6754" fill="white"/>
<path d="M19.0536 28.1141C19.0536 28.1141 19.0423 28.099 19.0348 28.1028C19.0348 28.1028 18.352 28.1556 18.1596 28.1593C18.0427 28.0084 17.6579 27.4464 17.6579 27.4464C17.6541 27.4388 17.6466 27.4388 17.639 27.4388C17.6315 27.4388 17.624 27.4464 17.624 27.4539L17.3976 28.314C17.2128 28.3744 16.5376 28.5667 16.5376 28.5705C16.53 28.5705 16.5225 28.5781 16.5225 28.5856C16.5225 28.5931 16.5225 28.6007 16.53 28.6045C16.53 28.6045 17.1298 28.9515 17.2995 29.042C17.2995 29.1552 17.3109 29.8832 17.3109 29.8832C17.3109 29.8908 17.3184 29.8946 17.3222 29.9021C17.3222 29.9021 17.3259 29.9021 17.3297 29.9021C17.3335 29.9021 17.3373 29.9021 17.341 29.8983L17.9974 29.3815L18.8235 29.7286C18.8235 29.7286 18.8386 29.7286 18.8424 29.7286C18.8499 29.721 18.8499 29.7135 18.8461 29.7059C18.8461 29.7059 18.5746 29.042 18.5067 28.8572L19.0461 28.1367C19.0461 28.1367 19.0536 28.1254 19.0461 28.1178" fill="#000100"/>
<path d="M18.3184 28.6562L18.4693 28.4562C18.4693 28.4562 18.4693 28.4487 18.4693 28.4449C18.4693 28.4411 18.4693 28.4374 18.4693 28.4374C18.4655 28.4298 18.458 28.4261 18.4542 28.4261L18.0317 28.4374L17.9035 28.2676L17.7714 28.0979C17.7714 28.0979 17.7601 28.0903 17.7526 28.0903C17.745 28.0903 17.7413 28.0979 17.7375 28.1054L17.6281 28.5317L17.4319 28.5958L17.2358 28.6599C17.2358 28.6599 17.2207 28.6713 17.2207 28.6788C17.2207 28.6863 17.2207 28.6939 17.232 28.6977L17.5791 28.8863V29.3352C17.5791 29.3352 17.5791 29.3465 17.5866 29.3503H17.5941C17.5941 29.3503 17.6017 29.3503 17.6055 29.3503L17.8243 29.1767L17.9563 29.0711L18.2203 29.1843L18.3184 29.2258C18.3184 29.2258 18.3335 29.2258 18.3373 29.2258C18.3373 29.2258 18.3448 29.2107 18.3411 29.2031L18.2581 28.9843L18.1939 28.8184L18.3109 28.6675L18.3184 28.6562Z" fill="white"/>
<path d="M16.4551 16.6607L15.6516 16.2457L15.5837 15.3404C15.5837 15.3404 15.58 15.3253 15.5724 15.3215C15.5649 15.3215 15.5573 15.3215 15.5498 15.3291C15.5498 15.3291 15.0933 15.8346 14.9651 15.9892L14.1503 15.8044C14.1503 15.8044 14.139 15.8044 14.1352 15.8119C14.1277 15.8195 14.1277 15.827 14.1314 15.8308C14.1314 15.8308 14.3955 16.4192 14.4822 16.5965C14.3691 16.7512 13.9881 17.3208 13.9881 17.3208C13.9805 17.3284 13.9805 17.3359 13.9881 17.3434C13.9881 17.351 13.9994 17.351 14.0069 17.351C14.0069 17.351 14.6897 17.234 14.8859 17.2076L15.4517 17.8791C15.4517 17.8791 15.4593 17.8866 15.4668 17.8866C15.4668 17.8866 15.4819 17.8791 15.4819 17.8716C15.4819 17.8716 15.595 17.2076 15.6328 17.0228C15.8176 16.9436 16.4513 16.6984 16.4551 16.6946C16.4627 16.6946 16.4664 16.6871 16.4664 16.6758C16.4664 16.6682 16.4664 16.6607 16.4551 16.6569" fill="#000100"/>
<path d="M22.6527 13.1604C22.6527 13.1604 22.6452 13.1491 22.6338 13.1491C22.6338 13.1491 21.9398 13.1038 21.7474 13.0925C21.6644 12.9152 21.3702 12.3456 21.3702 12.3456V12.3381C21.3702 12.3381 21.3551 12.3305 21.3475 12.3343C21.3437 12.3343 21.3362 12.3381 21.3362 12.3456C21.3362 12.3456 21.0457 12.919 20.9627 13.0963C20.7704 13.1038 20.08 13.1491 20.08 13.1491C20.0725 13.1491 20.065 13.1567 20.065 13.1642C20.0612 13.1717 20.065 13.1793 20.0725 13.1868C20.0725 13.1868 20.5968 13.6584 20.7364 13.7942L20.5629 14.6693C20.5629 14.6693 20.5629 14.6844 20.5704 14.6882C20.5742 14.6882 20.578 14.6882 20.5818 14.6882C20.5855 14.6882 20.5893 14.6882 20.5931 14.6882C20.5931 14.6882 21.1853 14.3487 21.3551 14.2657C21.5286 14.3487 22.117 14.6882 22.117 14.6882C22.1246 14.6882 22.1321 14.6882 22.1359 14.6882C22.1435 14.6844 22.1472 14.6769 22.1435 14.6693L21.9699 13.7942C22.1095 13.6584 22.6376 13.1868 22.6376 13.1831C22.6452 13.1793 22.6452 13.1717 22.6452 13.1642" fill="#000100"/>
<path d="M21.9847 13.3904C21.9847 13.3904 21.9771 13.3791 21.9658 13.3791L21.5697 13.3602L21.3773 12.9528C21.3773 12.9528 21.3698 12.9377 21.3585 12.9377C21.3509 12.9377 21.3434 12.9415 21.3396 12.9528L21.1472 13.3602L20.7511 13.3791C20.7511 13.3791 20.7361 13.3829 20.7361 13.3904C20.7323 13.398 20.7361 13.4055 20.7361 13.4093L21.034 13.696L20.9511 14.1298C20.9511 14.1298 20.9511 14.1449 20.9586 14.1486C20.9662 14.1524 20.9699 14.1524 20.9775 14.1486L21.3585 13.9525L21.7395 14.1486C21.7395 14.1486 21.747 14.1486 21.7508 14.1486C21.7508 14.1486 21.7583 14.1486 21.7621 14.1449C21.7696 14.1411 21.7734 14.1335 21.7696 14.126L21.6829 13.6922L21.9809 13.4055C21.9809 13.4055 21.9884 13.3904 21.9847 13.3866" fill="white"/>
<path d="M28.737 17.3247C28.737 17.3247 28.3522 16.7513 28.2391 16.5967C28.3258 16.4194 28.5899 15.8309 28.5899 15.8309C28.5937 15.8271 28.5899 15.8158 28.5899 15.812C28.5823 15.8045 28.5786 15.8045 28.571 15.8045L27.7562 15.9893C27.628 15.8347 27.1678 15.3254 27.1678 15.3254C27.1678 15.3179 27.1565 15.3179 27.1489 15.3179C27.1414 15.3216 27.1376 15.3292 27.1376 15.3367L27.0697 16.2421L26.2662 16.657C26.2662 16.657 26.2549 16.6683 26.2549 16.6759C26.2549 16.6834 26.2549 16.691 26.27 16.691C26.27 16.691 26.9075 16.9399 27.0886 17.0191C27.13 17.204 27.2394 17.8679 27.2394 17.8679C27.2394 17.8754 27.247 17.883 27.2545 17.883C27.2545 17.883 27.2558 17.883 27.2583 17.883C27.2583 17.883 27.2696 17.883 27.2734 17.8754L27.843 17.2002C28.0354 17.2228 28.7181 17.3436 28.7181 17.3436C28.7295 17.3436 28.737 17.3436 28.737 17.3322C28.7446 17.3285 28.7446 17.3171 28.737 17.3134" fill="#000100"/>
<path d="M28.1525 16.9409L27.9148 16.624L28.1147 16.2204C28.1147 16.2204 28.1185 16.2053 28.1147 16.2016C28.1072 16.194 28.0996 16.194 28.0959 16.194L27.647 16.2959L27.3905 15.9941C27.3905 15.9941 27.3754 15.9865 27.3678 15.9903C27.3603 15.9903 27.3565 15.9979 27.3565 16.0054L27.3263 16.4203L26.9303 16.624C26.9303 16.624 26.9189 16.6354 26.9189 16.6429C26.9189 16.6505 26.9265 16.658 26.9303 16.658L27.3188 16.8315L27.4056 17.2578C27.4056 17.2578 27.4093 17.2691 27.4169 17.2729H27.4244C27.4244 17.2729 27.4357 17.2729 27.4395 17.2653L27.7224 16.9296L28.1374 16.9786C28.1374 16.9786 28.1487 16.9786 28.1562 16.9711C28.16 16.9635 28.16 16.956 28.1562 16.9485" fill="white"/>
<path d="M15.7873 16.6191L15.3913 16.4154L15.3611 16.0004C15.3611 16.0004 15.3535 15.9853 15.346 15.9853C15.3385 15.9816 15.3309 15.9853 15.3271 15.9891L15.0706 16.2909L14.6217 16.189C14.6217 16.189 14.6104 16.189 14.6029 16.1966C14.5991 16.2041 14.5991 16.2117 14.6029 16.2192L14.8028 16.6228L14.5652 16.9397C14.5652 16.9397 14.5614 16.9548 14.5652 16.9623C14.5727 16.9699 14.5765 16.9736 14.5878 16.9736L14.999 16.9208L15.2819 17.2566C15.2819 17.2566 15.2932 17.2641 15.297 17.2641H15.3045C15.3045 17.2641 15.3158 17.2566 15.3196 17.249L15.4026 16.8228L15.7911 16.6492C15.7911 16.6492 15.8024 16.6417 15.8024 16.6341C15.8024 16.6266 15.7987 16.6191 15.7911 16.6153" fill="white"/>
<path d="M14.844 23.9035C14.844 23.9035 14.3989 23.4018 14.2706 23.2547C14.3196 23.0623 14.5083 22.4172 14.5083 22.4172C14.5083 22.4097 14.5082 22.4021 14.5007 22.3984C14.4969 22.3946 14.4856 22.3946 14.4818 22.3984L13.6708 22.7567C13.5086 22.6511 12.9428 22.2475 12.9428 22.2475C12.939 22.2399 12.9277 22.2399 12.9202 22.2475C12.9164 22.2513 12.9126 22.2588 12.9126 22.2663C12.9126 22.2663 13.0069 22.9416 13.0446 23.1377L12.3845 23.6621C12.3845 23.6621 12.377 23.6734 12.377 23.6809C12.377 23.6885 12.3845 23.696 12.392 23.696C12.392 23.696 13.022 23.8507 13.2144 23.8922C13.2634 24.0808 13.4709 24.7334 13.4709 24.7334C13.4709 24.7409 13.4784 24.7485 13.4898 24.7485C13.4898 24.7485 13.5048 24.7447 13.5086 24.7371C13.5086 24.7371 13.8443 24.1298 13.9462 23.9676L14.8327 23.9412C14.8327 23.9412 14.8478 23.9374 14.8478 23.9299C14.8515 23.9223 14.8478 23.9148 14.8478 23.911" fill="#000100"/>
<path d="M14.2479 23.6464L13.9688 23.3183L14.0782 22.9033C14.0782 22.9033 14.0782 22.8882 14.0706 22.8845C14.0669 22.8807 14.0593 22.8769 14.0518 22.8845L13.6482 23.0617L13.2973 22.8354C13.2973 22.8354 13.2822 22.8316 13.2747 22.8354C13.2672 22.8392 13.2634 22.8467 13.2672 22.8543L13.3464 23.239L12.988 23.522C12.988 23.522 12.9805 23.537 12.9805 23.5408C12.9805 23.5484 12.988 23.5521 12.9956 23.5559L13.4369 23.654L13.5312 24.0388C13.5312 24.0388 13.5425 24.0538 13.5463 24.0538C13.5463 24.0538 13.5576 24.0501 13.5614 24.0463L13.7802 23.6917L14.2253 23.6804C14.2253 23.6804 14.2366 23.6766 14.2366 23.6691C14.2404 23.6615 14.2404 23.654 14.2366 23.6502" fill="white"/>
<path d="M30.3331 23.6557L29.6729 23.1314C29.7106 22.939 29.8049 22.26 29.8049 22.26C29.8049 22.2524 29.8049 22.2449 29.7974 22.2411C29.7899 22.2373 29.7823 22.2373 29.7748 22.2411C29.7748 22.2411 29.2127 22.6447 29.0505 22.7504L28.2395 22.392C28.2395 22.392 28.2282 22.392 28.2206 22.392C28.2131 22.3958 28.2093 22.4033 28.2131 22.4109C28.2131 22.4109 28.4017 23.0559 28.4507 23.2483C28.3225 23.3992 27.8773 23.9009 27.8773 23.9009C27.8698 23.9084 27.8698 23.916 27.8736 23.9197C27.8773 23.9273 27.8811 23.9311 27.8924 23.9311L28.7789 23.9575C28.8807 24.1197 29.2165 24.727 29.2165 24.727C29.2165 24.7345 29.2278 24.7383 29.2353 24.7383C29.2353 24.7383 29.2467 24.7308 29.2504 24.7232C29.2504 24.7232 29.4541 24.0706 29.5069 23.882C29.6993 23.8405 30.3293 23.6821 30.3293 23.6821C30.3368 23.6821 30.3406 23.6746 30.3406 23.667C30.3406 23.6595 30.3406 23.6519 30.3331 23.6481" fill="#000100"/>
<path d="M29.7296 23.5223L29.3712 23.2394L29.4504 22.8546C29.4504 22.8546 29.4504 22.8357 29.4429 22.8357C29.4354 22.8282 29.424 22.8282 29.4165 22.8357L29.0657 23.0621L28.6621 22.8848C28.6621 22.8848 28.647 22.8848 28.6432 22.8848C28.6394 22.8885 28.6356 22.8961 28.6394 22.9036L28.7488 23.3186L28.4697 23.6468C28.4697 23.6468 28.4621 23.6581 28.4659 23.6656C28.4697 23.6732 28.4772 23.6769 28.4848 23.6769L28.9261 23.6883L29.1411 24.0428C29.1411 24.0428 29.1524 24.0504 29.1562 24.0504H29.16C29.16 24.0504 29.1751 24.0428 29.1751 24.0353L29.2731 23.6505L29.7183 23.5525C29.7183 23.5525 29.7334 23.5449 29.7334 23.5374C29.7334 23.5298 29.7334 23.5223 29.7258 23.5185" fill="white"/>
<path d="M32.671 51.1757C32.7804 51.5039 32.5541 51.8736 32.158 51.9943C31.8185 52.0961 31.4752 51.9754 31.3281 51.7264C31.4375 51.866 31.645 51.9301 31.8525 51.8698C32.1127 51.7943 32.275 51.5454 32.2033 51.3228C32.1014 50.9909 31.9958 50.6589 31.894 50.3232C31.8562 50.2062 31.7393 50.1497 31.6073 50.1912C31.777 49.9233 31.9354 49.6555 32.0901 49.3801C32.2825 49.9761 32.4787 50.5721 32.671 51.1719V51.1757Z" fill="white"/>
<path d="M18.9925 53.4715C19.1245 53.4829 19.2415 53.3999 19.249 53.2792C19.2566 53.166 19.1509 53.0641 19.0227 53.0528C18.8869 53.0453 18.7699 53.132 18.7586 53.2414C18.7473 53.3584 18.8567 53.4564 18.9925 53.4678V53.4715Z" fill="white"/>
<path d="M12.5155 48.9616C12.391 48.9277 12.2665 48.9918 12.2364 49.0974C12.2062 49.2106 12.2779 49.3275 12.4023 49.3615C12.5193 49.3954 12.6438 49.3351 12.6777 49.2219C12.7079 49.1125 12.6325 48.9956 12.5155 48.9616Z" fill="white"/>
<path d="M28.4877 49.7344C28.3633 49.7608 28.2803 49.874 28.3067 49.9909C28.3293 50.1003 28.45 50.1757 28.5783 50.1493C28.699 50.1229 28.7782 50.006 28.7556 49.8966C28.7292 49.7834 28.6084 49.7118 28.4877 49.7344Z" fill="white"/>
<path d="M19.9771 53.529C20.1167 53.5366 20.2261 53.4498 20.2299 53.3329C20.2336 53.2197 20.1318 53.1216 19.996 53.1141C19.8602 53.1065 19.7508 53.1971 19.7433 53.3102C19.7395 53.4272 19.8413 53.5215 19.9771 53.5253V53.529Z" fill="white"/>
<path d="M18.4009 53.4268C18.5329 53.4382 18.6536 53.3589 18.6612 53.2382C18.6687 53.1251 18.5669 53.0232 18.4348 53.0119C18.299 53.0006 18.1783 53.0836 18.1708 53.1967C18.1595 53.3137 18.2613 53.4155 18.4009 53.4268Z" fill="white"/>
<path d="M13.0369 49.1007C12.9162 49.0705 12.7917 49.1347 12.7615 49.2441C12.7313 49.3572 12.8068 49.4704 12.9313 49.5043C13.052 49.5383 13.1727 49.4742 13.2029 49.361C13.2293 49.2516 13.1538 49.1347 13.0369 49.1007Z" fill="white"/>
<path d="M29.0192 49.618C28.8947 49.6444 28.8193 49.7576 28.8419 49.8745C28.8645 49.9839 28.9815 50.0556 29.1097 50.0254C29.2304 49.999 29.3134 49.8821 29.287 49.7727C29.2568 49.6595 29.1361 49.5878 29.0192 49.618Z" fill="white"/>
<path d="M37.6196 48.9157C37.5555 48.7912 37.4952 48.663 37.431 48.5385C36.9293 47.5426 36.4276 46.5468 35.9297 45.5509C36.2126 45.6263 36.5031 45.698 36.7935 45.7659C36.6502 45.8829 36.669 46.0187 36.7256 46.1318C37.167 46.9843 37.6121 47.8369 38.0534 48.6894C37.9063 48.7648 37.763 48.8403 37.6159 48.9157H37.6196Z" fill="white"/>
<path d="M25.8092 52.4722C25.6621 51.2236 25.5112 49.9825 25.3604 48.7377C25.598 48.9036 25.8432 49.0696 26.0846 49.2318C25.9186 49.296 25.8885 49.428 25.9073 49.5525C26.0356 50.5068 26.1638 51.4574 26.2921 52.4118C26.1337 52.4344 25.9715 52.4533 25.8092 52.4722Z" fill="white"/>
<path d="M15.9071 52.2801C16.1033 51.039 16.3032 49.8055 16.4993 48.5645C16.6842 48.7908 16.869 49.0171 17.0614 49.2397C16.8803 49.2548 16.8124 49.3755 16.7973 49.5C16.6578 50.4506 16.5182 51.4012 16.3786 52.3518C16.2202 52.3291 16.058 52.3065 15.9033 52.2801H15.9071Z" fill="white"/>
<path d="M31.2255 51.3937C31.1878 51.2579 31.1501 51.1221 31.1124 50.99C30.8144 49.9187 30.5088 48.8474 30.207 47.7723C30.4711 47.9006 30.7351 48.0288 31.0067 48.1496C30.8483 48.2401 30.837 48.3721 30.8747 48.4966C31.1463 49.417 31.4217 50.3412 31.6933 51.2616C31.5386 51.3069 31.384 51.3522 31.2293 51.3937H31.2255Z" fill="white"/>
<path d="M30.7465 51.5228C30.5692 50.8513 30.3882 50.1799 30.2109 49.5046C30.0374 49.7536 29.8638 49.995 29.6865 50.2402C29.8751 50.2364 29.9506 50.3458 29.9808 50.4628C30.0449 50.7231 30.1128 50.9796 30.1769 51.2399C29.4828 51.4134 28.785 51.568 28.0796 51.7001C27.9815 51.7189 27.891 51.734 27.7966 51.7529C27.6495 51.6661 27.5062 51.5756 27.3666 51.4888C27.6948 51.1531 27.8985 50.5646 27.774 50.0629C27.6948 50.757 27.3817 51.2436 26.6084 51.5265C26.9592 51.7567 27.3176 51.983 27.6835 52.198C27.8419 52.1716 28.0004 52.1414 28.1588 52.1112C29.0264 51.9453 29.894 51.7491 30.7503 51.519L30.7465 51.5228Z" fill="white"/>
<path d="M34.1754 48.9459C34.4734 49.0516 34.7714 49.1572 35.0732 49.259C35.1712 49.4929 35.2656 49.723 35.3636 49.9531C35.1373 50.0474 34.911 50.1417 34.6809 50.2285C34.628 50.1002 34.579 49.9682 34.5262 49.84C34.6016 49.8098 34.6771 49.7796 34.7563 49.7494C34.7337 49.7004 34.7148 49.6476 34.6922 49.5948C34.5903 49.5646 34.4922 49.5269 34.3866 49.4929C34.3187 49.3119 34.2433 49.1308 34.1716 48.9459H34.1754ZM33.0701 50.8245C33.0249 50.6925 32.9796 50.5605 32.9343 50.4247C32.576 49.3722 32.2138 48.316 31.8555 47.2598C32.1233 47.3729 32.4024 47.4861 32.674 47.5917C32.5232 47.6936 32.5194 47.8256 32.5571 47.9463C32.8325 48.7196 33.1079 49.4967 33.3832 50.2662C33.5379 50.2096 33.6925 50.1531 33.8472 50.1002C33.8095 49.9946 33.768 49.8928 33.7303 49.7872C33.8849 49.508 34.0283 49.2289 34.1754 48.9459C34.2471 49.127 34.3187 49.3119 34.3904 49.4929C34.3414 49.5872 34.2923 49.6778 34.2433 49.7721C34.2659 49.8249 34.2848 49.8777 34.3036 49.9267C34.3753 49.9003 34.4508 49.8701 34.5262 49.84C34.5752 49.972 34.628 50.1002 34.6809 50.2285C34.2961 50.3832 33.9151 50.5265 33.5303 50.6623C33.4926 50.6774 33.4587 50.6887 33.4172 50.7C33.3002 50.7415 33.1833 50.783 33.0701 50.8207V50.8245Z" fill="white"/>
<path d="M23.1794 50.5973C23.3491 50.6086 23.5755 50.7633 23.6547 50.9028C23.8358 50.8915 24.0206 50.8802 24.2017 50.8651C23.9942 51.3291 23.7754 51.7893 23.5453 52.2495C23.964 52.2269 24.3865 52.1929 24.809 52.1552C24.7335 51.3366 24.6581 50.5218 24.5827 49.7033C24.5713 49.5788 24.5185 49.4581 24.3412 49.4317C24.5449 49.2166 24.7411 49.0016 24.9335 48.7828C25.0693 50.0352 25.2013 51.28 25.3333 52.5286C25.1937 52.5437 25.058 52.5551 24.9184 52.5701C24.8958 52.5701 24.8769 52.5739 24.8543 52.5739C24.3299 52.623 23.8093 52.6607 23.285 52.6833C23.2661 52.4042 23.2548 52.1288 23.2435 51.8459C23.3303 51.6761 23.417 51.5026 23.5 51.3291C23.4548 51.3329 23.4057 51.3366 23.3605 51.3366C23.3454 51.2159 23.2926 51.1556 23.2058 51.0914C23.1983 50.9255 23.1907 50.7595 23.1832 50.5935L23.1794 50.5973ZM21.7459 52.9323C21.7497 53.2793 21.4291 53.5622 21.0217 53.5585C20.6671 53.5509 20.3766 53.3321 20.3125 53.053C20.3766 53.219 20.5539 53.3434 20.7689 53.3472C21.0405 53.3548 21.2593 53.1624 21.2631 52.9323C21.2631 52.5852 21.2669 52.2344 21.2706 51.8874C21.2706 51.7591 21.1801 51.6724 21.0405 51.6724C21.2782 51.4649 21.5121 51.2574 21.7384 51.0462C21.7422 51.4649 21.7459 51.8836 21.7459 52.3023C22.1571 52.3023 22.5683 52.291 22.9795 52.2759C22.7079 51.8421 22.4476 51.4008 22.1948 50.9632C22.3759 50.9594 22.5607 50.9556 22.7418 50.9481C22.8022 50.801 23.0172 50.6237 23.1832 50.5973C23.1907 50.7633 23.1983 50.9292 23.2058 51.0952C23.1304 51.1669 23.0889 51.231 23.0851 51.3555C23.036 51.3555 22.9908 51.3555 22.9417 51.363C23.0398 51.5252 23.1379 51.6874 23.2397 51.8496C23.2548 52.1288 23.2624 52.4079 23.2812 52.6871C22.7682 52.7097 22.2552 52.7248 21.7422 52.7286V52.936L21.7459 52.9323Z" fill="white"/>
<path d="M13.7646 51.8693C14.1607 51.956 14.5567 52.039 14.9528 52.1145C14.9679 52.1183 14.9868 52.122 15.0056 52.1258C15.1452 52.1522 15.2885 52.1786 15.4281 52.2012C15.4281 52.2012 15.4319 52.2012 15.4357 52.2012C15.6507 50.964 15.8619 49.7304 16.0732 48.4931C15.828 48.6516 15.5752 48.8025 15.3225 48.9496C15.4922 49.025 15.5111 49.1571 15.4885 49.2815C15.3376 50.0888 15.1867 50.8923 15.0358 51.7033C14.8774 51.6731 14.7189 51.643 14.5643 51.609C14.5869 51.4996 14.6095 51.3902 14.6322 51.2808C14.4398 51.0281 14.2512 50.7753 14.0701 50.5188C14.0286 50.7112 13.9834 50.8998 13.9419 51.0922C14.006 51.179 14.0701 51.262 14.1305 51.3487C14.1192 51.4015 14.1078 51.4581 14.0965 51.5109C14.0173 51.4958 13.9381 51.477 13.8589 51.4581C13.8287 51.5939 13.7947 51.7335 13.7646 51.8693ZM10.7128 50.6056C10.7317 50.5528 10.7468 50.5 10.7657 50.4472C10.875 50.1001 10.6449 49.704 10.2526 49.572C10.2225 49.5607 10.196 49.5494 10.1659 49.5418C9.29449 49.2363 8.42688 48.8968 7.57813 48.5158C7.63472 48.3875 7.69507 48.2593 7.74788 48.131C7.79692 48.0179 7.91763 47.9839 8.04211 48.0367C7.91008 47.75 7.7856 47.4671 7.66489 47.1804C7.43101 47.6859 7.19714 48.1914 6.96704 48.6969C8.00062 49.1721 9.05306 49.5946 10.1168 49.9643C10.2677 50.0171 10.3507 50.1642 10.3092 50.2925C10.2904 50.3453 10.2715 50.3981 10.2564 50.4509C10.2074 50.5943 10.1583 50.7414 10.1093 50.8885C10.0112 50.9262 9.91691 50.9677 9.81883 51.0054C9.76225 50.9111 9.70944 50.8168 9.65285 50.7188C9.70189 50.5754 9.7547 50.4321 9.80374 50.2925C9.69057 50.251 9.57741 50.2133 9.46424 50.1718C9.42275 50.1567 9.38502 50.1454 9.34353 50.1265C8.48346 49.8097 7.63094 49.4588 6.79351 49.0741C6.73692 49.2023 6.67657 49.3268 6.61621 49.4588C7.46496 49.8474 8.3288 50.2057 9.19641 50.5264C9.17377 50.5905 9.14737 50.6546 9.12473 50.7225C9.28694 51.0054 9.45292 51.2884 9.62267 51.5675C9.92445 51.4543 10.2225 51.3336 10.5205 51.2129C10.5431 51.145 10.562 51.0771 10.5884 51.0054C10.9241 51.1148 11.2598 51.2167 11.5993 51.3148C11.6634 51.4128 11.7464 51.4921 11.8521 51.5675C11.8068 51.4958 11.7653 51.4242 11.7351 51.3563C12.0143 51.4355 12.2972 51.5147 12.5801 51.5864C12.9762 51.6882 13.3685 51.7863 13.7683 51.8731C13.7985 51.7373 13.8325 51.5977 13.8626 51.4619C13.7834 51.4468 13.708 51.4279 13.6325 51.4091C13.6439 51.3563 13.6589 51.3035 13.6703 51.2469C13.7608 51.1978 13.8551 51.145 13.9456 51.096C13.9871 50.9074 14.0324 50.715 14.0739 50.5226C13.7985 50.6773 13.5231 50.8244 13.2402 50.9715C13.2138 51.0809 13.1874 51.1865 13.161 51.2959C13.0026 51.2582 12.8441 51.2167 12.6895 51.1752C12.8064 50.7188 12.9271 50.2585 13.0441 49.7983C12.7725 49.9304 12.4971 50.0586 12.218 50.1831C12.3877 50.2699 12.399 50.4057 12.3651 50.5264C12.3198 50.7037 12.267 50.8772 12.2217 51.0545C12.1538 51.0356 12.0859 51.0168 12.018 50.9979C11.886 50.9602 11.7577 50.9262 11.6295 50.8885C11.6257 50.7225 11.6521 50.5566 11.6861 50.3906C11.7917 49.8813 11.9313 49.2929 11.2862 48.6025C11.1014 48.6893 10.909 48.7761 10.7204 48.8628C11.1768 48.9986 11.3579 49.4249 11.4296 49.7568C11.4975 50.1642 11.2711 50.4736 11.3881 50.8168C11.1655 50.7489 10.9429 50.681 10.7166 50.6131V50.6094L10.7128 50.6056Z" fill="white"/>
<path d="M17.8644 52.1183C17.9436 52.1258 18.0228 52.1372 18.102 52.1409C18.1209 51.9636 18.136 51.7863 18.1548 51.609C18.0832 51.6392 17.9964 51.6619 17.9097 51.6694C17.9247 51.5147 17.9436 51.3601 17.9587 51.2016C18.0719 51.1601 18.2077 51.0696 18.2265 50.8848C18.2642 50.4849 18.3057 50.0851 18.3435 49.6852C18.3548 49.5607 18.3246 49.4287 18.1548 49.3721C18.3925 49.1986 18.6264 49.0251 18.8603 48.8478C18.766 49.9644 18.6717 51.0734 18.5773 52.1824C18.8301 52.2051 19.0866 52.2239 19.3431 52.239C19.3544 52.0579 19.3657 51.8731 19.3771 51.692C19.3846 51.5675 19.3431 51.4393 19.1583 51.3865C19.4072 51.2054 19.6449 51.0244 19.8863 50.8395C19.8599 51.3148 19.841 51.7863 19.8146 52.2654C19.9731 52.273 20.1353 52.2805 20.2937 52.2843C20.3012 52.1032 20.3088 51.9184 20.3163 51.7373C20.3163 51.609 20.2786 51.4808 20.0938 51.4355C20.3352 51.2507 20.5691 51.0621 20.8067 50.8697C20.7916 51.4846 20.7765 52.0957 20.7652 52.7143C20.0523 52.6992 19.3393 52.6615 18.6302 52.6049C18.3586 52.5823 18.0907 52.5559 17.8191 52.5295C17.8342 52.3937 17.8493 52.2541 17.8606 52.1183H17.8644ZM17.8757 51.6769C17.7588 51.6845 17.6645 51.7675 17.6531 51.8731C17.6456 51.9448 17.6343 52.0164 17.623 52.0919C17.7022 52.0994 17.7852 52.1107 17.8644 52.1183C17.8493 52.2541 17.8342 52.3937 17.8229 52.5295C17.7701 52.5257 17.7173 52.5181 17.6682 52.5144C17.4796 52.4955 17.2872 52.4691 17.0986 52.4465C17.125 52.2352 17.1514 52.024 17.1778 51.8165C17.2193 51.511 17.4947 51.2884 17.8191 51.262C17.8267 51.2507 17.887 51.2394 17.9625 51.2054C17.9474 51.3638 17.9285 51.5185 17.9134 51.6732C17.9021 51.6732 17.8908 51.6732 17.8757 51.6807V51.6769Z" fill="white"/>
<path d="M5.67674 48.542C5.74842 48.5797 5.82386 48.6174 5.8993 48.6514C5.97852 48.493 6.05774 48.3345 6.13695 48.1761C6.05397 48.1761 5.9672 48.1685 5.87667 48.1459C5.94834 48.0026 6.01624 47.8668 6.08791 47.7234C6.20862 47.7234 6.37461 47.6895 6.4576 47.5235C6.63489 47.1651 6.81219 46.803 6.98948 46.4446C7.04606 46.3315 7.06491 46.1994 6.92157 46.0825C7.21203 46.0071 7.49872 45.9316 7.78164 45.8486C7.23844 46.9841 6.69901 48.112 6.15959 49.2474C5.93325 49.1418 5.71069 49.0286 5.48813 48.9192C5.55226 48.791 5.61262 48.6665 5.67674 48.542ZM5.83895 48.1384C5.72201 48.1044 5.6013 48.1459 5.55227 48.2364C5.51832 48.2968 5.48813 48.3609 5.45418 48.4251C5.52586 48.4665 5.6013 48.5043 5.67297 48.542C5.60884 48.6665 5.54471 48.791 5.48436 48.9192C5.2618 48.8061 5.04301 48.6929 4.82422 48.5759C4.91852 48.3836 5.02415 48.1987 5.12223 48.0101C5.26557 47.7385 5.60885 47.6291 5.92949 47.7272C5.93703 47.7159 6.00493 47.7272 6.08791 47.7272C6.01624 47.8668 5.94834 48.0063 5.87667 48.1497C5.86535 48.1497 5.85781 48.1421 5.83895 48.1384Z" fill="white"/>
<path d="M17.9815 48.9711C17.9929 48.858 17.9099 48.7523 17.7892 48.741C17.676 48.7259 17.5666 48.8089 17.5515 48.9221C17.5364 49.039 17.6232 49.1409 17.7401 49.156C17.8608 49.1711 17.9664 49.0918 17.9778 48.9749L17.9815 48.9711Z" fill="white"/>
<path d="M17.9247 49.4723C17.9323 49.3591 17.853 49.2572 17.7323 49.2384C17.6154 49.2271 17.506 49.3063 17.4909 49.4194C17.4758 49.5326 17.5663 49.642 17.6833 49.6533C17.8078 49.6684 17.9096 49.5854 17.9285 49.4685L17.9247 49.4723Z" fill="white"/>
<path d="M6.25416 45.875C6.19758 45.9768 6.24661 46.1088 6.356 46.1692C6.46917 46.2296 6.6012 46.1881 6.65401 46.0824C6.70305 45.9806 6.66156 45.8523 6.54839 45.7957C6.44277 45.7392 6.3032 45.7769 6.25416 45.875Z" fill="white"/>
<path d="M6.49146 45.4294C6.43488 45.5351 6.48391 45.6595 6.59331 45.7161C6.70648 45.7765 6.83473 45.735 6.88754 45.6331C6.94035 45.5313 6.89509 45.403 6.7857 45.3464C6.68007 45.2936 6.54428 45.3276 6.49524 45.4294H6.49146Z" fill="white"/>
<path d="M36.0584 47.9006C35.7529 47.2443 35.4435 46.5917 35.1342 45.9353C35.4435 46.0372 35.7529 46.1352 36.0697 46.2258C35.9264 46.3502 35.9 46.5011 35.949 46.6105C36.1527 47.0255 36.3526 47.4366 36.5563 47.8554C36.4922 48.0138 36.4243 48.1685 36.3602 48.3231C36.5224 48.3722 36.6846 48.4137 36.8506 48.4589C36.96 48.6853 37.0694 48.9116 37.1788 49.1379C36.9562 49.2473 36.7337 49.3529 36.5073 49.4548C36.4507 49.3265 36.3904 49.202 36.33 49.0738C36.4055 49.0398 36.4809 49.0021 36.5563 48.9682C36.5337 48.9191 36.5073 48.8701 36.4847 48.821C36.3791 48.7909 36.2772 48.7645 36.1754 48.7381C36.0924 48.5608 36.0094 48.3797 35.9302 48.2024C35.9754 48.1043 36.0169 48.01 36.0584 47.9082V47.9006ZM36.5073 49.451C36.2848 49.5529 36.0584 49.6547 35.8359 49.7528C35.734 49.5265 35.6322 49.2926 35.5303 49.0625C35.6057 48.9078 35.6774 48.7569 35.7453 48.6023C35.5831 48.5532 35.4247 48.5042 35.2663 48.4514C35.2549 48.425 35.2399 48.3986 35.2323 48.3722C35.0626 47.9761 34.8853 47.58 34.7155 47.1839C34.6665 47.0707 34.5307 46.9915 34.3496 47.0217C34.4854 46.7237 34.6137 46.4219 34.7381 46.1201C35.0362 46.7803 35.3342 47.4404 35.6322 48.1006C35.734 48.1345 35.8321 48.1647 35.9339 48.1949C36.0132 48.3722 36.0999 48.5495 36.1791 48.7305C36.1339 48.8286 36.0886 48.9229 36.0471 49.021C36.0697 49.07 36.0924 49.1228 36.115 49.1719C36.1867 49.1379 36.2621 49.104 36.3338 49.0738C36.3904 49.202 36.4507 49.3303 36.5111 49.4548L36.5073 49.451Z" fill="white"/>
<path d="M36.9782 49.9268C37.0725 49.9569 37.1705 49.9909 37.2686 50.0173C36.9668 50.1606 36.6688 50.3002 36.3633 50.4322C36.4048 50.3493 36.4463 50.2663 36.484 50.1833C36.5179 50.2172 36.5632 50.2172 36.6236 50.1795C36.45 50.0249 36.6575 49.7797 36.8801 49.8513C36.8574 49.8476 36.831 49.8513 36.8084 49.8664C36.7443 49.8966 36.7141 49.9569 36.7405 50.0135C36.7631 50.0663 36.831 50.0852 36.8989 50.055C36.9555 50.0286 36.9895 49.972 36.9744 49.9268H36.9782Z" fill="white"/>
<path d="M57.1794 15.4224L58.3866 16.0335C58.6204 15.8562 58.9147 15.5318 59.2579 15.1055L58.0508 14.4265L57.2888 15.0338C57.1606 15.0338 56.7984 14.8264 56.2213 14.4265L55.3311 15.3545C55.4819 15.5054 56.3307 16.0033 56.5382 16.0033C56.7984 15.7694 57.021 15.577 57.1757 15.4186L57.1794 15.4224Z" fill="#B68A35"/>
<path d="M57.5307 16.7452C57.3685 17.0395 57.1309 17.3526 56.9083 17.6242C56.2972 18.3748 55.2448 19.4914 55.4786 20.4043C55.7729 21.5586 57.9306 21.0833 58.5417 20.4156C58.9793 19.9328 59.3074 19.1708 59.1905 18.571C59.0358 17.7864 58.2286 17.3601 57.527 16.749L57.5307 16.7452ZM58.0362 19.5291C57.5534 19.7743 56.9347 19.9177 56.4707 19.5669C56.3651 19.4876 56.2934 19.3896 56.2633 19.2387C56.2897 19.1896 56.8857 18.2541 57.0931 18.2541C57.576 18.5672 57.8891 18.9784 58.172 19.4197C58.1569 19.4575 58.0928 19.4914 58.04 19.5254L58.0362 19.5291Z" fill="#B68A35"/>
<path d="M60.5145 21.021H63.6228C63.6228 21.021 63.6794 21.021 63.7435 20.938C63.8265 20.8437 63.9812 20.4929 64.0378 20.3986C64.0642 20.342 64.0944 20.2892 64.1321 20.2703L64.3433 20.8701C64.381 20.9795 64.4527 21.021 64.5093 21.021H67.9383C68.2174 21.021 68.4928 20.938 68.7455 20.7984C69.3943 20.3986 70.0394 19.844 70.8693 19.844L71.9481 19.8554L72.0877 21.021H79.4133L79.9415 20.0553C79.9792 20.6287 80.4431 21.021 80.9826 21.021H81.571V21.0361H83.1214C83.1667 21.0361 83.2044 21.0247 83.2497 21.0097C83.4722 20.8701 83.7891 20.8889 84.0381 20.9531C84.5209 21.0625 84.6756 21.3982 85.0377 21.7301C85.3433 21.4246 85.5092 20.606 85.5092 20.1534C85.4074 19.9874 85.2716 19.8365 85.1018 19.7535C84.7699 19.5875 84.5624 19.5083 84.3134 19.2631C84.1173 19.0745 84.1022 18.7916 84.0796 18.5124C84.0418 17.9919 83.9966 17.7467 83.9513 17.0715L85.0754 15.755C85.0377 15.7097 84.9359 15.6833 84.3587 15.3815C83.7212 14.9477 83.3402 14.91 83.3289 14.1216C82.9856 14.2046 82.4387 15.4494 82.2727 15.7927C82.4123 15.9322 82.5933 15.9587 82.6801 16.1435C82.9856 17.4336 83.1063 18.1503 83.1931 19.4819H81.903V19.4668H81.3485C81.2089 19.4668 81.0165 19.4404 80.8581 19.2178C80.6619 18.9462 80.7751 18.4747 80.8204 18.2069C80.9147 17.6637 80.9713 17.3242 80.8694 17.0337C80.843 17.0073 80.1301 17.7995 79.8924 18.2446C79.9037 18.4521 79.8811 18.7614 79.8547 19.0443C79.8396 19.2065 79.7943 19.4668 79.7264 19.4668H73.2005L73.574 18.271C71.9858 18.354 71.2465 17.8863 69.7602 17.2752C68.8587 16.913 68.3306 16.5245 67.4592 17.1846C67.0027 17.5354 66.7349 18.0183 66.5689 18.4747C66.5124 18.6143 66.5312 18.769 66.584 18.8067C66.6406 18.8519 66.7613 18.7237 66.9009 18.6105C67.0103 18.5162 67.1499 18.4106 67.2329 18.3842C67.429 18.3125 67.6893 18.1993 68.4852 18.4521C69.0624 18.6369 69.2246 18.7539 69.764 18.9576C69.4471 19.0858 68.6927 19.463 68.2627 19.463H65.5504C65.4222 19.463 65.2826 19.3914 65.2185 19.2254L64.1623 15.2193L63.3626 16.8866C63.5776 17.8712 63.819 18.52 63.9699 19.4668H61.4349C60.8503 19.4668 60.9898 18.9123 60.9898 18.3653C60.9898 18.2333 60.8691 18.105 60.7673 18.2823C60.6277 18.5502 59.877 20.4891 60.341 20.9493C60.3976 21.0059 60.4504 21.0172 60.5183 21.0172L60.5145 21.021Z" fill="#B68A35"/>
<path d="M79.3601 15.4224L80.5672 16.0335C80.8011 15.8562 81.0953 15.5318 81.4386 15.1055L80.2315 14.4265L79.4695 15.0338C79.3412 15.0338 78.9791 14.8264 78.402 14.4265L77.5117 15.3545C77.6626 15.5054 78.5113 16.0033 78.7188 16.0033C78.9791 15.7694 79.2017 15.577 79.3563 15.4186L79.3601 15.4224Z" fill="#B68A35"/>
<path d="M86.9275 21.0246C87.2179 20.6248 87.6329 19.5572 87.6518 18.7387C87.7008 17.2826 87.3839 16 87.2179 14.6647L86.2334 16.415L86.8445 21.0209C86.8558 21.1227 86.9011 21.0661 86.9275 21.0209V21.0246Z" fill="#B68A35"/>
<path d="M95.9164 21.0208H101.79L102.318 20.0551C102.356 20.6285 102.82 21.0208 103.359 21.0208H107.456C107.667 20.6209 107.806 20.2022 107.916 19.7986C108.195 18.7876 108.01 17.0901 107.139 16.3583C107.093 16.3583 107.029 16.4677 106.46 17.9087C106.792 18.3086 107.176 19.063 107.222 19.4704H103.725C103.585 19.4704 103.393 19.444 103.234 19.2214C103.038 18.9498 103.151 18.4783 103.197 18.2105C103.291 17.6673 103.348 17.3278 103.246 17.0373C103.219 17.0109 102.506 17.8031 102.269 18.2482C102.28 18.4557 102.257 18.765 102.231 19.0479C102.216 19.2101 102.171 19.4704 102.103 19.4704H95.3958C94.4339 19.4704 94.2226 16.9317 94.0567 16.2338C93.9359 15.6793 93.8228 15.1663 93.7134 14.8344C93.2947 15.9019 93.1589 16.0415 93.0306 16.264C93.057 16.5318 93.2041 16.6526 93.1475 16.8751C92.6911 17.1354 92.2309 17.4032 91.7594 17.6635C91.1935 17.9955 90.971 18.1652 90.6805 18.7763C90.5145 19.1498 90.3863 19.6251 90.209 20.0928C90.6088 20.1947 92.51 20.7756 93.0117 20.6096C93.4116 20.4814 93.6228 19.6213 93.8718 19.2856C94.1321 20.1305 94.2452 20.7982 95.1732 21.0208H95.9239H95.9164ZM91.782 18.7311C92.5063 18.3878 92.7552 18.2708 92.9174 17.9804C93.0457 17.7578 93.1249 17.6522 93.3286 17.4975L93.7021 18.8367C93.1475 19.0592 92.3667 18.7763 91.7858 18.7311H91.782Z" fill="#B68A35"/>
<path d="M91.3972 14.9658L92.6043 15.5769C92.8382 15.3996 93.1324 15.0752 93.4757 14.649L92.2686 13.97L91.5066 14.5773C91.3784 14.5773 91.0162 14.3698 90.4391 13.97L89.5488 14.8979C89.6997 15.0488 90.5485 15.5468 90.7559 15.5468C91.0162 15.3129 91.2388 15.1205 91.3934 14.9621L91.3972 14.9658Z" fill="#B68A35"/>
<path d="M101.812 22.5137C101.711 22.5137 101.394 22.3024 100.839 21.9479L100.077 22.8306C100.217 22.9701 100.967 23.4869 101.16 23.4869C101.409 23.2644 101.586 23.0267 101.711 22.8758L102.782 23.4982C102.989 23.3323 103.295 22.9852 103.555 22.5816L102.488 21.9026L101.809 22.5137H101.812Z" fill="#B68A35"/>
<path d="M105.754 21.816C105.603 21.8424 104.743 22.6497 104.743 22.7893C104.743 22.8987 105.562 23.6607 105.773 23.6607C105.913 23.6607 106.852 22.9817 106.852 22.7704C106.852 22.7025 106.286 22.148 105.758 21.816H105.754Z" fill="#B68A35"/>
<path d="M109.217 22.0542C108.644 22.3371 108.222 22.4314 107.588 22.3371C107.388 22.3032 107.192 22.2541 106.988 22.1825C106.675 22.0655 106.532 22.0768 106.569 22.1787C106.581 22.2013 106.618 22.239 106.675 22.2881C106.958 22.5031 107.32 22.6955 107.675 22.8728C108.124 23.0953 108.863 23.4046 109.38 23.4046C109.896 23.4046 110.304 23.1217 110.79 22.5861C111.258 22.0655 111.673 21.4733 111.937 20.7792C112.216 21.0734 112.782 21.0168 112.91 21.0168H115.555L116 20.3227L116.4 21.0168H121.722C122.024 20.4887 122.167 19.9116 122.311 19.3835L122.111 17.1088L123.152 15.7357C123.114 15.698 123.043 15.6678 122.518 15.3962C121.934 15.0115 121.511 14.7587 121.5 14.0458C121.187 14.1174 120.606 15.5245 120.455 15.8338C120.572 15.9545 120.738 16.0451 120.832 16.1997C120.987 17.2484 121.206 18.2933 121.304 19.3457C121.307 19.4174 121.194 19.4627 121.032 19.4627H117.343C117.316 19.4627 117.271 19.4476 117.26 19.4363C117.494 19.0741 117.909 18.448 117.716 18.0179C117.411 17.3691 116.4 16.9504 115.758 16.9768C115.193 17.0032 114.608 17.2559 114.235 17.7539C114.069 18.1537 113.929 18.5724 113.789 18.961C114.069 18.8516 114.152 18.8214 114.385 18.8516C114.646 18.878 115.234 19.1949 115.419 19.4627H112.718C111.941 19.4627 111.473 18.1009 111.096 17.7463C110.953 17.6068 111.002 17.6181 110.907 17.769L110.225 18.8516C110.145 18.9798 111.243 20.0134 111.119 20.3869C110.904 21.0357 109.979 21.643 109.214 22.0504L109.217 22.0542Z" fill="#B68A35"/>
<path d="M124.627 21.0246C124.917 20.6248 125.332 19.5572 125.351 18.7387C125.4 17.2826 125.083 16 124.917 14.6647L123.933 16.415L124.544 21.0209C124.555 21.1227 124.6 21.0661 124.627 21.0209V21.0246Z" fill="#B68A35"/>
<path d="M133.79 18.2181C134.122 18.618 134.344 19.0631 134.386 19.4705H129.674C129.154 19.4705 128.69 19.1084 128.773 18.5652C128.818 18.237 129.022 17.905 129.124 17.524C129.244 17.0525 129.052 16.9393 128.762 17.3467C128.316 17.9955 127.943 18.8141 127.928 19.6214C127.917 20.3834 128.539 21.0209 129.316 21.0209H134.624C134.831 20.621 134.967 20.2023 135.08 19.7987C135.359 18.7877 135.34 17.4033 134.469 16.6677C134.431 16.6677 134.36 16.7771 133.79 18.2181Z" fill="#B68A35"/>
<path d="M131.431 15.0903L132.638 15.7014C132.872 15.5242 133.167 15.1997 133.51 14.7735L132.303 14.0945L131.541 14.7018C131.413 14.7018 131.05 14.4943 130.473 14.0945L129.583 15.0224C129.734 15.1733 130.583 15.6713 130.79 15.6713C131.05 15.4374 131.273 15.245 131.428 15.0866L131.431 15.0903Z" fill="#B68A35"/>
<path d="M136.732 21.0246C137.023 20.6248 137.438 19.5572 137.456 18.7387C137.505 17.2826 137.189 16 137.023 14.6647L136.038 16.415L136.649 21.0209C136.66 21.1227 136.706 21.0661 136.732 21.0209V21.0246Z" fill="#B68A35"/>
<path d="M136.792 22.0811C136.486 21.9641 136.354 21.9641 136.392 22.0584C136.396 22.0811 136.437 22.1301 136.486 22.1754C136.826 22.4583 137.305 22.6884 137.758 22.8996C138.169 23.0882 138.614 23.3108 139.085 23.2769C139.531 23.2391 139.998 22.96 140.443 22.4696C141.409 21.4096 141.76 20.1535 141.439 18.8294C141.239 18.0108 140.738 17.479 140.157 17.0791L139.617 18.4861C140.236 18.9577 140.907 19.8102 140.885 20.1082C140.839 20.7683 139.663 21.4813 138.821 21.9717C138.282 22.2848 138.037 22.3263 137.403 22.232C137.192 22.198 136.992 22.1527 136.792 22.0811Z" fill="#B68A35"/>
<path d="M144.465 21.0203H152.53C152.658 21.0203 152.73 20.9599 152.79 20.8468L153.258 20.0131C153.273 19.9867 153.303 19.9754 153.337 19.9867L155.793 20.9034C156.125 20.6318 156.559 19.8132 156.559 19.4096C156.487 19.0814 156.363 18.2213 155.997 17.4141C155.797 16.9689 155.691 16.7087 155.129 16.8181C154.503 16.9576 153.413 17.9422 153.217 18.3533L152.685 19.4699H144.465C144.322 19.4699 144.175 19.4624 144.001 19.4435C143.975 19.4397 143.956 19.4209 143.952 19.3945L143.413 14.219L142.496 15.4789C142.662 17.3235 142.979 20.9713 143.002 21.0203H144.465ZM154.118 18.3647C154.48 18.1157 154.741 18.1647 155.012 18.5306C155.156 18.7268 155.258 18.9494 155.325 19.1531L153.858 18.6249C153.926 18.5306 154.02 18.4476 154.118 18.3647Z" fill="#B68A35"/>
<path d="M158.754 17.2563L159.022 17.0413C159.554 17.5807 160.052 18.0259 160.516 18.6294C160.203 18.9727 159.369 19.5121 158.803 19.6291L158.347 21.0172H162.194C162.194 20.5004 162.327 19.961 162.194 19.4518C162.104 19.0896 161.946 18.7615 161.689 18.2673C161.968 17.7731 162.134 17.577 162.277 16.7546C162.393 16.8024 162.475 16.8263 162.523 16.8263C162.84 16.5208 163.16 15.9587 163.16 15.4985C162.666 15.3438 162.142 15.0647 161.976 14.6271C161.896 14.4498 161.866 14.2084 161.919 14.1216C161.829 14.099 161.734 14.182 161.636 14.3178C161.368 14.6837 161.097 15.4532 161.134 15.6682C161.236 15.7701 161.323 15.8795 161.402 15.9738C161.482 16.6113 161.368 17.196 161.187 17.6637C160.633 17.079 158.479 14.3178 157.562 14.3178C157.423 14.7969 157.245 15.408 157.196 15.8908C157.245 16.4453 158.245 17.1847 158.754 17.2563ZM161.47 19.6479H160.263C160.486 19.4631 160.595 19.4027 160.987 19.0708C160.987 19.0708 161.432 19.5763 161.47 19.6479Z" fill="#B68A35"/>
<path d="M157.336 23.0306C157.253 23.14 157.23 23.2871 157.227 23.4041C157.528 23.1249 158.132 22.8533 158.649 22.8609L158.988 22.412C158.822 22.378 158.683 22.3667 158.377 22.412C158.075 22.4459 157.709 22.3328 157.638 22.1177C157.981 21.8046 158.487 21.9178 158.449 22.114C158.475 22.1102 158.92 21.8914 158.709 21.6123C158.641 21.5406 158.592 21.484 158.494 21.484C158.155 21.4878 157.815 21.5934 157.566 21.8348C157.46 21.9178 157.276 22.197 157.272 22.329C157.249 22.5553 157.6 22.6798 157.774 22.7402C157.623 22.7741 157.453 22.8948 157.34 23.0344L157.336 23.0306Z" fill="#B68A35"/>
<path d="M164.65 21.0246C164.941 20.6248 165.356 19.5572 165.374 18.7387C165.423 17.2826 165.107 16 164.941 14.6647L163.956 16.415L164.567 21.0209C164.578 21.1227 164.624 21.0661 164.65 21.0209V21.0246Z" fill="#B68A35"/>
<path d="M57.1571 30.3227C56.6064 30.6886 55.7803 32.1522 56.0292 32.2503C56.0858 32.2767 56.7196 31.8165 56.8176 31.7674C57.3571 31.4958 57.7569 31.8278 58.202 32.1862C56.6064 32.3597 55.6897 32.8237 55.3955 34.193C55.7124 35.5887 55.7841 36.3658 55.9463 37.7502C56.1009 37.4597 56.2367 37.2108 56.3084 36.9278C56.7082 35.5812 56.6215 35.2492 56.2933 33.9327C57.3986 33.3442 58.1756 33.5366 59.379 33.8007C59.4393 33.812 59.4846 33.812 59.5336 33.8271L60.0504 32.4314C59.56 31.8316 58.1341 29.6814 57.1609 30.3265L57.1571 30.3227Z" fill="#B68A35"/>
<path d="M78.2279 33.2832C77.6017 33.0984 77.0774 32.6457 76.8661 32.0309C78.0883 31.3934 79.1672 31.4198 80.2347 32.2647L80.4007 32.393C80.5101 32.4609 80.5026 32.2534 80.4837 32.1704C80.4573 31.963 80.1291 31.2274 79.8499 30.8539C79.0842 29.8128 78.1826 30.0354 77.2698 30.7144C76.6436 31.1859 76.1871 31.797 75.8401 32.3779C75.7118 32.6457 75.6175 32.989 75.7382 33.2832H67.4469L67.3036 33.287C67.1263 33.287 67.032 33.1965 67.0131 33.0267C66.8962 31.8385 66.4473 27.9116 66.4133 27.8286L65.5344 29.2055C65.557 29.8656 65.689 30.2956 65.689 30.7634C65.5382 31.3896 65.1987 31.9177 64.7271 32.393C64.7385 31.5103 64.6781 30.8426 64.1538 30.0957C63.5162 29.1828 62.6411 28.4397 61.698 27.8286C61.4529 28.0135 61.2039 29.1866 61.1812 29.5412C61.2605 29.8618 62.3808 30.7068 62.6751 30.7068L62.8637 30.4239C63.5691 31.1142 64.1689 31.846 64.3047 32.7627C63.0636 33.7472 61.3133 34.4036 60.1477 34.8977C59.7704 35.06 59.6045 35.1693 59.6799 35.2108C59.7403 35.2486 59.9628 35.2108 60.2306 35.1844C62.4261 34.9732 63.9614 35.1618 65.3609 32.9739C65.5344 32.7061 65.689 32.4081 65.8399 32.1139L66.0776 34.2829C66.104 34.4828 66.1379 34.6563 66.2058 34.8449H67.7788L69.2236 34.8412H80.578L81.4116 33.2908H78.2204L78.2279 33.2832Z" fill="#B68A35"/>
<path d="M85.9466 36.0035C85.6448 36.0375 85.2789 35.9243 85.2072 35.7093C85.5505 35.3962 86.056 35.5094 86.0182 35.7055C86.0447 35.7017 86.4898 35.483 86.2785 35.2038C86.2106 35.1321 86.1616 35.0756 86.0635 35.0756C85.724 35.0793 85.3845 35.185 85.1355 35.4264C85.0299 35.5094 84.8451 35.7885 84.8413 35.9205C84.8187 36.1469 85.1695 36.2714 85.343 36.3317C85.1921 36.3657 85.0224 36.4864 84.9092 36.6259C84.8262 36.7353 84.8036 36.8825 84.7998 36.9994C85.1016 36.7202 85.7051 36.4487 86.2219 36.4562L86.5614 36.0073C86.3955 35.9733 86.2559 35.962 85.9503 36.0073L85.9466 36.0035Z" fill="#B68A35"/>
<path d="M91.665 29.2168C91.0803 28.832 90.6578 28.5793 90.6465 27.8663C90.3334 27.938 89.7525 29.345 89.6016 29.6544C89.7186 29.7751 89.8846 29.8656 89.9789 30.0203C90.1335 31.0689 90.3523 32.1139 90.4504 33.1663C90.4542 33.238 90.341 33.2832 90.1788 33.2832H88.817L88.6737 33.287C88.4964 33.287 88.4021 33.1965 88.3832 33.0267C88.2663 31.8385 87.8174 27.9116 87.7834 27.8286L86.9045 29.2055C86.9271 29.8656 87.0592 30.2956 87.0592 30.7634C86.9083 31.3896 86.5688 31.9177 86.0972 32.393C86.1085 31.5103 86.0482 30.8426 85.5239 30.0957C84.8864 29.1828 84.0112 28.4397 83.0682 27.8286C82.823 28.0135 82.574 29.1866 82.5514 29.5412C82.6306 29.8618 83.7509 30.7068 84.0451 30.7068L84.2338 30.4239C84.9392 31.1142 85.5389 31.846 85.6747 32.7627C84.4337 33.7472 82.6834 34.4036 81.5178 34.8977C81.1406 35.06 80.9746 35.1693 81.05 35.2108C81.1104 35.2486 81.3329 35.2108 81.6008 35.1844C83.7962 34.9732 85.3315 35.1618 86.731 32.9739C86.9045 32.7061 87.0592 32.4081 87.21 32.1139L87.4477 34.2829C87.4741 34.4828 87.5081 34.6563 87.576 34.8449H89.149L90.8653 34.8412C91.1671 34.3131 91.3104 33.7359 91.4538 33.2078L91.2539 30.9331L92.295 29.5601C92.2573 29.5223 92.1856 29.4922 91.6613 29.2206L91.665 29.2168Z" fill="#B68A35"/>
<path d="M97.8368 37.6825C97.7349 37.6825 97.4181 37.4713 96.8636 37.1167L96.1016 37.9994C96.2411 38.1389 96.9918 38.6557 97.1842 38.6557C97.4332 38.4332 97.6105 38.1955 97.7349 38.0446L98.8062 38.6671C99.0137 38.5011 99.3193 38.154 99.5796 37.7504L98.512 37.0714L97.833 37.6825H97.8368Z" fill="#B68A35"/>
<path d="M110.251 29.1646C110.251 29.274 111.07 30.036 111.281 30.036C111.42 30.036 112.36 29.357 112.36 29.1458C112.36 29.0779 111.794 28.5234 111.266 28.1914C111.115 28.2178 110.255 29.0251 110.255 29.1646H110.251Z" fill="#B68A35"/>
<path d="M120.451 32.5109C120.462 31.8206 119.127 31.1605 118.546 31.0586C118.334 31.0209 118.263 31.0322 118.055 31.1152C117.025 31.5603 116.128 32.228 115.147 32.7825C115.173 32.7259 115.23 32.6203 115.275 32.5034C115.343 32.3185 115.385 32.1752 115.407 32.0205C115.49 31.5716 115.422 30.8738 115.422 30.4136C115.977 30.1797 116.199 29.7308 116.199 29.2668C115.528 29.0216 114.811 28.6783 114.789 28.0069C114.555 27.822 113.717 29.1423 114 29.5573C114.143 29.7082 114.223 29.7685 114.268 29.9911L114.551 32.8806C114.574 33.0805 114.177 33.2804 114.011 33.2804H112.91C112.77 33.2804 112.578 33.254 112.42 33.0315C112.223 32.7599 112.337 32.2884 112.382 32.0205C112.476 31.4773 112.533 31.1378 112.431 30.8474C112.404 30.821 111.692 31.6131 111.454 32.0582C111.465 32.2657 111.443 32.575 111.416 32.858C111.401 33.0202 111.356 33.2804 111.288 33.2804H98.8056C98.5906 33.6426 98.0776 34.2537 97.9946 34.6271C98.1116 34.6384 98.7113 34.6535 99.1829 34.729C99.9599 34.8346 100.133 35.0685 100.337 35.3514C99.2206 35.8795 96.9648 36.1172 95.8671 35.1137C95.2296 34.5366 95.339 33.6954 95.6068 32.9674C95.6898 32.7523 95.7728 32.5335 95.8331 32.3072C95.9048 32.0394 95.9274 31.881 95.9274 31.8168C95.9048 31.6735 95.72 31.9375 95.5427 32.2619C95.0712 33.1748 94.1432 34.9629 95.1089 36.2907C95.4107 36.6981 95.8218 36.947 96.2971 37.0753C96.3311 37.0866 96.3688 37.0904 96.4065 37.1017L96.8026 36.6754C97.1421 36.8905 97.4099 37.064 97.6023 37.1885C97.7117 37.1847 97.8287 37.1734 97.9418 37.1545L98.4926 36.6604L98.9603 36.9433C99.5337 36.7811 100.066 36.5585 100.496 36.3359C100.88 35.8418 101.197 35.3853 101.408 34.8346H110.975L111.503 33.8689C111.541 34.4423 112.005 34.8346 112.544 34.8346H119.726C119.923 34.1518 120.432 33.2012 120.451 32.5109ZM118.817 33.2842H115.434C116.712 32.6279 117.735 31.6999 119.051 33.0126C119.1 33.073 119.153 33.1296 119.183 33.1975C119.127 33.2314 118.972 33.288 118.817 33.288V33.2842Z" fill="#B68A35"/>
<path d="M130.432 29.217C129.847 28.8323 129.425 28.5795 129.414 27.8666C129.1 27.9382 128.519 29.3453 128.369 29.6546C128.486 29.7753 128.652 29.8659 128.746 30.0205C128.9 31.0692 129.119 32.1141 129.217 33.1665C129.221 33.2382 129.108 33.2835 128.946 33.2835H125.098C125.098 33.2835 125.072 32.9553 124.932 32.4385C124.781 31.9179 124.472 30.8504 123.767 30.8429C123.612 30.8429 123.378 30.9108 123.189 31.0805C122.522 31.718 121.895 32.9327 121.956 33.6268C122.05 34.7169 123.106 34.8565 123.944 34.8339C122.805 36.0938 121.545 36.5917 119.896 36.2107C119.553 36.1391 119.334 36.1881 119.391 36.2899C119.47 36.4899 119.957 36.6068 120.53 36.769C121.284 36.9916 122.186 37.2254 122.465 37.2179C123.495 37.1953 124.461 35.7392 124.838 34.8339H129.632C129.934 34.3058 130.077 33.7286 130.221 33.2005L130.021 30.9258L131.062 29.5528C131.024 29.515 130.953 29.4849 130.428 29.2133L130.432 29.217ZM123.948 33.2797C123.548 33.3061 123.076 33.208 122.786 32.9063C122.729 32.8459 122.703 32.7855 122.703 32.7176C122.688 32.6158 122.94 32.3895 123.02 32.3631C123.227 32.2838 123.457 32.4121 123.631 32.6347C123.782 32.8459 123.982 33.1628 123.948 33.2797Z" fill="#B68A35"/>
<path d="M131.843 30.2324L132.454 34.8382C132.465 34.9401 132.51 34.8835 132.537 34.8382C132.827 34.4384 133.242 33.3708 133.261 32.5523C133.31 31.0962 132.993 29.8136 132.827 28.4783L131.843 30.2286V30.2324Z" fill="#B68A35"/>
<path d="M139.802 35.9961C139.67 36.0225 138.878 36.7618 138.878 36.8901C138.878 36.9919 139.629 37.6898 139.817 37.6898C139.949 37.6898 140.806 37.0636 140.806 36.8712C140.806 36.8109 140.285 36.2979 139.798 35.9923L139.802 35.9961Z" fill="#B68A35"/>
<path d="M154.77 28.8476C154.642 28.8476 154.28 28.6401 153.703 28.2402L152.812 29.1682C152.963 29.3191 153.812 29.817 154.02 29.817C154.28 29.5831 154.502 29.3907 154.657 29.2323L155.864 29.8434C156.098 29.6661 156.392 29.3417 156.736 28.9154L155.528 28.2365L154.767 28.8438L154.77 28.8476Z" fill="#B68A35"/>
<path d="M167.449 33.567C167.117 33.401 166.91 33.3218 166.661 33.0766C166.465 32.888 166.45 32.6051 166.427 32.3259C166.389 31.8054 166.344 31.5602 166.299 30.8849L167.423 29.5684C167.385 29.5232 167.283 29.4968 166.706 29.195C166.069 28.7612 165.688 28.7235 165.676 27.9351C165.333 28.018 164.786 29.2629 164.62 29.6062C164.76 29.7457 164.941 29.7721 165.028 29.957C165.333 31.2471 165.454 31.9638 165.541 33.2954H164.25V33.2803H162.157C161.719 33.2803 161.58 33.0955 161.214 32.7635L158.517 30.2965L161.802 29.6778L162.353 28.1199L157.872 29.0328L157.332 31.0849L159.554 33.186C159.505 33.2313 159.411 33.2803 159.377 33.2803H156.649C156.51 33.2803 156.317 33.2539 156.159 33.0313C155.963 32.7597 156.076 32.2882 156.121 32.0204C156.216 31.4772 156.272 31.1377 156.17 30.8472C156.144 30.8208 155.431 31.613 155.193 32.0581C155.205 32.2656 155.182 32.5749 155.156 32.8578C155.141 33.02 155.095 33.2803 155.027 33.2803H143.507C143.292 33.2803 143.005 33.1256 142.956 32.8842C142.873 32.4844 143.217 31.6507 143.028 30.851C143.017 30.8133 142.285 31.6356 142.043 32.0807C142.058 32.3976 141.987 32.9597 141.949 33.2803H137.63C137.117 33.2803 136.657 32.9182 136.74 32.375C136.785 32.0468 136.989 31.7148 137.09 31.3338C137.211 30.8623 137.019 30.7491 136.728 31.1565C136.283 31.8054 135.91 32.6239 135.895 33.4312C135.883 34.1932 136.506 34.8307 137.283 34.8307H141.519L142.047 33.865C142.149 34.4836 142.515 34.8307 142.885 34.8307H154.711L155.239 33.865C155.276 34.4384 155.74 34.8307 156.28 34.8307H159.694C159.89 34.5855 160.082 34.1932 160.237 33.9367L161.172 34.8307H163.919V34.8458H165.469C165.514 34.8458 165.552 34.8344 165.597 34.8194C165.82 34.6798 166.137 34.6986 166.386 34.7628C166.868 34.8722 167.023 35.2079 167.385 35.5399C167.691 35.2343 167.857 34.4157 167.857 33.9631C167.755 33.7971 167.619 33.6462 167.449 33.5632V33.567Z" fill="#B68A35"/>
<path d="M169.562 28.482L168.577 30.2324L169.188 34.8382C169.2 34.9401 169.245 34.8835 169.271 34.8382C169.562 34.4384 169.977 33.3708 169.996 32.5523C170.045 31.0962 169.728 29.8136 169.562 28.4783V28.482Z" fill="#B68A35"/>
<defs>
<linearGradient id="paint0_linear_7_1784" x1="4.47363" y1="49.5015" x2="38.3896" y2="49.5015" gradientUnits="userSpaceOnUse">
<stop stop-color="#DB0027"/>
<stop offset="0.14" stop-color="#DB0329"/>
<stop offset="0.25" stop-color="#DC0D32"/>
<stop offset="0.35" stop-color="#DF1E40"/>
<stop offset="0.45" stop-color="#E23554"/>
<stop offset="0.52" stop-color="#E64C68"/>
<stop offset="0.58" stop-color="#E23453"/>
<stop offset="0.67" stop-color="#DF1D40"/>
<stop offset="0.76" stop-color="#DC0C32"/>
<stop offset="0.87" stop-color="#DB0329"/>
<stop offset="1" stop-color="#DB0027"/>
</linearGradient>
<linearGradient id="paint1_linear_7_1784" x1="36.2625" y1="32.3748" x2="37.9411" y2="28.38" gradientUnits="userSpaceOnUse">
<stop stop-color="white"/>
<stop offset="1" stop-color="#BD8913"/>
</linearGradient>
<linearGradient id="paint2_linear_7_1784" x1="6.55659" y1="32.3748" x2="4.87795" y2="28.38" gradientUnits="userSpaceOnUse">
<stop stop-color="white"/>
<stop offset="1" stop-color="#BD8913"/>
</linearGradient>
<linearGradient id="paint3_linear_7_1784" x1="21.4069" y1="44.3598" x2="21.4069" y2="33.1714" gradientUnits="userSpaceOnUse">
<stop stop-color="white"/>
<stop offset="0.16" stop-color="#F9F9F9"/>
<stop offset="0.36" stop-color="#E9E9E9"/>
<stop offset="0.59" stop-color="#CFCFCF"/>
<stop offset="0.84" stop-color="#ABABAB"/>
<stop offset="1" stop-color="#8F8F8F"/>
</linearGradient>
<linearGradient id="paint4_linear_7_1784" x1="35.8852" y1="27.1048" x2="37.775" y2="23.2081" gradientUnits="userSpaceOnUse">
<stop stop-color="white"/>
<stop offset="0.16" stop-color="#F9F9F9"/>
<stop offset="0.36" stop-color="#E9E9E9"/>
<stop offset="0.59" stop-color="#CFCFCF"/>
<stop offset="0.84" stop-color="#ABABAB"/>
<stop offset="1" stop-color="#8F8F8F"/>
</linearGradient>
<linearGradient id="paint5_linear_7_1784" x1="37.1793" y1="37.942" x2="39.2314" y2="35.5541" gradientUnits="userSpaceOnUse">
<stop stop-color="white"/>
<stop offset="0.16" stop-color="#F9F9F9"/>
<stop offset="0.36" stop-color="#E9E9E9"/>
<stop offset="0.59" stop-color="#CFCFCF"/>
<stop offset="0.84" stop-color="#ABABAB"/>
<stop offset="1" stop-color="#8F8F8F"/>
</linearGradient>
<linearGradient id="paint6_linear_7_1784" x1="6.93364" y1="27.1048" x2="5.03999" y2="23.2081" gradientUnits="userSpaceOnUse">
<stop stop-color="white"/>
<stop offset="0.16" stop-color="#F9F9F9"/>
<stop offset="0.36" stop-color="#E9E9E9"/>
<stop offset="0.59" stop-color="#CFCFCF"/>
<stop offset="0.84" stop-color="#ABABAB"/>
<stop offset="1" stop-color="#8F8F8F"/>
</linearGradient>
<linearGradient id="paint7_linear_7_1784" x1="5.636" y1="37.942" x2="3.58391" y2="35.5541" gradientUnits="userSpaceOnUse">
<stop stop-color="white"/>
<stop offset="0.16" stop-color="#F9F9F9"/>
<stop offset="0.36" stop-color="#E9E9E9"/>
<stop offset="0.59" stop-color="#CFCFCF"/>
<stop offset="0.84" stop-color="#ABABAB"/>
<stop offset="1" stop-color="#8F8F8F"/>
</linearGradient>
<linearGradient id="paint8_linear_7_1784" x1="9.03056" y1="36.5809" x2="15.3943" y2="30.1606" gradientUnits="userSpaceOnUse">
<stop stop-color="white"/>
<stop offset="0.01" stop-color="#FEFDFC"/>
<stop offset="0.38" stop-color="#E2CC99"/>
<stop offset="0.68" stop-color="#CEA851"/>
<stop offset="0.89" stop-color="#C19124"/>
<stop offset="1" stop-color="#BD8913"/>
</linearGradient>
<linearGradient id="paint9_linear_7_1784" x1="33.3428" y1="37.0487" x2="27.5034" y2="30.2398" gradientUnits="userSpaceOnUse">
<stop stop-color="white"/>
<stop offset="0.01" stop-color="#FEFDFC"/>
<stop offset="0.38" stop-color="#E2CC99"/>
<stop offset="0.68" stop-color="#CEA851"/>
<stop offset="0.89" stop-color="#C19124"/>
<stop offset="1" stop-color="#BD8913"/>
</linearGradient>
<linearGradient id="paint10_linear_7_1784" x1="-0.848962" y1="10.0967" x2="7.41974" y2="16.0039" gradientUnits="userSpaceOnUse">
<stop stop-color="white"/>
<stop offset="0.09" stop-color="#FBF9F4"/>
<stop offset="0.25" stop-color="#F3EBD7"/>
<stop offset="0.46" stop-color="#E6D3A8"/>
<stop offset="0.71" stop-color="#D4B367"/>
<stop offset="0.99" stop-color="#BD8A15"/>
<stop offset="1" stop-color="#BD8913"/>
</linearGradient>
<linearGradient id="paint11_linear_7_1784" x1="31.5922" y1="7.92769" x2="27.6767" y2="15.3288" gradientUnits="userSpaceOnUse">
<stop stop-color="white"/>
<stop offset="0.02" stop-color="#FCF9F4"/>
<stop offset="0.18" stop-color="#EBDCB9"/>
<stop offset="0.33" stop-color="#DDC286"/>
<stop offset="0.48" stop-color="#D1AE5D"/>
<stop offset="0.62" stop-color="#C89D3C"/>
<stop offset="0.76" stop-color="#C29225"/>
<stop offset="0.89" stop-color="#BE8B17"/>
<stop offset="1" stop-color="#BD8913"/>
</linearGradient>
<linearGradient id="paint12_linear_7_1784" x1="18.823" y1="4.4423" x2="18.4156" y2="2.5826" gradientUnits="userSpaceOnUse">
<stop stop-color="white"/>
<stop offset="1" stop-color="#000100"/>
</linearGradient>
<linearGradient id="paint13_linear_7_1784" x1="14.6475" y1="21.5722" x2="28.0728" y2="21.5722" gradientUnits="userSpaceOnUse">
<stop offset="0.01" stop-color="#D9D9D9"/>
<stop offset="0.08" stop-color="#E6E6E6"/>
<stop offset="0.18" stop-color="#F4F4F4"/>
<stop offset="0.32" stop-color="#FCFCFC"/>
<stop offset="0.54" stop-color="white"/>
<stop offset="0.67" stop-color="#FBFBFB"/>
<stop offset="0.78" stop-color="#EFEFEF"/>
<stop offset="0.9" stop-color="#DCDCDC"/>
<stop offset="0.97" stop-color="#CCCCCC"/>
</linearGradient>
<linearGradient id="paint14_linear_7_1784" x1="22.667" y1="21.6203" x2="18.3705" y2="24.3061" gradientUnits="userSpaceOnUse">
<stop stop-color="white"/>
<stop offset="0.63" stop-color="#CCCCCC"/>
</linearGradient>
</defs>
</svg>
