<svg width="171" height="57" viewBox="0 0 171 57" fill="none" xmlns="http://www.w3.org/2000/svg">
<path d="M35.0155 42.7163C34.9967 42.7276 34.9816 42.7389 34.959 42.7502C31.1079 45.0819 26.7114 46.7066 22.1118 46.8307C21.8975 47.0075 21.3709 47.4061 21.3709 47.4061C21.3709 47.4061 20.8407 47.0075 20.6263 46.8307C16.0305 46.7066 11.634 45.0819 7.78281 42.7502C7.76025 42.7389 7.74897 42.7276 7.7264 42.7163C7.68879 42.7426 3.67969 45.2323 3.67969 45.2323V50.5954C8.83211 53.6455 14.5035 55.4845 20.6263 55.6124C20.8294 55.8117 21.3709 56.2292 21.3709 56.2292C21.3709 56.2292 21.9163 55.8117 22.1118 55.6124C28.2383 55.4845 33.9135 53.6492 39.0622 50.5954V45.2323C39.0622 45.2323 35.0493 42.7426 35.0155 42.7163Z" fill="#000100"/>
<path d="M35.1763 43.6035C31.3289 45.8149 26.703 47.5111 22.2276 47.6465C22.1147 47.733 21.3701 48.2934 21.3701 48.2934C21.3701 48.2934 20.6217 47.7292 20.5126 47.6465C16.0371 47.5111 11.415 45.8149 7.56758 43.6035L4.46484 45.7247V50.1926C9.39914 52.9907 14.9314 54.6154 20.6329 54.7358H20.727C20.727 54.7358 21.1595 55.0931 21.3701 55.2661C21.5769 55.0893 22.0132 54.732 22.0132 54.732H22.1072C27.8087 54.6154 33.341 52.9907 38.2715 50.1926V45.7247L35.1726 43.6035H35.1763Z" fill="url(#paint0_linear_1_573)"/>
<path d="M15.644 3.19659C14.6286 3.76072 14.5684 4.4452 14.7978 4.90027C14.8881 4.82882 15.3244 4.82882 15.8133 4.57684C16.0276 4.53547 17.1672 4.73479 17.9194 5.35158C18.0021 5.06951 18.0472 4.76488 18.0472 4.44897C18.0472 3.45609 17.6072 2.58356 16.9265 2.04199C16.8513 2.08336 16.7685 2.12849 16.6933 2.17362C15.8246 2.68134 15.9299 3.04239 15.644 3.20035V3.19659Z" fill="white"/>
<path d="M41.9816 24.8743C41.9515 24.6261 41.9214 24.3779 41.8913 24.1297C41.6544 22.0612 41.7183 20.034 41.7635 17.9618C41.8048 16.0362 41.5115 14.2498 40.5524 12.5611C39.7062 11.0643 38.1906 9.10863 36.3478 8.86417C34.6591 8.63852 33.5459 10.1316 31.9851 10.5415C30.2626 10.9966 29.2698 10.9552 27.6714 9.77431C27.0057 9.13496 24.6928 4.29845 24.0534 3.30557C23.3351 2.18482 22.3948 1.50786 21.056 1.19947C19.593 0.860988 16.9754 1.46273 16.4188 2.17354C16.0352 2.66246 15.8246 2.58348 15.8246 2.92948C15.7982 3.51242 16.9867 4.73847 17.9758 5.40039C17.2311 5.46056 18.3669 7.16425 18.1939 7.58547C18.0247 8.00669 18.0435 10.1842 15.5613 10.6581C13.5868 11.1621 11.2475 10.6957 10.6646 10.5415C9.10008 10.1316 7.85898 8.70998 6.1741 8.93939C4.33126 9.18761 2.94349 11.0681 2.09729 12.5649C1.13826 14.2535 0.844915 16.04 0.890046 17.9655C0.935177 20.0416 0.99911 22.0649 0.758412 24.1334C0.728325 24.3816 0.698245 24.6299 0.671919 24.8781C0.649354 24.7991 9.28812 20.3011 9.54762 20.0453C9.935 19.6617 10.1118 19.4022 10.5556 18.9547L10.5894 30.5533C10.5894 30.5533 11.9621 28.7631 12.3269 29.1354C12.5488 29.3573 11.6312 35.4274 10.8602 38.2744C11.0445 38.2857 12.0787 37.6689 12.2216 37.7403C12.3909 37.8268 12.3156 39.2635 12.3796 39.3951C12.4774 39.2296 12.8422 38.564 13.1318 38.6429C13.4138 38.7219 13.4439 39.4892 13.4402 39.7186C13.6884 39.177 13.899 38.4399 14.1698 37.9096C14.433 37.3943 14.9821 36.4203 15.3469 35.8524C15.6328 35.4086 16.8513 34.1186 17.5583 33.8929C18.476 33.6033 20.8491 33.8516 21.2666 35.0851C21.2666 35.0851 21.4208 35.0851 21.4245 35.0851C22.094 33.404 24.4257 33.3401 25.6104 34.2615C26.2009 34.7166 27.7203 36.755 27.9835 37.2702C28.2506 37.7855 28.9915 39.1958 29.2434 39.7524C29.2434 39.523 29.2171 38.7257 29.5029 38.6505C29.7963 38.5753 30.1573 39.2372 30.2589 39.4026C30.3228 39.2748 30.2514 37.8344 30.4168 37.7479C30.5598 37.6764 31.5978 38.2932 31.782 38.2819C30.9885 35.7847 30.4168 30.7752 30.398 30.4254C30.383 30.1584 30.2777 28.0222 30.4206 27.1835C30.4958 28.6653 30.6651 29 32.0528 30.557C32.0754 30.1772 32.1807 20.0152 32.0904 18.9584C32.5342 19.406 32.6471 19.7407 33.0984 20.0491C34.5237 21.0269 42.0004 24.8029 41.9778 24.8818L41.9816 24.8743Z" fill="#BD8913"/>
<path d="M32.1736 28.2707C32.1924 28.2331 32.2188 28.1955 32.2488 28.1654C32.4181 28.3234 32.5836 28.4814 32.7453 28.6468C33.4448 29.3652 33.9074 30.2302 34.4828 31.0425C35.0958 31.9038 35.8932 32.5694 36.6604 33.284C37.3073 33.882 40.3649 36.1498 41.8617 37.0788C42.0798 35.8866 41.794 33.4946 41.809 32.2761C41.8241 31.1892 41.8015 30.4408 40.8462 29.7713C39.6089 28.9026 38.1534 28.3347 36.8447 27.5825C35.6863 26.9206 34.6182 26.0405 33.4711 25.3523C32.6174 24.837 32.2864 24.2616 32.1623 23.5771C31.9969 25.1417 32.057 26.71 32.1736 28.2745V28.2707Z" fill="url(#paint1_linear_1_573)"/>
<path d="M10.5172 28.2707C10.5022 28.2331 10.4721 28.1955 10.442 28.1654C10.2765 28.3234 10.1073 28.4814 9.94932 28.6468C9.2498 29.3652 8.78721 30.2302 8.21556 31.0425C7.60253 31.9038 6.80521 32.5694 6.03423 33.284C5.38736 33.882 2.32976 36.1498 0.836682 37.0788C0.614789 35.8866 0.900607 33.4946 0.885564 32.2761C0.87052 31.1892 0.896849 30.4408 1.85212 29.7713C3.08945 28.9026 4.54492 28.3347 5.84995 27.5825C7.00831 26.9206 8.07264 26.0405 9.22347 25.3523C10.0772 24.837 10.4082 24.2616 10.536 23.5771C10.6977 25.1417 10.6376 26.71 10.521 28.2745L10.5172 28.2707Z" fill="url(#paint2_linear_1_573)"/>
<path d="M25.7961 34.1787C24.9274 33.3099 22.7724 33.0918 21.347 34.8632C19.9254 33.0918 17.7704 33.3061 16.8979 34.1787C16.7361 35.0512 14.4119 42.7272 14.1035 43.5358C15.2844 43.878 15.2506 43.6937 16.0291 43.4756C16.1833 45.6494 17.5071 44.3594 17.8005 44.0661C18.8272 45.9239 19.79 44.7806 20.3165 43.942C20.3165 44.6264 20.6099 44.9649 21.347 45.4952C22.0804 44.9649 22.3813 44.6264 22.3813 43.942C22.9078 44.7806 23.8668 45.9277 24.8973 44.0661C25.1906 44.3594 26.5145 45.6532 26.6687 43.4756C27.4434 43.6937 27.4133 43.878 28.5942 43.5358C28.2821 42.7272 25.9579 35.0512 25.7961 34.1787Z" fill="white"/>
<path d="M32.1726 24.1827C32.9737 26.5408 40.4428 29.7827 41.9397 30.7116C41.9397 29.1772 41.7892 28.1843 41.808 26.9658C41.8231 25.8789 41.8005 25.1267 40.8452 24.4572C39.6079 23.5885 38.1524 23.0206 36.8436 22.2722C35.6853 21.6102 34.6172 20.7339 33.4701 20.0382C32.6164 19.5229 32.2854 18.9475 32.1613 18.2593C31.9958 19.8238 32.1388 24.209 32.1726 24.1789V24.1827Z" fill="white"/>
<path d="M32.1747 32.4263C32.1747 33.517 32.9457 34.3782 33.7693 35.0627C33.7956 35.702 34.1492 37.3117 35.473 37.8307C35.473 38.7333 36.2327 39.9932 37.5829 40.6326C37.5829 41.7834 38.9932 42.7951 39.7454 42.9531C39.2226 46.6049 41.419 47.7068 41.9417 48.034C41.9417 46.4996 41.7913 40.185 41.8101 38.974C41.8251 37.8871 41.7838 37.1613 40.8473 36.4617C37.0262 33.6298 33.5512 29.6395 32.0844 27.917C31.9227 29.4815 32.1408 32.4564 32.1747 32.4263Z" fill="white"/>
<path d="M10.519 24.1827C9.71417 26.5408 2.24503 29.7827 0.751953 30.7116C0.751953 29.1772 0.89863 28.1843 0.883587 26.9658C0.868543 25.8789 0.894861 25.1267 1.85013 24.4572C3.08746 23.5885 4.53917 23.0206 5.84796 22.2722C7.00632 21.6102 8.07065 20.7339 9.22149 20.0382C10.0752 19.5229 10.4062 18.9475 10.534 18.2593C10.6958 19.8238 10.5491 24.209 10.519 24.1789V24.1827Z" fill="white"/>
<path d="M10.519 32.4263C10.519 33.517 9.74802 34.3782 8.92438 35.0627C8.8943 35.702 8.54453 37.3117 7.21693 37.8307C7.21693 38.7333 6.46099 39.9932 5.11083 40.6326C5.11083 41.7834 3.70049 42.7951 2.94831 42.9531C3.47108 46.6049 1.27848 47.7068 0.751953 48.034C0.751953 46.4996 0.89863 40.185 0.883587 38.974C0.868543 37.8871 0.913665 37.1613 1.85013 36.4617C5.66744 33.6298 9.14627 29.6395 10.6093 27.917C10.7672 29.4815 10.5491 32.4564 10.519 32.4263Z" fill="white"/>
<path d="M25.7961 34.1787C24.9274 33.3099 22.7724 33.0918 21.347 34.8632C19.9254 33.0918 17.7704 33.3061 16.8979 34.1787C16.7361 35.0512 14.4119 42.7272 14.1035 43.5358C15.2844 43.878 15.2506 43.6937 16.0291 43.4756C16.1833 45.6494 17.5071 44.3594 17.8005 44.0661C18.8272 45.9239 19.79 44.7806 20.3165 43.942C20.3165 44.6264 20.6099 44.9649 21.347 45.4952C22.0804 44.9649 22.3813 44.6264 22.3813 43.942C22.9078 44.7806 23.8668 45.9277 24.8973 44.0661C25.1906 44.3594 26.5145 45.6532 26.6687 43.4756C27.4434 43.6937 27.4133 43.878 28.5942 43.5358C28.2821 42.7272 25.9579 35.0512 25.7961 34.1787Z" fill="url(#paint3_linear_1_573)"/>
<path d="M32.1726 24.1827C32.9737 26.5408 40.4428 29.7827 41.9397 30.7116C41.9397 29.1772 41.7892 28.1843 41.808 26.9658C41.8231 25.8789 41.8005 25.1267 40.8452 24.4572C39.6079 23.5885 38.1524 23.0206 36.8436 22.2722C35.6853 21.6102 34.6172 20.7339 33.4701 20.0382C32.6164 19.5229 32.2854 18.9475 32.1613 18.2593C31.9958 19.8238 32.1388 24.209 32.1726 24.1789V24.1827Z" fill="url(#paint4_linear_1_573)"/>
<path d="M32.1747 32.4263C32.1747 33.517 32.9457 34.3782 33.7693 35.0627C33.7956 35.702 34.1492 37.3117 35.473 37.8307C35.473 38.7333 36.2327 39.9932 37.5829 40.6326C37.5829 41.7797 38.9932 42.7951 39.7454 42.9531C39.2226 46.6049 41.419 47.7068 41.9417 48.034C41.9417 46.4996 41.7913 40.185 41.8101 38.974C41.8251 37.8871 41.7838 37.1613 40.8473 36.4617C37.0262 33.6298 33.5512 29.6395 32.0844 27.917C31.9227 29.4815 32.1408 32.4564 32.1747 32.4263Z" fill="url(#paint5_linear_1_573)"/>
<path d="M10.519 24.1827C9.71417 26.5408 2.24503 29.7827 0.751953 30.7116C0.751953 29.1772 0.89863 28.1843 0.883587 26.9658C0.868543 25.8789 0.894861 25.1267 1.85013 24.4572C3.08746 23.5885 4.53917 23.0206 5.84796 22.2722C7.00632 21.6102 8.07065 20.7339 9.22149 20.0382C10.0752 19.5229 10.4062 18.9475 10.534 18.2593C10.6958 19.8238 10.5491 24.209 10.519 24.1789V24.1827Z" fill="url(#paint6_linear_1_573)"/>
<path d="M10.519 32.4263C10.519 33.517 9.74802 34.3782 8.92438 35.0627C8.8943 35.702 8.54453 37.3117 7.21693 37.8307C7.21693 38.7333 6.46099 39.9932 5.11083 40.6326C5.11083 41.7797 3.70049 42.7951 2.94455 42.9531C3.46731 46.6049 1.27472 47.7068 0.751953 48.034C0.751953 46.4996 0.89863 40.185 0.883587 38.974C0.868543 37.8871 0.898622 37.1425 1.85013 36.4617C7.13043 32.7009 9.14627 29.6395 10.6093 27.917C10.7672 29.4815 10.5491 32.4564 10.519 32.4263Z" fill="url(#paint7_linear_1_573)"/>
<path d="M12.4367 39.4817C12.4367 39.1282 12.6021 38.1616 12.211 37.8645C11.9666 37.6802 11.3347 38.218 10.8232 38.5264C11.7296 35.6982 13.8545 27.1911 13.5236 24.6562C16.1186 26.0139 17.5064 26.8902 19.1047 28.0335C20.7031 29.1806 20.8724 32.5391 19.8306 32.1367C17.5665 31.2604 14.5879 34.2992 13.5875 39.2899C13.328 38.6693 13.1211 38.1955 12.4404 39.4779L12.4367 39.4817Z" fill="url(#paint8_linear_1_573)"/>
<path d="M30.26 39.4817C30.26 39.1282 30.0945 38.1616 30.4856 37.8645C30.7338 37.6802 31.3619 38.218 31.8734 38.5264C30.967 35.6982 28.8459 27.1911 29.1768 24.6562C26.5818 26.0139 25.194 26.8902 23.5957 28.0335C21.9973 29.1806 21.828 32.5391 22.8736 32.1367C25.1376 31.2604 28.1125 34.2992 29.1166 39.2899C29.3761 38.6693 29.583 38.1955 30.2675 39.4779L30.26 39.4817Z" fill="url(#paint9_linear_1_573)"/>
<path d="M16.927 10.4358C11.8686 14.0839 7.15999 8.69075 5.55033 10.2214C4.58002 11.1429 1.69916 14.3321 1.69916 15.7161C1.69916 17.1001 1.87216 23.6854 1.39453 24.1593C2.77102 24.1706 9.69859 19.8155 10.0897 19.4206C11.4512 18.0629 11.8987 18.7624 13.6363 18.7699C14.2568 18.3337 14.9902 18.0253 15.6897 17.6266C18.2358 16.0546 16.9872 12.9706 16.9233 10.4358H16.927Z" fill="url(#paint10_linear_1_573)"/>
<path d="M40.89 15.4497C40.4312 14.1221 37.4451 10.0791 36.1438 10.0791C34.5228 10.0791 31.8789 12.7231 28.7687 11.4857C25.0115 9.99264 25.5117 4.37762 21.2882 2.39939C22.6685 2.77924 24.06 3.5427 23.6313 3.30577C21.5966 -0.342301 16.8391 1.15077 15.8161 2.74539C15.6582 3.38099 16.8316 4.53934 17.8169 5.3028C18.712 6.6981 18.8249 6.80716 18.0877 9.24046C17.3656 11.6061 22.9882 10.8877 24.5527 12.7569C26.2414 14.8103 28.1744 16.4125 30.7732 17.0142C30.8635 17.0255 30.9387 17.0443 31.0177 17.0706C31.5367 18.4622 35.5609 22.3246 41.3602 24.2013C40.5177 23.1294 41.3413 16.7698 40.8863 15.4422L40.89 15.4497Z" fill="url(#paint11_linear_1_573)"/>
<path d="M7.86531 45.1342C8.01198 45.3599 8.21131 45.3975 8.49338 45.3937C8.60245 45.3937 8.7228 45.3599 8.82811 45.3862C8.93341 45.4163 9.04247 45.7698 9.18915 45.7999C9.32454 45.8262 9.72696 45.7999 9.86235 45.8112C10.1181 45.8413 10.3212 46.1196 10.5844 46.1309C10.7988 46.1422 10.9831 45.9466 11.032 45.7397C11.0997 45.4727 10.9944 44.6077 11.2464 44.4046C11.3592 44.4949 11.6751 44.7469 11.8406 44.8108C11.9797 44.8635 12.3596 45.0177 12.4762 45.0628C12.5363 45.0853 11.7503 43.7803 11.724 43.5208C11.6337 42.6295 12.4198 41.4636 12.6492 40.9559C12.7545 40.7227 13.0102 39.8314 13.1118 39.5794C13.2095 39.3274 13.2998 38.7257 13.0591 38.8874C12.1753 39.4929 12.4122 38.0149 12.1189 38.075C11.4457 38.2104 11.2764 39.3161 11.1185 39.8577C10.9944 40.2902 10.0241 42.5919 9.85859 42.6408C9.69687 42.5505 9.39599 42.637 9.16282 43.0357C8.90332 42.731 8.61373 42.2948 8.20755 42.3286C7.68102 42.3775 7.88787 43.1673 7.93676 43.4907C7.97061 43.7126 7.7412 44.5325 7.77128 44.7431C7.78257 44.8371 7.81266 44.9876 7.83899 45.0853L7.86155 45.138L7.86531 45.1342Z" fill="white"/>
<path d="M34.9105 45.1079C34.7601 45.3336 34.3915 45.4802 34.1094 45.4765C34.0041 45.4765 33.7333 45.6119 33.6544 45.6871C33.5528 45.7886 33.3873 45.7698 33.2407 45.7962C33.1053 45.8262 32.9849 45.8488 32.8458 45.8639C32.59 45.8977 32.3794 46.1346 32.1199 46.1459C31.9055 46.1572 31.71 45.9466 31.6573 45.7397C31.5934 45.4727 31.4429 44.5701 31.2775 44.6416C31.1308 44.7055 30.5215 44.9612 30.1831 45.0891C30.1191 45.1117 30.8713 43.7615 30.9653 43.5171C31.0669 43.2463 31.1082 43.0883 30.9315 42.6972C30.9014 42.6332 30.3523 41.5764 30.1229 41.0687C30.0176 40.8318 29.6791 39.8276 29.5813 39.5794C29.476 39.3274 29.3933 38.7257 29.6264 38.8874C30.514 39.4929 30.2771 38.0149 30.5704 38.075C31.2399 38.2104 31.4091 39.3161 31.5671 39.8577C31.6912 40.2902 31.9432 40.7528 32.0861 41.1703C32.229 41.5952 32.6464 42.2346 32.6464 42.889C32.6464 42.889 32.7706 42.731 32.9172 42.7085C33.2106 42.6859 33.3761 42.6483 33.4663 43.0545C33.7033 42.6633 34.0192 42.2985 34.4291 42.3324C34.9556 42.3813 34.7977 43.1673 34.7488 43.4907C34.7149 43.7126 34.7375 43.8292 34.824 44.0398C35.1211 44.8258 34.9105 45.1079 34.9105 45.1079Z" fill="white"/>
<path d="M19.2896 2.9786C19.2896 3.39606 18.9098 3.73454 18.4397 3.73454C17.9695 3.73454 17.5859 3.39606 17.5859 2.9786C17.5859 2.56114 17.9695 2.22266 18.4397 2.22266C18.9098 2.22266 19.2896 2.56114 19.2896 2.9786Z" fill="url(#paint12_linear_1_573)"/>
<path d="M15.9093 3.73054C15.9394 3.73054 15.9657 3.73054 15.9882 3.73806C15.9882 3.61019 15.8641 3.50488 15.7099 3.50488C15.5557 3.50488 15.4316 3.60643 15.4316 3.7343C15.4316 3.84712 15.5332 3.94115 15.6648 3.95995C15.6535 3.94115 15.646 3.91858 15.646 3.89978C15.646 3.80575 15.7626 3.73054 15.9055 3.73054H15.9093Z" fill="#000100"/>
<path fill-rule="evenodd" clip-rule="evenodd" d="M17.743 3.14051C17.9799 3.98295 19.2849 3.54293 18.9013 2.60647C19.4166 2.41466 19.7964 2.39962 20.2139 2.33192C19.142 2.16644 17.8784 2.03105 17.0961 2.3921C16.7125 2.5651 16.8215 2.79827 16.878 2.89606C16.9419 2.68921 17.2841 2.67792 17.5286 2.76066C17.3443 4.33648 19.3602 4.15219 19.2737 2.86973C19.1345 3.91526 17.7919 3.91526 17.743 3.14427V3.14051Z" fill="#000100"/>
<path fill-rule="evenodd" clip-rule="evenodd" d="M18.778 2.77553C18.6802 2.67775 18.2928 2.59501 18.1123 2.77553C18.1123 2.59877 18.2627 2.46338 18.4433 2.46338C18.6238 2.46338 18.778 2.60253 18.778 2.77553Z" fill="white"/>
<path d="M42.1701 31.1887C42.3694 31.2602 42.5499 31.3241 42.6853 31.3805C42.1325 30.5381 42.1701 29.1729 42.1701 28.8532V25.6C42.3694 25.6753 42.5499 25.7392 42.6853 25.7956C42.1325 24.9532 42.1701 23.588 42.1701 23.2645V15.6901C42.1701 13.5915 38.9658 8.51805 36.258 8.45035C34.3324 8.40522 32.0796 11.1055 29.3153 10.406C28.4278 10.1766 27.7245 9.22509 27.1378 8.05169C26.1073 5.94935 25.122 3.1362 22.6134 1.50774C19.8379 -0.289973 16.6449 1.71835 16.2801 2.03802C15.9679 2.32761 15.4677 3.18886 15.1969 3.32801C14.3282 3.77932 14.189 4.53902 14.189 4.82861C14.189 5.1182 14.253 5.81772 14.7795 6.21262C14.7043 5.87037 14.6855 5.67857 14.7644 5.50557C15.1104 5.56198 15.8739 5.71994 16.3628 5.51685C16.6035 5.75755 17.1827 6.21638 17.4309 6.69777C17.7807 7.35969 17.7844 7.46123 17.7844 7.72074C17.7844 8.39017 17.4685 9.35296 16.5133 9.98479C15.5053 10.7031 13.1247 11.1055 10.1498 10.0826C8.5364 9.52973 7.87448 8.41274 6.43405 8.45035C3.72245 8.51805 0.518171 13.5953 0.518171 15.6901V23.2645C0.518171 23.588 0.563303 24.9494 0.00292969 25.7956C0.142083 25.7392 0.318843 25.679 0.518171 25.6V28.8532C0.518171 29.1766 0.563303 30.5381 0.00292969 31.3805C0.142083 31.3241 0.318843 31.2602 0.518171 31.1887V35.3596C0.518171 35.6792 0.563303 37.0444 0.00292969 37.8906C0.142083 37.8342 0.318843 37.7778 0.518171 37.7064V46.112C0.518171 46.3564 0.540736 47.1801 0.318844 47.936C0.243626 48.188 0.412859 48.4926 0.676122 48.3873C1.75926 47.9548 3.33884 47.1086 3.33884 44.7543V43.4229C4.12111 43.0807 5.05381 42.4752 5.35092 41.0009C6.23473 40.5609 7.21633 39.7974 7.4307 38.2592C8.33707 37.7327 9.23592 36.8188 9.24721 35.0549C10.0332 34.4607 10.5033 33.7574 10.5974 33.2159C10.6613 32.8473 10.7064 31.9785 10.7252 30.9706C11.2969 30.5531 11.7068 30.083 11.94 29.6505C11.846 31.8394 11.4097 34.7804 10.383 38.8497C10.5635 38.8497 10.808 38.8083 11.0562 38.7519C10.917 39.5718 10.2213 41.5274 9.75117 42.415C9.68723 42.4075 9.61953 42.4075 9.54807 42.4225C9.39388 42.4489 9.28106 42.5955 9.20584 42.7836C8.99523 42.4601 8.73196 41.9411 8.11517 42.1405C7.49463 42.3435 7.63378 43.0995 7.73908 43.438C7.94969 44.1036 7.47582 44.3218 7.56232 44.8709C7.6225 45.2507 7.85568 45.5215 8.13398 45.6456C8.20544 45.8149 8.34459 45.9502 8.52887 46.0255C8.72068 46.0969 8.69811 45.9352 8.69059 45.6907C8.73196 45.6795 8.77334 45.6682 8.81471 45.6456C8.86736 45.8261 8.98394 45.9615 9.13814 46.0367C9.20583 46.1721 9.32994 46.3 9.5744 46.4617C9.81886 46.5783 9.65338 46.3113 9.61201 46.0781C9.69851 46.0555 9.79254 46.0179 9.8828 45.9578C9.91289 46.033 9.95802 46.0969 10.0257 46.1421C10.0483 46.1609 10.0708 46.1759 10.0934 46.1909C10.1536 46.4392 10.3266 46.5821 10.5898 46.7325C10.7666 46.7889 10.6989 46.5896 10.6801 46.4016C10.9246 46.4016 11.1389 46.2662 11.2367 45.8713C11.3759 45.3034 11.075 45.356 11.4022 44.6941C11.4737 44.7054 11.9701 44.9085 12.0566 44.9273C11.5827 44.7392 11.3119 43.5997 11.233 43.9344C10.8268 44.664 11.1878 46.0292 10.7252 46.0593C9.4014 46.1458 10.383 44.4835 10.4319 44.0698C10.4958 43.5395 10.4394 42.7648 10.9547 42.9265C11.4172 43.0694 12.0039 44.57 12.2898 45.0175C12.3311 45.0815 12.9893 45.4726 13.0231 45.2996C12.4101 44.6903 12.0528 43.7351 11.9851 43.4192C11.8949 42.9904 11.9287 42.776 12.0566 42.4489C12.1807 42.1405 12.9254 40.8204 13.2375 40.1773C13.3203 40.433 13.4105 40.6737 13.4519 40.8693C13.5534 39.4928 15.0879 36.879 16.4305 35.3332C15.9341 36.8978 14.8321 40.7226 14.5275 41.7832C14.2793 42.6557 13.6888 43.5621 13.5459 43.7012C14.0612 43.893 14.9939 44.0472 15.6558 43.784C15.558 44.1262 15.5655 44.4421 15.8589 44.7355C16.2199 45.0965 17.2354 45.356 17.7243 44.5098C18.1229 45.9202 19.6423 45.8525 20.2403 44.8671C20.4998 45.6832 21.0376 45.7885 21.3422 46.0969C21.6544 45.7885 22.1885 45.6832 22.448 44.8671C23.0422 45.8525 24.5653 45.9202 24.964 44.5098C25.4567 45.356 26.4721 45.0965 26.8294 44.7355C27.1227 44.4421 27.1265 44.13 27.0325 43.784C27.6944 44.0472 28.6271 43.8968 29.1386 43.7012C28.9994 43.5621 28.4014 42.6519 28.1532 41.7832C27.8524 40.7264 26.7504 36.9015 26.254 35.3332C27.5966 36.879 29.1348 39.4928 29.2326 40.8693C29.274 40.6737 29.3642 40.4368 29.447 40.1773C29.7591 40.8204 30.5038 42.1405 30.6279 42.4489C30.7595 42.776 30.7971 42.9904 30.7031 43.4192C30.6354 43.7351 30.3496 44.6828 29.7403 45.2921C29.7742 45.4651 30.3233 45.1567 30.3609 45.0928C30.658 44.6226 31.2748 43.0656 31.7336 42.9227C32.2488 42.761 32.1924 43.5357 32.2564 44.066C32.3053 44.4797 33.2868 46.142 31.963 46.0555C31.5042 46.0292 31.8577 44.6603 31.4591 43.9306C31.3801 43.5959 31.1131 44.7881 30.6392 44.9724C30.7257 44.9536 31.2033 44.6941 31.2672 44.6828C31.5982 45.3485 31.3124 45.2996 31.4515 45.8675C31.5493 46.2662 31.7637 46.4016 32.0081 46.3978C31.9893 46.5858 31.9254 46.7852 32.1022 46.7287C32.3654 46.5783 32.5384 46.4392 32.5986 46.1872C32.6249 46.1721 32.6475 46.1571 32.6701 46.1383C32.7378 46.0932 32.7791 46.0292 32.813 45.954C32.9032 46.0142 32.9897 46.0518 33.0838 46.0744C33.0349 46.3113 32.8769 46.5746 33.1176 46.458C33.3621 46.2962 33.4862 46.1721 33.5539 46.033C33.7043 45.9578 33.8247 45.8261 33.8736 45.6418C33.9149 45.6607 33.9563 45.6719 33.9977 45.687C33.9939 45.9314 33.9676 46.0932 34.1594 46.0217C34.3437 45.9465 34.4791 45.8111 34.5543 45.6456C34.8326 45.5215 35.0658 45.2507 35.1259 44.8709C35.2087 44.3218 34.7348 44.1036 34.9492 43.438C35.0545 43.0995 35.1899 42.3473 34.5693 42.1405C33.9525 41.9411 33.6893 42.4601 33.4824 42.7836C33.4072 42.5955 33.2944 42.4489 33.1402 42.4225C33.065 42.4075 33.001 42.4075 32.9371 42.415C32.4707 41.5274 31.7674 39.5718 31.6321 38.7519C31.884 38.8121 32.121 38.8497 32.3053 38.8497C31.2748 34.7804 30.8385 31.8356 30.7445 29.6505C30.9814 30.083 31.3876 30.5531 31.9517 30.9668C31.9705 31.9785 32.0157 32.851 32.0796 33.2196C32.1736 33.7612 32.6437 34.4645 33.4335 35.0587C33.4448 36.8225 34.3437 37.7327 35.2463 38.2592C35.4644 39.7974 36.4422 40.5609 37.3261 41.0009C37.6269 42.4752 38.5559 43.0807 39.3419 43.4229V44.7543C39.3419 47.0823 40.8839 47.936 41.967 48.3723C42.2415 48.4851 42.471 48.2707 42.4033 48.0676C42.1325 47.2816 42.1588 46.3677 42.1588 46.112V37.7139C42.3581 37.7891 42.5387 37.838 42.674 37.8906C42.1212 37.0444 42.1588 35.683 42.1588 35.3596V31.1887H42.1701ZM16.5433 5.13324C16.3591 5.18213 15.385 5.35137 15.2609 5.22726C15.4752 5.11443 15.6182 5.0505 16.0319 4.791C16.329 4.81356 16.6186 4.99785 17.0811 5.27615C16.8216 5.17085 16.7953 5.08435 16.5471 5.13324H16.5433ZM2.63179 38.9399V41.3055C2.63179 41.6026 2.60547 42.4714 2.59795 43.4756V45.0627C2.59795 46.0555 1.64644 46.9431 0.939389 47.2478C1.07478 47.071 1.22522 46.5858 1.22522 45.8675V37.3867C1.66525 37.1648 2.12783 36.8677 2.50768 36.4314C2.55281 36.4164 2.59795 36.3976 2.64684 36.3788C2.63556 37.7064 2.63179 38.7368 2.63179 38.9399ZM2.63179 31.6889C2.63179 32.0763 2.59795 34.0696 2.59795 34.3103C2.59795 35.3445 1.64644 36.1945 0.939389 36.5029C1.07478 36.3261 1.22522 35.841 1.22522 35.1189V30.8803C1.60131 30.6923 1.98868 30.4478 2.33468 30.1093C2.43998 30.0717 2.55657 30.0266 2.68444 29.9777C2.65059 30.5268 2.63179 31.2602 2.63179 31.6852V31.6889ZM0.943154 29.9928C1.07855 29.816 1.22897 29.3308 1.22897 28.6125V25.2916C1.60506 25.1074 1.99244 24.8591 2.33844 24.5207C2.43999 24.483 2.54905 24.4417 2.6694 24.3965C2.6506 24.6673 2.63556 24.9607 2.63556 25.2992V27.3413C2.63556 28.8306 1.74046 29.6468 0.946907 29.9928H0.943154ZM3.3238 24.1145C3.73749 23.9076 4.17376 23.6331 4.53857 23.242C4.61379 23.2156 4.69652 23.1818 4.7755 23.1517C4.75669 23.4112 4.74541 23.7196 4.74541 24.0844V26.1566C4.74541 27.5783 3.92554 28.3906 3.15832 28.763C3.27114 28.3944 3.3426 27.9769 3.3426 27.4955V25.4646C3.3426 25.0096 3.32004 24.5507 3.32756 24.1182L3.3238 24.1145ZM4.74541 37.7252V39.7974C4.74541 41.2867 3.7939 42.1217 3.20344 42.3812C3.33884 42.2044 3.3426 41.7869 3.3426 41.0648V39.1017C3.3426 38.8722 3.33507 37.6424 3.33131 36.1117C3.82023 35.8936 4.3618 35.5739 4.7755 35.0248C4.75293 36.0365 4.74541 37.3641 4.74541 37.7252ZM4.74541 30.4742V32.5464C4.74541 33.9492 3.88417 34.8406 3.19216 35.1565C3.28618 34.818 3.3426 34.4381 3.3426 34.0019V33.9567C3.3426 33.9116 3.3426 33.8665 3.3426 33.8138V33.0617V31.8506C3.3426 31.3504 3.31252 30.3952 3.32756 29.7032C3.74126 29.4963 4.17376 29.2218 4.53857 28.8306C4.61379 28.8006 4.69652 28.7705 4.7755 28.7404C4.75669 29.3308 4.74541 30.1056 4.74541 30.4742ZM5.2945 27.488C5.39605 27.142 5.45246 26.7509 5.45246 26.3071V22.8508C5.69316 22.7267 5.9301 22.58 6.15951 22.3995C6.38141 22.3431 6.5845 22.2792 6.77254 22.2039C6.76126 22.4183 6.76878 22.6778 6.76878 23.0652V24.9456C6.76878 26.2996 6.02788 27.0969 5.2945 27.4918V27.488ZM6.76878 35.5739V37.4544C6.76878 38.7105 6.12943 39.4853 5.45246 39.9102V36.6947C5.45246 36.5593 5.45246 35.0211 5.45246 34.1486C5.92258 33.9003 6.40773 33.5619 6.78758 33.0654C6.78006 33.8025 6.76878 35.0324 6.76878 35.5815V35.5739ZM6.76878 28.7705V30.6472C6.76878 31.9146 6.11814 32.6968 5.43742 33.1143C5.4487 32.9789 5.45246 32.8435 5.45246 32.6968V29.4437C5.45246 29.3384 5.45246 28.8645 5.45246 28.4395C5.71573 28.3041 5.98275 28.1349 6.23849 27.9243C6.40397 27.8641 6.58825 27.7926 6.78758 27.7099C6.78758 28.0597 6.76878 28.0559 6.76878 28.7742V28.7705ZM7.49463 27.3526C7.76541 27.1909 8.02867 26.9953 8.26937 26.7509C8.36339 26.7057 8.45742 26.6568 8.54392 26.608C8.54016 26.7734 8.54016 26.9615 8.54016 27.1721V29.0601C8.54016 30.177 8.03243 30.9179 7.44573 31.3655C7.46454 31.185 7.47583 30.9969 7.47583 30.8014V28.0221C7.47583 27.8152 7.47582 27.5783 7.49463 27.3526ZM8.54016 32.9902V34.8819C8.54016 35.9763 8.05124 36.7097 7.47583 37.1573V34.8255C7.47583 34.5923 7.47582 33.1933 7.50215 32.3997C7.87823 32.1778 8.25057 31.877 8.5552 31.4746C8.54392 31.986 8.54016 32.6404 8.54016 32.994V32.9902ZM8.54016 22.125V24.0129C8.54016 25.239 7.92713 26.0137 7.27274 26.4387C7.40061 26.0551 7.47958 25.6151 7.47958 25.0961V22.3168C7.47958 22.1701 7.47958 22.0159 7.48335 21.8579C7.83311 21.6436 8.1227 21.3954 8.35964 21.1246C8.43486 21.087 8.50255 21.0531 8.574 21.0155C8.55144 21.2825 8.54016 21.6398 8.54016 22.125ZM10.3454 32.4373C10.3454 33.0165 9.86775 33.5995 9.24721 34.0884V32.7457C9.24721 32.4223 9.22464 30.6284 9.25849 29.7709C9.77749 29.376 10.1573 28.9322 10.3792 28.5223C10.3717 29.989 10.3416 32.0312 10.3416 32.4373H10.3454ZM9.24344 26.1642C9.76245 25.773 10.1423 25.3368 10.368 24.9306C10.3567 25.9573 10.3454 26.8938 10.3454 27.157C10.3454 27.74 9.86775 28.3229 9.24721 28.8118V26.9314C9.24721 26.7133 9.23593 26.4387 9.23969 26.1679L9.24344 26.1642ZM10.3491 23.5315C10.3491 24.1634 9.7963 24.7877 9.10806 25.2992C9.19832 24.9644 9.25097 24.5884 9.25097 24.1634V21.8767C9.25097 21.5119 9.22088 20.9892 9.28105 20.5755C9.78501 20.2031 10.1423 19.7895 10.3905 19.3645C10.3868 20.8387 10.3529 23.1028 10.3529 23.5353L10.3491 23.5315ZM8.82599 43.5809C8.87112 43.784 9.10805 45.2018 8.57777 45.3335C8.10766 45.45 7.56232 45.1078 7.95346 44.0961C8.15278 43.5771 7.83311 42.5165 8.16407 42.4413C8.58529 42.3435 8.95761 42.9566 9.08924 43.4041C9.13061 43.532 9.1231 43.72 9.10806 43.7614C8.98771 43.5734 8.8147 43.2462 8.82599 43.5809ZM10.2664 44.0284C10.2514 44.1337 10.2288 44.2315 10.21 44.3255C10.1085 44.1149 9.92416 43.5546 9.92416 43.9231C9.92416 44.1826 9.94673 45.6719 9.45782 45.7171C8.97642 45.7622 8.87112 45.3335 9.1231 44.8145C9.37132 44.303 9.18703 42.8325 9.52551 42.8061C9.86775 42.7798 10.1273 43.1145 10.2589 43.4643C10.2777 43.6222 10.304 43.7802 10.2664 44.0322V44.0284ZM12.5267 40.9332C12.3725 41.2566 12.1243 41.3243 11.9889 41.535C11.8159 41.802 11.8986 42.2533 11.688 42.4677C11.5451 42.6143 11.4737 42.7272 11.5301 43.1032C11.4022 42.8926 11.2405 42.7572 11.1013 42.667C10.8305 42.494 10.4695 42.5316 10.3228 42.8588C10.2777 42.7836 10.2213 42.7046 10.1611 42.6369C10.21 42.5504 10.2589 42.4488 10.304 42.3511C10.4018 42.1405 10.3717 41.8396 10.4469 41.723C10.5033 41.6327 10.6989 41.5086 10.7854 41.3356C10.8719 41.1589 10.8493 40.7752 10.9358 40.5872C11.0186 40.3954 11.1352 40.3164 11.2142 40.0682C11.2367 39.9892 11.2969 39.5041 11.3608 39.3386C11.4661 39.0565 11.7933 38.6466 12.1205 38.372C12.1205 39.0302 12.128 39.2107 12.2409 39.9704C12.5643 39.647 12.8013 39.4251 13.0081 39.1581C13.0006 39.647 12.9554 39.7636 12.7712 40.1246C12.6094 40.4443 12.6884 40.6173 12.5267 40.937V40.9332ZM14.4448 43.3026C14.708 43.0393 14.8697 42.4714 15.0202 41.8433C15.1443 41.3243 16.5321 36.1456 16.8705 34.8481C17.0849 34.6299 17.2918 34.4569 17.476 34.3291C17.6002 34.2238 17.7732 34.1598 17.9725 34.1185C17.6265 35.4273 16.3215 41.3469 16.0657 42.5391C15.8664 43.2988 15.2759 43.4568 14.4372 43.2988L14.4448 43.3026ZM17.6566 43.201C17.5136 43.9758 17.4309 44.476 16.5283 44.2541C15.9491 44.1149 16.4568 43.2086 16.5622 42.573C16.6599 42.0201 18.074 35.1301 18.2809 34.0846C18.5291 34.0696 18.8149 34.0921 19.1008 34.1486C18.924 34.8895 17.6566 43.1785 17.6528 43.1973L17.6566 43.201ZM20.1688 42.148C20.1087 42.9077 20.056 43.4793 20.0222 43.6674C19.7363 45.1529 17.8409 45.0476 18.1681 43.1183C18.2583 42.5993 19.2324 35.6792 19.443 34.2238C19.8304 34.3291 20.214 34.487 20.5337 34.6864C20.5186 35.4649 20.308 39.5567 20.1651 42.148H20.1688ZM21.3385 45.074C20.9624 44.8483 20.6728 44.4534 20.6728 43.3627C20.6728 42.3586 20.827 35.9575 20.8571 34.9233C21.1128 35.1452 21.2896 35.4085 21.3385 35.698C21.3874 35.4047 21.5641 35.1452 21.8236 34.9233C21.85 35.9538 22.0079 42.3586 22.0079 43.3627C22.0079 44.4534 21.7183 44.8483 21.3422 45.074H21.3385ZM22.6586 43.6674C22.6247 43.4793 22.5758 42.9077 22.5119 42.1517C22.3727 39.5605 22.1546 35.4611 22.1433 34.6864C22.4668 34.4833 22.8504 34.3291 23.2377 34.2238C23.4484 35.6792 24.4224 42.603 24.5127 43.1183C24.8436 45.0476 22.9406 45.1529 22.6586 43.6674ZM26.1524 44.2541C25.2498 44.476 25.1708 43.972 25.0242 43.201C25.0166 43.1785 23.753 34.8932 23.5725 34.1523C23.862 34.0959 24.1441 34.0771 24.3961 34.0884C24.5841 35.0023 26.0246 42.0577 26.1111 42.5767C26.2164 43.2123 26.7241 44.1149 26.1487 44.2578L26.1524 44.2541ZM27.6605 41.8471C27.811 42.4714 27.9727 43.0431 28.236 43.3063C27.3973 43.4643 26.8068 43.3063 26.6113 42.5466C26.3593 41.3544 25.0467 35.4348 24.7045 34.126C24.9076 34.1636 25.0768 34.2313 25.2009 34.3366C25.3852 34.4607 25.5921 34.6412 25.8064 34.8556C26.1487 36.1531 27.5327 41.3319 27.6568 41.8509L27.6605 41.8471ZM33.5952 43.4004C33.7306 42.9566 34.0954 42.3435 34.5204 42.4413C34.8514 42.5165 34.5317 43.5771 34.731 44.0961C35.1222 45.1116 34.5731 45.45 34.1067 45.3335C33.5802 45.2018 33.8134 43.784 33.8585 43.5809C33.8736 43.2462 33.7006 43.5734 33.5802 43.7614C33.5539 43.6749 33.5388 43.6185 33.5952 43.4041V43.4004ZM33.1627 42.7986C33.5012 42.8249 33.3132 44.2954 33.5652 44.8069C33.8171 45.3259 33.7081 45.7584 33.2267 45.7095C32.7378 45.6644 32.7641 44.1751 32.7603 43.9156C32.7603 43.547 32.5723 44.1074 32.4745 44.318C32.4519 44.2278 32.4331 44.1262 32.4181 44.0209C32.3805 43.7689 32.4106 43.611 32.4256 43.453C32.5572 43.1032 32.8205 42.7723 33.1627 42.7949V42.7986ZM31.8991 41.3319C31.9856 41.5049 32.1811 41.629 32.2338 41.7192C32.309 41.8358 32.2789 42.1405 32.3767 42.3473C32.4256 42.4451 32.4707 42.5466 32.5196 42.6331C32.4557 42.7046 32.403 42.7798 32.3579 42.855C32.2112 42.5278 31.8502 42.4902 31.5794 42.6632C31.444 42.7497 31.2823 42.8889 31.1544 43.0995C31.2071 42.7272 31.1356 42.6106 30.9927 42.4639C30.7783 42.2495 30.8648 41.7982 30.6918 41.5312C30.5602 41.3206 30.312 41.2529 30.154 40.9294C29.9961 40.6098 30.0751 40.4368 29.9133 40.1171C29.729 39.756 29.6877 39.6432 29.6726 39.1505C29.8832 39.4176 30.1164 39.6395 30.4399 39.9629C30.5564 39.2032 30.5677 39.0227 30.5677 38.3645C30.8912 38.6391 31.2184 39.049 31.3237 39.3311C31.3838 39.4965 31.444 39.9779 31.4666 40.0607C31.5456 40.3089 31.6621 40.3879 31.7486 40.5797C31.8351 40.7715 31.8088 41.1513 31.8991 41.3281V41.3319ZM32.0119 27.2511C32.0119 27.2924 32.0194 27.3338 32.0194 27.3677C32.0119 27.3376 32.0081 27.2962 32.0119 27.2511ZM33.4335 32.7457V34.0921C32.813 33.6032 32.3354 33.0203 32.3354 32.4373C32.3354 32.0312 32.3015 29.9928 32.2977 28.5223C32.5196 28.9322 32.8995 29.3722 33.4222 29.7709C33.4561 30.6321 33.4335 32.4185 33.4335 32.7457ZM32.309 24.9231C32.5347 25.333 32.9183 25.7693 33.441 26.1642C33.441 26.435 33.4335 26.7095 33.4335 26.9276V28.8118C32.813 28.3229 32.3354 27.74 32.3354 27.157C32.3354 26.8938 32.3241 25.9536 32.309 24.9268V24.9231ZM32.3354 23.5315C32.3354 23.1028 32.3015 20.8387 32.2977 19.3607C32.5422 19.7857 32.9032 20.1994 33.4034 20.5717C33.4599 20.9892 33.4335 21.5119 33.4335 21.873V24.1596C33.4335 24.5884 33.4899 24.9607 33.5764 25.2954C32.8882 24.7877 32.3354 24.1596 32.3354 23.5278V23.5315ZM35.2049 34.8255V37.1573C34.6295 36.7097 34.1443 35.9763 34.1443 34.8819V32.9902C34.1443 32.6404 34.1406 31.9823 34.1255 31.4708C34.4302 31.8732 34.8025 32.1703 35.1823 32.396C35.2087 33.1933 35.2049 34.5886 35.2049 34.8218V34.8255ZM34.1443 29.0601V27.1721C34.1443 26.9615 34.1443 26.7734 34.1368 26.608C34.2271 26.6568 34.3211 26.7057 34.4151 26.7509C34.6558 26.9953 34.9228 27.1909 35.1899 27.3526C35.2049 27.5783 35.2049 27.8114 35.2049 28.0221V30.8014C35.2049 30.9969 35.22 31.185 35.2425 31.3655C34.6521 30.9179 34.1443 30.1808 34.1443 29.0601ZM34.1443 24.0092V22.1212C34.1443 21.6361 34.133 21.2788 34.1105 21.0117C34.1819 21.0456 34.2534 21.0832 34.3286 21.1208C34.5656 21.3916 34.8551 21.6398 35.2012 21.8542C35.2087 22.0121 35.2087 22.1663 35.2087 22.313V25.0923C35.2087 25.6076 35.2876 26.0513 35.4155 26.435C34.7536 26.01 34.1481 25.239 34.1481 24.0092H34.1443ZM37.2283 36.6909V39.9065C36.5513 39.4853 35.912 38.7068 35.912 37.4506V35.5702C35.912 35.0211 35.9007 33.7913 35.8932 33.0541C36.273 33.5543 36.7582 33.8928 37.2283 34.1373C37.2283 35.0136 37.2283 36.5518 37.2283 36.6872V36.6909ZM35.912 30.6472V28.7705C35.912 28.0559 35.8894 28.0597 35.8894 27.7061C36.0887 27.7926 36.2768 27.8603 36.4422 27.9205C36.6942 28.1274 36.9613 28.2966 37.2245 28.4358V32.6931C37.2245 32.8398 37.232 32.9752 37.2396 33.1105C36.5588 32.6931 35.9082 31.9108 35.9082 30.6434L35.912 30.6472ZM35.912 24.9456V23.0652C35.912 22.6816 35.9195 22.4183 35.9044 22.2039C36.0962 22.2754 36.2993 22.3431 36.5212 22.3995C36.7469 22.58 36.9913 22.7267 37.2283 22.8508V26.3071C37.2283 26.7509 37.2847 27.1458 37.3862 27.488C36.6529 27.0931 35.9157 26.2958 35.9157 24.9419L35.912 24.9456ZM37.9353 39.7974V37.7252C37.9353 37.3641 37.924 36.0365 37.9015 35.0248C38.3189 35.5739 38.8567 35.8974 39.3532 36.1117C39.3456 37.6424 39.3457 38.8685 39.3457 39.1017V41.0648C39.3457 41.7869 39.3457 42.2044 39.4773 42.3812C38.8906 42.1217 37.9391 41.2867 37.9391 39.7974H37.9353ZM37.9353 32.5464V30.4742C37.9353 30.1056 37.924 29.3308 37.9015 28.7404C37.9804 28.7742 38.0632 28.8006 38.1384 28.8306C38.507 29.2218 38.9395 29.4963 39.3532 29.7032C39.3682 30.3952 39.3457 31.3467 39.3457 31.8506V33.0579V33.953V33.9981C39.3457 34.4306 39.3983 34.8142 39.4886 35.1565C38.7966 34.8406 37.9353 33.9455 37.9353 32.5464ZM37.9353 26.1604V24.0882C37.9353 23.7196 37.924 23.415 37.9015 23.1555C37.9804 23.1855 38.0632 23.2194 38.1384 23.2457C38.507 23.6406 38.9395 23.9152 39.3532 24.1182C39.3607 24.5507 39.3419 25.0096 39.3419 25.4646V27.4955C39.3419 27.9807 39.4058 28.3981 39.5224 28.763C38.7552 28.3944 37.9316 27.582 37.9316 26.1566L37.9353 26.1604ZM40.079 45.0664V43.4793C40.079 42.4789 40.0527 41.6064 40.0527 41.3093V38.9437C40.0527 38.7406 40.0452 37.7101 40.0377 36.3825C40.0828 36.4013 40.1317 36.4164 40.1731 36.4352C40.5529 36.8752 41.0155 37.1723 41.4555 37.3904V45.8713C41.4555 46.5934 41.6022 47.0785 41.7376 47.2515C41.0343 46.9469 40.0828 46.0593 40.0828 45.0664H40.079ZM40.079 34.3178C40.079 34.0771 40.0489 32.0838 40.0489 31.6964C40.0489 31.2677 40.0264 30.5343 39.9925 29.989C40.1204 30.0379 40.2407 30.0793 40.3461 30.1206C40.6845 30.4591 41.0757 30.7073 41.4518 30.8916V35.1301C41.4518 35.8522 41.5984 36.3374 41.7338 36.5142C41.0305 36.2058 40.079 35.3558 40.079 34.3216V34.3178ZM40.0489 27.3564V25.3067C40.0489 24.9682 40.0377 24.6711 40.0151 24.4041C40.1317 24.4492 40.2445 24.4906 40.3461 24.5282C40.6845 24.8667 41.0757 25.1149 41.4518 25.2992V28.62C41.4518 29.3421 41.5984 29.8273 41.7338 30.0003C40.9403 29.6543 40.0489 28.8382 40.0489 27.3564ZM40.0452 21.7602V21.0193C40.0452 20.6469 40.0452 20.2859 40.0489 20.1091C40.0489 19.4134 39.9361 18.4882 39.2742 18.0369C39.4735 18.8191 39.3419 18.9545 39.3419 20.2708V21.196C39.3419 21.196 39.3419 21.2261 39.3419 21.3352V21.9106C39.3419 22.392 39.4058 22.8132 39.5224 23.178C38.7552 22.8057 37.9316 21.9971 37.9316 20.5717C37.9316 20.0941 37.8187 18.1234 37.2207 17.3035V20.7184C37.2207 21.1697 37.2772 21.5646 37.3825 21.9144C35.581 21.0005 35.7615 17.894 35.1748 16.6905C35.1748 17.7322 35.1974 18.4656 35.1974 19.5074C35.1974 20.0226 35.2764 20.4627 35.4005 20.8463C33.8247 19.8383 33.6404 17.8676 33.52 16.3934C33.3658 16.9387 33.1138 18.3791 33.5463 19.7368C32.4895 18.9282 31.8991 17.202 31.9705 15.9684C31.8163 16.6453 31.6509 17.6608 31.9818 18.68C31.9254 19.8383 31.9329 28.9886 31.9367 29.9852C31.3349 29.4888 30.7182 28.5899 30.7859 27.2247C30.8084 26.9991 30.8348 26.7885 30.8648 26.5892C31.2898 23.7346 31.3763 19.6202 30.1954 16.3294C31.1469 21.4668 29.9622 26.7546 29.793 27.8152C29.4959 29.7145 30.1427 33.6484 31.4816 38.0148C31.2221 37.759 30.3308 37.3829 29.9735 37.0256C29.9735 37.4205 30.1164 37.8455 30.1164 38.7068C29.6538 37.9358 29.4808 37.9019 28.9957 37.052C29.1461 38.0561 29.101 38.1464 29.101 39.0152C28.6271 38.1125 28.3676 36.9203 27.2769 35.2129C24.8436 31.4144 21.3385 33.7687 21.3385 34.4306C21.3385 33.7687 17.8333 31.4144 15.4038 35.2129C14.3094 36.9203 14.0536 38.1125 13.576 39.0152C13.576 38.1464 13.5346 38.0561 13.6851 37.052C13.1961 37.9057 13.0194 37.9358 12.5606 38.7068C12.5606 37.8455 12.7035 37.4205 12.7035 37.0256C12.3462 37.3829 11.4548 37.759 11.1953 38.0148C12.5342 33.6521 13.1811 29.7145 12.8802 27.8152C12.711 26.7509 11.5263 21.4668 12.4816 16.3294C11.3007 19.6202 11.3872 23.7346 11.8121 26.5892C11.8422 26.7922 11.8685 27.0066 11.8874 27.2285C11.955 28.5975 11.3345 29.4963 10.7328 29.9928C10.7328 28.9961 10.7478 19.8571 10.6876 18.68C11.0223 17.6608 10.8569 16.6453 10.6989 15.9684C10.7741 17.202 10.1837 18.9244 9.1231 19.7368C9.55184 18.3791 9.30362 16.9425 9.14567 16.3934C9.02156 17.8676 8.84479 19.8421 7.26522 20.8463C7.39309 20.4627 7.4683 20.0226 7.4683 19.5074C7.4683 18.4656 7.49463 17.7322 7.49463 16.6905C6.90417 17.8977 7.08845 21.0042 5.28698 21.9144C5.38853 21.5646 5.44495 21.1735 5.44495 20.7184V17.3035C4.85072 18.1234 4.7379 20.0941 4.7379 20.5717C4.7379 21.9971 3.91802 22.8057 3.1508 23.1743C3.26362 22.8095 3.33508 22.3882 3.33508 21.9068V21.3314C3.33508 21.2224 3.33508 21.1923 3.33508 21.1923V20.2671C3.33508 18.9508 3.19593 18.8154 3.39902 18.0331C2.7371 18.4844 2.62051 19.4096 2.62803 20.1054V21.0155V21.7564C2.62803 23.242 1.73294 24.0656 0.939389 24.4078C1.07478 24.2273 1.22522 23.7459 1.22522 23.0238V15.8518C1.22522 13.836 3.57953 11.5192 4.4483 10.5C6.85903 7.67184 7.91209 9.96975 10.3379 10.7896C14.3733 12.1624 16.5283 10.6317 16.5283 10.6317C18.687 9.27398 18.6908 7.99528 18.6908 7.19421C18.6908 6.65264 18.484 5.94935 18.0891 5.49805C17.3519 4.76091 16.0431 4.52397 15.81 4.5691C15.3173 4.82108 14.881 4.82108 14.7945 4.89254C14.5651 4.44123 14.6253 3.75299 15.6407 3.18886C15.9266 3.0309 15.8213 2.66985 16.69 2.16213C19.2286 0.680338 21.7071 1.21815 23.1588 2.83157C22.6473 2.64729 22.1546 2.47429 21.2896 2.39155C22.5006 2.81277 23.9373 3.81693 24.8624 5.483C25.2423 6.14492 26.0998 7.97271 26.4044 8.52557C27.0513 9.70649 28.2209 12.1736 32.3429 10.7821C34.7724 9.96223 35.8179 7.66432 38.2324 10.4925C39.105 11.5117 41.4555 13.8284 41.4555 15.8443V23.0163C41.4555 23.7384 41.6022 24.2198 41.7376 24.4003C40.944 24.0543 40.0489 23.2344 40.0489 21.7489L40.0452 21.7602Z" fill="#000100"/>
<path d="M16.0288 4.7915C15.6189 5.05101 15.4722 5.11494 15.2578 5.22777C15.3819 5.35188 16.3598 5.18264 16.5403 5.12998C16.7885 5.08485 16.8148 5.17512 17.0743 5.27666C16.608 4.99835 16.3221 4.81783 16.025 4.7915H16.0288Z" fill="white"/>
<path d="M29.2397 21.5944C29.2397 25.942 25.712 29.4697 21.3644 29.4697C17.0168 29.4697 13.4854 25.942 13.4854 21.5944C13.4854 17.2468 17.0131 13.7153 21.3644 13.7153C25.7158 13.7153 29.2397 17.2431 29.2397 21.5944Z" fill="#D9D9D9"/>
<path d="M27.9924 21.591C27.9924 25.288 24.9988 28.2817 21.3018 28.2817C20.5007 28.2817 19.7298 28.1387 19.0152 27.883C16.4465 26.9465 14.6074 24.4832 14.6074 21.591C14.6074 18.6989 16.454 16.2205 19.0378 15.2915C19.7486 15.0395 20.5083 14.9004 21.3018 14.9004C24.9988 14.9004 27.9924 17.8978 27.9924 21.591Z" fill="url(#paint13_linear_1_573)"/>
<path d="M27.6116 19.3608C21.7747 17.8 14.9863 19.3683 14.9863 19.3683C15.652 17.4728 17.1451 15.9722 19.033 15.2915C19.7439 15.0395 20.5036 14.9004 21.2971 14.9004C24.2118 14.9004 26.6902 16.762 27.6079 19.3608H27.6116Z" fill="#008833"/>
<path d="M27.6116 23.8176C21.7747 25.3746 14.9863 23.8101 14.9863 23.8101C15.652 25.7018 17.1451 27.2061 19.033 27.8831C19.7439 28.1351 20.5036 28.2742 21.2971 28.2742C24.2118 28.2742 26.6902 26.4126 27.6079 23.8138L27.6116 23.8176Z" fill="#000100"/>
<path d="M22.3362 18.9319C25.1945 19.0673 27.0975 19.4773 27.0975 19.4773C27.703 20.079 27.6617 22.6101 27.1163 23.6782C27.1163 23.6782 25.0554 24.1182 22.7575 24.2235C21.0839 24.3025 19.0191 24.1257 19.0191 24.1257C19.0191 24.1257 18.9326 23.4036 18.9326 21.5946C18.9326 19.7857 19.0154 19.0297 19.0154 19.0297C19.0154 19.0297 20.7717 18.8567 22.3325 18.9357L22.3362 18.9319Z" fill="url(#paint14_linear_1_573)"/>
<path d="M18.5789 21.4471C18.5789 25.2607 19.0152 27.882 19.0152 27.882C16.4465 26.9455 14.6074 24.4822 14.6074 21.59C14.6074 18.6979 16.454 16.2195 19.0378 15.2905C19.0378 15.2905 18.5789 17.5621 18.5789 21.4471Z" fill="#DB0027"/>
<path d="M21.3536 29.82C16.8292 29.82 13.1436 26.1381 13.1436 21.6099C13.1436 17.0818 16.8255 13.3999 21.3536 13.3999C25.8817 13.3999 29.5674 17.0818 29.5674 21.6099C29.5674 26.1381 25.8817 29.82 21.3536 29.82ZM21.3536 13.9565C17.1376 13.9565 13.7039 17.3902 13.7039 21.6062C13.7039 25.8221 17.1339 29.2558 21.3536 29.2558C25.5733 29.2558 29.007 25.8221 29.007 21.6062C29.007 17.3902 25.5733 13.9565 21.3536 13.9565Z" fill="#000100"/>
<path d="M26.1111 28.5648C26.1111 28.5648 25.4341 28.373 25.2498 28.3091L25.0279 27.4516C25.0279 27.4516 25.0166 27.4403 25.0129 27.4365C25.0054 27.4365 24.9978 27.4365 24.9941 27.444C24.9941 27.444 24.6105 28.0044 24.4939 28.1549C24.3021 28.1511 23.6213 28.0984 23.6213 28.0984C23.6138 28.0984 23.6101 28.0984 23.6025 28.1097C23.6025 28.1135 23.6025 28.121 23.6025 28.1285L24.1441 28.8469C24.0764 29.0274 23.8056 29.6931 23.8056 29.6931C23.8056 29.7006 23.8056 29.7081 23.8094 29.7119C23.8169 29.7194 23.8244 29.7194 23.8319 29.7156L24.6518 29.3696L25.3062 29.8849C25.3062 29.8849 25.3137 29.8849 25.3175 29.8849C25.3213 29.8849 25.325 29.8849 25.3288 29.8849C25.3325 29.8849 25.3401 29.8773 25.3401 29.8661C25.3401 29.8661 25.3514 29.1402 25.3514 29.0274C25.5168 28.9371 26.1186 28.5874 26.1186 28.5874C26.1261 28.5874 26.1299 28.5761 26.1299 28.5686C26.1299 28.561 26.1223 28.5535 26.1186 28.5535" fill="#000100"/>
<path d="M25.4237 28.681C25.4237 28.681 25.4275 28.6735 25.4275 28.6697C25.4275 28.6622 25.4237 28.6547 25.4162 28.6509L25.3184 28.6208L25.0213 28.523L24.9762 28.3463L24.9122 28.0981C24.9122 28.0981 24.9047 28.0868 24.8972 28.083C24.8934 28.083 24.8859 28.083 24.8821 28.0905L24.6189 28.4328L24.2014 28.4215C24.2014 28.4215 24.1977 28.4215 24.1939 28.4253C24.1901 28.4253 24.1864 28.4252 24.1826 28.4328V28.4441V28.4516L24.4459 28.8013L24.3631 29.0232L24.303 29.185C24.303 29.185 24.303 29.1925 24.303 29.1962C24.303 29.2 24.303 29.2038 24.303 29.2075C24.303 29.2075 24.3143 29.2113 24.318 29.2075L24.4647 29.1436L24.6753 29.0533L25.0288 29.3316C25.0288 29.3316 25.0363 29.3316 25.0439 29.3316H25.0514C25.0514 29.3316 25.0627 29.3203 25.0627 29.3166V28.869L25.4049 28.681C25.4087 28.681 25.4087 28.6735 25.4087 28.6735" fill="white"/>
<path d="M19.0001 28.1131C19.0001 28.1131 18.9888 28.0981 18.9813 28.1019C18.9813 28.1019 18.3006 28.1545 18.1088 28.1583C17.9922 28.0078 17.6086 27.4475 17.6086 27.4475C17.6048 27.4399 17.5973 27.4399 17.5898 27.4399C17.5823 27.4399 17.5747 27.4475 17.5747 27.455L17.3491 28.3125C17.1648 28.3726 16.4916 28.5644 16.4916 28.5682C16.4841 28.5682 16.4766 28.5757 16.4766 28.5833C16.4766 28.5908 16.4766 28.5983 16.4841 28.6021C16.4841 28.6021 17.0821 28.9481 17.2513 29.0383C17.2513 29.1511 17.2626 29.877 17.2626 29.877C17.2626 29.8845 17.2701 29.8883 17.2739 29.8958C17.2739 29.8958 17.2776 29.8958 17.2814 29.8958C17.2851 29.8958 17.2889 29.8958 17.2927 29.892L17.9471 29.3768L18.7707 29.7228C18.7707 29.7228 18.7857 29.7228 18.7895 29.7228C18.797 29.7153 18.797 29.7078 18.7933 29.7002C18.7933 29.7002 18.5225 29.0383 18.4548 28.854L18.9926 28.1357C18.9926 28.1357 19.0001 28.1244 18.9926 28.1169" fill="#000100"/>
<path d="M18.2663 28.654L18.4167 28.4547C18.4167 28.4547 18.4167 28.4471 18.4167 28.4434C18.4167 28.4396 18.4167 28.4358 18.4167 28.4358C18.413 28.4283 18.4054 28.4246 18.4017 28.4246L17.9805 28.4358L17.8526 28.2666L17.721 28.0974C17.721 28.0974 17.7097 28.0898 17.7022 28.0898C17.6946 28.0898 17.6909 28.0974 17.6871 28.1049L17.578 28.5299L17.3825 28.5938L17.1869 28.6577C17.1869 28.6577 17.1719 28.669 17.1719 28.6765C17.1719 28.6841 17.1719 28.6916 17.1832 28.6953L17.5292 28.8834V29.3309C17.5292 29.3309 17.5292 29.3422 17.5367 29.346H17.5442C17.5442 29.346 17.5517 29.346 17.5555 29.346L17.7736 29.173L17.9052 29.0677L18.1685 29.1805L18.2663 29.2219C18.2663 29.2219 18.2813 29.2219 18.2851 29.2219C18.2851 29.2219 18.2926 29.2068 18.2889 29.1993L18.2061 28.9812L18.1422 28.8157L18.2588 28.6653L18.2663 28.654Z" fill="white"/>
<path d="M16.4086 16.695L15.6076 16.2813L15.5399 15.3787C15.5399 15.3787 15.5361 15.3636 15.5286 15.3599C15.5211 15.3599 15.5135 15.3599 15.506 15.3674C15.506 15.3674 15.0509 15.8713 14.9231 16.0255L14.1107 15.8413C14.1107 15.8413 14.0994 15.8413 14.0957 15.8488C14.0882 15.8563 14.0882 15.8638 14.0919 15.8676C14.0919 15.8676 14.3552 16.4543 14.4417 16.631C14.3289 16.7852 13.949 17.3531 13.949 17.3531C13.9415 17.3607 13.9415 17.3682 13.949 17.3757C13.949 17.3832 13.9603 17.3832 13.9678 17.3832C13.9678 17.3832 14.6485 17.2666 14.8441 17.2403L15.4082 17.9098C15.4082 17.9098 15.4158 17.9173 15.4233 17.9173C15.4233 17.9173 15.4383 17.9098 15.4383 17.9022C15.4383 17.9022 15.5511 17.2403 15.5887 17.056C15.773 16.977 16.4049 16.7326 16.4086 16.7288C16.4162 16.7288 16.4199 16.7213 16.4199 16.71C16.4199 16.7025 16.4199 16.695 16.4086 16.6912" fill="#000100"/>
<path d="M22.5873 13.2046C22.5873 13.2046 22.5798 13.1933 22.5685 13.1933C22.5685 13.1933 21.8765 13.1482 21.6847 13.1369C21.602 12.9601 21.3086 12.3922 21.3086 12.3922V12.3847C21.3086 12.3847 21.2936 12.3772 21.286 12.3809C21.2823 12.3809 21.2748 12.3847 21.2748 12.3922C21.2748 12.3922 20.9852 12.9639 20.9024 13.1406C20.7106 13.1482 20.0224 13.1933 20.0224 13.1933C20.0149 13.1933 20.0073 13.2008 20.0073 13.2083C20.0036 13.2159 20.0073 13.2234 20.0149 13.2309C20.0149 13.2309 20.5376 13.701 20.6768 13.8364L20.5038 14.7089C20.5038 14.7089 20.5038 14.724 20.5113 14.7277C20.5151 14.7277 20.5188 14.7277 20.5226 14.7277C20.5263 14.7277 20.5301 14.7277 20.5339 14.7277C20.5339 14.7277 21.1243 14.3893 21.2936 14.3065C21.4666 14.3893 22.0533 14.7277 22.0533 14.7277C22.0608 14.7277 22.0683 14.7277 22.0721 14.7277C22.0796 14.724 22.0834 14.7165 22.0796 14.7089L21.9066 13.8364C22.0457 13.701 22.5723 13.2309 22.5723 13.2271C22.5798 13.2234 22.5798 13.2159 22.5798 13.2083" fill="#000100"/>
<path d="M21.9213 13.4342C21.9213 13.4342 21.9138 13.4229 21.9025 13.4229L21.5076 13.4041L21.3158 12.998C21.3158 12.998 21.3083 12.9829 21.297 12.9829C21.2895 12.9829 21.282 12.9867 21.2782 12.998L21.0864 13.4041L20.6915 13.4229C20.6915 13.4229 20.6765 13.4267 20.6765 13.4342C20.6727 13.4417 20.6765 13.4493 20.6765 13.453L20.9736 13.7389L20.8908 14.1714C20.8908 14.1714 20.8908 14.1864 20.8984 14.1902C20.9059 14.1939 20.9096 14.1939 20.9172 14.1902L21.297 13.9946L21.6769 14.1902C21.6769 14.1902 21.6844 14.1902 21.6881 14.1902C21.6881 14.1902 21.6957 14.1902 21.6994 14.1864C21.707 14.1826 21.7107 14.1751 21.707 14.1676L21.6205 13.7351L21.9176 13.4493C21.9176 13.4493 21.9251 13.4342 21.9213 13.4305" fill="white"/>
<path d="M28.6524 17.3572C28.6524 17.3572 28.2688 16.7856 28.156 16.6314C28.2425 16.4546 28.5057 15.8679 28.5057 15.8679C28.5095 15.8642 28.5057 15.8529 28.5057 15.8491C28.4982 15.8416 28.4945 15.8416 28.4869 15.8416L27.6746 16.0259C27.5467 15.8717 27.0879 15.364 27.0879 15.364C27.0879 15.3564 27.0766 15.3564 27.0691 15.3564C27.0616 15.3602 27.0578 15.3677 27.0578 15.3752L26.9901 16.2779L26.189 16.6916C26.189 16.6916 26.1777 16.7028 26.1777 16.7104C26.1777 16.7179 26.1777 16.7254 26.1928 16.7254C26.1928 16.7254 26.8284 16.9736 27.0089 17.0526C27.0503 17.2369 27.1593 17.8988 27.1593 17.8988C27.1593 17.9063 27.1669 17.9139 27.1744 17.9139C27.1744 17.9139 27.1756 17.9139 27.1781 17.9139C27.1781 17.9139 27.1894 17.9139 27.1932 17.9063L27.7611 17.2331C27.9529 17.2557 28.6336 17.376 28.6336 17.376C28.6449 17.376 28.6524 17.376 28.6524 17.3648C28.6599 17.361 28.6599 17.3497 28.6524 17.346" fill="#000100"/>
<path d="M28.0716 16.9732L27.8347 16.6573L28.034 16.2549C28.034 16.2549 28.0378 16.2398 28.034 16.2361C28.0265 16.2286 28.019 16.2286 28.0152 16.2286L27.5676 16.3301L27.3119 16.0292C27.3119 16.0292 27.2969 16.0217 27.2893 16.0255C27.2818 16.0255 27.2781 16.033 27.2781 16.0405L27.248 16.4542L26.8531 16.6573C26.8531 16.6573 26.8418 16.6686 26.8418 16.6761C26.8418 16.6836 26.8493 16.6911 26.8531 16.6911L27.2405 16.8641L27.327 17.2891C27.327 17.2891 27.3307 17.3004 27.3382 17.3042H27.3458C27.3458 17.3042 27.357 17.3042 27.3608 17.2967L27.6429 16.9619L28.0566 17.0108C28.0566 17.0108 28.0678 17.0108 28.0754 17.0033C28.0791 16.9958 28.0791 16.9883 28.0754 16.9807" fill="white"/>
<path d="M15.7417 16.6544L15.3468 16.4513L15.3167 16.0376C15.3167 16.0376 15.3092 16.0226 15.3017 16.0226C15.2941 16.0188 15.2866 16.0226 15.2829 16.0263L15.0271 16.3272L14.5796 16.2256C14.5796 16.2256 14.5683 16.2256 14.5608 16.2332C14.557 16.2407 14.557 16.2482 14.5608 16.2557L14.7601 16.6581L14.5232 16.9741C14.5232 16.9741 14.5194 16.9891 14.5232 16.9966C14.5307 17.0041 14.5344 17.0079 14.5457 17.0079L14.9557 16.9553L15.2377 17.29C15.2377 17.29 15.249 17.2975 15.2528 17.2975H15.2603C15.2603 17.2975 15.2716 17.29 15.2753 17.2825L15.3581 16.8575L15.7454 16.6845C15.7454 16.6845 15.7567 16.6769 15.7567 16.6694C15.7567 16.6619 15.753 16.6544 15.7454 16.6506" fill="white"/>
<path d="M14.8024 23.916C14.8024 23.916 14.3586 23.4158 14.2307 23.2691C14.2796 23.0773 14.4677 22.4342 14.4677 22.4342C14.4677 22.4266 14.4677 22.4191 14.4601 22.4154C14.4564 22.4116 14.4451 22.4116 14.4413 22.4154L13.6328 22.7726C13.471 22.6673 12.9069 22.2649 12.9069 22.2649C12.9031 22.2574 12.8919 22.2574 12.8843 22.2649C12.8806 22.2687 12.8768 22.2762 12.8768 22.2837C12.8768 22.2837 12.9708 22.9569 13.0084 23.1525L12.3503 23.6753C12.3503 23.6753 12.3428 23.6865 12.3428 23.6941C12.3428 23.7016 12.3503 23.7091 12.3578 23.7091C12.3578 23.7091 12.9859 23.8633 13.1777 23.9047C13.2266 24.0927 13.4334 24.7433 13.4334 24.7433C13.4334 24.7509 13.4409 24.7584 13.4522 24.7584C13.4522 24.7584 13.4673 24.7546 13.471 24.7471C13.471 24.7471 13.8058 24.1416 13.9073 23.9799L14.7911 23.9536C14.7911 23.9536 14.8062 23.9498 14.8062 23.9423C14.8099 23.9348 14.8062 23.9272 14.8062 23.9235" fill="#000100"/>
<path d="M14.208 23.6594L13.9297 23.3322L14.0388 22.9185C14.0388 22.9185 14.0388 22.9034 14.0312 22.8997C14.0275 22.8959 14.02 22.8922 14.0124 22.8997L13.61 23.0764L13.2603 22.8508C13.2603 22.8508 13.2452 22.847 13.2377 22.8508C13.2302 22.8546 13.2264 22.8621 13.2302 22.8696L13.3091 23.2532L12.9519 23.5353C12.9519 23.5353 12.9443 23.5503 12.9443 23.5541C12.9443 23.5616 12.9519 23.5654 12.9594 23.5691L13.3994 23.6669L13.4934 24.0505C13.4934 24.0505 13.5047 24.0656 13.5085 24.0656C13.5085 24.0656 13.5198 24.0618 13.5235 24.058L13.7417 23.7045L14.1854 23.6932C14.1854 23.6932 14.1967 23.6895 14.1967 23.682C14.2005 23.6744 14.2005 23.6669 14.1967 23.6631" fill="white"/>
<path d="M30.2446 23.668L29.5865 23.1453C29.6241 22.9535 29.7181 22.2765 29.7181 22.2765C29.7181 22.269 29.7181 22.2615 29.7106 22.2577C29.703 22.2539 29.6955 22.2539 29.688 22.2577C29.688 22.2577 29.1276 22.6601 28.9659 22.7654L28.1573 22.4081C28.1573 22.4081 28.146 22.4081 28.1385 22.4081C28.131 22.4119 28.1272 22.4194 28.131 22.4269C28.131 22.4269 28.319 23.0701 28.3679 23.2619C28.2401 23.4123 27.7963 23.9125 27.7963 23.9125C27.7888 23.92 27.7887 23.9275 27.7925 23.9313C27.7963 23.9388 27.8 23.9426 27.8113 23.9426L28.6951 23.9689C28.7967 24.1306 29.1314 24.7361 29.1314 24.7361C29.1314 24.7437 29.1427 24.7474 29.1502 24.7474C29.1502 24.7474 29.1615 24.7399 29.1652 24.7324C29.1652 24.7324 29.3683 24.0817 29.421 23.8937C29.6128 23.8523 30.2409 23.6944 30.2409 23.6944C30.2484 23.6944 30.2521 23.6868 30.2521 23.6793C30.2521 23.6718 30.2521 23.6643 30.2446 23.6605" fill="#000100"/>
<path d="M29.6418 23.5358L29.2845 23.2538L29.3635 22.8701C29.3635 22.8701 29.3635 22.8513 29.356 22.8513C29.3485 22.8438 29.3372 22.8438 29.3297 22.8513L28.9799 23.077L28.5775 22.9002C28.5775 22.9002 28.5624 22.9002 28.5587 22.9002C28.5549 22.904 28.5511 22.9115 28.5549 22.919L28.664 23.3327L28.3857 23.6599C28.3857 23.6599 28.3782 23.6712 28.3819 23.6787C28.3857 23.6863 28.3932 23.69 28.4007 23.69L28.8407 23.7013L29.0551 24.0548C29.0551 24.0548 29.0664 24.0624 29.0702 24.0624H29.0739C29.0739 24.0624 29.089 24.0548 29.089 24.0473L29.1867 23.6637L29.6305 23.5659C29.6305 23.5659 29.6456 23.5584 29.6456 23.5509C29.6456 23.5433 29.6456 23.5358 29.638 23.5321" fill="white"/>
<path d="M32.5762 51.1061C32.6852 51.4333 32.4596 51.8019 32.0647 51.9222C31.7262 52.0238 31.384 51.9034 31.2373 51.6552C31.3464 51.7943 31.5532 51.8583 31.7601 51.7981C32.0196 51.7229 32.1813 51.4747 32.1098 51.2528C32.0083 50.9218 31.903 50.5909 31.8014 50.2561C31.7638 50.1396 31.6472 50.0831 31.5156 50.1245C31.6848 49.8575 31.8428 49.5905 31.997 49.3159C32.1888 49.9101 32.3844 50.5044 32.5762 51.1023V51.1061Z" fill="white"/>
<path d="M18.9381 53.3972C19.0697 53.4084 19.1863 53.3257 19.1938 53.2054C19.2013 53.0925 19.096 52.991 18.9682 52.9797C18.8328 52.9722 18.7162 53.0587 18.7049 53.1677C18.6936 53.2843 18.8027 53.3821 18.9381 53.3934V53.3972Z" fill="white"/>
<path d="M12.4815 48.8992C12.3573 48.8654 12.2332 48.9293 12.2031 49.0346C12.1731 49.1475 12.2445 49.264 12.3686 49.2979C12.4852 49.3317 12.6093 49.2716 12.6432 49.1587C12.6733 49.0497 12.598 48.9331 12.4815 48.8992Z" fill="white"/>
<path d="M28.4032 49.6702C28.2791 49.6965 28.1963 49.8093 28.2227 49.9259C28.2452 50.035 28.3656 50.1102 28.4935 50.0839C28.6138 50.0575 28.6928 49.941 28.6702 49.8319C28.6439 49.7191 28.5235 49.6476 28.4032 49.6702Z" fill="white"/>
<path d="M19.9188 53.4525C20.058 53.46 20.167 53.3735 20.1708 53.2569C20.1746 53.1441 20.073 53.0463 19.9376 53.0388C19.8022 53.0312 19.6932 53.1215 19.6856 53.2343C19.6819 53.3509 19.7834 53.4449 19.9188 53.4487V53.4525Z" fill="white"/>
<path d="M18.3465 53.3517C18.4781 53.363 18.5985 53.284 18.606 53.1637C18.6135 53.0509 18.512 52.9493 18.3803 52.938C18.2449 52.9268 18.1246 53.0095 18.1171 53.1223C18.1058 53.2389 18.2073 53.3405 18.3465 53.3517Z" fill="white"/>
<path d="M12.9989 49.0382C12.8786 49.0081 12.7545 49.072 12.7244 49.1811C12.6943 49.2939 12.7695 49.4068 12.8936 49.4406C13.014 49.4745 13.1343 49.4105 13.1644 49.2977C13.1908 49.1886 13.1155 49.072 12.9989 49.0382Z" fill="white"/>
<path d="M28.9337 49.5538C28.8096 49.5801 28.7343 49.6929 28.7569 49.8095C28.7795 49.9186 28.8961 49.99 29.0239 49.9599C29.1443 49.9336 29.227 49.817 29.2007 49.708C29.1706 49.5951 29.0503 49.5237 28.9337 49.5538Z" fill="white"/>
<path d="M37.5081 48.8537C37.4442 48.7296 37.384 48.6018 37.3201 48.4777C36.8199 47.4848 36.3197 46.4919 35.8232 45.499C36.1053 45.5742 36.3949 45.6457 36.6845 45.7134C36.5416 45.83 36.5604 45.9654 36.6168 46.0782C37.0568 46.9282 37.5006 47.7781 37.9406 48.6281C37.7939 48.7033 37.651 48.7785 37.5044 48.8537H37.5081Z" fill="white"/>
<path d="M25.7337 52.4005C25.587 51.1557 25.4366 49.9183 25.2861 48.6772C25.5231 48.8427 25.7675 49.0082 26.0082 49.1699C25.8428 49.2339 25.8127 49.3655 25.8315 49.4896C25.9593 50.4411 26.0872 51.3889 26.2151 52.3404C26.0571 52.3629 25.8954 52.3817 25.7337 52.4005Z" fill="white"/>
<path d="M15.8612 52.2089C16.0568 50.9715 16.2561 49.7417 16.4516 48.5044C16.6359 48.73 16.8202 48.9557 17.012 49.1776C16.8315 49.1926 16.7638 49.313 16.7488 49.4371C16.6096 50.3848 16.4705 51.3326 16.3313 52.2803C16.1733 52.2578 16.0116 52.2352 15.8574 52.2089H15.8612Z" fill="white"/>
<path d="M31.1336 51.3243C31.096 51.1889 31.0584 51.0535 31.0208 50.9219C30.7237 49.8538 30.419 48.7857 30.1182 47.7139C30.3814 47.8417 30.6447 47.9696 30.9155 48.09C30.7575 48.1802 30.7462 48.3118 30.7838 48.436C31.0546 49.3536 31.3292 50.275 31.6 51.1927C31.4458 51.2378 31.2916 51.283 31.1374 51.3243H31.1336Z" fill="white"/>
<path d="M30.656 51.452C30.4792 50.7826 30.2987 50.1131 30.1219 49.4399C29.9489 49.6882 29.7759 49.9289 29.5992 50.1733C29.7872 50.1696 29.8624 50.2786 29.8925 50.3952C29.9565 50.6547 30.0242 50.9105 30.0881 51.17C29.3961 51.343 28.7003 51.4972 27.997 51.6288C27.8992 51.6476 27.809 51.6626 27.715 51.6814C27.5683 51.5949 27.4254 51.5047 27.2862 51.4182C27.6134 51.0835 27.8165 50.4968 27.6924 49.9966C27.6134 50.6886 27.3013 51.1737 26.5303 51.4558C26.88 51.6852 27.2373 51.9108 27.6021 52.1252C27.7601 52.0989 27.918 52.0688 28.076 52.0387C28.941 51.8732 29.806 51.6777 30.6597 51.4483L30.656 51.452Z" fill="white"/>
<path d="M34.0737 48.8847C34.3708 48.99 34.6679 49.0953 34.9688 49.1969C35.0666 49.4301 35.1606 49.6595 35.2584 49.8889C35.0327 49.9829 34.8071 50.0769 34.5776 50.1634C34.525 50.0356 34.4761 49.9039 34.4235 49.7761C34.4987 49.746 34.5739 49.7159 34.6529 49.6858C34.6303 49.6369 34.6115 49.5843 34.5889 49.5316C34.4874 49.5015 34.3896 49.4639 34.2843 49.4301C34.2166 49.2495 34.1414 49.069 34.0699 48.8847H34.0737ZM32.9718 50.7577C32.9266 50.626 32.8815 50.4944 32.8364 50.359C32.4791 49.3097 32.118 48.2567 31.7607 47.2036C32.0278 47.3164 32.3061 47.4293 32.5769 47.5346C32.4264 47.6361 32.4227 47.7677 32.4603 47.8881C32.7348 48.6591 33.0094 49.4338 33.2839 50.201C33.4381 50.1446 33.5923 50.0882 33.7465 50.0356C33.7089 49.9303 33.6675 49.8287 33.6299 49.7234C33.7841 49.4451 33.927 49.1668 34.0737 48.8847C34.1451 49.0653 34.2166 49.2495 34.2881 49.4301C34.2392 49.5241 34.1903 49.6143 34.1414 49.7084C34.164 49.761 34.1828 49.8137 34.2016 49.8626C34.273 49.8362 34.3482 49.8062 34.4235 49.7761C34.4724 49.9077 34.525 50.0356 34.5776 50.1634C34.194 50.3176 33.8142 50.4606 33.4306 50.5959C33.393 50.611 33.3591 50.6223 33.3178 50.6335C33.2012 50.6749 33.0846 50.7163 32.9718 50.7539V50.7577Z" fill="white"/>
<path d="M23.1122 50.5307C23.2814 50.542 23.5071 50.6962 23.5861 50.8353C23.7666 50.824 23.9509 50.8127 24.1314 50.7977C23.9245 51.2603 23.7064 51.7191 23.477 52.1779C23.8945 52.1554 24.3157 52.1215 24.7369 52.0839C24.6617 51.2678 24.5865 50.4555 24.5112 49.6393C24.5 49.5152 24.4473 49.3949 24.2706 49.3686C24.4736 49.1542 24.6692 48.9398 24.861 48.7217C24.9964 49.9703 25.128 51.2114 25.2597 52.4562C25.1205 52.4713 24.9851 52.4826 24.846 52.4976C24.8234 52.4976 24.8046 52.5014 24.782 52.5014C24.2593 52.5503 23.7403 52.5879 23.2175 52.6104C23.1987 52.3321 23.1874 52.0576 23.1761 51.7755C23.2626 51.6063 23.3491 51.4333 23.4319 51.2603C23.3867 51.264 23.3378 51.2678 23.2927 51.2678C23.2777 51.1475 23.225 51.0873 23.1385 51.0233C23.131 50.8579 23.1235 50.6924 23.116 50.5269L23.1122 50.5307ZM21.6831 52.8587C21.6868 53.2047 21.3671 53.4867 20.961 53.483C20.6074 53.4755 20.3178 53.2573 20.2539 52.979C20.3178 53.1445 20.4946 53.2686 20.709 53.2724C20.9798 53.2799 21.1979 53.0881 21.2017 52.8587C21.2017 52.5127 21.2054 52.1629 21.2092 51.8169C21.2092 51.689 21.1189 51.6025 20.9798 51.6025C21.2167 51.3957 21.4499 51.1888 21.6755 50.9782C21.6793 51.3957 21.6831 51.8131 21.6831 52.2306C22.093 52.2306 22.5029 52.2193 22.9129 52.2043C22.6421 51.7718 22.3826 51.3317 22.1306 50.8955C22.3111 50.8917 22.4954 50.888 22.6759 50.8804C22.7361 50.7338 22.9505 50.557 23.116 50.5307C23.1235 50.6962 23.131 50.8616 23.1385 51.0271C23.0633 51.0986 23.0219 51.1625 23.0182 51.2866C22.9693 51.2866 22.9241 51.2866 22.8753 51.2941C22.973 51.4559 23.0708 51.6176 23.1724 51.7793C23.1874 52.0576 23.1949 52.3359 23.2137 52.6142C22.7023 52.6368 22.1908 52.6518 21.6793 52.6556V52.8624L21.6831 52.8587Z" fill="white"/>
<path d="M13.7265 51.7993C14.1214 51.8858 14.5163 51.9685 14.9112 52.0438C14.9262 52.0475 14.945 52.0513 14.9639 52.055C15.103 52.0814 15.2459 52.1077 15.3851 52.1303C15.3851 52.1303 15.3888 52.1303 15.3926 52.1303C15.607 50.8967 15.8176 49.6669 16.0282 48.4333C15.7837 48.5913 15.5317 48.7417 15.2798 48.8884C15.449 48.9636 15.4678 49.0952 15.4452 49.2193C15.2948 50.0242 15.1444 50.8252 14.9939 51.6338C14.836 51.6037 14.678 51.5737 14.5238 51.5398C14.5464 51.4307 14.5689 51.3217 14.5915 51.2126C14.3997 50.9606 14.2117 50.7086 14.0311 50.4529C13.9898 50.6447 13.9446 50.8328 13.9033 51.0246C13.9672 51.1111 14.0311 51.1938 14.0913 51.2803C14.08 51.333 14.0688 51.3894 14.0575 51.442C13.9785 51.427 13.8995 51.4082 13.8205 51.3894C13.7904 51.5248 13.7566 51.6639 13.7265 51.7993ZM10.6839 50.5394C10.7028 50.4868 10.7178 50.4341 10.7366 50.3814C10.8457 50.0354 10.6163 49.6406 10.2251 49.5089C10.195 49.4976 10.1687 49.4864 10.1386 49.4788C9.26985 49.1742 8.40485 48.8357 7.55864 48.4559C7.61506 48.328 7.67523 48.2001 7.72788 48.0723C7.77677 47.9594 7.89712 47.9256 8.02123 47.9782C7.8896 47.6924 7.76549 47.4103 7.64514 47.1245C7.41196 47.6285 7.1788 48.1324 6.94938 48.6364C7.97987 49.1103 9.02915 49.5315 10.0897 49.9001C10.2402 49.9527 10.3229 50.0994 10.2815 50.2272C10.2627 50.2799 10.2439 50.3326 10.2289 50.3852C10.18 50.5281 10.1311 50.6748 10.0822 50.8215C9.98442 50.8591 9.8904 50.9004 9.79262 50.9381C9.7362 50.844 9.68355 50.75 9.62714 50.6522C9.67603 50.5093 9.72868 50.3664 9.77757 50.2272C9.66474 50.1859 9.55192 50.1483 9.43909 50.1069C9.39772 50.0919 9.36011 50.0806 9.31874 50.0618C8.46126 49.7459 7.61129 49.3961 6.77637 49.0125C6.71996 49.1404 6.65978 49.2645 6.59961 49.3961C7.44581 49.7835 8.30705 50.1408 9.17206 50.4604C9.1495 50.5244 9.12317 50.5883 9.1006 50.656C9.26232 50.9381 9.4278 51.2201 9.59704 51.4984C9.89792 51.3856 10.195 51.2653 10.4921 51.1449C10.5147 51.0772 10.5335 51.0095 10.5598 50.9381C10.8946 51.0471 11.2293 51.1487 11.5678 51.2465C11.6317 51.3442 11.7144 51.4232 11.8197 51.4984C11.7746 51.427 11.7332 51.3555 11.7031 51.2878C11.9815 51.3668 12.2635 51.4458 12.5456 51.5172C12.9405 51.6188 13.3316 51.7166 13.7303 51.8031C13.7604 51.6677 13.7942 51.5285 13.8243 51.3931C13.7453 51.3781 13.6701 51.3593 13.5949 51.3405C13.6062 51.2878 13.6212 51.2352 13.6325 51.1788C13.7228 51.1299 13.8168 51.0772 13.907 51.0283C13.9484 50.8403 13.9935 50.6485 14.0349 50.4567C13.7604 50.6109 13.4858 50.7575 13.2037 50.9042C13.1774 51.0133 13.1511 51.1186 13.1248 51.2276C12.9668 51.19 12.8089 51.1487 12.6547 51.1073C12.7712 50.6522 12.8916 50.1934 13.0082 49.7346C12.7374 49.8662 12.4628 49.9941 12.1845 50.1182C12.3538 50.2047 12.3651 50.3401 12.3312 50.4604C12.2861 50.6372 12.2334 50.8102 12.1883 50.987C12.1206 50.9681 12.0529 50.9493 11.9852 50.9305C11.8536 50.8929 11.7257 50.8591 11.5978 50.8215C11.5941 50.656 11.6204 50.4905 11.6543 50.325C11.7596 49.8173 11.8987 49.2306 11.2556 48.5424C11.0713 48.6289 10.8795 48.7154 10.6915 48.8019C11.1465 48.9373 11.3271 49.3622 11.3985 49.6932C11.4662 50.0994 11.2406 50.4078 11.3571 50.75C11.1352 50.6823 10.9134 50.6146 10.6877 50.5469V50.5432L10.6839 50.5394Z" fill="white"/>
<path d="M17.8133 52.0473C17.8922 52.0548 17.9712 52.0661 18.0502 52.0699C18.069 51.8931 18.084 51.7164 18.1029 51.5396C18.0314 51.5697 17.9449 51.5923 17.8584 51.5998C17.8734 51.4456 17.8922 51.2914 17.9073 51.1334C18.0201 51.092 18.1555 51.0018 18.1743 50.8175C18.2119 50.4189 18.2533 50.0202 18.2909 49.6215C18.3022 49.4974 18.2721 49.3658 18.1029 49.3094C18.3398 49.1364 18.573 48.9634 18.8061 48.7866C18.7121 49.8998 18.6181 51.0056 18.5241 52.1113C18.7761 52.1338 19.0318 52.1526 19.2875 52.1677C19.2988 51.9871 19.3101 51.8029 19.3214 51.6223C19.3289 51.4982 19.2875 51.3704 19.1033 51.3177C19.3515 51.1372 19.5884 50.9567 19.8291 50.7724C19.8028 51.2462 19.784 51.7164 19.7577 52.194C19.9156 52.2015 20.0773 52.209 20.2353 52.2128C20.2428 52.0323 20.2503 51.848 20.2578 51.6675C20.2578 51.5396 20.2202 51.4117 20.036 51.3666C20.2767 51.1823 20.5098 50.9943 20.7468 50.8025C20.7317 51.4155 20.7167 52.0247 20.7054 52.6415C19.9946 52.6265 19.2838 52.5889 18.5767 52.5325C18.3059 52.5099 18.0389 52.4836 17.7681 52.4573C17.7832 52.3219 17.7982 52.1827 17.8095 52.0473H17.8133ZM17.8245 51.6073C17.708 51.6148 17.6139 51.6976 17.6027 51.8029C17.5951 51.8743 17.5839 51.9458 17.5726 52.021C17.6516 52.0285 17.7343 52.0398 17.8133 52.0473C17.7982 52.1827 17.7832 52.3219 17.7719 52.4573C17.7192 52.4535 17.6666 52.446 17.6177 52.4422C17.4297 52.4234 17.2378 52.3971 17.0498 52.3745C17.0761 52.1639 17.1025 51.9533 17.1288 51.7464C17.1702 51.4418 17.4447 51.2199 17.7681 51.1936C17.7757 51.1823 17.8358 51.171 17.9111 51.1372C17.896 51.2951 17.8772 51.4493 17.8622 51.6035C17.8509 51.6035 17.8396 51.6035 17.8245 51.6111V51.6073Z" fill="white"/>
<path d="M5.66149 48.4807C5.73295 48.5183 5.80816 48.5559 5.88338 48.5898C5.96236 48.4318 6.04134 48.2738 6.12032 48.1159C6.03758 48.1159 5.95108 48.1084 5.86082 48.0858C5.93227 47.9429 5.99997 47.8075 6.07143 47.6646C6.19177 47.6646 6.35726 47.6307 6.44 47.4652C6.61676 47.108 6.79352 46.7469 6.97029 46.3896C7.0267 46.2768 7.04549 46.1452 6.90258 46.0286C7.19217 45.9534 7.478 45.8781 7.76006 45.7954C7.2185 46.9274 6.68069 48.0519 6.14288 49.184C5.91723 49.0787 5.69534 48.9658 5.47344 48.8568C5.53738 48.7289 5.59755 48.6048 5.66149 48.4807ZM5.82321 48.0783C5.70662 48.0444 5.58628 48.0858 5.53739 48.1761C5.50354 48.2362 5.47345 48.3002 5.4396 48.3641C5.51106 48.4055 5.58627 48.4431 5.65772 48.4807C5.59379 48.6048 5.52985 48.7289 5.46968 48.8568C5.24779 48.744 5.02966 48.6311 4.81152 48.5145C4.90555 48.3227 5.01085 48.1384 5.10864 47.9504C5.25155 47.6796 5.5938 47.5706 5.91347 47.6683C5.921 47.6571 5.98869 47.6683 6.07143 47.6683C5.99997 47.8075 5.93227 47.9466 5.86082 48.0896C5.84953 48.0896 5.84201 48.082 5.82321 48.0783Z" fill="white"/>
<path d="M17.9324 48.9094C17.9437 48.7966 17.8609 48.6913 17.7406 48.68C17.6278 48.6649 17.5187 48.7477 17.5037 48.8605C17.4886 48.9771 17.5751 49.0786 17.6917 49.0937C17.812 49.1087 17.9173 49.0298 17.9286 48.9132L17.9324 48.9094Z" fill="white"/>
<path d="M17.8755 49.4095C17.8831 49.2967 17.8041 49.1952 17.6837 49.1764C17.5672 49.1651 17.4581 49.2441 17.443 49.3569C17.428 49.4697 17.5183 49.5788 17.6348 49.5901C17.759 49.6051 17.8605 49.5224 17.8793 49.4058L17.8755 49.4095Z" fill="white"/>
<path d="M6.23651 45.8226C6.1801 45.9242 6.22898 46.0558 6.33805 46.116C6.45088 46.1762 6.58251 46.1348 6.63516 46.0295C6.68406 45.928 6.64269 45.8001 6.52986 45.7437C6.42455 45.6873 6.2854 45.7249 6.23651 45.8226Z" fill="white"/>
<path d="M6.47284 45.3788C6.41642 45.4841 6.46531 45.6082 6.57438 45.6646C6.6872 45.7248 6.81507 45.6835 6.86773 45.5819C6.92038 45.4804 6.87525 45.3525 6.76619 45.2961C6.66088 45.2434 6.52549 45.2773 6.4766 45.3788H6.47284Z" fill="white"/>
<path d="M35.9508 47.8418C35.6461 47.1874 35.3377 46.5367 35.0293 45.8823C35.3377 45.9839 35.6461 46.0817 35.962 46.1719C35.8191 46.296 35.7928 46.4465 35.8417 46.5555C36.0448 46.9692 36.2441 47.3792 36.4472 47.7966C36.3832 47.9546 36.3156 48.1088 36.2516 48.263C36.4133 48.3119 36.5751 48.3532 36.7405 48.3984C36.8496 48.624 36.9587 48.8497 37.0677 49.0753C36.8458 49.1844 36.624 49.2897 36.3983 49.3912C36.3419 49.2634 36.2817 49.1393 36.2215 49.0114C36.2968 48.9775 36.372 48.9399 36.4472 48.9061C36.4246 48.8572 36.3983 48.8083 36.3757 48.7594C36.2704 48.7293 36.1689 48.703 36.0673 48.6767C35.9846 48.4999 35.9019 48.3194 35.8229 48.1426C35.868 48.0448 35.9094 47.9508 35.9508 47.8493V47.8418ZM36.3983 49.3875C36.1764 49.489 35.9508 49.5906 35.7289 49.6884C35.6273 49.4627 35.5258 49.2295 35.4242 49.0001C35.4994 48.8459 35.5709 48.6955 35.6386 48.5413C35.4769 48.4924 35.3189 48.4435 35.161 48.3908C35.1497 48.3645 35.1346 48.3382 35.1271 48.3119C34.9579 47.917 34.7811 47.5221 34.6119 47.1272C34.563 47.0144 34.4276 46.9354 34.2471 46.9655C34.3825 46.6684 34.5103 46.3675 34.6344 46.0666C34.9316 46.7248 35.2287 47.3829 35.5258 48.0411C35.6273 48.0749 35.7251 48.105 35.8266 48.1351C35.9056 48.3119 35.9921 48.4886 36.0711 48.6691C36.026 48.7669 35.9808 48.861 35.9395 48.9587C35.962 49.0076 35.9846 49.0603 36.0072 49.1092C36.0786 49.0753 36.1538 49.0415 36.2253 49.0114C36.2817 49.1393 36.3419 49.2671 36.4021 49.3912L36.3983 49.3875Z" fill="white"/>
<path d="M36.8689 49.8624C36.9629 49.8925 37.0607 49.9264 37.1585 49.9527C36.8576 50.0956 36.5605 50.2347 36.2559 50.3664C36.2972 50.2836 36.3386 50.2009 36.3762 50.1182C36.4101 50.152 36.4552 50.152 36.5154 50.1144C36.3424 49.9602 36.5492 49.7157 36.7711 49.7872C36.7485 49.7834 36.7222 49.7872 36.6996 49.8022C36.6357 49.8323 36.6056 49.8925 36.6319 49.9489C36.6545 50.0016 36.7222 50.0204 36.7899 49.9903C36.8463 49.964 36.8802 49.9075 36.8651 49.8624H36.8689Z" fill="white"/>
<path d="M56.6142 20.7633C56.6142 22.9296 57.5093 23.3283 58.363 23.3283C59.2807 23.3283 60.1005 22.9522 60.1005 20.7182V17.3033C60.1005 17.0777 60.1908 17.0325 60.3375 17.01C60.6797 16.9761 60.9956 16.9648 61.2213 16.9648C61.1987 17.4199 61.1874 18.0894 61.1874 19.0296V20.6731C61.1874 23.7721 59.5402 24.2572 58.205 24.2572C56.3096 24.2572 55.2565 23.2944 55.2565 20.8536V18.5181C55.2565 17.7584 55.2452 17.292 55.2227 17.0551C55.4145 17.0213 56.1629 16.9648 56.381 16.9648C56.5841 16.9648 56.6179 17.0664 56.6179 17.6117V20.7671L56.6142 20.7633Z" fill="#B68A35"/>
<path d="M62.3242 17.1002V17.0551C62.5612 17.0213 63.46 16.9648 63.6744 16.9648C63.7872 16.9648 63.8775 17.0438 63.9903 17.1679C64.3551 17.6681 65.3292 19.1086 66.1679 20.4136C66.6793 21.2184 67.1419 21.9217 67.4052 22.5122C67.3601 21.5607 67.3601 21.0943 67.3601 20.5264V17.3372C67.3601 17.0777 67.4278 17.0325 67.597 17.0213C67.9129 16.9874 68.1536 16.9648 68.4131 16.9648C68.3905 17.4538 68.3793 18.1119 68.3793 19.0521V24.0428C68.289 24.0767 67.676 24.2234 67.345 24.2234C67.1983 24.2234 67.1532 24.1895 67.0629 24.0767C66.4725 23.238 65.8482 22.2828 65.0208 21.0492C64.3739 20.0262 63.964 19.3229 63.5127 18.4504C63.5578 19.6426 63.5578 20.2443 63.5578 20.8235V23.8059C63.5578 24.0428 63.4901 24.0767 63.3209 24.1105C63.1291 24.1444 62.8319 24.167 62.516 24.1557C62.5386 23.7006 62.5499 23.0425 62.5499 22.0909V17.371L62.3242 17.1002Z" fill="#B68A35"/>
<path d="M69.8249 18.4955C69.8249 17.7358 69.8136 17.2695 69.791 17.0551C69.9828 17.0213 70.7312 16.9648 70.9607 16.9648C71.1525 16.9648 71.1863 17.0664 71.1863 17.5779V22.6739C71.1863 23.4674 71.2089 23.8435 71.2202 24.0692C71.0396 24.1256 70.3138 24.1594 70.0618 24.1594C69.9038 24.1594 69.8249 24.1256 69.8249 23.9338V18.4993V18.4955Z" fill="#B68A35"/>
<path d="M74.1243 17.8266H72.0935C71.9129 17.8266 71.834 17.7589 71.9242 17.5107C72.0145 17.2174 72.1499 17.0782 72.2665 16.9541C72.4357 16.9992 72.7328 17.0105 73.8987 17.0105H77.8702C77.8251 17.5784 77.5543 17.7815 77.3362 17.8266H75.4858V22.6819C75.4858 23.4642 75.5084 23.8403 75.5196 24.066C75.215 24.1224 74.7825 24.1562 74.3613 24.1562C74.192 24.1562 74.1243 24.1224 74.1243 23.9531V17.8266Z" fill="#B68A35"/>
<path d="M78.4606 18.5969C78.4606 18.0628 78.4606 17.6454 78.4268 17.1677C78.7314 17.1 79.1977 17.021 79.6415 17.0098H82.3531C82.2854 17.4987 82.1726 17.6341 82.0485 17.7695C81.8793 17.8372 81.5032 17.8372 81.0143 17.8372H79.822V20.026H82.2403C82.1726 20.6842 81.9131 20.8534 81.5145 20.8534H79.822V23.2491C80.0703 23.3055 80.4576 23.3281 80.9014 23.3281C81.3678 23.3281 82.1275 23.3281 82.6615 23.2717L82.6728 23.2942C82.5825 23.738 82.3907 23.9524 82.1049 24.0991C81.9582 24.1329 81.4355 24.1555 80.5742 24.1555C79.6453 24.1555 78.9082 24.0991 78.6223 24.0426L78.4644 23.8283V18.5969H78.4606Z" fill="#B68A35"/>
<path d="M83.4171 18.4495C83.4171 17.6785 83.4058 17.4491 83.3945 17.1671C83.6315 17.0881 84.8237 16.9414 85.7188 16.9414C89.1224 16.9414 89.7128 19.0174 89.7128 20.4578C89.7128 22.8648 88.0091 24.2037 85.6962 24.2037C84.8914 24.2037 84.1429 24.1134 83.4171 23.9893V18.4533V18.4495ZM84.7785 23.3274C85.038 23.3951 85.3464 23.4177 85.6962 23.4177C86.832 23.4177 88.2611 22.8611 88.2611 20.4578C88.2611 18.709 87.2871 17.735 85.5495 17.735C85.1734 17.735 84.9591 17.7575 84.7785 17.7914V23.3274Z" fill="#B68A35"/>
<path d="M93.7787 21.9894C93.4853 22.7491 93.1318 23.6442 92.9738 24.009C92.9287 24.0993 92.8497 24.1557 92.703 24.1557C92.4661 24.1557 92.0787 24.088 91.8531 24.009L91.8418 23.9639C92.4435 22.5799 94.2375 18.3263 94.6437 17.3485L94.5534 17.1002C94.9521 17.01 95.5388 16.9648 95.6666 16.9648C95.7795 16.9648 95.8697 17.0325 95.9261 17.1679C96.4489 18.4053 97.3101 20.6505 97.6975 21.6396C98.1639 22.798 98.4346 23.5013 98.649 23.9752L98.6377 24.0203C98.4008 24.1105 97.6862 24.1557 97.4342 24.1557C97.265 24.1557 97.186 24.0993 97.0694 23.7796C96.8551 23.2117 96.6821 22.7115 96.3887 21.9856H93.7787V21.9894ZM96.1518 21.1846C95.6065 19.7329 95.2341 18.7776 95.1063 18.4842C94.8129 19.2439 94.5045 20.0601 94.072 21.1846H96.148H96.1518Z" fill="#B68A35"/>
<path d="M100.702 23.8172C100.702 24.0428 100.646 24.0879 100.454 24.1105C100.138 24.1444 99.5477 24.1556 99.3408 24.1556C99.3634 23.7006 99.3747 23.0311 99.3747 22.0796V18.2774C99.3747 17.7207 99.3747 17.4612 99.3521 17.1303C99.6455 17.0626 100.826 16.9385 101.349 16.9385C103.087 16.9385 103.937 17.5177 103.937 18.9468C103.937 19.9698 103.098 20.5339 102.553 20.7407C102.767 20.8874 103.121 21.4215 103.538 22.1812C104.072 23.1552 104.523 23.8021 104.787 24.0315V24.0654C104.685 24.1218 104.241 24.1782 103.937 24.1782C103.482 24.1782 103.177 24.0428 102.869 23.6329C102.553 23.1778 102.391 22.8168 101.928 21.9292C101.541 21.2146 101.281 21.1469 100.943 21.1469H100.706V23.8134L100.702 23.8172ZM100.702 20.4248C101.067 20.4474 101.665 20.3797 101.815 20.312C102.064 20.2105 102.53 19.8795 102.53 19.0634C102.53 18.078 101.906 17.6907 101.214 17.6907C101.045 17.6907 100.815 17.7019 100.702 17.7245V20.4248Z" fill="#B68A35"/>
<path d="M107.035 21.9894C106.741 22.7491 106.388 23.6442 106.23 24.009C106.185 24.0993 106.106 24.1557 105.959 24.1557C105.722 24.1557 105.335 24.088 105.109 24.009L105.098 23.9639C105.699 22.5799 107.493 18.3263 107.9 17.3485L107.809 17.1002C108.208 17.01 108.795 16.9648 108.922 16.9648C109.035 16.9648 109.126 17.0325 109.182 17.1679C109.705 18.4053 110.566 20.6505 110.953 21.6396C111.42 22.798 111.691 23.5013 111.905 23.9752L111.894 24.0203C111.657 24.1105 110.942 24.1557 110.69 24.1557C110.521 24.1557 110.442 24.0993 110.325 23.7796C110.111 23.2117 109.938 22.7115 109.645 21.9856H107.035V21.9894ZM109.408 21.1846C108.862 19.7329 108.49 18.7776 108.362 18.4842C108.069 19.2439 107.76 20.0601 107.328 21.1846H109.404H109.408Z" fill="#B68A35"/>
<path d="M112.64 18.5849C112.64 17.9832 112.64 17.656 112.606 17.1558C112.832 17.0994 113.821 16.9414 114.57 16.9414C116.646 16.9414 116.977 18.0208 116.977 18.7015C116.977 19.4161 116.51 19.9163 115.942 20.2209C116.928 20.4691 117.428 21.1386 117.428 21.9359C117.428 23.3989 116.179 24.2037 114.446 24.2037C113.878 24.2037 113.129 24.1247 112.64 23.9893V18.5887V18.5849ZM113.968 20.1043C114.261 20.0479 114.626 20.0366 115.149 20.0479C115.408 19.9125 115.672 19.48 115.672 18.8783C115.672 18.1073 115.183 17.6973 114.502 17.6973C114.31 17.6973 114.092 17.7199 113.968 17.7425V20.1043ZM113.968 23.3838C114.126 23.429 114.355 23.4515 114.558 23.4515C115.42 23.4515 115.954 22.9288 115.954 22.0337C115.954 21.2288 115.397 20.7963 114.513 20.7963C114.321 20.7963 114.115 20.7963 113.968 20.8302V23.3838Z" fill="#B68A35"/>
<path d="M120.188 18.5969C120.188 18.0628 120.188 17.6454 120.154 17.1677C120.459 17.1 120.925 17.021 121.369 17.0098H124.081C124.013 17.4987 123.9 17.6341 123.776 17.7695C123.607 17.8372 123.231 17.8372 122.742 17.8372H121.55V20.026H123.968C123.9 20.6842 123.641 20.8534 123.242 20.8534H121.55V23.2491C121.798 23.3055 122.185 23.3281 122.629 23.3281C123.095 23.3281 123.855 23.3281 124.389 23.2717L124.4 23.2942C124.31 23.738 124.118 23.9524 123.832 24.0991C123.686 24.1329 123.163 24.1555 122.302 24.1555C121.373 24.1555 120.636 24.0991 120.35 24.0426L120.192 23.8283V18.5969H120.188Z" fill="#B68A35"/>
<path d="M131.051 17.1228C131.209 17.0325 131.923 16.9648 132.175 16.9648C132.288 16.9648 132.356 17.0325 132.39 17.3071L132.991 21.4817C133.161 22.6739 133.296 23.5126 133.401 24.0579C133.221 24.1143 132.54 24.1594 132.311 24.1594C132.175 24.1594 132.04 24.103 132.017 23.8887C131.938 23.2982 131.871 22.6964 131.746 21.5155L131.397 18.5783C131.066 19.5787 130.362 21.5155 129.603 23.6517C129.535 23.8661 129.456 23.9563 129.215 24.0165C129.024 24.0504 128.772 24.0955 128.557 24.0955C128.286 23.1891 127.241 20.124 126.718 18.6046C126.538 20.045 126.173 22.7115 125.992 23.994C125.97 24.1293 125.913 24.1632 125.8 24.1632C125.507 24.1632 125.063 24.1632 124.883 24.0617C125.097 22.892 125.53 19.9322 126.019 17.3447L125.973 17.1303C126.244 17.0626 126.62 16.9724 127.132 16.9724C127.301 17.0288 127.391 17.2093 127.621 17.811L129.208 22.1699C129.798 20.5715 130.592 18.4579 131.069 17.3033L131.058 17.1341L131.051 17.1228Z" fill="#B68A35"/>
<path d="M134.397 18.4955C134.397 17.7358 134.386 17.2695 134.363 17.0551C134.555 17.0213 135.304 16.9648 135.533 16.9648C135.725 16.9648 135.759 17.0664 135.759 17.5779V22.6739C135.759 23.4674 135.781 23.8435 135.792 24.0692C135.612 24.1256 134.886 24.1594 134.634 24.1594C134.476 24.1594 134.397 24.1256 134.397 23.9338V18.4993V18.4955Z" fill="#B68A35"/>
<path d="M138.515 23.8172C138.515 24.0428 138.458 24.0879 138.267 24.1105C137.951 24.1444 137.36 24.1556 137.153 24.1556C137.176 23.7006 137.187 23.0311 137.187 22.0796V18.2774C137.187 17.7207 137.187 17.4612 137.165 17.1303C137.458 17.0626 138.639 16.9385 139.162 16.9385C140.899 16.9385 141.749 17.5177 141.749 18.9468C141.749 19.9698 140.91 20.5339 140.365 20.7407C140.579 20.8874 140.933 21.4215 141.35 22.1812C141.885 23.1552 142.336 23.8021 142.599 24.0315V24.0654C142.498 24.1218 142.054 24.1782 141.749 24.1782C141.294 24.1782 140.989 24.0428 140.681 23.6329C140.365 23.1778 140.203 22.8168 139.741 21.9292C139.353 21.2146 139.094 21.1469 138.755 21.1469H138.519V23.8134L138.515 23.8172ZM138.515 20.4248C138.88 20.4474 139.478 20.3797 139.628 20.312C139.876 20.2105 140.343 19.8795 140.343 19.0634C140.343 18.078 139.718 17.6907 139.026 17.6907C138.857 17.6907 138.628 17.7019 138.515 17.7245V20.4248Z" fill="#B68A35"/>
<path d="M144.849 21.9894C144.556 22.7491 144.202 23.6442 144.044 24.009C143.999 24.0993 143.92 24.1557 143.773 24.1557C143.536 24.1557 143.149 24.088 142.923 24.009L142.912 23.9639C143.514 22.5799 145.308 18.3263 145.714 17.3485L145.624 17.1002C146.022 17.01 146.609 16.9648 146.737 16.9648C146.85 16.9648 146.94 17.0325 146.996 17.1679C147.519 18.4053 148.38 20.6505 148.768 21.6396C149.234 22.798 149.505 23.5013 149.719 23.9752L149.708 24.0203C149.471 24.1105 148.757 24.1557 148.505 24.1557C148.335 24.1557 148.256 24.0993 148.14 23.7796C147.925 23.2117 147.752 22.7115 147.459 21.9856H144.849V21.9894ZM147.222 21.1846C146.677 19.7329 146.304 18.7776 146.177 18.4842C145.883 19.2439 145.575 20.0601 145.142 21.1846H147.218H147.222Z" fill="#B68A35"/>
<path d="M151.306 17.8266H149.275C149.095 17.8266 149.016 17.7589 149.106 17.5107C149.196 17.2174 149.332 17.0782 149.448 16.9541C149.617 16.9992 149.914 17.0105 151.08 17.0105H155.052C155.007 17.5784 154.736 17.7815 154.518 17.8266H152.667V22.6819C152.667 23.4642 152.69 23.8403 152.701 24.066C152.397 24.1224 151.964 24.1562 151.543 24.1562C151.374 24.1562 151.306 24.1224 151.306 23.9531V17.8266Z" fill="#B68A35"/>
<path d="M155.641 18.5969C155.641 18.0628 155.641 17.6454 155.607 17.1677C155.912 17.1 156.378 17.021 156.822 17.0098H159.534C159.466 17.4987 159.353 17.6341 159.229 17.7695C159.06 17.8372 158.684 17.8372 158.195 17.8372H157.003V20.026H159.421C159.353 20.6842 159.094 20.8534 158.695 20.8534H157.003V23.2491C157.251 23.3055 157.638 23.3281 158.082 23.3281C158.548 23.3281 159.308 23.3281 159.842 23.2717L159.853 23.2942C159.763 23.738 159.571 23.9524 159.286 24.0991C159.139 24.1329 158.616 24.1555 157.755 24.1555C156.826 24.1555 156.089 24.0991 155.803 24.0426L155.645 23.8283V18.5969H155.641Z" fill="#B68A35"/>
<path d="M162.836 16.8257C163.516 16.8257 164.141 17.119 164.344 17.3259C164.366 17.5177 164.253 17.9276 163.956 18.063C163.674 17.9163 163.152 17.7471 162.787 17.7471C162.14 17.7471 161.719 18.0517 161.719 18.5632C161.719 19.1085 162.083 19.3793 163.136 20.0488C164.032 20.6167 164.678 21.0492 164.678 22.1361C164.678 23.5426 163.486 24.2572 162.181 24.2572C161.41 24.2572 160.831 24.0541 160.56 23.836C160.38 23.7119 160.301 23.6103 160.301 23.4712C160.301 23.2568 160.47 22.8356 160.56 22.7679C160.97 23.05 161.64 23.2681 162.136 23.2681C162.885 23.2681 163.306 22.9409 163.306 22.4069C163.306 21.9067 163.024 21.602 161.809 20.8649C160.617 20.1503 160.414 19.4357 160.414 18.8566C160.414 18.0743 160.959 16.8257 162.821 16.8257H162.832H162.836Z" fill="#B68A35"/>
<path d="M55.2227 30.9254V30.8803C55.4596 30.8465 56.3584 30.79 56.5728 30.79C56.6856 30.79 56.7759 30.869 56.8887 30.9931C57.2535 31.4933 58.2276 32.9337 59.0663 34.2388C59.5778 35.0436 60.0404 35.7469 60.3036 36.3374C60.2585 35.3859 60.2585 34.9195 60.2585 34.3516V31.1624C60.2585 30.9029 60.3262 30.8577 60.4954 30.8465C60.8113 30.8126 61.052 30.79 61.3115 30.79C61.289 31.279 61.2777 31.9371 61.2777 32.8773V37.868C61.1874 37.9019 60.5744 38.0486 60.2435 38.0486C60.0968 38.0486 60.0516 38.0147 59.9614 37.9019C59.3709 37.0632 58.7466 36.1079 57.9192 34.8744C57.2723 33.8514 56.8624 33.1481 56.4111 32.2756C56.4562 33.4678 56.4562 34.0695 56.4562 34.6487V37.6311C56.4562 37.868 56.3885 37.9019 56.2193 37.9357C56.0275 37.9696 55.7304 37.9922 55.4145 37.9809C55.437 37.5258 55.4483 36.8676 55.4483 35.9161V31.1962L55.2227 30.9254Z" fill="#B68A35"/>
<path d="M63.9574 35.8146C63.664 36.5743 63.3105 37.4694 63.1525 37.8342C63.1074 37.9245 63.0284 37.9809 62.8818 37.9809C62.6448 37.9809 62.2574 37.9132 62.0318 37.8342L62.0205 37.7891C62.6223 36.4051 64.4162 32.1515 64.8224 31.1737L64.7321 30.9254C65.1308 30.8352 65.7175 30.79 65.8453 30.79C65.9582 30.79 66.0484 30.8577 66.1048 30.9931C66.6276 32.2305 67.4889 34.4757 67.8762 35.4648C68.3426 36.6232 68.6134 37.3265 68.8277 37.8003L68.8164 37.8455C68.5795 37.9357 67.8649 37.9809 67.613 37.9809C67.4437 37.9809 67.3647 37.9245 67.2482 37.6048C67.0338 37.0369 66.8608 36.5367 66.5674 35.8108H63.9574V35.8146ZM66.3305 35.0098C65.7852 33.5581 65.4128 32.6028 65.285 32.3094C64.9916 33.0691 64.6832 33.8853 64.2507 35.0098H66.3267H66.3305Z" fill="#B68A35"/>
<path d="M70.4163 31.6504H68.3855C68.2049 31.6504 68.126 31.5827 68.2162 31.3344C68.3065 31.0411 68.4419 30.9019 68.5585 30.7778C68.7277 30.823 69.0248 30.8342 70.1907 30.8342H74.1622C74.1171 31.4021 73.8463 31.6052 73.6281 31.6504H71.7778V36.5057C71.7778 37.2879 71.8003 37.664 71.8116 37.8897C71.507 37.9461 71.0745 37.9799 70.6533 37.9799C70.484 37.9799 70.4163 37.9461 70.4163 37.7769V31.6504Z" fill="#B68A35"/>
<path d="M74.7526 32.3207C74.7526 31.561 74.7413 31.0947 74.7188 30.8803C74.9106 30.8465 75.659 30.79 75.8884 30.79C76.0802 30.79 76.114 30.8916 76.114 31.4031V36.4991C76.114 37.2926 76.1366 37.6687 76.1479 37.8944C75.9674 37.9508 75.2415 37.9846 74.9895 37.9846C74.8316 37.9846 74.7526 37.9508 74.7526 37.759V32.3245V32.3207Z" fill="#B68A35"/>
<path d="M80.7894 30.6504C83.2754 30.6504 84.4413 32.4443 84.4413 34.3022C84.4413 36.3557 83.2039 38.0819 80.8233 38.0819C78.1906 38.0819 77.1602 36.1526 77.1602 34.4188C77.1602 32.2864 78.5216 30.6504 80.7781 30.6504H80.7894ZM80.6992 31.4327C79.5182 31.4327 78.6119 32.3954 78.6119 34.3022C78.6119 36.209 79.68 37.2997 80.9022 37.2997C82.196 37.2997 82.9895 36.2541 82.9895 34.4075C82.9895 32.5609 82.0268 31.4364 80.7104 31.4364H80.6992V31.4327Z" fill="#B68A35"/>
<path d="M85.2822 30.9254V30.8803C85.5192 30.8465 86.418 30.79 86.6324 30.79C86.7452 30.79 86.8355 30.869 86.9483 30.9931C87.3131 31.4933 88.2872 32.9337 89.1259 34.2388C89.6373 35.0436 90.0999 35.7469 90.3632 36.3374C90.3181 35.3859 90.3181 34.9195 90.3181 34.3516V31.1624C90.3181 30.9029 90.3858 30.8577 90.555 30.8465C90.8709 30.8126 91.1116 30.79 91.3711 30.79C91.3486 31.279 91.3373 31.9371 91.3373 32.8773V37.868C91.247 37.9019 90.634 38.0486 90.303 38.0486C90.1563 38.0486 90.1112 38.0147 90.021 37.9019C89.4305 37.0632 88.8062 36.1079 87.9788 34.8744C87.3319 33.8514 86.922 33.1481 86.4707 32.2756C86.5158 33.4678 86.5158 34.0695 86.5158 34.6487V37.6311C86.5158 37.868 86.4481 37.9019 86.2789 37.9357C86.0871 37.9696 85.7899 37.9922 85.474 37.9809C85.4966 37.5258 85.5079 36.8676 85.5079 35.9161V31.1962L85.2822 30.9254Z" fill="#B68A35"/>
<path d="M94.0248 35.8146C93.7314 36.5743 93.3779 37.4694 93.2199 37.8342C93.1748 37.9245 93.0958 37.9809 92.9491 37.9809C92.7122 37.9809 92.3248 37.9132 92.0992 37.8342L92.0879 37.7891C92.6896 36.4051 94.4836 32.1515 94.8898 31.1737L94.7995 30.9254C95.1982 30.8352 95.7849 30.79 95.9127 30.79C96.0256 30.79 96.1158 30.8577 96.1722 30.9931C96.695 32.2305 97.5562 34.4757 97.9436 35.4648C98.41 36.6232 98.6807 37.3265 98.8951 37.8003L98.8838 37.8455C98.6469 37.9357 97.9323 37.9809 97.6803 37.9809C97.5111 37.9809 97.4321 37.9245 97.3155 37.6048C97.1012 37.0369 96.9282 36.5367 96.6348 35.8108H94.0248V35.8146ZM96.3979 35.0098C95.8525 33.5581 95.4802 32.6028 95.3523 32.3094C95.059 33.0691 94.7506 33.8853 94.3181 35.0098H96.3941H96.3979Z" fill="#B68A35"/>
<path d="M99.6149 32.3433C99.6149 31.5836 99.6036 31.1172 99.5811 30.8803C99.818 30.8465 100.341 30.79 100.751 30.79C100.942 30.79 100.976 30.8916 100.976 31.4482V37.0745C101.134 37.1196 101.601 37.1535 102.011 37.1535C102.477 37.1535 103.169 37.1535 103.703 37.0971L103.726 37.1196C103.669 37.4506 103.477 37.7665 103.192 37.9245C103.034 37.9583 102.646 37.9809 101.796 37.9809C100.867 37.9809 100.059 37.9245 99.7766 37.868L99.6187 37.6537V32.3433H99.6149Z" fill="#B68A35"/>
<path d="M111.952 30.948C112.11 30.8577 112.825 30.79 113.077 30.79C113.189 30.79 113.257 30.8577 113.291 31.1323L113.893 35.3069C114.062 36.4991 114.197 37.3378 114.303 37.8831C114.122 37.9395 113.441 37.9846 113.212 37.9846C113.077 37.9846 112.941 37.9282 112.919 37.7138C112.84 37.1234 112.772 36.5216 112.648 35.3407L112.298 32.4035C111.967 33.4039 111.264 35.3407 110.504 37.4769C110.436 37.6913 110.357 37.7815 110.117 37.8417C109.925 37.8756 109.673 37.9207 109.459 37.9207C109.188 37.0143 108.142 33.9492 107.619 32.4298C107.439 33.8702 107.074 36.5367 106.894 37.8192C106.871 37.9545 106.815 37.9884 106.702 37.9884C106.408 37.9884 105.965 37.9884 105.784 37.8868C105.999 36.7172 106.431 33.7574 106.92 31.1699L106.875 30.9555C107.146 30.8878 107.522 30.7976 108.033 30.7976C108.202 30.854 108.293 31.0345 108.522 31.6362L110.109 35.9951C110.7 34.3967 111.493 32.2831 111.971 31.1285L111.96 30.9593L111.952 30.948Z" fill="#B68A35"/>
<path d="M115.3 32.4216C115.3 31.8875 115.3 31.4701 115.267 30.9924C115.571 30.9247 116.038 30.8458 116.481 30.8345H119.193C119.125 31.3234 119.012 31.4588 118.888 31.5942C118.719 31.6619 118.343 31.6619 117.854 31.6619H116.662V33.8507H119.08C119.012 34.5089 118.753 34.6781 118.354 34.6781H116.662V37.0738C116.91 37.1302 117.297 37.1528 117.741 37.1528C118.208 37.1528 118.967 37.1528 119.501 37.0964L119.513 37.1189C119.422 37.5627 119.231 37.7771 118.945 37.9238C118.798 37.9576 118.275 37.9802 117.414 37.9802C116.485 37.9802 115.748 37.9238 115.462 37.8673L115.304 37.653V32.4216H115.3Z" fill="#B68A35"/>
<path d="M120.259 32.2757C120.259 31.5047 120.248 31.2753 120.236 30.9932C120.473 30.9143 121.665 30.7676 122.561 30.7676C125.964 30.7676 126.555 32.8436 126.555 34.284C126.555 36.691 124.851 38.0299 122.538 38.0299C121.733 38.0299 120.985 37.9396 120.259 37.8155V32.2795V32.2757ZM121.62 37.1536C121.88 37.2213 122.188 37.2438 122.538 37.2438C123.674 37.2438 125.103 36.6872 125.103 34.284C125.103 32.5352 124.129 31.5611 122.391 31.5611C122.015 31.5611 121.801 31.5837 121.62 31.6175V37.1536Z" fill="#B68A35"/>
<path d="M127.59 32.3207C127.59 31.561 127.579 31.0947 127.557 30.8803C127.748 30.8465 128.497 30.79 128.726 30.79C128.918 30.79 128.952 30.8916 128.952 31.4031V36.4991C128.952 37.2926 128.974 37.6687 128.986 37.8944C128.805 37.9508 128.079 37.9846 127.827 37.9846C127.669 37.9846 127.59 37.9508 127.59 37.759V32.3245V32.3207Z" fill="#B68A35"/>
<path d="M131.622 35.8146C131.329 36.5743 130.976 37.4694 130.818 37.8342C130.772 37.9245 130.693 37.9809 130.547 37.9809C130.31 37.9809 129.922 37.9132 129.697 37.8342L129.686 37.7891C130.287 36.4051 132.081 32.1515 132.487 31.1737L132.397 30.9254C132.796 30.8352 133.383 30.79 133.51 30.79C133.623 30.79 133.713 30.8577 133.77 30.9931C134.293 32.2305 135.154 34.4757 135.541 35.4648C136.008 36.6232 136.278 37.3265 136.493 37.8003L136.481 37.8455C136.245 37.9357 135.53 37.9809 135.278 37.9809C135.109 37.9809 135.03 37.9245 134.913 37.6048C134.699 37.0369 134.526 36.5367 134.232 35.8108H131.622V35.8146ZM133.996 35.0098C133.45 33.5581 133.078 32.6028 132.95 32.3094C132.657 33.0691 132.348 33.8853 131.916 35.0098H133.992H133.996Z" fill="#B68A35"/>
<path d="M142.263 30.6504C144.749 30.6504 145.915 32.4443 145.915 34.3022C145.915 36.3557 144.678 38.0819 142.297 38.0819C139.664 38.0819 138.634 36.1526 138.634 34.4188C138.634 32.2864 139.995 30.6504 142.252 30.6504H142.263ZM142.173 31.4327C140.992 31.4327 140.085 32.3954 140.085 34.3022C140.085 36.209 141.154 37.2997 142.376 37.2997C143.67 37.2997 144.463 36.2541 144.463 34.4075C144.463 32.5609 143.5 31.4364 142.184 31.4364H142.173V31.4327Z" fill="#B68A35"/>
<path d="M146.95 32.2078C146.95 31.7076 146.939 31.3917 146.916 31.0043C147.119 30.9479 147.755 30.8577 148.232 30.8351C148.665 30.8238 150.511 30.8351 151.045 30.8351C150.955 31.324 150.831 31.4594 150.681 31.6061C150.534 31.6625 150.316 31.6625 149.831 31.6625H148.311V34.0807H150.809C150.718 34.863 150.432 34.9081 150.015 34.9081H148.311C148.311 36.0665 148.323 37.0406 148.345 37.8905C148.165 37.9469 147.608 37.9808 147.187 37.9808C147.029 37.9808 146.95 37.9469 146.95 37.7664V32.2078Z" fill="#B68A35"/>
<path d="M151.764 32.2078C151.764 31.7076 151.753 31.3917 151.73 31.0043C151.934 30.9479 152.569 30.8577 153.047 30.8351C153.479 30.8238 155.326 30.8351 155.86 30.8351C155.77 31.324 155.646 31.4594 155.495 31.6061C155.348 31.6625 155.13 31.6625 154.645 31.6625H153.126V34.0807H155.623C155.533 34.863 155.247 34.9081 154.829 34.9081H153.126C153.126 36.0665 153.137 37.0406 153.16 37.8905C152.979 37.9469 152.422 37.9808 152.001 37.9808C151.843 37.9808 151.764 37.9469 151.764 37.7664V32.2078Z" fill="#B68A35"/>
<path d="M156.576 32.3207C156.576 31.561 156.565 31.0947 156.542 30.8803C156.734 30.8465 157.482 30.79 157.712 30.79C157.903 30.79 157.937 30.8916 157.937 31.4031V36.4991C157.937 37.2926 157.96 37.6687 157.971 37.8944C157.791 37.9508 157.065 37.9846 156.813 37.9846C156.655 37.9846 156.576 37.9508 156.576 37.759V32.3245V32.3207Z" fill="#B68A35"/>
<path d="M164.952 36.9167C164.952 37.1762 164.783 37.5748 164.576 37.7215C164.294 37.9133 163.692 38.0863 162.944 38.0863C160.379 38.0863 158.983 36.5895 158.983 34.4458C158.983 32.1215 160.732 30.6548 162.977 30.6548C164.091 30.6548 164.862 31.0196 165.042 31.2227C165.087 31.4596 164.884 31.8357 164.644 31.8921C164.211 31.7003 163.681 31.5386 162.977 31.5386C161.616 31.5386 160.435 32.4788 160.435 34.3517C160.435 35.9501 161.42 37.1536 163.26 37.1536C164.008 37.1536 164.644 37.0069 164.941 36.8941L164.952 36.9167Z" fill="#B68A35"/>
<path d="M165.791 32.4216C165.791 31.8875 165.791 31.4701 165.757 30.9924C166.061 30.9247 166.528 30.8458 166.972 30.8345H169.683C169.616 31.3234 169.503 31.4588 169.379 31.5942C169.209 31.6619 168.833 31.6619 168.344 31.6619H167.152V33.8507H169.57C169.503 34.5089 169.243 34.6781 168.845 34.6781H167.152V37.0738C167.4 37.1302 167.788 37.1528 168.232 37.1528C168.698 37.1528 169.458 37.1528 169.992 37.0964L170.003 37.1189C169.913 37.5627 169.721 37.7771 169.435 37.9238C169.288 37.9576 168.766 37.9802 167.904 37.9802C166.975 37.9802 166.238 37.9238 165.952 37.8673L165.794 37.653V32.4216H165.791Z" fill="#B68A35"/>
<defs>
<linearGradient id="paint0_linear_1_573" x1="4.46484" y1="49.4367" x2="38.2791" y2="49.4367" gradientUnits="userSpaceOnUse">
<stop stop-color="#DB0027"/>
<stop offset="0.14" stop-color="#DB0329"/>
<stop offset="0.25" stop-color="#DC0D32"/>
<stop offset="0.35" stop-color="#DF1E40"/>
<stop offset="0.45" stop-color="#E23554"/>
<stop offset="0.52" stop-color="#E64C68"/>
<stop offset="0.58" stop-color="#E23453"/>
<stop offset="0.67" stop-color="#DF1D40"/>
<stop offset="0.76" stop-color="#DC0C32"/>
<stop offset="0.87" stop-color="#DB0329"/>
<stop offset="1" stop-color="#DB0027"/>
</linearGradient>
<linearGradient id="paint1_linear_1_573" x1="36.1564" y1="32.3626" x2="37.83" y2="28.3798" gradientUnits="userSpaceOnUse">
<stop stop-color="white"/>
<stop offset="1" stop-color="#BD8913"/>
</linearGradient>
<linearGradient id="paint2_linear_1_573" x1="6.5382" y1="32.3626" x2="4.8646" y2="28.3798" gradientUnits="userSpaceOnUse">
<stop stop-color="white"/>
<stop offset="1" stop-color="#BD8913"/>
</linearGradient>
<linearGradient id="paint3_linear_1_573" x1="21.347" y1="44.3105" x2="21.347" y2="33.1557" gradientUnits="userSpaceOnUse">
<stop stop-color="white"/>
<stop offset="0.16" stop-color="#F9F9F9"/>
<stop offset="0.36" stop-color="#E9E9E9"/>
<stop offset="0.59" stop-color="#CFCFCF"/>
<stop offset="0.84" stop-color="#ABABAB"/>
<stop offset="1" stop-color="#8F8F8F"/>
</linearGradient>
<linearGradient id="paint4_linear_1_573" x1="35.7793" y1="27.1087" x2="37.6635" y2="23.2237" gradientUnits="userSpaceOnUse">
<stop stop-color="white"/>
<stop offset="0.16" stop-color="#F9F9F9"/>
<stop offset="0.36" stop-color="#E9E9E9"/>
<stop offset="0.59" stop-color="#CFCFCF"/>
<stop offset="0.84" stop-color="#ABABAB"/>
<stop offset="1" stop-color="#8F8F8F"/>
</linearGradient>
<linearGradient id="paint5_linear_1_573" x1="37.0714" y1="37.9135" x2="39.1173" y2="35.5328" gradientUnits="userSpaceOnUse">
<stop stop-color="white"/>
<stop offset="0.16" stop-color="#F9F9F9"/>
<stop offset="0.36" stop-color="#E9E9E9"/>
<stop offset="0.59" stop-color="#CFCFCF"/>
<stop offset="0.84" stop-color="#ABABAB"/>
<stop offset="1" stop-color="#8F8F8F"/>
</linearGradient>
<linearGradient id="paint6_linear_1_573" x1="6.91606" y1="27.1087" x2="5.02809" y2="23.2237" gradientUnits="userSpaceOnUse">
<stop stop-color="white"/>
<stop offset="0.16" stop-color="#F9F9F9"/>
<stop offset="0.36" stop-color="#E9E9E9"/>
<stop offset="0.59" stop-color="#CFCFCF"/>
<stop offset="0.84" stop-color="#ABABAB"/>
<stop offset="1" stop-color="#8F8F8F"/>
</linearGradient>
<linearGradient id="paint7_linear_1_573" x1="5.62231" y1="37.9135" x2="3.57638" y2="35.5328" gradientUnits="userSpaceOnUse">
<stop stop-color="white"/>
<stop offset="0.16" stop-color="#F9F9F9"/>
<stop offset="0.36" stop-color="#E9E9E9"/>
<stop offset="0.59" stop-color="#CFCFCF"/>
<stop offset="0.84" stop-color="#ABABAB"/>
<stop offset="1" stop-color="#8F8F8F"/>
</linearGradient>
<linearGradient id="paint8_linear_1_573" x1="9.00673" y1="36.5557" x2="15.3514" y2="30.1547" gradientUnits="userSpaceOnUse">
<stop stop-color="white"/>
<stop offset="0.01" stop-color="#FEFDFC"/>
<stop offset="0.38" stop-color="#E2CC99"/>
<stop offset="0.68" stop-color="#CEA851"/>
<stop offset="0.89" stop-color="#C19124"/>
<stop offset="1" stop-color="#BD8913"/>
</linearGradient>
<linearGradient id="paint9_linear_1_573" x1="33.2461" y1="37.0221" x2="27.4242" y2="30.2337" gradientUnits="userSpaceOnUse">
<stop stop-color="white"/>
<stop offset="0.01" stop-color="#FEFDFC"/>
<stop offset="0.38" stop-color="#E2CC99"/>
<stop offset="0.68" stop-color="#CEA851"/>
<stop offset="0.89" stop-color="#C19124"/>
<stop offset="1" stop-color="#BD8913"/>
</linearGradient>
<linearGradient id="paint10_linear_1_573" x1="-0.843202" y1="10.15" x2="7.40068" y2="16.0395" gradientUnits="userSpaceOnUse">
<stop stop-color="white"/>
<stop offset="0.09" stop-color="#FBF9F4"/>
<stop offset="0.25" stop-color="#F3EBD7"/>
<stop offset="0.46" stop-color="#E6D3A8"/>
<stop offset="0.71" stop-color="#D4B367"/>
<stop offset="0.99" stop-color="#BD8A15"/>
<stop offset="1" stop-color="#BD8913"/>
</linearGradient>
<linearGradient id="paint11_linear_1_573" x1="31.4991" y1="7.98808" x2="27.5953" y2="15.367" gradientUnits="userSpaceOnUse">
<stop stop-color="white"/>
<stop offset="0.02" stop-color="#FCF9F4"/>
<stop offset="0.18" stop-color="#EBDCB9"/>
<stop offset="0.33" stop-color="#DDC286"/>
<stop offset="0.48" stop-color="#D1AE5D"/>
<stop offset="0.62" stop-color="#C89D3C"/>
<stop offset="0.76" stop-color="#C29225"/>
<stop offset="0.89" stop-color="#BE8B17"/>
<stop offset="1" stop-color="#BD8913"/>
</linearGradient>
<linearGradient id="paint12_linear_1_573" x1="18.7706" y1="4.51304" x2="18.3644" y2="2.65892" gradientUnits="userSpaceOnUse">
<stop stop-color="white"/>
<stop offset="1" stop-color="#000100"/>
</linearGradient>
<linearGradient id="paint13_linear_1_573" x1="14.6074" y1="21.591" x2="27.9924" y2="21.591" gradientUnits="userSpaceOnUse">
<stop offset="0.01" stop-color="#D9D9D9"/>
<stop offset="0.08" stop-color="#E6E6E6"/>
<stop offset="0.18" stop-color="#F4F4F4"/>
<stop offset="0.32" stop-color="#FCFCFC"/>
<stop offset="0.54" stop-color="white"/>
<stop offset="0.67" stop-color="#FBFBFB"/>
<stop offset="0.78" stop-color="#EFEFEF"/>
<stop offset="0.9" stop-color="#DCDCDC"/>
<stop offset="0.97" stop-color="#CCCCCC"/>
</linearGradient>
<linearGradient id="paint14_linear_1_573" x1="22.6033" y1="21.6398" x2="18.3196" y2="24.3175" gradientUnits="userSpaceOnUse">
<stop stop-color="white"/>
<stop offset="0.63" stop-color="#CCCCCC"/>
</linearGradient>
</defs>
</svg>
