<svg width="22" height="22" viewBox="0 0 22 22" fill="none" xmlns="http://www.w3.org/2000/svg">
<path d="M16.2784 12.6399C16.2355 12.6193 14.6316 11.8295 14.3466 11.7269C14.2303 11.6851 14.1056 11.6444 13.9731 11.6444C13.7565 11.6444 13.5746 11.7523 13.4328 11.9643C13.2726 12.2024 12.7876 12.7694 12.6378 12.9387C12.6182 12.9611 12.5915 12.9878 12.5755 12.9878C12.5611 12.9878 12.3129 12.8856 12.2378 12.8529C10.5173 12.1056 9.21135 10.3084 9.03227 10.0053C9.0067 9.96172 9.00563 9.94193 9.00542 9.94193C9.0117 9.91886 9.06956 9.86086 9.09942 9.83093C9.18678 9.7445 9.28142 9.63057 9.37299 9.52036C9.41635 9.46815 9.45978 9.41586 9.50242 9.36657C9.63528 9.212 9.69442 9.092 9.76299 8.953L9.79892 8.88079C9.96635 8.54814 9.82335 8.26743 9.77713 8.17679C9.7392 8.10093 9.06199 6.4665 8.98999 6.29479C8.81685 5.88043 8.58806 5.6875 8.27013 5.6875C8.24063 5.6875 8.27013 5.6875 8.14642 5.69271C7.99577 5.69907 7.17542 5.80707 6.8127 6.03571C6.42806 6.27821 5.77734 7.05122 5.77734 8.41065C5.77734 9.63415 6.55377 10.7894 6.88713 11.2287C6.89542 11.2398 6.91063 11.2623 6.9327 11.2946C8.20935 13.159 9.80085 14.5407 11.4142 15.1852C12.9674 15.8056 13.7029 15.8774 14.1211 15.8774H14.1211C14.2969 15.8774 14.4375 15.8636 14.5616 15.8514L14.6403 15.8439C15.1769 15.7963 16.356 15.1853 16.6242 14.4399C16.8355 13.8529 16.8912 13.2114 16.7506 12.9786C16.6544 12.8204 16.4884 12.7407 16.2784 12.6399Z" fill="black"/>
<path d="M11.1953 0C5.23699 0 0.389555 4.811 0.389555 10.7245C0.389555 12.6372 0.901413 14.5094 1.87106 16.1479L0.0151263 21.6226C-0.0194452 21.7247 0.00626913 21.8375 0.0817692 21.9144C0.136269 21.97 0.210198 22 0.285698 22C0.314627 22 0.343769 21.9957 0.372198 21.9866L6.08077 20.1726C7.64292 21.0072 9.40849 21.4478 11.1953 21.4478C17.1531 21.4479 22 16.6374 22 10.7245C22 4.811 17.1531 0 11.1953 0ZM11.1953 19.2139C9.51392 19.2139 7.88542 18.7284 6.48556 17.8098C6.43849 17.7789 6.38385 17.763 6.32885 17.763C6.29977 17.763 6.27063 17.7674 6.24227 17.7764L3.38263 18.6854L4.30577 15.9619C4.33563 15.8738 4.3207 15.7766 4.2657 15.7014C3.1997 14.2449 2.6362 12.5239 2.6362 10.7245C2.6362 6.04286 6.47577 2.234 11.1952 2.234C15.9141 2.234 19.7532 6.04286 19.7532 10.7245C19.7533 15.4056 15.9142 19.2139 11.1953 19.2139Z" fill="black"/>
</svg>
